<svg id="Layer_1" data-name="Layer 1" xmlns="http://www.w3.org/2000/svg" viewBox="0 0 359.66 248.42"><defs><style>.cls-1{fill:#242424;}</style></defs><path class="cls-1" d="M74.88,96.6H96.29V89.51A7.48,7.48,0,0,1,103.77,82h29.68a7.48,7.48,0,0,1,7.48,7.48V96.6h14.92a134.29,134.29,0,0,0,10.54,233.7H74.88a13.44,13.44,0,0,1-13.44-13.44V110A13.44,13.44,0,0,1,74.88,96.6Z" transform="translate(-61.44 -82.03)"/><path class="cls-1" d="M361.53,210.46A134.4,134.4,0,0,0,298.41,96.6H407.66A13.44,13.44,0,0,1,421.1,110V316.86a13.44,13.44,0,0,1-13.44,13.44H287.87A134.52,134.52,0,0,0,361.53,210.46Z" transform="translate(-61.44 -82.03)"/><path class="cls-1" d="M227.13,330.45a120,120,0,1,0-120-120A120.12,120.12,0,0,0,227.13,330.45ZM131.32,198.77a96.52,96.52,0,1,1,84.11,107.5A96.52,96.52,0,0,1,131.32,198.77Z" transform="translate(-61.44 -82.03)"/><path class="cls-1" d="M167.83,185.61a19,19,0,0,0,9.41-35.47,78.19,78.19,0,1,1-22.41,30.29A18.86,18.86,0,0,0,167.83,185.61Z" transform="translate(-61.44 -82.03)"/></svg>