<svg id="Layer_1" data-name="Layer 1" xmlns="http://www.w3.org/2000/svg" viewBox="0 0 2000 1200"><defs><style>.cls-1{fill:#fff;}</style></defs><rect width="200" height="200"/><rect class="cls-1" y="200" width="200" height="200"/><rect class="cls-1" x="200" width="200" height="200"/><rect x="400" width="200" height="200"/><rect class="cls-1" x="600" width="200" height="200"/><rect x="800" width="200" height="200"/><rect class="cls-1" x="1000" width="200" height="200"/><rect x="1200" width="200" height="200"/><rect x="200" y="200" width="200" height="200"/><rect class="cls-1" x="400" y="200" width="200" height="200"/><rect x="600" y="200" width="200" height="200"/><rect class="cls-1" x="800" y="200" width="200" height="200"/><rect x="1000" y="200" width="200" height="200"/><rect class="cls-1" x="1200" y="200" width="200" height="200"/><rect y="400" width="200" height="200"/><rect class="cls-1" y="600" width="200" height="200"/><rect class="cls-1" x="200" y="400" width="200" height="200"/><rect x="400" y="400" width="200" height="200"/><rect class="cls-1" x="600" y="400" width="200" height="200"/><rect x="800" y="400" width="200" height="200"/><rect class="cls-1" x="1000" y="400" width="200" height="200"/><rect x="1200" y="400" width="200" height="200"/><rect x="200" y="600" width="200" height="200"/><rect class="cls-1" x="400" y="600" width="200" height="200"/><rect x="600" y="600" width="200" height="200"/><rect class="cls-1" x="800" y="600" width="200" height="200"/><rect x="1000" y="600" width="200" height="200"/><rect class="cls-1" x="1200" y="600" width="200" height="200"/><rect y="800" width="200" height="200"/><rect class="cls-1" x="1400" width="200" height="200"/><rect x="1400" y="200" width="200" height="200"/><rect class="cls-1" y="1000" width="200" height="200"/><rect x="200" y="1000" width="200" height="200"/><rect class="cls-1" x="400" y="1000" width="200" height="200"/><rect x="600" y="1000" width="200" height="200"/><rect class="cls-1" x="800" y="1000" width="200" height="200"/><rect x="1000" y="1000" width="200" height="200"/><rect class="cls-1" x="1200" y="1000" width="200" height="200"/><rect x="1400" y="1000" width="200" height="200"/><rect class="cls-1" x="1400" y="400" width="200" height="200"/><rect x="1400" y="600" width="200" height="200"/><rect class="cls-1" x="1400" y="800" width="200" height="200"/><rect class="cls-1" x="200" y="800" width="200" height="200"/><rect x="1600" width="200" height="200"/><rect class="cls-1" x="1600" y="200" width="200" height="200"/><rect class="cls-1" x="1800" width="200" height="200"/><rect x="1800" y="200" width="200" height="200"/><rect x="1600" y="400" width="200" height="200"/><rect class="cls-1" x="1600" y="600" width="200" height="200"/><rect class="cls-1" x="1800" y="400" width="200" height="200"/><rect x="1800" y="600" width="200" height="200"/><rect x="1600" y="800" width="200" height="200"/><rect class="cls-1" x="1600" y="1000" width="200" height="200"/><rect x="1800" y="1000" width="200" height="200"/><rect class="cls-1" x="1800" y="800" width="200" height="200"/><rect x="400" y="800" width="200" height="200"/><rect class="cls-1" x="600" y="800" width="200" height="200"/><rect x="800" y="800" width="200" height="200"/><rect class="cls-1" x="1000" y="800" width="200" height="200"/><rect x="1200" y="800" width="200" height="200"/></svg>