<?xml version="1.0" encoding="utf-8"?>
<!-- Generator: Adobe Illustrator 25.4.1, SVG Export Plug-In . SVG Version: 6.00 Build 0)  -->
<svg version="1.1" xmlns="http://www.w3.org/2000/svg" xmlns:xlink="http://www.w3.org/1999/xlink" x="0px" y="0px"
	 viewBox="0 0 97.84 95.35" style="enable-background:new 0 0 97.84 95.35;" xml:space="preserve">
<style type="text/css">
	.st0{fill:#ED4798;}
	.st1{fill:#25A9E0;}
	.st2{fill:#FAAF40;}
	.st3{fill:#FFFFFF;}
	.st4{fill:#D0D2D3;}
	.st5{fill:#6D6E70;}
	.st6{fill:#231F20;}
</style>
<g id="Background">
	<g>
		<path class="st0" d="M61.31,20.52c-2.53,4.02-7.01,6.7-12.12,6.7c-4.08,0-7.76-1.71-10.36-4.45c2.25,1.9,5.15,3.04,8.32,3.04
			c5.89,0,10.86-3.95,12.4-9.35c-2.07-1.58-3.4-4.06-3.4-6.86c0-1.65,0.46-3.19,1.27-4.5C55.06,2,51.33,0,47.14,0
			c-7.13,0-12.9,5.78-12.9,12.9c0,0.04,0,0.08,0,0.12C15,15.04,0,31.3,0,51.08c0,21.13,17.13,38.27,38.27,38.27
			c21.14,0,38.27-17.13,38.27-38.27C76.54,38.59,70.56,27.5,61.31,20.52z"/>
		<path class="st1" d="M84.86,55.38c0,14.65-11.88,26.53-26.53,26.53c-14.65,0-26.53-11.88-26.53-26.53
			c0-14.65,11.88-26.53,26.53-26.53C72.98,28.85,84.86,40.72,84.86,55.38z"/>
		<path class="st2" d="M54.64,68.09c0,15.06-12.21,27.27-27.27,27.27c-15.06,0-27.27-12.21-27.27-27.27
			c0-15.06,12.21-27.27,27.27-27.27C42.44,40.82,54.64,53.03,54.64,68.09z"/>
		<path class="st3" d="M72.24,62.19c0,15-12.16,27.16-27.16,27.16c-15,0-27.16-12.16-27.16-27.16c0-15,12.16-27.16,27.16-27.16
			C60.08,35.03,72.24,47.19,72.24,62.19z"/>
		<path class="st4" d="M45.08,82.65c-11.28,0-20.47-9.18-20.47-20.47c0-11.28,9.18-20.47,20.47-20.47
			c11.29,0,20.47,9.18,20.47,20.47C65.54,73.47,56.36,82.65,45.08,82.65z"/>
		<path class="st3" d="M45.08,77.63c-8.52,0-15.44-6.93-15.44-15.44c0-8.52,6.93-15.45,15.44-15.45c8.52,0,15.44,6.93,15.44,15.45
			C60.52,70.7,53.59,77.63,45.08,77.63z"/>
		<path class="st5" d="M45.08,75.44c-7.31,0-13.25-5.95-13.25-13.25c0-7.31,5.95-13.25,13.25-13.25c7.31,0,13.25,5.95,13.25,13.25
			C58.33,69.5,52.39,75.44,45.08,75.44z"/>
		<path class="st6" d="M45.08,69c-3.75,0-6.81-3.06-6.81-6.81c0-3.76,3.06-6.81,6.81-6.81c3.75,0,6.81,3.06,6.81,6.81
			C51.89,65.94,48.83,69,45.08,69z"/>
		<path class="st3" d="M44.1,57.23c0,1.73-1.41,3.14-3.14,3.14c-1.73,0-3.14-1.4-3.14-3.14c0-1.73,1.41-3.14,3.14-3.14
			C42.69,54.09,44.1,55.5,44.1,57.23z"/>
		<path class="st3" d="M50.58,67.55c0,0.97-0.79,1.76-1.76,1.76c-0.97,0-1.76-0.79-1.76-1.76c0-0.97,0.79-1.76,1.76-1.76
			C49.79,65.79,50.58,66.58,50.58,67.55z"/>
		<path class="st2" d="M82.33,18.92c0,2.79-2.26,5.04-5.05,5.04c-2.79,0-5.04-2.26-5.04-5.04c0-2.79,2.26-5.04,5.04-5.04
			C80.07,13.88,82.33,16.14,82.33,18.92z"/>
		<path class="st0" d="M97.84,4.06c0,2.19-1.77,3.96-3.96,3.96c-2.19,0-3.96-1.77-3.96-3.96c0-2.19,1.77-3.96,3.96-3.96
			C96.06,0.09,97.84,1.87,97.84,4.06z"/>
		<path class="st1" d="M94.95,19.3c0,1.85-1.5,3.35-3.35,3.35s-3.35-1.5-3.35-3.35c0-1.85,1.5-3.34,3.35-3.34
			S94.95,17.45,94.95,19.3z"/>
		<path class="st0" d="M71.44,9.6c0,3.68-2.98,6.66-6.66,6.66c-3.68,0-6.66-2.98-6.66-6.66c0-3.68,2.98-6.66,6.66-6.66
			C68.45,2.94,71.44,5.92,71.44,9.6z"/>
	</g>
</g>
<g id="Design">
</g>
</svg>
