<?xml version="1.0" encoding="utf-8"?>
<!-- Generator: Adobe Illustrator 26.0.1, SVG Export Plug-In . SVG Version: 6.00 Build 0)  -->
<svg version="1.1" id="Vrstva_1" xmlns="http://www.w3.org/2000/svg" xmlns:xlink="http://www.w3.org/1999/xlink" x="0px" y="0px"
	 viewBox="0 0 86.37 45.44" style="enable-background:new 0 0 86.37 45.44;" xml:space="preserve">
<style type="text/css">
	.st0{fill:url(#SVGID_1_);}
	.st1{fill:url(#SVGID_00000119840173775860583480000008815692226773541769_);}
	.st2{fill:url(#SVGID_00000017496972657030949500000012049916346179586979_);}
	.st3{fill:url(#SVGID_00000093894089906718781030000004504558388702807471_);}
	.st4{fill:url(#SVGID_00000101818094265306582130000000622301344496346284_);}
	.st5{fill:url(#SVGID_00000047752970395229608960000016771409266576498061_);}
	.st6{fill:url(#SVGID_00000037650515670438868850000004253076715388796597_);}
	.st7{fill:url(#SVGID_00000181783705518078357360000008236398665461465767_);}
	.st8{fill:url(#SVGID_00000150079722045039124450000015838383624240733851_);}
	.st9{fill:url(#SVGID_00000058554466407864660640000010893131229154817924_);}
	.st10{fill:url(#SVGID_00000108992830762606896040000006109127558846852516_);}
	.st11{fill:url(#SVGID_00000170999054791901199890000007457812148182965921_);}
	.st12{fill:url(#SVGID_00000082346033792170031510000009048615868941771423_);}
	.st13{fill:url(#SVGID_00000119837945613674107900000016500127307607424404_);}
	.st14{fill:url(#SVGID_00000049211131305328759390000005847091212092247453_);}
	.st15{fill:url(#SVGID_00000087400943578987445260000012622429724780803518_);}
	.st16{fill:url(#SVGID_00000088122213513611980480000017995014297601372311_);}
	.st17{fill:#FFFFFF;}
</style>
<g>
	<g>
		<linearGradient id="SVGID_1_" gradientUnits="userSpaceOnUse" x1="21.0959" y1="1.2545" x2="63.2177" y2="43.3764">
			<stop  offset="0" style="stop-color:#FF9D00"/>
			<stop  offset="1" style="stop-color:#00ACFF"/>
		</linearGradient>
		<path class="st0" d="M64.75,27.59C64.75,27.59,64.75,27.59,64.75,27.59c-0.01,0-0.01,0-0.02,0c-2.24,0-4.05-1.81-4.05-4.05
			s1.81-4.05,4.05-4.05c0.03,0,0.05,0,0.08,0c0,0,0,0,0,0c1.44-0.01,2.61-1.18,2.61-2.62c0-1.45-1.17-2.62-2.62-2.62
			c-0.48,0-0.93,0.13-1.31,0.35c-0.03,0.02-0.06,0.04-0.1,0.06c-0.01,0-0.02,0.01-0.02,0.01l0,0c-0.41,0.23-0.88,0.36-1.38,0.36
			c-1.54,0-2.8-1.25-2.8-2.8c0-1.01,0.53-1.89,1.33-2.38c0,0,0,0,0,0c0.63-0.4,1.05-1.1,1.05-1.9c0-1.24-1.01-2.25-2.25-2.25
			c-0.17,0-0.33,0.02-0.49,0.06c-0.03,0.01-0.06,0.01-0.1,0.02c-0.02,0-0.03,0.01-0.04,0.01c-0.03,0.01-0.06,0.02-0.08,0.03
			c-0.67,0.22-1.25,0.5-2.88-0.54c0,0-0.01,0-0.01-0.01c-3.58-2.51-7.94-3.98-12.64-3.98c-3.2,0-6.24,0.68-8.98,1.9
			c-0.01,0.01-0.02,0.01-0.03,0.01c-2.34,1.03-2.97,0.27-4.07-0.36c0,0,0,0,0,0c-0.42-0.27-0.92-0.43-1.46-0.43
			c-1.49,0-2.7,1.21-2.7,2.7c0,1.09,0.65,2.03,1.58,2.45c0.06,0.03,0.12,0.05,0.18,0.07c0.02,0.01,0.05,0.02,0.07,0.03
			c1.46,0.64,2.49,2.1,2.49,3.79c0,2.29-1.85,4.14-4.14,4.14c-1.2,0-2.29-0.51-3.04-1.34c0,0,0,0,0,0c-0.1-0.11-0.19-0.22-0.28-0.34
			c-1.04-1.15-2.54-1.88-4.21-1.88c-3.13,0-5.66,2.53-5.66,5.66s2.53,5.66,5.66,5.66c0.79,0,1.55-0.16,2.23-0.46
			c0.1-0.05,0.19-0.1,0.3-0.14c0.01,0,0.01-0.01,0.02-0.01c0,0,0,0,0,0c0.48-0.2,1-0.31,1.55-0.31c2.26,0,4.1,1.83,4.1,4.1
			c0,2.26-1.83,4.1-4.1,4.1c-0.11,0-0.22-0.01-0.33-0.01c0,0,0,0,0,0c-0.03,0-0.07,0-0.1,0c-1.46,0-2.64,1.18-2.64,2.64
			c0,1.46,1.18,2.64,2.64,2.64c0.15,0,0.29-0.01,0.43-0.04c0,0,0,0,0,0c2.07-0.21,2.49,0.24,2.95,0.85
			c0.02,0.03,0.04,0.05,0.06,0.08c4.04,5.25,10.38,8.63,17.51,8.63c7.28,0,13.73-3.52,17.75-8.96c0.95,0.98,2.29,1.59,3.76,1.59
			c2.9,0,5.25-2.35,5.25-5.25C69.84,29.99,67.58,27.67,64.75,27.59z"/>
		
			<linearGradient id="SVGID_00000168831741185808127500000014829799672261063829_" gradientUnits="userSpaceOnUse" x1="36.0571" y1="-13.7071" x2="78.1792" y2="28.415">
			<stop  offset="0" style="stop-color:#FF9D00"/>
			<stop  offset="1" style="stop-color:#00ACFF"/>
		</linearGradient>
		<path style="fill:url(#SVGID_00000168831741185808127500000014829799672261063829_);" d="M60.09,12.23c0,1.05,0.85,1.9,1.9,1.9
			c0.37,0,0.72-0.11,1.01-0.29c0.54-0.34,0.89-0.93,0.89-1.61c0-1.05-0.85-1.9-1.9-1.9c-0.34,0-0.65,0.09-0.92,0.24
			C60.49,10.89,60.09,11.51,60.09,12.23z"/>
		
			<linearGradient id="SVGID_00000061435119320638572180000008247868706271988103_" gradientUnits="userSpaceOnUse" x1="32.7947" y1="-10.4448" x2="74.9168" y2="31.6773">
			<stop  offset="0" style="stop-color:#FF9D00"/>
			<stop  offset="1" style="stop-color:#00ACFF"/>
		</linearGradient>
		<path style="fill:url(#SVGID_00000061435119320638572180000008247868706271988103_);" d="M67.88,20.97
			c-0.38-0.2-0.81-0.32-1.27-0.32c-0.58,0-1.12,0.18-1.56,0.49c-0.7,0.49-1.15,1.3-1.15,2.22c0,0.92,0.45,1.73,1.15,2.22
			c0.44,0.31,0.98,0.49,1.56,0.49c0.63,0,1.21-0.22,1.67-0.58c0.63-0.5,1.04-1.27,1.04-2.13C69.32,22.33,68.73,21.43,67.88,20.97z"
			/>
		
			<linearGradient id="SVGID_00000034795040086426938380000010080146591624386732_" gradientUnits="userSpaceOnUse" x1="18.4606" y1="3.8898" x2="60.5827" y2="46.0119">
			<stop  offset="0" style="stop-color:#FF9D00"/>
			<stop  offset="1" style="stop-color:#00ACFF"/>
		</linearGradient>
		<path style="fill:url(#SVGID_00000034795040086426938380000010080146591624386732_);" d="M23.56,13.06
			c0.52,0.81,1.44,1.35,2.48,1.35c1.63,0,2.94-1.32,2.94-2.94c0-1.4-0.98-2.58-2.3-2.87c-0.21-0.05-0.42-0.07-0.65-0.07
			c-1.63,0-2.94,1.32-2.94,2.94C23.09,12.05,23.26,12.6,23.56,13.06z"/>
		
			<linearGradient id="SVGID_00000012436897373334703430000017942595529374141349_" gradientUnits="userSpaceOnUse" x1="9.1808" y1="13.1696" x2="51.3025" y2="55.2913">
			<stop  offset="0" style="stop-color:#FF9D00"/>
			<stop  offset="1" style="stop-color:#00ACFF"/>
		</linearGradient>
		<path style="fill:url(#SVGID_00000012436897373334703430000017942595529374141349_);" d="M22.57,28.57c1.11,0,2.01-0.9,2.01-2.01
			c0-1.11-0.9-2.01-2.01-2.01c-0.59,0-1.12,0.25-1.49,0.66c-0.33,0.36-0.53,0.83-0.53,1.36c0,0.74,0.4,1.39,1,1.74
			C21.86,28.47,22.2,28.57,22.57,28.57z"/>
		
			<linearGradient id="SVGID_00000029760865121483715350000016575672026108824985_" gradientUnits="userSpaceOnUse" x1="3.8284" y1="18.522" x2="45.9504" y2="60.6439">
			<stop  offset="0" style="stop-color:#FF9D00"/>
			<stop  offset="1" style="stop-color:#00ACFF"/>
		</linearGradient>
		<path style="fill:url(#SVGID_00000029760865121483715350000016575672026108824985_);" d="M15.66,27.87
			c-1.37,0-2.48,1.11-2.48,2.48s1.11,2.48,2.48,2.48s2.48-1.11,2.48-2.48S17.03,27.87,15.66,27.87z"/>
		
			<linearGradient id="SVGID_00000021091528229348481900000017134665849686097588_" gradientUnits="userSpaceOnUse" x1="4.3884" y1="17.962" x2="46.5106" y2="60.0841">
			<stop  offset="0" style="stop-color:#FF9D00"/>
			<stop  offset="1" style="stop-color:#00ACFF"/>
		</linearGradient>
		<path style="fill:url(#SVGID_00000021091528229348481900000017134665849686097588_);" d="M9.96,21.61c-1.06,0-1.93,0.86-1.93,1.93
			c0,1.06,0.86,1.93,1.93,1.93c1.06,0,1.93-0.86,1.93-1.93C11.89,22.47,11.03,21.61,9.96,21.61z"/>
		
			<linearGradient id="SVGID_00000134211279077700097510000003446008331906564748_" gradientUnits="userSpaceOnUse" x1="21.2785" y1="1.0719" x2="63.4006" y2="43.194">
			<stop  offset="0" style="stop-color:#FF9D00"/>
			<stop  offset="1" style="stop-color:#00ACFF"/>
		</linearGradient>
		<path style="fill:url(#SVGID_00000134211279077700097510000003446008331906564748_);" d="M22.13,3.85c1.06,0,1.93-0.86,1.93-1.93
			C24.06,0.86,23.2,0,22.13,0s-1.93,0.86-1.93,1.93C20.21,2.99,21.07,3.85,22.13,3.85z"/>
		
			<linearGradient id="SVGID_00000104685078235238110760000010417610467855915455_" gradientUnits="userSpaceOnUse" x1="12.2748" y1="10.0755" x2="54.3968" y2="52.1974">
			<stop  offset="0" style="stop-color:#FF9D00"/>
			<stop  offset="1" style="stop-color:#00ACFF"/>
		</linearGradient>
		<path style="fill:url(#SVGID_00000104685078235238110760000010417610467855915455_);" d="M10.96,11.83c1.69,0,3.07-1.37,3.07-3.07
			S12.66,5.7,10.96,5.7S7.9,7.07,7.9,8.77S9.27,11.83,10.96,11.83z"/>
		
			<linearGradient id="SVGID_00000146462874287726583380000006870371272418493327_" gradientUnits="userSpaceOnUse" x1="5.4427" y1="16.9077" x2="47.5645" y2="59.0295">
			<stop  offset="0" style="stop-color:#FF9D00"/>
			<stop  offset="1" style="stop-color:#00ACFF"/>
		</linearGradient>
		<path style="fill:url(#SVGID_00000146462874287726583380000006870371272418493327_);" d="M4.63,14.48c-0.89,0-1.61,0.72-1.61,1.61
			c0,0.89,0.72,1.61,1.61,1.61c0.89,0,1.61-0.72,1.61-1.61C6.24,15.2,5.52,14.48,4.63,14.48z"/>
		
			<linearGradient id="SVGID_00000104667858685732988120000014474648324114408591_" gradientUnits="userSpaceOnUse" x1="0.8481" y1="21.5023" x2="42.9699" y2="63.6241">
			<stop  offset="0" style="stop-color:#FF9D00"/>
			<stop  offset="1" style="stop-color:#00ACFF"/>
		</linearGradient>
		<path style="fill:url(#SVGID_00000104667858685732988120000014474648324114408591_);" d="M1.23,20.65C0.55,20.65,0,21.2,0,21.88
			c0,0.68,0.55,1.23,1.23,1.23c0.68,0,1.23-0.55,1.23-1.23C2.45,21.2,1.9,20.65,1.23,20.65z"/>
		
			<linearGradient id="SVGID_00000055671226044431031000000010443662865349746367_" gradientUnits="userSpaceOnUse" x1="39.2632" y1="-16.9124" x2="81.385" y2="25.2094">
			<stop  offset="0" style="stop-color:#FF9D00"/>
			<stop  offset="1" style="stop-color:#00ACFF"/>
		</linearGradient>
		<circle style="fill:url(#SVGID_00000055671226044431031000000010443662865349746367_);" cx="71.2" cy="15.03" r="2.94"/>
		
			<linearGradient id="SVGID_00000088117897365619587110000006752733467383874197_" gradientUnits="userSpaceOnUse" x1="41.2276" y1="-18.8773" x2="83.3496" y2="23.2447">
			<stop  offset="0" style="stop-color:#FF9D00"/>
			<stop  offset="1" style="stop-color:#00ACFF"/>
		</linearGradient>
		<path style="fill:url(#SVGID_00000088117897365619587110000006752733467383874197_);" d="M67.43,9.81c1.37,0,2.48-1.11,2.48-2.48
			s-1.11-2.48-2.48-2.48c-1.37,0-2.48,1.11-2.48,2.48S66.06,9.81,67.43,9.81z"/>
		
			<linearGradient id="SVGID_00000060725795303027146860000017072590918653418905_" gradientUnits="userSpaceOnUse" x1="33.0007" y1="-10.65" x2="75.1227" y2="31.472">
			<stop  offset="0" style="stop-color:#FF9D00"/>
			<stop  offset="1" style="stop-color:#00ACFF"/>
		</linearGradient>
		<path style="fill:url(#SVGID_00000060725795303027146860000017072590918653418905_);" d="M72.22,26.64
			c-1.06,0-1.93,0.86-1.93,1.93c0,1.06,0.86,1.93,1.93,1.93c1.06,0,1.93-0.86,1.93-1.93C74.15,27.51,73.29,26.64,72.22,26.64z"/>
		
			<linearGradient id="SVGID_00000063592272578748024380000013592082654165103780_" gradientUnits="userSpaceOnUse" x1="38.27" y1="-15.919" x2="80.3916" y2="26.2026">
			<stop  offset="0" style="stop-color:#FF9D00"/>
			<stop  offset="1" style="stop-color:#00ACFF"/>
		</linearGradient>
		<path style="fill:url(#SVGID_00000063592272578748024380000013592082654165103780_);" d="M76.07,18.81
			c-1.69,0-3.07,1.37-3.07,3.07c0,1.69,1.37,3.07,3.07,3.07c1.69,0,3.07-1.37,3.07-3.07C79.14,20.19,77.77,18.81,76.07,18.81z"/>
		
			<linearGradient id="SVGID_00000013166592210159075290000017385258492655173549_" gradientUnits="userSpaceOnUse" x1="45.0496" y1="-22.6993" x2="87.1713" y2="19.4225">
			<stop  offset="0" style="stop-color:#FF9D00"/>
			<stop  offset="1" style="stop-color:#00ACFF"/>
		</linearGradient>
		<path style="fill:url(#SVGID_00000013166592210159075290000017385258492655173549_);" d="M79.98,10.62
			c-0.89,0-1.61,0.72-1.61,1.61c0,0.89,0.72,1.61,1.61,1.61c0.89,0,1.61-0.72,1.61-1.61C81.59,11.34,80.87,10.62,79.98,10.62z"/>
		
			<linearGradient id="SVGID_00000155849398398080575620000014662074118229178267_" gradientUnits="userSpaceOnUse" x1="45.9466" y1="-23.5961" x2="88.0685" y2="18.5258">
			<stop  offset="0" style="stop-color:#FF9D00"/>
			<stop  offset="1" style="stop-color:#00ACFF"/>
		</linearGradient>
		<path style="fill:url(#SVGID_00000155849398398080575620000014662074118229178267_);" d="M85.15,14.38
			c-0.68,0-1.23,0.55-1.23,1.23c0,0.68,0.55,1.23,1.23,1.23c0.68,0,1.23-0.55,1.23-1.23C86.37,14.92,85.82,14.38,85.15,14.38z"/>
	</g>
	<g>
		<path class="st17" d="M30.17,18.76c-1.38,3.86-0.93,8.19,1.17,11.69l6.75-11.7L30.17,18.76z"/>
		<path class="st17" d="M32.63,32.25c2.58,3.04,6.45,4.83,10.46,4.83h0c0.08,0,0.17,0,0.25,0l-6.76-11.69L32.63,32.25z"/>
		<path class="st17" d="M40.62,9.88c-4.03,0.73-7.56,3.29-9.54,6.86h13.5L40.62,9.88z"/>
		<path class="st17" d="M53.53,14.49c-2.63-3.1-6.6-4.9-10.71-4.84l6.75,11.7L53.53,14.49z"/>
		<path class="st17" d="M45.54,36.86c4.03-0.73,7.56-3.29,9.54-6.86l-13.5,0L45.54,36.86z"/>
		<path class="st17" d="M54.82,16.29l-6.75,11.7l7.92,0C57.38,24.12,56.93,19.79,54.82,16.29z"/>
	</g>
</g>
</svg>
