<?xml version="1.0" encoding="utf-8"?>
<svg version="1.1" id="Layer_1" xmlns="http://www.w3.org/2000/svg" xmlns:xlink="http://www.w3.org/1999/xlink" x="0px" y="0px"
	 viewBox="0 0 1592.632 1661.106" enable-background="new 0 0 1592.632 1661.106" xml:space="preserve">
<g>
	<g>
		<path d="M1563.339,1058.755l-161.801,222.7c-60.293,82.986-176.443,101.382-259.429,41.089L747.398,1035.77L1563.339,1058.755z"/>
		<path d="M29.294,602.351l161.801-222.7c60.293-82.986,176.443-101.382,259.429-41.09l394.711,286.774L29.294,602.351z"/>
	</g>
	<g>
		<path d="M1282.717,1466.017l-261.799,85.064c-97.556,31.698-202.336-21.691-234.034-119.246L636.117,967.824L1282.717,1466.017z"
			/>
		<path d="M309.916,195.089l261.799-85.064c97.556-31.698,202.336,21.691,234.034,119.246l150.766,464.011L309.916,195.089z"/>
	</g>
	<g>
		<path d="M816.306,1630.553l-261.799-85.064c-97.556-31.698-150.944-136.479-119.246-234.034l150.766-464.011L816.306,1630.553z"/>
		<path d="M776.326,30.553l261.799,85.064c97.556,31.698,150.944,136.478,119.246,234.034l-150.766,464.011L776.326,30.553z"/>
	</g>
	<g>
		<path d="M342.26,1489.517l-161.801-222.7c-60.293-82.986-41.896-199.136,41.09-259.429L616.26,720.614L342.26,1489.517z"/>
		<path d="M1250.372,171.59l161.801,222.7c60.293,82.986,41.896,199.136-41.09,259.429L976.372,940.493L1250.372,171.59z"/>
	</g>
	<g>
		<path d="M41.648,1096.778V821.506c0-102.576,83.154-185.731,185.731-185.731h487.89L41.648,1096.778z"/>
		<path d="M1550.984,564.328V839.6c0,102.576-83.154,185.731-185.731,185.731h-487.89L1550.984,564.328z"/>
	</g>
</g>
</svg>
