<?xml version="1.0" encoding="utf-8"?>
<!-- Generator: Adobe Illustrator 24.3.2, SVG Export Plug-In . SVG Version: 6.00 Build 0)  -->
<svg version="1.1" xmlns="http://www.w3.org/2000/svg" xmlns:xlink="http://www.w3.org/1999/xlink" x="0px" y="0px"
	 viewBox="0 0 802.25 711.13" style="enable-background:new 0 0 802.25 711.13;" xml:space="preserve">
<style type="text/css">
	.st0{display:none;}
	.st1{display:inline;fill:none;stroke:#000000;stroke-miterlimit:10;}
	.st2{display:inline;fill:#FFFFFF;}
	.st3{fill-rule:evenodd;clip-rule:evenodd;fill:#FFFFFF;}
	.st4{fill-rule:evenodd;clip-rule:evenodd;}
	.st5{display:inline;}
	.st6{fill:none;stroke:#000000;stroke-width:9;stroke-miterlimit:10;}
	.st7{display:inline;fill-rule:evenodd;clip-rule:evenodd;fill:none;stroke:#000000;stroke-width:9;stroke-miterlimit:10;}
	.st8{display:inline;fill-rule:evenodd;clip-rule:evenodd;}
	.st9{fill:none;stroke:#000000;stroke-width:15;stroke-miterlimit:10;}
	.st10{display:inline;fill:none;stroke:#000000;stroke-width:13;stroke-miterlimit:10;}
	.st11{display:inline;fill:none;stroke:#000000;stroke-width:10;stroke-linecap:round;stroke-miterlimit:10;}
	.st12{fill:none;stroke:#000000;stroke-width:10;stroke-miterlimit:10;}
	.st13{display:inline;fill:none;stroke:#000000;stroke-width:14;stroke-miterlimit:10;}
	.st14{display:inline;fill:none;stroke:#000000;stroke-width:15;stroke-miterlimit:10;}
	.st15{display:inline;fill:#00FFFF;}
	.st16{fill:none;stroke:#000000;stroke-width:10;stroke-linecap:round;stroke-miterlimit:10;}
	.st17{display:inline;fill:none;stroke:#000000;stroke-width:19;stroke-miterlimit:10;}
	.st18{display:none;fill:none;stroke:#000000;stroke-width:23;stroke-miterlimit:10;}
	.st19{display:none;fill:#FFFFFF;}
</style>
<g id="Back" class="st0">
	<rect x="-178.88" y="621.57" class="st1" width="38" height="38"/>
	<rect id="White_Back" x="-238.88" y="-144.93" class="st2" width="1280" height="690"/>
</g>
<g id="Images" class="st0">
</g>
<g id="Social_Icons" class="st0">
	<path class="st3" d="M492.22,1079.25c-6.62,2.9-13.83,4.9-21.44,5.89c7.8-4.69,13.73-11.88,16.5-20.67
		c-7.21,4.29-15.32,7.39-23.81,9.09c-6.73-7.29-16.5-11.78-27.37-11.78c-20.55,0-37.35,16.68-37.35,37.15c0,3,0.5,5.79,1.09,8.49
		c-31.12-1.5-58.69-16.28-77.07-38.85c-3.16,5.59-5.13,11.88-5.13,18.67c0,12.98,6.72,24.36,16.6,30.96
		c-6.12-0.1-11.86-1.8-16.89-4.6c0,0.2,0,0.3,0,0.5c0,4.79,0.89,9.19,2.57,13.38c4.55,11.69,14.92,20.47,27.47,22.97
		c-3.27,0.9-6.43,1.4-9.88,1.4c-2.37,0-4.74-0.3-7.02-0.8c4.85,14.78,18.58,25.56,34.88,25.96c-12.85,9.99-28.85,15.88-46.34,15.88
		c-3.07,0-5.93-0.2-8.99-0.5c16.6,10.49,36.26,16.68,57.3,16.68c58.39,0,94.45-40.84,103.84-83.28c1.69-7.59,2.47-15.08,2.47-22.47
		c0-1.6,0-3.29,0-4.79C480.86,1093.23,487.28,1086.64,492.22,1079.25L492.22,1079.25z"/>
	<path class="st3" d="M13.13,1091.21v-17.47c0-8.38,5.55-10.39,9.56-10.39c3.89,0,24.43,0,24.43,0v-37.3H13.49
		c-37.41,0-45.8,27.62-45.8,45.56v19.59h-21.72v26.32v17.23h21.95c0,49.45,0,108.83,0,108.83h43.56c0,0,0-60.2,0-108.83H43.7
		l1.42-17.11l2.6-26.44H13.13z"/>
	<path class="st3" d="M765.33,1128.69c0-22.34,18.14-40.56,40.48-40.56c22.43,0,40.56,18.22,40.56,40.56
		c0,22.43-18.13,40.56-40.56,40.56C783.47,1169.25,765.33,1151.11,765.33,1128.69L765.33,1128.69z M847.68,1049.4h-83.66
		c-20.59,0-37.5,16.82-37.5,37.5v83.66c0,20.58,16.91,37.49,37.5,37.49h83.66c20.68,0,37.5-16.91,37.5-37.49v-83.66
		C885.18,1066.22,868.36,1049.4,847.68,1049.4L847.68,1049.4z M764.02,1058.78h83.66c15.51,0,28.12,12.61,28.12,28.12v83.66
		c0,15.5-12.61,28.12-28.12,28.12h-83.66c-15.51,0-28.12-12.61-28.12-28.12v-83.66C735.9,1071.39,748.51,1058.78,764.02,1058.78
		L764.02,1058.78z M856.01,1070.61c-4.56,0-8.23,3.68-8.23,8.23c0,4.56,3.68,8.24,8.23,8.24c4.56,0,8.24-3.68,8.24-8.24
		C864.24,1074.28,860.56,1070.61,856.01,1070.61L856.01,1070.61z M856.97,1128.69c0-28.21-22.86-51.16-51.16-51.16
		c-28.21,0-51.16,22.95-51.16,51.16c0,28.3,22.95,51.16,51.16,51.16C834.1,1179.85,856.97,1156.99,856.97,1128.69L856.97,1128.69z"
		/>
	<path class="st4" d="M492.22,1079.25c-6.62,2.9-13.83,4.9-21.44,5.89c7.8-4.69,13.73-11.88,16.5-20.67
		c-7.21,4.29-15.32,7.39-23.81,9.09c-6.73-7.29-16.5-11.78-27.37-11.78c-20.55,0-37.35,16.68-37.35,37.15c0,3,0.5,5.79,1.09,8.49
		c-31.12-1.5-58.69-16.28-77.07-38.85c-3.16,5.59-5.13,11.88-5.13,18.67c0,12.98,6.72,24.36,16.6,30.96
		c-6.12-0.1-11.86-1.8-16.89-4.6c0,0.2,0,0.3,0,0.5c0,4.79,0.89,9.19,2.57,13.38c4.55,11.69,14.92,20.47,27.47,22.97
		c-3.27,0.9-6.43,1.4-9.88,1.4c-2.37,0-4.74-0.3-7.02-0.8c4.85,14.78,18.58,25.56,34.88,25.96c-12.85,9.99-28.85,15.88-46.34,15.88
		c-3.07,0-5.93-0.2-8.99-0.5c16.6,10.49,36.26,16.68,57.3,16.68c58.39,0,94.45-40.84,103.84-83.28c1.69-7.59,2.47-15.08,2.47-22.47
		c0-1.6,0-3.29,0-4.79C480.86,1093.23,487.28,1086.64,492.22,1079.25L492.22,1079.25z"/>
	<path class="st4" d="M13.13,1091.21v-17.47c0-8.38,5.55-10.39,9.56-10.39c3.89,0,24.43,0,24.43,0v-37.3H13.49
		c-37.41,0-45.8,27.62-45.8,45.56v19.59h-21.72v26.32v17.23h21.95c0,49.45,0,108.83,0,108.83h43.56c0,0,0-60.2,0-108.83H43.7
		l1.42-17.11l2.6-26.44H13.13z"/>
	<g>
		<g class="st5">
			<path class="st6" d="M880.62,1170.07c0,18.15-14.85,33-33,33h-83c-18.15,0-33-14.85-33-33v-83c0-18.15,14.85-33,33-33h83
				c18.15,0,33,14.85,33,33V1170.07z"/>
		</g>
		<circle class="st7" cx="806.12" cy="1128.57" r="34.5"/>
		<circle class="st8" cx="855.12" cy="1079.57" r="8.25"/>
	</g>
	<path class="st8" d="M492.22,590.26c-6.62,2.9-13.83,4.9-21.44,5.89c7.8-4.69,13.73-11.88,16.5-20.67
		c-7.21,4.29-15.32,7.39-23.81,9.09c-6.73-7.29-16.5-11.78-27.37-11.78c-20.55,0-37.35,16.68-37.35,37.15c0,3,0.5,5.79,1.09,8.49
		c-31.12-1.5-58.69-16.28-77.07-38.85c-3.16,5.59-5.13,11.88-5.13,18.67c0,12.98,6.72,24.36,16.6,30.96
		c-6.12-0.1-11.86-1.8-16.89-4.6c0,0.2,0,0.3,0,0.5c0,4.79,0.89,9.19,2.57,13.38c4.55,11.69,14.92,20.47,27.47,22.97
		c-3.27,0.9-6.43,1.4-9.88,1.4c-2.37,0-4.74-0.3-7.02-0.8c4.85,14.78,18.58,25.56,34.88,25.96c-12.85,9.99-28.85,15.88-46.34,15.88
		c-3.07,0-5.93-0.2-8.99-0.5c16.6,10.49,36.26,16.68,57.3,16.68c58.39,0,94.45-40.84,103.84-83.28c1.69-7.59,2.47-15.08,2.47-22.47
		c0-1.6,0-3.29,0-4.79C480.86,604.24,487.28,597.64,492.22,590.26L492.22,590.26z"/>
	<path class="st8" d="M417.41,56.21V38.75c0-8.38,5.55-10.39,9.56-10.39c3.89,0,24.43,0,24.43,0v-37.3h-33.64
		c-37.41,0-45.8,27.62-45.8,45.56v19.59h-21.72v26.32v17.23h21.95c0,49.45,0,108.83,0,108.83h43.56c0,0,0-60.2,0-108.83h32.22
		l1.42-17.11l2.6-26.44H417.41z"/>
	<g class="st5">
		<path d="M442.62,469.57h-83c-20.68,0-37.5-16.82-37.5-37.5v-83c0-20.68,16.82-37.5,37.5-37.5h83c20.68,0,37.5,16.82,37.5,37.5v83
			C480.12,452.75,463.3,469.57,442.62,469.57z M359.62,320.57c-15.71,0-28.5,12.79-28.5,28.5v83c0,15.71,12.79,28.5,28.5,28.5h83
			c15.71,0,28.5-12.79,28.5-28.5v-83c0-15.71-12.79-28.5-28.5-28.5H359.62z"/>
		<path d="M401.12,429.57c-21.5,0-39-17.5-39-39s17.5-39,39-39s39,17.5,39,39S422.63,429.57,401.12,429.57z M401.12,360.57
			c-16.54,0-30,13.46-30,30s13.46,30,30,30s30-13.46,30-30S417.67,360.57,401.12,360.57z"/>
		<circle class="st4" cx="450.12" cy="341.57" r="8.25"/>
	</g>
</g>
<g id="Logo1" class="st0">
	<path class="st5" d="M224.44,1923.89c73.82,0,147.64-0.01,221.46,0.01c18.22,0,28.43,10.23,28.44,28.49
		c0.02,87.32,0.02,174.64,0.01,261.96c0,18.69-10.34,28.91-29.17,28.91c-147.47,0-294.95,0-442.42,0
		c-18.58,0-28.89-10.18-28.9-28.64c-0.02-87.65-0.02-175.31,0-262.96c0-17.31,10.39-27.76,27.62-27.77
		C75.8,1923.87,150.12,1923.89,224.44,1923.89z M223.98,2211.16c70.63,0.03,127.82-56.76,127.97-127.08
		c0.14-70.75-56.79-128.25-127.26-128.54c-70.81-0.28-128.38,57.02-128.42,127.83C96.21,2154.17,153.15,2211.13,223.98,2211.16z"/>
	<path class="st5" d="M111.62,1912.57c3.36-8.61,6.58-16.96,9.89-25.27c1.6-4.02,3.26-8.02,5.11-11.92
		c5.83-12.28,15.98-18.19,29.21-18.25c45.48-0.19,90.97-0.19,136.46-0.01c13.48,0.05,23.66,6.22,29.47,18.67
		c2.32,4.97,4.24,10.13,6.29,15.23c2.85,7.06,5.65,14.15,8.6,21.55C261.86,1912.57,186.6,1912.57,111.62,1912.57z"/>
	<path class="st5" d="M386.19,1913.11c-7.32,0-14.65-0.13-21.97,0.05c-3.71,0.09-5.61-0.87-5.29-5.03c0.31-4.14-0.2-8.35,0.25-12.46
		c0.14-1.3,2.2-3.41,3.41-3.43c15.64-0.23,31.29-0.22,46.93-0.02c1.17,0.02,2.34,1.97,3.46,3.07c0.17,0.17,0.04,0.64,0.06,0.98
		c1.05,16.84,1.05,16.84-15.87,16.84C393.52,1913.12,389.85,1913.12,386.19,1913.11z"/>
	<path class="st2" d="M223.98,2211.16c-70.83-0.03-127.77-57-127.72-127.78c0.05-70.81,57.62-128.12,128.42-127.83
		c70.47,0.28,127.4,57.79,127.26,128.54C351.8,2154.41,294.61,2211.2,223.98,2211.16z M336.5,2083.28
		c0-61.79-50.18-112.21-111.76-112.28c-62.69-0.07-113.08,49.97-113.25,112.47c-0.17,61.84,50.73,112.74,112.69,112.69
		C286.31,2196.11,336.5,2145.67,336.5,2083.28z"/>
	<path class="st5" d="M336.5,2083.28c0,62.39-50.19,112.83-112.32,112.89c-61.96,0.05-112.87-50.85-112.69-112.69
		c0.17-62.51,50.56-112.54,113.25-112.47C286.32,1971.07,336.5,2021.48,336.5,2083.28z"/>
	<path class="st5" d="M-1672.56,377.89c73.82,0,147.64-0.01,221.46,0.01c18.22,0,28.43,10.23,28.44,28.49
		c0.02,87.32,0.02,174.64,0.01,261.96c0,18.69-10.34,28.91-29.17,28.91c-147.47,0-294.95,0-442.42,0
		c-18.58,0-28.89-10.18-28.9-28.64c-0.02-87.65-0.02-175.31,0-262.96c0-17.31,10.39-27.76,27.62-27.77
		C-1821.2,377.87-1746.88,377.89-1672.56,377.89z M-1673.02,665.16c70.63,0.03,127.82-56.76,127.97-127.08
		c0.14-70.75-56.79-128.25-127.26-128.54c-70.81-0.28-128.38,57.02-128.42,127.83C-1800.79,608.17-1743.85,665.13-1673.02,665.16z"
		/>
	<path class="st5" d="M-1785.38,379.57c3.36-8.61,6.58-16.96,9.89-25.27c1.6-4.02,3.26-8.02,5.11-11.92
		c5.83-12.28,15.98-18.19,29.21-18.25c45.48-0.19,90.97-0.19,136.46-0.01c13.48,0.05,23.66,6.22,29.47,18.67
		c2.32,4.97,4.24,10.13,6.29,15.23c2.85,7.06,5.65,14.15,8.6,21.55C-1635.14,379.57-1710.4,379.57-1785.38,379.57z"/>
	<path class="st5" d="M-1750.08,470.34c38.29-43.48,113.57-58.19,157.38-20.11l0.01-0.01c-49.31-43.53-124.61-38.71-167.98,10.74
		c-40.37,46.04-38.86,113.95,1.5,158.09C-1792.07,578.82-1785.03,510.02-1750.08,470.34z"/>
	<path class="st5" d="M-379.56,1923.89c73.82,0,147.64-0.01,221.46,0.01c18.22,0,28.43,10.23,28.44,28.49
		c0.02,87.32,0.02,174.64,0.01,261.96c0,18.69-10.34,28.91-29.17,28.91c-147.47,0-294.95,0-442.42,0
		c-18.58,0-28.89-10.18-28.9-28.64c-0.02-87.65-0.02-175.31,0-262.96c0-17.31,10.39-27.76,27.62-27.77
		C-528.2,1923.87-453.88,1923.89-379.56,1923.89z M-380.02,2211.16c70.63,0.03,127.82-56.76,127.97-127.08
		c0.14-70.75-56.79-128.25-127.26-128.54c-70.81-0.28-128.38,57.02-128.42,127.83C-507.79,2154.17-450.85,2211.13-380.02,2211.16z"
		/>
	<path class="st5" d="M-492.38,1912.57c3.36-8.61,6.58-16.96,9.89-25.27c1.6-4.02,3.26-8.02,5.11-11.92
		c5.83-12.28,15.98-18.19,29.21-18.25c45.48-0.19,90.97-0.19,136.46-0.01c13.48,0.05,23.66,6.22,29.47,18.67
		c2.32,4.97,4.24,10.13,6.29,15.23c2.85,7.06,5.65,14.15,8.6,21.55C-342.14,1912.57-417.4,1912.57-492.38,1912.57z"/>
	<path class="st5" d="M-217.81,1913.11c-7.32,0-14.65-0.13-21.97,0.05c-3.71,0.09-5.61-0.87-5.29-5.03
		c0.31-4.14-0.2-8.35,0.25-12.46c0.14-1.3,2.2-3.41,3.41-3.43c15.64-0.23,31.29-0.22,46.93-0.02c1.17,0.02,2.34,1.97,3.46,3.07
		c0.17,0.17,0.04,0.64,0.06,0.98c1.05,16.84,1.05,16.84-15.87,16.84C-210.48,1913.12-214.15,1913.12-217.81,1913.11z"/>
	<path class="st2" d="M-492.51,2083.47c0.17-62.36,50.71-127.67,113.2-127.9l0-0.02c-70.81-0.28-128.38,57.02-128.42,127.83
		c-0.05,65.92,49.34,119.84,113.33,126.97C-449.59,2201.12-492.67,2140.4-492.51,2083.47z"/>
	<g class="st5">
		<path class="st9" d="M446.77,1263.89c17.23,0,27.62,10.45,27.62,27.77c0.02,87.65,0.02,175.31,0,262.96
			c0,18.46-10.32,28.64-28.9,28.64c-147.47,0-294.95,0-442.42,0c-18.83,0-29.16-10.22-29.17-28.91
			c-0.01-87.32-0.01-174.64,0.01-261.96c0-18.26,10.21-28.48,28.44-28.49c73.82-0.02,147.64-0.01,221.46-0.01
			C298.13,1263.89,372.45,1263.87,446.77,1263.89z M351.99,1423.39 M224.27,1551.16 M96.3,1424.09"/>
		<path d="M336.63,1247.57c-3.36-8.61-6.58-16.96-9.89-25.27c-1.6-4.02-3.26-8.02-5.11-11.92c-5.83-12.28-15.98-18.19-29.21-18.25
			c-45.48-0.19-90.97-0.19-136.46-0.01c-13.48,0.05-23.66,6.22-29.47,18.67c-2.32,4.97-4.24,10.13-6.29,15.23
			c-2.85,7.06-5.65,14.15-8.6,21.55C186.39,1247.57,261.65,1247.57,336.63,1247.57z"/>
		<path d="M62.06,1248.11c7.32,0,14.65-0.13,21.97,0.05c3.71,0.09,5.61-0.87,5.29-5.03c-0.31-4.14,0.2-8.35-0.25-12.46
			c-0.14-1.3-2.2-3.41-3.41-3.43c-15.64-0.23-31.29-0.22-46.93-0.02c-1.17,0.02-2.34,1.97-3.46,3.07c-0.17,0.17-0.04,0.64-0.06,0.98
			c-1.05,16.84-1.05,16.84,15.87,16.84C54.73,1248.12,58.4,1248.12,62.06,1248.11z"/>
		<path class="st9" d="M111.75,1423.28c0,62.39,50.19,112.83,112.32,112.89c61.96,0.05,112.87-50.85,112.69-112.69
			c-0.17-62.51-50.56-112.54-113.25-112.47C161.93,1311.07,111.75,1361.48,111.75,1423.28z"/>
	</g>
	<path class="st5" d="M-1844.94,372.11c7.32,0,14.65-0.13,21.97,0.05c3.71,0.09,5.61-0.87,5.29-5.03c-0.31-4.14,0.2-8.35-0.25-12.46
		c-0.14-1.3-2.2-3.41-3.41-3.43c-15.64-0.23-31.29-0.22-46.93-0.02c-1.17,0.02-2.34,1.97-3.46,3.07c-0.17,0.17-0.04,0.64-0.06,0.98
		c-1.05,16.84-1.05,16.84,15.87,16.84C-1852.27,372.12-1848.6,372.12-1844.94,372.11z"/>
	<line class="st10" x1="-862.88" y1="396.57" x2="-1714.38" y2="1248.07"/>
	
		<rect x="-1763.38" y="357.07" transform="matrix(0.7071 0.7071 -0.7071 0.7071 247.5033 1139.6066)" class="st10" width="1023" height="1023"/>
	<path class="st5" d="M-492.38,1277.57c3.36-8.61,6.58-16.96,9.89-25.27c1.6-4.02,3.26-8.02,5.11-11.92
		c5.83-12.28,15.98-18.19,29.21-18.25c45.48-0.19,90.97-0.19,136.46-0.01c13.48,0.05,23.66,6.22,29.47,18.67
		c2.32,4.97,4.24,10.13,6.29,15.23c2.85,7.06,5.65,14.15,8.6,21.55C-342.14,1277.57-417.4,1277.57-492.38,1277.57z"/>
	<path class="st5" d="M-457.08,1368.34c38.29-43.48,113.57-58.19,157.38-20.11l0.01-0.01c-49.31-43.53-124.61-38.71-167.98,10.74
		c-40.37,46.04-38.86,113.95,1.5,158.09C-499.07,1476.82-492.03,1408.02-457.08,1368.34z"/>
	<path class="st5" d="M-551.94,1270.11c7.32,0,14.65-0.13,21.97,0.05c3.71,0.09,5.61-0.87,5.29-5.03c-0.31-4.14,0.2-8.35-0.25-12.46
		c-0.14-1.3-2.2-3.41-3.41-3.43c-15.64-0.23-31.29-0.22-46.93-0.02c-1.17,0.02-2.34,1.97-3.46,3.07c-0.17,0.17-0.04,0.64-0.06,0.98
		c-1.05,16.84-1.05,16.84,15.87,16.84C-559.27,1270.12-555.6,1270.12-551.94,1270.11z"/>
	<line class="st11" x1="-140.88" y1="1249.57" x2="-559.38" y2="1668.07"/>
	<path class="st5" d="M-601.24,1595.26c30.1,0,60.2,0,90.3,0l56.14-56.14c-32.14-23.16-52.97-60.92-52.94-103.73
		c0.05-70.81,57.62-128.12,128.42-127.83c42.4,0.17,79.89,21.06,103,53.08l84.73-84.73c-62.66-0.01-125.32-0.01-187.98-0.01
		c-74.32,0-148.64-0.02-222.96,0.01c-17.23,0.01-27.62,10.45-27.62,27.77c-0.02,87.65-0.02,175.31,0,262.96
		C-630.13,1585.08-619.82,1595.26-601.24,1595.26z"/>
</g>
<g id="Logo2" class="st0">
	<g id="g0FX1Y_1_">
		
			<image style="display:inline;overflow:visible;" width="500" height="500" id="g0FX1Y" xlink:href="EC41ECD222439567.jpg"  transform="matrix(1 0 0 1 1646.1248 1235.5663)">
		</image>
	</g>
	<path class="st5" d="M1441.29,1230.6c24.05,0,86.1-0.15,93.7,0.09c14.9,0.48,22.99,8.57,23.03,23.67
		c0.13,60.03,0.04,120.06,0.04,180.09c0,13.71,0.12,27.43,0.04,41.14c-0.09,15.98-8.38,24.5-24.07,24.51
		c-122.19,0.05-244.38,0.05-366.57,0.02c-15.61,0-24.2-8.51-24.22-24.37c-0.11-73.74-0.11-147.49-0.07-221.23
		c0.01-15.04,7.94-23.44,22.92-23.66c28.02-0.4,56.05-0.6,84.07-0.27c7.5,0.09,10.85-1.92,11.99-9.61
		c1.83-12.32,4.73-24.49,7.32-36.69c2.94-13.85,8.69-18.52,22.76-18.53c39.01-0.02,78.01,0,117.02,0.01
		c13.61,0,19.97,5.37,22.62,18.73C1434.9,1199.67,1438.06,1214.81,1441.29,1230.6z M1458.89,1366.21
		c-3.31,25.76-15.15,50.56-34.56,68.04c-17.43,15.69-41.27,26.6-64.71,28.57c-1.97,0.17-22.17,0.61-22.17-1.19
		c0-25.74,0-50.56,0-76.16c8.33,0,15.89,0.13,23.46-0.03c23.31-0.49,40.86-17.42,40.86-39.27c0-23.59-16.84-40.79-40.77-41.41
		c-10.05-0.26-25-0.16-35.04-0.16c-3.66,0-3.66,1.83-3.66,5.49c0,12.81,0.05,74.65,0.04,110.31c0,12.45,0,24.89,0,38.58
		c-3.7-0.71-7.88-2.03-11.12-3.43c-39.53-17.12-62.82-46.98-69.07-89.63c-1.05-7.2-1.33-14.44-0.87-21.6
		c2.45-38.78,26.1-75.33,61.28-92.8c12.15-6.03,25.47-9.91,39.02-10.87c26.52-1.89,50.85,4.39,72.43,20.04
		c15.92,11.54,28.65,26.91,36.55,44.94C1458.85,1324.6,1461.51,1345.77,1458.89,1366.21z M1545.23,1253.95
		c-0.04-7.74-4.83-10.32-12.12-10.23c-20.11,0.25-88.23,0.27-102.53,0.27c-3.69-18.27-7.86-35.46-10.4-52.88
		c-1.49-10.24-6.08-12.75-15.7-12.62c-36.87,0.48-73.76,0.4-110.63,0.1c-7.65-0.06-10.83,2.75-12.15,10.1
		c-3.29,18.23-7.22,36.34-11.04,55.19c-4.18,0-7.8,0-11.41,0c-29.87,0-59.73-0.03-89.6,0.02c-11.31,0.02-13.56,2.17-13.6,13.16
		c-0.1,26.82-0.19,181.32-0.17,219.12c0,8.16,4.46,11.01,12.32,10.95c28.94-0.22,271.53,0.13,363.88,0.19
		c10.57,0.01,13.34-2.89,13.37-13.72C1545.49,1458.33,1545.37,1283.76,1545.23,1253.95z M1351.78,1446.88
		c42.34,3.99,86.32-34.85,92.82-81.23c7.13-50.89-27.26-99.93-76.17-108.61c-53.46-9.14-99.53,23.12-110.28,72.91
		c-9.31,43.15,15.65,96.89,49.92,105.67c0-48.5,0-96.77,0-145.7c18.58,0,36.21-0.16,53.84,0.04c30.59,0.35,54.84,24.64,54.8,54.65
		c-0.04,30.52-23.42,54.85-53.71,55.84c-3.57,0.12-7.15,0.2-11.23,0.2C1351.78,1416.76,1351.78,1431.4,1351.78,1446.88z"/>
	<path class="st5" d="M872.26,1454.62c0.01-35.66,0-131.72,0-144.52c0-3.66,0-5.49,3.66-5.49c10.04,0,24.99-0.1,35.04,0.16
		c23.93,0.62,40.77,17.82,40.77,41.41c0,21.85-17.55,38.77-40.86,39.27c-7.56,0.16-15.13,0.03-23.46,0.03c0,21.52,0,49.81,0,71.23
		l14.33,1.15c0-15.47,0-41.09,0-57.2c4.08,0,7.66-0.08,11.23-0.2c30.29-1,53.67-25.33,53.71-55.84c0.04-30.01-24.21-54.3-54.8-54.65
		c-17.63-0.2-35.26-0.04-53.84-0.04c0,48.93,0,110,0,158.51L872.26,1454.62z"/>
	<path class="st5" d="M1228.99,1782.08c0.01-35.66,0-131.72,0-144.52c0-3.66,0-5.49,3.66-5.49c10.04,0,24.99-0.1,35.04,0.16
		c23.93,0.62,40.77,17.82,40.77,41.41c0,21.85-17.55,38.77-40.86,39.27c-7.56,0.16-15.13,0.03-23.46,0.03c0,21.52,0,49.81,0,71.23
		l14.33,1.15c0-15.47,0-41.09,0-57.2c4.08,0,7.66-0.08,11.23-0.2c30.29-1,53.67-25.33,53.71-55.84c0.04-30.01-24.21-54.3-54.8-54.65
		c-17.63-0.2-35.26-0.04-53.84-0.04c0,48.93,0,110,0,158.51L1228.99,1782.08z"/>
	<path class="st5" d="M1439.54,1649.7c-14.43-0.16-16.06-0.03-31.27-0.03c0,40.06,0,95.12,0,134.82h11.64c0-10.34,0-26.77,0-44.18
		c5.08-0.01,17.91-0.07,20.52-0.16c24.79-0.82,43.94-20.73,43.97-45.72C1484.43,1669.88,1464.58,1649.99,1439.54,1649.7z
		 M1438.71,1727.86c-3.79,0.08-11.68,0.07-18.8,0.05c0-28.11,0-55.64,0-61.73c0-2.99,0-4.49,3-4.49c8.22,0,7.65-0.08,15.88,0.13
		c19.59,0.5,33.38,14.59,33.38,33.9C1472.16,1713.61,1457.79,1727.46,1438.71,1727.86z"/>
	<g class="st5">
		<path d="M1388.14,1219.37c0,1.1-0.9,2-2,2h-71c-1.1,0-2-0.9-2-2v-18.87c0-1.1,0.9-2,2-2h71c1.1,0,2,0.9,2,2V1219.37z"/>
	</g>
	<g class="st5">
		<path class="st12" d="M1234.47,1237.75c0,0.55-0.45,1-1,1H1187c-0.55,0-1-0.45-1-1v-22.7c0-0.55,0.45-1,1-1h46.48
			c0.55,0,1,0.45,1,1V1237.75z"/>
	</g>
	<g class="st5">
		<path d="M938.11,1219.37c0,1.1-0.9,2-2,2h-71c-1.1,0-2-0.9-2-2v-18.87c0-1.1,0.9-2,2-2h71c1.1,0,2,0.9,2,2V1219.37z"/>
	</g>
	<g class="st5">
		<path class="st12" d="M784.45,1237.75c0,0.55-0.45,1-1,1h-46.48c-0.55,0-1-0.45-1-1v-22.7c0-0.55,0.45-1,1-1h46.48
			c0.55,0,1,0.45,1,1V1237.75z"/>
	</g>
	<g class="st5">
		<path d="M938.11,1655.37c0,1.1-0.9,2-2,2h-71c-1.1,0-2-0.9-2-2v-18.87c0-1.1,0.9-2,2-2h71c1.1,0,2,0.9,2,2V1655.37z"/>
	</g>
	<g class="st5">
		<path class="st12" d="M784.45,1673.75c0,0.55-0.45,1-1,1h-46.48c-0.55,0-1-0.45-1-1v-22.7c0-0.55,0.45-1,1-1h46.48
			c0.55,0,1,0.45,1,1V1673.75z"/>
	</g>
	<path class="st5" d="M991.26,1230.6c24.05,0,86.1-0.15,93.7,0.09c14.9,0.48,22.99,8.57,23.03,23.67
		c0.13,60.03,0.04,120.06,0.04,180.09c0,13.71,0.12,27.43,0.04,41.14c-0.09,15.98-8.38,24.5-24.07,24.51
		c-122.19,0.05-244.38,0.05-366.57,0.02c-15.61,0-24.2-8.51-24.22-24.37c-0.11-73.74-0.11-147.49-0.07-221.23
		c0.01-15.04,7.94-23.44,22.92-23.66c28.02-0.4,56.05-0.6,84.07-0.27c7.5,0.09,10.85-1.92,11.99-9.61
		c1.83-12.32,4.73-24.49,7.32-36.69c2.94-13.85,8.69-18.52,22.76-18.53c39.01-0.02,78.01,0,117.02,0.01
		c13.61,0,19.97,5.37,22.62,18.73C984.87,1199.67,988.03,1214.81,991.26,1230.6z M1095.2,1253.95c-0.04-7.74-4.83-10.32-12.12-10.23
		c-20.11,0.25-88.23,0.27-102.53,0.27c-3.69-18.27-7.86-35.46-10.4-52.88c-1.49-10.24-6.08-12.75-15.7-12.62
		c-36.87,0.48-73.76,0.4-110.63,0.1c-7.65-0.06-10.83,2.75-12.15,10.1c-3.29,18.23-7.22,36.34-11.04,55.19c-4.18,0-7.8,0-11.41,0
		c-29.87,0-59.73-0.03-89.6,0.02c-11.31,0.02-13.56,2.17-13.6,13.16c-0.1,26.82-0.19,181.32-0.17,219.12
		c0,8.16,4.46,11.01,12.32,10.95c28.94-0.22,271.53,0.13,363.88,0.19c10.57,0.01,13.34-2.89,13.37-13.72
		C1095.46,1458.33,1095.35,1283.76,1095.2,1253.95z"/>
	<circle class="st13" cx="900.61" cy="1351.26" r="101.53"/>
	<path class="st5" d="M991.26,1667.82c24.05,0,86.1-0.15,93.7,0.09c14.9,0.48,22.99,8.57,23.03,23.67
		c0.13,60.03,0.04,120.06,0.04,180.09c0,13.71,0.12,27.43,0.04,41.14c-0.09,15.98-8.38,24.5-24.07,24.51
		c-122.19,0.05-244.38,0.05-366.57,0.02c-15.61,0-24.2-8.51-24.22-24.37c-0.11-73.74-0.11-147.49-0.07-221.23
		c0.01-15.04,7.94-23.44,22.92-23.66c28.02-0.4,56.05-0.6,84.07-0.27c7.5,0.09,10.85-1.92,11.99-9.61
		c1.83-12.32,4.73-24.49,7.32-36.69c2.94-13.85,8.69-18.52,22.76-18.53c39.01-0.02,78.01,0,117.02,0.01
		c13.61,0,19.97,5.37,22.62,18.73C984.87,1636.89,988.03,1652.03,991.26,1667.82z M1095.2,1691.17
		c-0.04-7.74-4.83-10.32-12.12-10.23c-20.11,0.25-88.23,0.27-102.53,0.27c-3.69-18.27-7.86-35.46-10.4-52.88
		c-1.49-10.24-6.08-12.75-15.7-12.62c-36.87,0.48-73.76,0.4-110.63,0.1c-7.65-0.06-10.83,2.75-12.15,10.1
		c-3.29,18.23-7.22,36.34-11.04,55.19c-4.18,0-7.8,0-11.41,0c-29.87,0-59.73-0.03-89.6,0.02c-11.31,0.02-13.56,2.17-13.6,13.16
		c-0.1,26.82-0.19,181.32-0.17,219.12c0,8.16,4.46,11.01,12.32,10.95c28.94-0.22,271.53,0.13,363.88,0.19
		c10.57,0.01,13.34-2.89,13.37-13.72C1095.46,1895.55,1095.35,1720.98,1095.2,1691.17z"/>
	<circle class="st14" cx="900.61" cy="1788.48" r="101.53"/>
	<path class="st5" d="M903.43,1730.95c-19.19-0.19-21.36-0.03-41.58-0.03c0,45.1,0,107.08,0,151.78h15.47
		c0.01-11.64,0.01-30.14,0.01-49.74c6.76-0.01,23.81-0.08,27.29-0.18c32.97-0.92,56.71-19.9,56.71-51.47
		C961.33,1751.8,936.72,1731.27,903.43,1730.95z M902.33,1818.94c-5.04,0.09-15.53,0.08-25,0.06c0-31.64-0.01-62.64-0.01-69.49
		c0-3.37,0-5.06,3.98-5.06c10.93,0,10.18-0.09,21.12,0.14c26.04,0.57,44.38,16.42,44.38,38.16
		C946.8,1802.89,927.69,1818.49,902.33,1818.94z"/>
</g>
<g id="Logo3" class="st0">
	<g>
		<polygon class="st2" points="2543.98,1980.55 1343.98,1980.55 1343.98,780.55 2543.98,780.55 2543.98,1980.55 		"/>
		<path class="st5" d="M2055.34,1140.47l-19.89-139.88l321.21-45.67l5.77,40.55h16.5l-6.23-43.77
			c-1.34-9.41-10.05-15.95-19.45-14.61l-319.49,45.43c-9.41,1.34-15.95,10.05-14.61,19.46l33.47,235.41
			c0.38,2.64,1.33,5.05,2.72,7.12V1140.47L2055.34,1140.47z"/>
		<path class="st5" d="M2402.65,1020.13v147.54l-78.94-78.03L2202.97,1209l-65.43-61.11l-59.34,55.42v-183.17H2402.65
			L2402.65,1020.13z M2399.78,1274.18c10.6,0,19.2-8.6,19.2-19.2V1019.2c0-0.3-0.01-0.59-0.02-0.89c-0.03-0.59-0.09-1.16-0.18-1.73
			c-0.09-0.57-0.2-1.13-0.34-1.68c-0.28-1.1-0.67-2.16-1.16-3.16c-0.24-0.5-0.5-0.99-0.79-1.46c-0.25-0.4-0.51-0.79-0.79-1.18
			c-0.21-0.29-0.42-0.57-0.65-0.85c-0.17-0.21-0.35-0.42-0.54-0.62c-0.53-0.58-1.1-1.13-1.71-1.64c-0.07-0.06-0.15-0.12-0.22-0.18
			c-0.32-0.26-0.65-0.51-0.99-0.74c-0.15-0.1-0.3-0.2-0.45-0.3c-0.61-0.4-1.24-0.76-1.91-1.08c-1.5-0.72-3.12-1.24-4.83-1.5
			c-0.86-0.13-1.73-0.2-2.62-0.2h-322.7c-0.59,0-1.18,0.03-1.76,0.09c-7.23,0.73-13.14,5.94-14.9,12.82
			c-0.14,0.55-0.26,1.11-0.34,1.68c-0.09,0.57-0.15,1.15-0.18,1.73c-0.02,0.29-0.02,0.59-0.02,0.89v237.78
			c0,2.51,0.54,4.89,1.51,7.04c0.26,0.58,0.55,1.15,0.88,1.69c0.1,0.17,0.2,0.33,0.31,0.49c0.13,0.2,0.25,0.39,0.39,0.59
			c0.24,0.34,0.48,0.67,0.74,0.99c0.71,0.87,1.5,1.68,2.36,2.4c0.58,0.48,1.19,0.93,1.83,1.33c2.19,1.39,4.72,2.3,7.43,2.58
			c0.58,0.06,1.17,0.09,1.76,0.09H2399.78L2399.78,1274.18z"/>
		<path class="st5" d="M2202.59,1105.97c16.39,0,29.67-13.28,29.67-29.67c0-16.39-13.28-29.67-29.67-29.67s-29.67,13.28-29.67,29.67
			C2172.92,1092.69,2186.21,1105.97,2202.59,1105.97L2202.59,1105.97z"/>
		<path class="st5" d="M2218.98,1786.56c-72.24,0-131.01-58.77-131.01-131.01c0-72.24,58.77-131.01,131.01-131.01
			s131.01,58.77,131.01,131.01C2349.99,1727.79,2291.22,1786.56,2218.98,1786.56L2218.98,1786.56z M2218.98,1455.55
			c-110.46,0-200,89.54-200,200c0,110.46,89.54,200,200,200c110.46,0,200-89.54,200-200
			C2418.98,1545.09,2329.43,1455.55,2218.98,1455.55L2218.98,1455.55z"/>
		<path class="st5" d="M2156.02,1621.5l-11.34-5.43c7.38-13.86,18.62-25.63,32.77-33.68l5.93,11.08
			C2171.62,1600.22,2162.25,1610,2156.02,1621.5L2156.02,1621.5z M2148.17,1666.11l-12.37,2.22c-0.64-4.21-0.97-8.5-0.97-12.78
			c0-11.63,2.4-22.88,6.83-33.2l11.33,5.43c-3.64,8.64-5.61,18.05-5.61,27.76C2147.39,1659.08,2147.65,1662.63,2148.17,1666.11
			L2148.17,1666.11z M2218.98,1549.98c-58.21,0-105.57,47.36-105.57,105.57c0,58.21,47.36,105.57,105.57,105.57
			c58.21,0,105.57-47.36,105.57-105.57C2324.55,1597.34,2277.19,1549.98,2218.98,1549.98L2218.98,1549.98z"/>
		<path class="st5" d="M1668.98,1611.53c-35.35,0-64.11,28.62-64.11,63.8c0,35.18,28.76,63.8,64.11,63.8
			c35.35,0,64.11-28.62,64.11-63.8C1733.09,1640.15,1704.33,1611.53,1668.98,1611.53L1668.98,1611.53z"/>
		<path class="st5" d="M1668.98,1763.68c-48.88,0-88.65-39.63-88.65-88.34c0-48.71,39.77-88.34,88.65-88.34s88.65,39.63,88.65,88.34
			C1757.63,1724.05,1717.86,1763.68,1668.98,1763.68L1668.98,1763.68z M1814.89,1533.15h-41.18l-7.34-13.67
			c-3.04-14.67-22.05-25.9-42.62-25.9h-109.54c-20.58,0-39.58,11.23-42.62,25.9l-7.34,13.67h-41.18
			c-29.87,0-54.09,24.22-54.09,54.08v176.19c0,29.87,24.21,54.08,54.09,54.08h291.83c29.87,0,54.08-24.21,54.08-54.08v-176.19
			C1868.98,1557.37,1844.76,1533.15,1814.89,1533.15L1814.89,1533.15z"/>
		<path class="st5" d="M1611.73,1028.31h-127.29c-9.96,23.76-15.46,49.85-15.46,77.23c0,41.23,12.48,79.54,33.86,111.38
			L1611.73,1028.31L1611.73,1028.31z"/>
		<path class="st5" d="M1489.44,1017.35h217.8l-63.63-110.21C1575.73,915.73,1518.48,958.35,1489.44,1017.35L1489.44,1017.35z"/>
		<path class="st5" d="M1764.49,1094.59l63.62-110.19c-36.54-47.92-94.22-78.85-159.13-78.85c-4.49,0-8.95,0.16-13.37,0.46
			L1764.49,1094.59L1764.49,1094.59z"/>
		<path class="st5" d="M1835.11,994.17l-108.89,188.61h127.29c9.96-23.76,15.46-49.85,15.46-77.23
			C1868.98,1064.32,1856.5,1026.01,1835.11,994.17L1835.11,994.17z"/>
		<path class="st5" d="M1848.52,1193.74h-217.81l63.63,110.21C1762.22,1295.36,1819.48,1252.75,1848.52,1193.74L1848.52,1193.74z"/>
		<path class="st5" d="M1573.47,1116.51l-63.62,110.19c36.54,47.92,94.22,78.85,159.13,78.85c4.49,0,8.95-0.16,13.37-0.46
			L1573.47,1116.51L1573.47,1116.51z"/>
	</g>
	<path class="st5" d="M2222.19,2040.59c3.52-2.06,7.04-4.12,10.56-6.19c-56.34-99.21-112.68-198.42-171.22-301.5
		c33.61,0,60.92,0.56,88.2-0.16c26.19-0.69,53.15,3.46,78.65-3.03c-0.27-3.87-0.54-7.75-0.81-11.62c-113.21,0-226.42,0-346.44,0
		c30.08-52.98,56.58-99.64,83.07-146.31c-4.34-2.41-8.68-4.81-13.03-7.22c-57.15,99.57-114.3,199.15-173.47,302.23
		c-29.93-51.83-57.14-98.95-84.35-146.07c-3.87,2.24-7.75,4.47-11.62,6.71c57.54,99.94,115.08,199.88,176.43,306.41
		c-62.19,0-115.58,0-168.97,0c0.02,2.97,0.04,5.95,0.07,8.92c113.47,0,226.94,0,346.8,0c-30.44,53.58-57.21,100.7-83.99,147.83
		c3.38,1.89,6.76,3.77,10.14,5.65c57.65-98.68,115.31-197.35,175.01-299.54C2167.17,1947.44,2194.68,1994.02,2222.19,2040.59z"/>
	<path class="st15" d="M1650.19,1672.54c0,34.22,0,68.44,0,102.67c-1.78,0.03-3.55,0.06-5.33,0.09c0-34.13,0-68.27,0-102.4
		C1646.63,1672.78,1648.41,1672.66,1650.19,1672.54z"/>
	<path class="st2" d="M1957.47,1817.99c-13.72-0.16-15.27-0.03-29.73-0.03c0,38.08,0,90.43,0,128.18h11.07c0-9.83,0-25.45,0-42
		c4.83-0.01,17.03-0.07,19.51-0.15c23.57-0.78,41.77-19.71,41.8-43.46C2000.15,1837.17,1981.28,1818.26,1957.47,1817.99z
		 M1956.69,1892.3c-3.6,0.08-11.11,0.07-17.88,0.05c0-26.72,0-52.9,0-58.69c0-2.85,0-4.27,2.85-4.27c7.82,0,7.28-0.08,15.1,0.12
		c18.62,0.48,31.73,13.87,31.73,32.23C1988.49,1878.74,1974.83,1891.92,1956.69,1892.3z"/>
</g>
<g id="LogoExport">
	<path d="M241.09,104.81c5.04-12.9,9.85-25.4,14.81-37.84c2.4-6.01,4.88-12.01,7.66-17.86c8.73-18.39,23.93-27.24,43.75-27.33
		c68.11-0.29,136.23-0.28,204.34-0.01c20.19,0.08,35.43,9.32,44.13,27.96c3.48,7.44,6.34,15.17,9.42,22.8
		c4.26,10.58,8.46,21.18,12.88,32.27C466.07,104.81,353.38,104.81,241.09,104.81z"/>
	<path d="M293.96,240.73c57.33-65.1,170.06-87.14,235.68-30.11l0.02-0.02c-73.84-65.19-186.6-57.97-251.55,16.09
		c-60.46,68.94-58.19,170.63,2.25,236.74C231.07,403.18,241.62,300.16,293.96,240.73z"/>
	<path d="M151.9,93.65c10.97,0,21.94-0.2,32.89,0.08c5.56,0.14,8.39-1.31,7.92-7.53c-0.47-6.2,0.3-12.5-0.38-18.66
		c-0.21-1.95-3.3-5.11-5.11-5.14c-23.42-0.35-46.85-0.33-70.27-0.03c-1.76,0.02-3.51,2.95-5.17,4.6c-0.26,0.26-0.06,0.96-0.09,1.46
		c-1.58,25.22-1.58,25.22,23.76,25.22C140.94,93.65,146.42,93.65,151.9,93.65z"/>
	<line class="st16" x1="767.46" y1="62.88" x2="140.77" y2="689.57"/>
	<path d="M78.08,580.54c45.08,0,90.15,0,135.23,0l84.06-84.06c-48.13-34.68-79.32-91.22-79.27-155.34
		c0.07-106.04,86.28-191.85,192.31-191.42c63.49,0.25,119.63,31.54,154.24,79.48L691.54,102.3c-93.83-0.01-187.67-0.01-281.5-0.01
		c-111.29,0-222.59-0.02-333.88,0.01c-25.8,0.01-41.36,15.65-41.36,41.58c-0.03,131.26-0.03,262.52,0,393.77
		C34.82,565.29,50.26,580.54,78.08,580.54z"/>
	<path class="st0" d="M350.97,570.78c0.02-63.08,0-232.98,0-255.63c0-6.47,0-9.71,6.47-9.71c17.77,0,44.2-0.18,61.99,0.28
		c42.32,1.09,72.12,31.52,72.12,73.25c0,38.65-31.05,68.58-72.27,69.45c-13.38,0.28-26.76,0.04-41.49,0.04c0,38.07,0,88.1,0,125.99
		l25.35,2.04c0-27.37,0-72.69,0-101.17c7.22,0,13.54-0.14,19.86-0.35c53.57-1.76,94.93-44.8,95-98.78
		c0.07-53.07-42.83-96.05-96.93-96.66c-31.18-0.36-62.37-0.06-95.24-0.06c0,86.55,0,194.57,0,280.36L350.97,570.78z"/>
	<g class="st0">
		<path class="st5" d="M467.46,156.22c0,1.1-0.9,2-2,2H336.8c-1.1,0-2-0.9-2-2v-36.45c0-1.1,0.9-2,2-2h128.67c1.1,0,2,0.9,2,2
			V156.22z"/>
	</g>
	<g class="st0">
		<path class="st17" d="M195.66,186.96c0,0.55-0.45,1-1,1h-83.75c-0.55,0-1-0.45-1-1v-41.68c0-0.55,0.45-1,1-1h83.75
			c0.55,0,1,0.45,1,1V186.96z"/>
	</g>
	<path class="st0" d="M561.47,174.54c42.54,0,152.28-0.27,165.73,0.16c26.36,0.84,40.67,15.15,40.73,41.87
		c0.23,106.18,0.07,212.36,0.08,318.54c0,24.26,0.21,48.51,0.08,72.77c-0.15,28.27-14.83,43.34-42.57,43.35
		c-216.12,0.08-432.25,0.08-648.37,0.04c-27.6-0.01-42.8-15.05-42.84-43.11c-0.2-130.44-0.2-260.88-0.13-391.31
		c0.02-26.61,14.04-41.46,40.55-41.84c49.56-0.71,99.15-1.06,148.71-0.48c13.27,0.16,19.19-3.39,21.21-17
		c3.23-21.79,8.37-43.31,12.95-64.89c5.2-24.5,15.38-32.76,40.26-32.77c68.99-0.04,137.99,0,206.98,0.02
		c24.08,0.01,35.33,9.49,40.01,33.13C550.16,119.84,555.76,146.62,561.47,174.54z M745.32,215.84c-0.07-13.69-8.55-18.26-21.44-18.1
		c-35.57,0.43-156.05,0.47-181.36,0.47c-6.52-32.32-13.91-62.72-18.4-93.54c-2.64-18.11-10.75-22.55-27.77-22.32
		c-65.22,0.85-130.46,0.71-195.69,0.18c-13.53-0.11-19.15,4.86-21.5,17.86c-5.82,32.24-12.78,64.27-19.53,97.61
		c-7.4,0-13.79,0-20.18,0c-52.83,0-105.65-0.06-158.48,0.03c-20,0.03-23.98,3.83-24.05,23.27c-0.17,47.44-0.33,320.72-0.31,387.57
		c0,14.44,7.88,19.47,21.8,19.37c51.2-0.38,480.28,0.23,643.62,0.33c18.69,0.01,23.6-5.11,23.66-24.27
		C745.78,577.34,745.57,268.57,745.32,215.84z"/>
	<circle class="st18" cx="401.13" cy="387.96" r="179.58"/>
	<g class="st0">
		<path class="st5" d="M308.75,226.28c-61.38,106.35-121.98,211.34-183.62,318.12c-6.55-10.72-12.41-19.48-17.44-28.69
			c-19.19-35.18-31.49-72.8-37.1-112.37c-2.58-18.2-3.96-36.83-3.37-55.18c1.29-39.88,8.65-78.83,23.45-116.06
			c1.16-2.92,5.8-6.33,8.85-6.34c67.73-0.36,135.46-0.27,203.19-0.24C304.04,225.52,305.38,225.84,308.75,226.28z"/>
		<path class="st5" d="M678.36,167.51c15.46,22.16,26.43,44.63,35.85,68.03c9.77,24.27,16.69,49.47,19.08,75.19
			c2.43,26.24,2.48,53.01,0.25,79.27c-1.97,23.23-8.47,46.08-13.07,69.08c-0.48,2.39-1.49,4.69-2.43,6.96
			c-8.24,20.04-8.25,20.03-30.1,20.03c-60.23,0-120.46,0-180.69,0c-3.28,0-6.55,0-12.77,0C556.25,379.07,616.9,273.98,678.36,167.51
			z"/>
		<path class="st5" d="M377.51,22.85c39.43-3.5,76.32,0.27,112.55,10.04c47.49,12.81,90.5,34.72,127.32,67.41
			c16.82,14.94,31.72,32.08,46.97,48.7c1.98,2.16,2.41,8.1,0.89,10.77c-25.55,44.7-51.57,89.14-77.39,133.69
			c-8.78,15.15-17.3,30.44-26.83,47.24C499.57,234.28,438.9,129.18,377.51,22.85z"/>
		<path class="st5" d="M426.16,688.52c-55.8,4.24-107.66-4.45-157.69-25.75c-46.52-19.81-85.05-50.1-119-86.88
			c-3.35-3.63-6.45-7.5-9.6-11.32c-3.73-4.51-4.51-8.16-0.88-14.24c19.94-33.39,38.98-67.31,58.4-101.01
			c14.75-25.59,29.6-51.13,45.39-78.39C304.24,477.37,364.9,582.43,426.16,688.52z"/>
		<path class="st5" d="M467.46,209.04c-122.5,0-243.65,0-367.26,0c7.77-13.09,14.22-25.04,21.67-36.33
			c34.88-52.88,80.86-93.24,138.18-120.28c30.32-14.31,62.41-23.24,95.56-28.15c2.16-0.32,5.78,1.85,7.02,3.89
			c10.2,16.88,20.01,34,29.91,51.06c15.67,27.02,31.35,54.03,46.97,81.08C448.66,176.15,457.72,192.06,467.46,209.04z"/>
		<path class="st5" d="M703.28,504.62c-12.22,18.71-23.57,38.07-36.94,55.92c-10.53,14.06-23,26.81-35.58,39.15
			c-19.67,19.28-42.16,34.9-66.16,48.5c-32.97,18.68-68.38,30.15-105.32,37.52c-3.75,0.75-7.59,1.85-11.32,1.66
			c-2.47-0.13-5.93-1.65-7.08-3.62c-25.9-44.51-51.55-89.18-77.25-133.81c-8.85-15.38-17.73-30.75-27.25-47.26
			c122.51,0,243.53,0,364.55,0C701.72,503.31,702.5,503.97,703.28,504.62z"/>
	</g>
	<path class="st0" d="M681.3,524.95c3.72-2.18,7.44-4.36,11.16-6.54C632.89,413.5,573.31,308.59,511.4,199.58
		c35.54,0,64.42,0.59,93.27-0.17c27.69-0.73,56.2,3.66,83.17-3.2c-0.29-4.1-0.57-8.2-0.86-12.29c-119.72,0-239.43,0-366.35,0
		c31.81-56.02,59.83-105.37,87.85-154.72c-4.59-2.55-9.18-5.09-13.78-7.64c-60.44,105.3-120.87,210.59-183.44,319.6
		c-31.65-54.81-60.42-104.64-89.2-154.46c-4.1,2.37-8.19,4.73-12.29,7.1c60.85,105.68,121.7,211.36,186.57,324.03
		c-65.76,0-122.22,0-178.68,0c0.02,3.15,0.05,6.29,0.07,9.44c119.99,0,239.98,0,366.73,0c-32.19,56.66-60.5,106.49-88.82,156.32
		c3.57,1.99,7.15,3.99,10.72,5.98c60.97-104.35,121.94-208.7,185.07-316.75C623.13,426.45,652.21,475.7,681.3,524.95z"/>
	<path class="st19" d="M401.37,289.55c-14.51-0.17-16.15-0.03-31.44-0.03c0,40.27,0,95.63,0,135.55h11.7c0-10.4,0-26.92,0-44.42
		c5.11-0.01,18.01-0.07,20.63-0.16c24.93-0.82,44.17-20.84,44.2-45.96C446.51,309.84,426.55,289.84,401.37,289.55z M400.54,368.13
		c-3.81,0.08-11.74,0.07-18.9,0.05c0-28.26,0-55.94,0-62.06c0-3.01,0-4.52,3.01-4.52c8.27,0,7.69-0.08,15.97,0.13
		c19.69,0.51,33.56,14.67,33.56,34.08C434.17,353.8,419.72,367.73,400.54,368.13z"/>
</g>
</svg>
