<?xml version="1.0" encoding="utf-8"?>
<!-- Generator: Adobe Illustrator 26.2.1, SVG Export Plug-In . SVG Version: 6.00 Build 0)  -->
<svg version="1.1" id="Layer_1" xmlns="http://www.w3.org/2000/svg" xmlns:xlink="http://www.w3.org/1999/xlink" x="0px" y="0px"
	 viewBox="0 0 407.75 301.12" style="enable-background:new 0 0 407.75 301.12;" xml:space="preserve">
<style type="text/css">
	.st0{fill:#BCBEC0;stroke:#6D6E71;stroke-width:0.25;stroke-miterlimit:10;}
	.st1{fill:#020202;}
	.st2{fill:#9F9E9F;}
	.st3{fill:url(#SVGID_1_);}
</style>
<path class="st0" d="M400.38,273.62h-393c-3.99,0-7.25-3.26-7.25-7.25V67.88c0-3.99,3.26-7.25,7.25-7.25h393
	c3.99,0,7.25,3.26,7.25,7.25v198.5C407.62,270.36,404.36,273.62,400.38,273.62z"/>
<path class="st0" d="M62.54,60.62H31.71c-3.07,0-5.58-2.51-5.58-5.58v0c0-3.07,2.51-5.58,5.58-5.58h30.84
	c3.07,0,5.58,2.51,5.58,5.58v0C68.12,58.11,65.61,60.62,62.54,60.62z"/>
<path class="st0" d="M383.22,61.12h-29.2c-4.07,0-7.4-3.33-7.4-7.4v-1.2c0-4.07,3.33-7.4,7.4-7.4h29.2c4.07,0,7.4,3.33,7.4,7.4v1.2
	C390.62,57.79,387.29,61.12,383.22,61.12z"/>
<rect x="0.12" y="110.62" class="st1" width="407.5" height="146"/>
<polyline class="st0" points="115.38,165.6 134.62,49.62 173.96,0.12 239.96,0.12 273.74,49.46 297.09,162.86 "/>
<circle cx="206.7" cy="195.05" r="95.93"/>
<circle class="st2" cx="206.7" cy="205.2" r="95.93"/>
<ellipse class="st1" cx="206.24" cy="204.28" rx="90.85" ry="89.47"/>
<radialGradient id="SVGID_1_" cx="206.0063" cy="204.5063" r="56.9566" gradientUnits="userSpaceOnUse">
	<stop  offset="0" style="stop-color:#FFFFFF"/>
	<stop  offset="0.5595" style="stop-color:#ACACAE"/>
	<stop  offset="1" style="stop-color:#67686B"/>
</radialGradient>
<circle class="st3" cx="206.01" cy="204.51" r="56.96"/>
<g>
</g>
<g>
</g>
<g>
</g>
<g>
</g>
<g>
</g>
<g>
</g>
</svg>
