<?xml version="1.0" encoding="UTF-8"?><svg id="a" xmlns="http://www.w3.org/2000/svg" viewBox="0 0 646.62 401.59"><defs><style>.b{stroke:#1d8542;stroke-width:.25px;}.b,.c{fill:none;stroke-miterlimit:10;}.d{fill:#12401f;}.e{fill:#8d6d39;}.c{stroke:#d9d1c8;stroke-width:.75px;}.f{fill:#3f2111;}</style></defs><rect class="e" x="43.17" y="34.8" width="569.24" height="338.55"/><g><g><path class="d" d="M127.82,5.2S64.63-2.91,65.43,45.27c0,0,44.01,21.59,62.39-40.07Z"/><path class="b" d="M119.9,4.09s-30.99,29.48-54.04,40.09c0,0-8.2-44.53,59.64-44.05,0,0-9.19,57.56-58.21,44.56"/></g><g><g><path class="d" d="M0,107.88s67.05-2.37,57.98-52.31c0,0-49.43-14.91-57.98,52.31Z"/><path class="b" d="M8.42,107.68s27.17-35.94,49.31-50.9c0,0,16.14,44.87-54.45,55.98,0,0-.29-61.39,52.87-56.26"/></g><g><path class="f" d="M22.16,44.06s-3.1,2.9-3.2,4.7l2.33,5.55s-6-2.2-1.94,22.34l-1.14,2.73s-1.61,7.85-1.93,8.27-3.1,11.41,4.04,3.16c0,0,2.22-1.1,4.05,2.44,0,0,2.63,1.93,6.97-.46,0,0,9.5,1.61,10.4,2.59s9.2,1.47,11.6-2.58c0,0,1.33-1.12,2.48-2.11,0,0,10.79,20.74,23.17,16.17,0,0,.45-6.42,5.29-7.08,4.85-.65,4.2-5.3,4.2-5.3,0,0,11.21-4.14,6.69-13.97,0,0-1.24-9.73,3.22-14.23,0,0,2.26,.18,4.53-1.84,0,0,3.98-.89,6.63-.4s5.8,.8,10.77-8.42c0,0,.89-8.31,12.21-10.42,0,0,5.13-1.4-5.89-2.67,0,0,1.63-2.6,4.93-2.7,0,0-2.27-4.91-6.82-5.42,0,0-4.62-2.96-14.73-.85,0,0-5.7,1.82-8.92-3.2,0,0,1.53-2.53-7.31-11.78,0,0-.19-1.73-7.22-3.8,0,0-1.2-3.24-3.08-3.19s-2.54,1.08-1.8-3.71c0,0-3.41-1.44-9.25,2.67,0,0-3.33,3.67-5.76,2.85,0,0-1.47-2.52-2.36-2.21s-6.25,3.06-8.52-.58c0,0-.88-.71-10.43,1.12,0,0-7.19,1.05-16.54,19.66,0,0-9.82,4.5-6.67,12.66Z"/><g><path class="c" d="M59.67,74.19s-16.14-14.99-.23-14.13c0,0,10.26-.75,11.68-10.34,0,0,3.4-6.44,8.66-1.25,0,0,13.05-.22,12.67-5.33,0,0,2.97-5.05,7.61-2.29,0,0,1.86,.36,4.91-1.61,3.05-1.97,2.25,2.47,2.25,2.47,0,0-5.26,3.55-5.61,4.24s-1.93,9.75-1.93,9.75l-5.18,7.24s-6.65-1.72-8.19,5.16c0,0-4.4,3.89-14.76,2.13,0,0-5.06-.1-11.88,3.95Z"/><path class="c" d="M92.51,62.76s3.21,4.97,8.63,.67c0,0,2.3-.96,7.63-.29s9.77-8.53,9.77-8.53c0,0,1.24-8.93,12.21-10.42,0,0,5.12-1.37-5.89-2.67,0,0,1.18-2.43,4.93-2.7,0,0-2.34-4.98-6.82-5.42,0,0-3.44-2.57-14.73-.85,0,0-5.51,1.79-9.17-3.55,0,0-1.29,1.72-.03,3.52,0,0,4.06,5.01,1.02,8.33"/><path class="c" d="M48.48,77.06s3.15,5.14,10.45,5.71c0,0,8.12,1.9,15.21-2.73,0,0,3.64-4.76,5.18-4.72"/><path class="c" d="M19.31,53.85s-2.12-2.22-3.02,4.04c-.9,6.26,1.36,18.2,1.36,18.2,0,0-1.13,1.52-1.39,2.91s-1.25,7.62-2.08,8.08-1.95,10.9,4.36,2.73c0,0,2.02-1.6,4.05,2.44,0,0,2.59,1.7,6.97-.46,0,0,7.2,1.13,10.67,2.7,0,0,8.32,2.05,11.56-3.02,0,0,7.23-5.33,8.04-8.53"/><path class="c" d="M54.04,89.68s10.12,20.12,23.17,16.17c0,0,.32-6.54,5.29-7.08,0,0,4.13-.78,4.2-5.3,0,0,11.05-4.66,6.49-14.42,0,0-.91-10.71,3.43-13.78"/><path class="c" d="M93.75,64.06s-3.29,.31-3.13,2.08-2.25,13.21-15.7,8.11c0,0-5.13-2.42-7.96,1.06s-12.53,6.32-17.47,2.07"/><path class="c" d="M59.67,74.19s-6.5,8.7-21.15-2.18c0,0-13.27-2.6-16.62-10.78,0,0-3.06-11.19-4.74-13.48,0,0,.77-2.82,3.2-4.7,0,0-3.1-7.13,5.3-11.41s10.14-5.97,15.23-4.45"/><path class="c" d="M26.65,31.15s10.18-20.32,17.55-20.48c0,0,5.24-.55,8.39-1.24s.69,4.17,9.94,.76c0,0,.73-.29,2.28,2.2,0,0,2.61,.44,5.12-2.18s8.3-4.35,9.98-3.33c0,0-1.85,5.32,1.8,3.71,0,0,.92-.53,3.08,3.19,0,0,6.02,1.72,7.22,3.8,1.2,2.08,8,8.59,7.06,11.43"/><path class="c" d="M29.81,49.72s-5.65,5.24-1.37,6.78c0,0,2.24,10.5,13.76,9.74,0,0,4.89-1.78,12.84,3.38"/><path class="c" d="M36.68,65.64s7.52,10.17,10.17,10.95"/><path class="c" d="M32.79,52.9s-1.79,3.23,3.69,4.97c5.48,1.74,10.94,.57,15.92,5.5"/><path class="c" d="M35.93,57.68s-3.16-20.56,12.47-13.52c0,0,1.83,1.45,5.06-1.18,0,0,2.52-.63,4.82,1.56,0,0,1.34,1.16,3.95-.75,0,0,4.23,2.67,5.34,12.78"/><path class="c" d="M85.12,47.95s4.89-6.09,3.06-9.98c-1.82-3.89-2.09-8.27-2.76-9.79,0,0,3.6-6.92-2.53-1.89,0,0-1.3,2.89-6.69,4.3-5.39,1.41-16.07,1.96-20.21,12.56"/><path class="c" d="M46.92,43.55s-2.83-6.22-1.21-8.39,8.31-1.79,11.57,5.34"/><path class="c" d="M55.08,36.79s-1.16-6.24,6.16-8.01c0,0,3.24-6.96,9.35-5.23,0,0,2.81,1.36,4.35-2.36s4.08,8.38,4.08,8.38"/><path class="c" d="M46.96,34.19l2.24-5.13s4.28,.29,8.44-2.12c0,0,.92-.49,3.67,1.05"/><path class="c" d="M35.67,53.4s-10.78-1.53-3.47-10.88c0,0,8.75-3.74,10.7-7.74s4.94-3.08,4.94-3.08"/><path class="c" d="M35.02,41.15s5.32-13.46,7.05-15.22c1.73-1.77,7.68-3.02,10.43-1.5s8.65-2.54,8.65-2.54c0,0,6.25-4.83,9.44,1.66"/></g></g></g></g><g><g><path class="d" d="M519.06,397.07s21.2-60.07,63.87-37.66c0,0-.54,49.02-63.87,37.66Z"/><path class="b" d="M521.64,389.49s40.28-14.4,60.13-30.2c0,0-36.07-27.38-66.19,33.42,0,0,55.53,17.71,65.99-31.91"/></g><g><path class="d" d="M640.61,287.92s-2.6,67.05-52.5,57.81c0,0-14.75-49.48,52.5-57.81Z"/><path class="b" d="M640.38,296.34s-36.03,27.05-51.07,49.14c0,0,44.82,16.29,56.16-54.26,0,0-61.39-.5-56.44,52.68"/></g><g><path class="f" d="M621.35,322.68s3.93,1.6,4.66,3.25l-.21,6.02s4.82-4.2,9.76,20.19l2.04,2.15s4.29,6.76,4.75,7.05,6.96,9.56-2.65,4.39c0,0-2.47-.24-2.92,3.72,0,0-1.78,2.74-6.68,2.05,0,0-8.3,4.89-8.8,6.12s-8.07,4.65-11.76,1.72c0,0-1.64-.58-3.07-1.09,0,0-2.7,23.22-15.9,23.35,0,0-2.7-5.84-7.47-4.73-4.76,1.11-5.81-3.45-5.81-3.45,0,0-11.94,.12-11.23-10.67,0,0-2.3-9.53-8.08-12.15,0,0-2.05,.97-4.88-.11,0,0-4.04,.58-6.33,1.99-2.29,1.41-5.13,2.81-13.07-4.04,0,0-3.79-7.45-15.12-5.39,0,0-5.29,.51,4.55-4.59,0,0-2.45-1.85-5.57-.76,0,0,.37-5.4,4.45-7.49,0,0,3.26-4.41,13.47-6.04,0,0,5.97-.32,7.19-6.17,0,0-2.33-1.82,2.64-13.61,0,0-.44-1.69,5.4-6.13,0,0-.03-3.45,1.74-4.08s2.76,.11,.36-4.11c0,0,2.68-2.56,9.6-.8,0,0,4.42,2.24,6.4,.62,0,0,.48-2.88,1.42-2.9s6.93,.63,7.75-3.57c0,0,.57-.98,10.15-2.67,0,0,7.1-1.57,22.46,12.49,0,0,10.78,.71,10.74,9.46Z"/><g><path class="c" d="M597.01,364.18s9.75-19.75-4.81-13.28c0,0-9.86,2.96-14.59-5.5,0,0-5.47-4.81-8.54,1.92,0,0-12.27,4.43-13.74-.47,0,0-4.57-3.66-7.92,.57,0,0-1.61,1-5.16,.24-3.56-.76-1.22,3.11-1.22,3.11,0,0,6.18,1.45,6.75,1.96s5.28,8.42,5.28,8.42l7.42,4.92s5.6-3.98,9.49,1.91c0,0,5.5,2.07,14.55-3.26,0,0,4.7-1.89,12.51-.53Z"/><path class="c" d="M562.26,365.19s-1.23,5.79-7.83,3.7c0,0-2.49-.08-7.23,2.45-4.74,2.53-12.17-4.5-12.17-4.5,0,0-4.34-7.9-15.12-5.39,0,0-5.28,.54,4.55-4.59,0,0-1.97-1.85-5.57-.76,0,0,.41-5.49,4.45-7.49,0,0,2.3-3.63,13.47-6.04,0,0,5.79-.29,7.31-6.58,0,0,1.81,1.15,1.29,3.28,0,0-2.01,6.12,2.01,8.15"/><path class="c" d="M608.5,362.88s-1.11,5.93-7.73,9.06c0,0-6.91,4.66-15.19,2.86,0,0-5.1-3.16-6.52-2.56"/><path class="c" d="M627.49,330.81s1.19-2.83,4.27,2.7c3.07,5.53,5.21,17.5,5.21,17.5,0,0,1.6,1.01,2.33,2.22s3.88,6.68,4.82,6.81,5.7,9.49-3.1,4.1c0,0-2.46-.77-2.92,3.72,0,0-1.82,2.51-6.68,2.05,0,0-6.32,3.62-9.01,6.32,0,0-7.05,4.88-11.88,1.29,0,0-8.65-2.41-10.55-5.11"/><path class="c" d="M607.79,376.65s-2.3,22.4-15.9,23.35c0,0-2.63-6-7.47-4.73,0,0-4.13,.74-5.81-3.45,0,0-11.99-.42-11.2-11.17,0,0-2.96-10.33-8.11-11.66"/><path class="c" d="M561.56,366.84s3.19-.88,3.66,.83,6.8,11.54,17.56,1.99c0,0,3.93-4.08,7.82-1.85s13.96,1.44,17.06-4.29"/><path class="c" d="M597.01,364.18s9.17,5.82,18.99-9.56c0,0,11.48-7.16,11.69-15.99,0,0-1.13-11.55-.37-14.28,0,0-1.72-2.36-4.66-3.25,0,0,.36-7.77-9.01-8.77-9.38-1.01-11.6-1.97-15.82,1.26"/><path class="c" d="M612.55,312.2s-16.75-15.36-23.69-12.89c0,0-5.09,1.35-8.28,1.83s.84,4.14-9.02,4.25c0,0-.79,0-1.35,2.86,0,0-2.28,1.34-5.56-.22s-9.31-1.11-10.51,.44c0,0,3.62,4.31-.36,4.11,0,0-1.05-.17-1.74,4.08,0,0-5.01,3.75-5.4,6.13-.38,2.37-4.42,10.87-2.53,13.19"/><path class="c" d="M616.21,330.68s7.14,2.88,3.69,5.85c0,0,1.65,10.61-9.39,14,0,0-5.2,.08-10.8,7.74"/><path class="c" d="M615.46,348s-3.41,12.18-5.6,13.86"/><path class="c" d="M614.56,334.72s2.82,2.39-1.68,5.96-10.02,4.43-12.92,10.81"/><path class="c" d="M613.33,340.3s-4.37-20.34-16.47-8.2c0,0-1.2,2.01-5.15,.7,0,0-2.58,.31-3.95,3.17,0,0-.84,1.56-3.96,.71,0,0-3,4-.44,13.84"/><path class="c" d="M563.89,348.72s-6.73-3.95-6.41-8.23c.32-4.28-.99-8.47-.9-10.14,0,0-5.83-5.19,1.69-2.67,0,0,2.24,2.24,7.78,1.64,5.54-.6,15.71-3.89,23.36,4.55"/><path class="c" d="M598.03,331.01s.43-6.82-1.86-8.27-8.4,1.29-8.91,9.11"/><path class="c" d="M587.99,327.6s-1.14-6.24-8.61-5.29c0,0-5.5-5.35-10.6-1.56,0,0-2.14,2.28-4.9-.65s-.83,9.28-.83,9.28"/><path class="c" d="M594.66,322.28l-3.92-3.99s-3.9,1.79-8.64,1.03c0,0-1.04-.13-3.06,2.29"/><path class="c" d="M612.05,336.21s9.53-5.27-.63-11.4c0,0-9.51-.38-12.75-3.43s-5.71-1.12-5.71-1.12"/><path class="c" d="M608.29,324.54s-9.77-10.68-12.01-11.72c-2.25-1.03-8.25-.09-10.28,2.31s-8.99,.71-8.99,.71c0,0-7.56-2.29-8.23,4.91"/></g></g></g></svg>