<?xml version="1.0" encoding="UTF-8"?><svg id="a" xmlns="http://www.w3.org/2000/svg" viewBox="0 0 601.64 366.78"><defs><style>.b{stroke:#1d8542;stroke-width:.25px;}.b,.c,.d{fill:none;stroke-miterlimit:10;}.c{stroke:#8d6d39;}.e{fill:#3e2010;}.f{fill:#12401f;}.d{stroke:#d9d1c8;stroke-width:.75px;}</style></defs><rect class="c" x="32.34" y="31.9" width="538.62" height="306.96"/><g><path class="f" d="M483.74,359.43s63.63,18.09,70.25-31.51c0,0-41.86-28.97-70.25,31.51Z"/><path class="b" d="M491.7,361.79s36.38-25.49,61.69-32.82c0,0,1.55,46.99-68.05,36.02,0,0,18.32-57.69,66.65-36.77"/></g><g><path class="f" d="M601.64,270.88s-61.85,6.46-50.28,52.06c0,0,46.66,10.64,50.28-52.06Z"/><path class="b" d="M593.86,271.6s-22.83,34.96-42.35,50.21c0,0-17.78-40.47,46.78-55.23,0,0,4.18,56.75-45.3,55.39"/></g><path class="e" d="M571.21,289.85s3.52,.6,4.43,1.82l.93,4.98s3.2-4.33,11.71,14.81l2.07,1.39s4.76,4.77,5.19,4.92,7.46,6.59-1.38,4.09c0,0-2.07,.26-1.72,3.59,0,0-.96,2.57-5.11,2.9,0,0-5.93,5.53-6.12,6.64s-5.78,5.29-9.35,3.56c0,0-1.46-.17-2.72-.34,0,0,2.02,19.57-8.8,22.1,0,0-3.29-4.31-7-2.52s-5.4-1.78-5.4-1.78c0,0-9.79,2.28-11.17-6.72,0,0-3.63-7.41-8.86-8.51,0,0-1.5,1.17-4.03,.8,0,0-3.21,1.21-4.84,2.79s-3.7,3.25-11.47-.93c0,0-4.48-5.43-13.41-1.67,0,0-4.26,1.39,2.9-4.6,0,0-2.35-1.07-4.72,.39,0,0-.68-4.5,2.29-6.97,0,0,1.88-4.22,9.96-7.42,0,0,4.85-1.36,4.79-6.38,0,0-2.25-1.07-.32-11.66,0,0-.67-1.31,3.31-6.02,0,0-.66-2.83,.68-3.67,1.34-.84,2.29-.42-.45-3.44,0,0,1.73-2.59,7.74-2.41,0,0,4.04,1.04,5.37-.66,0,0-.14-2.45,.64-2.65s5.81-.75,5.72-4.35c0,0,.29-.91,7.85-4.05,0,0,5.54-2.59,20.73,6.16,0,0,8.99-1.39,10.56,5.81Z"/><g><path class="d" d="M558.8,328.41s4.4-18.01-6.38-10.04c0,0-7.56,4.23-13-1.86,0,0-5.37-2.95-6.67,3.13,0,0-9.27,5.88-11.38,2.12,0,0-4.43-2.17-6.41,1.92,0,0-1.14,1.12-4.2,1.14-3.06,.03-.44,2.78-.44,2.78,0,0,5.34,.06,5.91,.38s5.87,5.96,5.87,5.96l7,2.69s3.88-4.29,8.14-.16c0,0,4.9,.7,11.36-5.34,0,0,3.52-2.41,10.18-2.72Z"/><path class="d" d="M530.42,335.58s.05,4.98-5.76,4.47c0,0-2.06,.39-5.49,3.33-3.43,2.94-10.82-1.47-10.82-1.47,0,0-5.01-5.7-13.41-1.67,0,0-4.24,1.41,2.9-4.6,0,0-1.96-1.16-4.72,.39,0,0-.66-4.59,2.29-6.97,0,0,1.23-3.4,9.96-7.42,0,0,4.7-1.3,4.8-6.74,0,0,1.7,.61,1.66,2.46,0,0-.53,5.4,3.14,6.33"/><path class="d" d="M567.99,325.24s.17,5.07-4.7,8.86c0,0-4.83,5.09-11.96,5.12,0,0-4.77-1.66-5.83-.91"/><path class="d" d="M577.75,295.41s.46-2.54,4,1.44c3.53,3.99,7.48,13.43,7.48,13.43,0,0,1.5,.54,2.32,1.4s4.41,4.78,5.21,4.71,6.42,6.76-1.8,3.94c0,0-2.16-.19-1.72,3.59,0,0-1.03,2.4-5.11,2.9,0,0-4.54,4.13-6.25,6.84,0,0-4.9,5.29-9.53,3.23,0,0-7.55-.4-9.61-2.27"/><path class="d" d="M569.93,336.69s2.21,18.83-8.8,22.1c0,0-3.25-4.45-7-2.52,0,0-3.26,1.37-5.4-1.78,0,0-9.93,1.84-11.24-7.13,0,0-4.32-7.95-8.79-8.1"/><path class="d" d="M530.15,337.07s2.46-1.31,3.16,.01,7.7,8.25,14.79-1.57c0,0,2.49-4.08,6.09-2.95,3.6,1.13,11.73-1.36,13.24-6.64"/><path class="d" d="M558.8,328.41s8.6,3.11,13.86-11.33c0,0,8.13-7.98,6.69-15.27,0,0-3.04-9.29-2.91-11.67,0,0-1.84-1.62-4.43-1.82,0,0-1.12-6.45-9.01-5.56s-9.9,.5-12.77,3.93"/><path class="d" d="M562.07,282.85s-16.57-9.57-21.83-6.26c0,0-3.94,2.04-6.47,3.01-2.53,.97,1.45,3.25-6.63,5.14,0,0-.65,.14-.59,2.6,0,0-1.63,1.51-4.61,.84-2.98-.68-7.85,.79-8.56,2.28,0,0,3.76,2.88,.45,3.44,0,0-.89,.05-.68,3.67,0,0-3.43,4-3.31,6.02s-1.65,9.74,.33,11.3"/><path class="d" d="M568.45,297.37s6.4,1.06,4.1,4.14c0,0,3.29,8.42-5.16,13.22,0,0-4.26,1.01-7.46,8.33"/><path class="d" d="M571,311.74s-.58,10.64-2.07,12.41"/><path class="d" d="M567.83,300.99s2.76,1.44-.29,5.2c-3.05,3.76-7.42,5.47-8.64,11.24"/><path class="d" d="M567.84,305.8s-7.31-15.91-15.03-3.73c0,0-.62,1.87-4.1,1.51,0,0-2.07,.72-2.67,3.33,0,0-.4,1.44-3.12,1.3,0,0-1.73,3.83,2.16,11.45"/><path class="d" d="M528.75,321.75s-6.26-2.02-6.77-5.59-2.36-6.78-2.59-8.16c0,0-5.74-3.2,.9-2.5,0,0,2.25,1.43,6.69-.07,4.44-1.51,12.2-6.07,20.03-.53"/><path class="d" d="M553.57,300.96s-.89-5.69-3.03-6.45c-2.14-.77-6.67,2.59-5.66,9.11"/><path class="d" d="M544.7,299.99s-2.08-4.92-8.05-2.78c0,0-5.5-3.39-8.99,.66,0,0-1.34,2.26-4.15,.36-2.81-1.9,1.01,7.78,1.01,7.78"/><path class="d" d="M549.2,294.4l-3.95-2.57s-2.88,2.18-6.92,2.42c0,0-.88,.08-2.09,2.44"/><path class="d" d="M566.04,302.68s6.87-6.07-2.6-9.26c0,0-7.88,1.42-11.11-.49-3.22-1.91-4.9,.12-4.9,.12"/><path class="d" d="M560.82,293.77s-9.98-6.99-12.01-7.43c-2.03-.44-6.8,1.44-8.03,3.77s-7.26,2.23-7.26,2.23c0,0-6.63-.5-5.87,5.54"/></g><g><path class="f" d="M132.89,7.89s-52.14-19.53-61.09,21.63c0,0,33.14,27.16,61.09-21.63Z"/><path class="b" d="M126.37,5.36s-32.26,18.89-53.99,23.32c0,0,1.91-39.53,59.55-25.57,0,0-19.31,47.14-58.43,26.29"/></g><g><path class="f" d="M0,91.54s57.92,1.41,52.67-42.1c0,0-41.84-15.4-52.67,42.1Z"/><path class="b" d="M7.27,91.8s25.27-29.57,45.12-41.34c0,0,11.6,39.51-49.81,45.44,0,0,2.91-52.93,48.47-45.77"/></g><path class="e" d="M23.8,35.78s-2.66,2.53-2.73,4.09l2.06,4.78s-5.2-1.86-1.51,19.32l-.96,2.37s-1.33,6.79-1.6,7.16-2.59,9.88,3.51,2.7c0,0,1.91-.97,3.52,2.08,0,0,2.29,1.64,6.02-.45,0,0,8.22,1.32,9.01,2.16s7.96,1.2,10.01-2.32c0,0,1.14-.98,2.12-1.84,0,0,9.48,17.84,20.14,13.8,0,0,.34-5.55,4.52-6.15s3.59-4.61,3.59-4.61c0,0,9.65-3.66,5.68-12.12,0,0-1.14-8.4,2.68-12.32,0,0,1.95,.14,3.9-1.62,0,0,3.43-.8,5.72-.39s5.02,.65,9.25-7.36c0,0,.71-7.19,10.47-9.09,0,0,4.42-1.25-5.11-2.26,0,0,1.39-2.26,4.24-2.37,0,0-1.99-4.23-5.94-4.63,0,0-4.01-2.53-12.74-.63,0,0-4.91,1.62-7.73-2.7,0,0,1.31-2.2-6.4-10.12,0,0-.18-1.5-6.27-3.23,0,0-1.06-2.79-2.68-2.73s-2.19,.95-1.58-3.19c0,0-2.96-1.22-7.98,2.38,0,0-2.85,3.2-4.96,2.51,0,0-1.29-2.17-2.06-1.89s-5.38,2.69-7.36-.44c0,0-.76-.61-9.01,1.04,0,0-6.21,.96-14.15,17.11,0,0-8.45,3.96-5.67,10.99Z"/><g><path class="d" d="M56.44,61.54s-14.06-12.83-.31-12.21c0,0,8.86-.72,10.02-9.02,0,0,2.89-5.59,7.47-1.14,0,0,11.27-.29,10.91-4.7,0,0,2.53-4.38,6.56-2.03,0,0,1.61,.3,4.23-1.43,2.62-1.73,1.96,2.12,1.96,2.12,0,0-4.52,3.11-4.82,3.7s-1.6,8.44-1.6,8.44l-4.42,6.29s-5.76-1.44-7.03,4.52c0,0-3.77,3.4-12.73,1.95,0,0-4.38-.04-10.23,3.5Z"/><path class="d" d="M84.74,51.42s2.81,4.27,7.46,.52c0,0,1.98-.85,6.59-.3,4.61,.54,8.38-7.45,8.38-7.45,0,0,1-7.72,10.47-9.09,0,0,4.42-1.22-5.11-2.26,0,0,1-2.1,4.24-2.37,0,0-2.06-4.29-5.94-4.63,0,0-2.99-2.2-12.74-.63,0,0-4.75,1.58-7.95-3,0,0-1.1,1.49,0,3.04,0,0,3.54,4.3,.94,7.19"/><path class="d" d="M46.79,64.1s2.76,4.42,9.07,4.86c0,0,7.03,1.58,13.12-2.47,0,0,3.11-4.14,4.44-4.11"/><path class="d" d="M21.42,44.26s-1.85-1.9-2.58,3.52c-.73,5.42,1.31,15.72,1.31,15.72,0,0-.97,1.32-1.18,2.52s-1.02,6.59-1.74,7-1.6,9.43,3.79,2.33c0,0,1.74-1.4,3.52,2.08,0,0,2.25,1.45,6.02-.45,0,0,6.23,.92,9.24,2.26,0,0,7.21,1.71,9.97-2.69,0,0,6.2-4.66,6.89-7.43"/><path class="d" d="M51.69,74.96s8.89,17.31,20.14,13.8c0,0,.23-5.65,4.52-6.15,0,0,3.56-.7,3.59-4.61,0,0,9.52-4.11,5.5-12.51,0,0-.87-9.25,2.86-11.93"/><path class="d" d="M85.81,52.53s-2.84,.29-2.69,1.82-1.84,11.43-13.5,7.13c0,0-4.45-2.05-6.87,.97s-10.78,5.55-15.08,1.92"/><path class="d" d="M56.44,61.54s-5.55,7.57-18.29-1.73c0,0-11.49-2.15-14.44-9.19,0,0-2.72-9.65-4.19-11.61,0,0,.64-2.44,2.73-4.09,0,0-2.73-6.14,4.5-9.9s8.72-5.23,13.13-3.96"/><path class="d" d="M27.59,24.59S36.24,6.95,42.61,6.76c0,0,4.53-.51,7.24-1.13s.63,3.6,8.6,.59c0,0,.63-.25,1.99,1.88,0,0,2.26,.36,4.41-1.92,2.15-2.28,7.14-3.82,8.6-2.95,0,0-1.56,4.61,1.58,3.19,0,0,.79-.47,2.68,2.73,0,0,5.22,1.44,6.27,3.23s6.98,7.36,6.18,9.82"/><path class="d" d="M30.46,40.61s-4.84,4.57-1.13,5.87c0,0,2.01,9.06,11.96,8.32,0,0,4.21-1.57,11.12,2.83"/><path class="d" d="M36.51,54.31s6.58,8.73,8.87,9.39"/><path class="d" d="M33.06,43.34s-1.52,2.81,3.23,4.27c4.75,1.46,9.46,.41,13.79,4.64"/><path class="d" d="M35.8,47.44s-2.88-17.74,10.68-11.78c0,0,1.59,1.24,4.36-1.06,0,0,2.18-.57,4.18,1.31,0,0,1.17,.99,3.41-.68,0,0,3.67,2.28,4.71,11"/><path class="d" d="M78.24,38.67s4.18-5.3,2.57-8.64-1.87-7.13-2.46-8.44c0,0,3.06-6.01-2.2-1.61,0,0-1.1,2.51-5.75,3.77s-13.87,1.81-17.37,11.01"/><path class="d" d="M45.19,35.15s-2.49-5.36-1.11-7.24,7.17-1.61,10.04,4.53"/><path class="d" d="M52.2,29.25s-1.04-5.38,5.27-6.97c0,0,2.74-6.04,8.04-4.58,0,0,2.44,1.16,3.74-2.07,1.3-3.23,3.59,7.21,3.59,7.21"/><path class="d" d="M45.16,27.07l1.9-4.45s3.7,.21,7.28-1.89c0,0,.79-.43,3.18,.88"/><path class="d" d="M35.55,43.75s-9.33-1.24-3.08-9.38c0,0,7.53-3.3,9.19-6.77s4.24-2.7,4.24-2.7"/><path class="d" d="M34.9,33.17s4.5-11.67,5.98-13.21,6.62-2.66,9-1.38,7.46-2.26,7.46-2.26c0,0,5.36-4.22,8.17,1.36"/></g></svg>