<?xml version="1.0" encoding="UTF-8"?><svg id="a" xmlns="http://www.w3.org/2000/svg" viewBox="0 0 436.28 315.91"><defs><style>.b{stroke:#fff;stroke-width:.75px;}.b,.c{fill:none;stroke-miterlimit:10;}.d{fill:#547042;}.c{stroke:#6d9156;stroke-width:.25px;}.e{fill:#8d6d39;}.f{fill:#b79665;}</style></defs><g><path class="d" d="M.23,254.45s139.11,87.14,189.21-26.48c0,0-79.71-97.99-189.21,26.48Z"/><path class="c" d="M17.56,265.6s104.32-35.56,169.7-35.53c0,0-28.83,113.05-187.08,38.76,0,0,83.58-124.79,184.27-41.5"/></g><g><path class="d" d="M436.28,52.82S298.58-24.19,255.91,87.26c0,0,81.19,90.26,180.36-34.44Z"/><path class="c" d="M419.11,42.95s-98.44,39.11-161.21,42.2c0,0,22.28-109.9,177.73-46.12,0,0-74.28,123.77-174.9,48.62"/></g><g><path class="e" d="M77.71,79.66s-8.19,6.4-8.82,10.77l4.49,14.05s-14.16-6.67-9.57,54.06l-3.37,6.42s-5.61,18.79-6.49,19.76-10.03,27.16,9.17,8.57c0,0,5.65-2.2,9.35,6.83,0,0,6.01,5.27,17.1,.38,0,0,22.82,5.99,24.82,8.56,1.99,2.57,22.11,5.58,28.86-3.78,0,0,3.49-2.45,6.5-4.62,0,0,21.82,52.91,53.01,44.44,0,0,2.48-15.57,14.44-16.11,11.96-.55,11.38-12,11.38-12,0,0,28.23-7.67,19.35-32.62,0,0-.92-24,10.95-34.01,0,0,5.47,.93,11.43-3.5,0,0,9.9-1.32,16.24,.46,6.34,1.78,13.97,3.21,28.1-18.21,0,0,3.98-20.08,32.03-22.76,0,0,12.82-2.32-13.78-7.78,0,0,4.54-5.99,12.61-5.5,0,0-4.46-12.48-15.47-14.7,0,0-10.63-8.23-35.75-5.27,0,0-14.29,3.21-21.06-9.74,0,0,4.29-5.84-15.28-30.3,0,0-.09-4.27-16.79-10.84,0,0-2.22-8.16-6.81-8.44s-6.43,2.09-3.58-9.44c0,0-8.01-4.25-23.15,4.51,0,0-8.91,8.23-14.67,5.71,0,0-3.04-6.47-5.29-5.89-2.25,.58-15.9,6.1-20.65-3.25,0,0-1.99-1.92-25.69,.46,0,0-17.77,1.01-44.6,44.37,0,0-24.93,8.84-19.01,29.44Z"/><g><path class="b" d="M162.68,161.26s-36.12-40.06,2.49-34.5c0,0,25.2,.4,30.72-22.68,0,0,9.69-14.96,21.39-1.17,0,0,31.87,2.28,32.06-10.26,0,0,8.34-11.67,19.05-3.93,0,0,4.45,1.29,12.32-2.86,7.87-4.15,4.95,6.52,4.95,6.52,0,0-13.6,7.53-14.61,9.12-1.01,1.59-6.82,23.36-6.82,23.36l-14.2,16.54s-15.85-5.64-21.08,10.82c0,0-11.57,8.55-36.45,1.99,0,0-12.33-1.33-29.82,7.07Z"/><path class="b" d="M245.25,140.5s6.75,12.82,20.91,3.51c0,0,5.81-1.85,18.66,.95,12.85,2.8,25.69-18.7,25.69-18.7,0,0,4.96-21.5,32.03-22.76,0,0,12.79-2.23-13.78-7.78,0,0,3.41-5.66,12.61-5.5,0,0-4.63-12.66-15.47-14.7,0,0-7.83-7.02-35.75-5.27,0,0-13.84,3.16-21.6-10.64,0,0-3.51,3.91-.84,8.58,0,0,8.81,13.09,.68,20.54"/><path class="b" d="M134.76,165.84s6.56,13.22,24.24,16.2c0,0,19.39,6.38,37.69-3.37,0,0,9.92-10.83,13.66-10.38"/><path class="b" d="M68.65,102.91s-4.7-5.87-8.25,9.21c-3.55,15.08-.62,44.69-.62,44.69,0,0-3.1,3.45-4.01,6.79-.91,3.33-4.69,18.31-6.83,19.25-2.14,.94-7.11,26.16,10.05,7.6,0,0,5.28-3.46,9.35,6.83,0,0,5.95,4.71,17.1,.38,0,0,17.31,4.31,25.44,8.9,0,0,19.85,6.8,28.85-4.86,0,0,18.78-11.43,21.47-19.07"/><path class="b" d="M145.6,197.82s20.33,51.26,53.01,44.44c0,0,2.2-15.88,14.44-16.11,0,0,10.23-1,11.38-12,0,0,27.97-8.98,18.95-33.77,0,0,.1-26.32,11.34-32.87"/><path class="b" d="M247.99,143.93s-8.1,.04-8.08,4.39c.02,4.35-8.34,31.73-40.04,16.38,0,0-11.98-7.01-19.65,.85-7.67,7.86-31.92,12.69-43.06,1.26"/><path class="b" d="M162.68,161.26s-17.74,19.82-51.11-9.89c0,0-31.81-9.22-38.19-29.89,0,0-5.03-27.96-8.64-33.9,0,0,2.48-6.7,8.82-10.77,0,0-6.02-18.06,15.4-26.67,21.42-8.61,26.03-12.37,38.11-7.55"/><path class="b" d="M91.47,49.13S120.7,1.78,138.72,2.99c0,0,12.9-.2,20.73-1.21,7.83-1.01,.78,10.32,24.08,4.02,0,0,1.85-.54,5.09,5.85,0,0,6.27,1.63,12.95-4.21,6.69-5.84,21.19-8.82,25.07-5.97,0,0-5.66,12.57,3.58,9.44,0,0,2.35-1.1,6.81,8.44,0,0,14.31,5.51,16.79,10.84,2.48,5.34,17.66,22.68,14.74,29.4"/><path class="b" d="M95.15,95.11s-14.91,11.55-4.8,16.25c0,0,3.18,26.1,31.45,26.74,0,0,12.3-3.27,30.59,11.04"/><path class="b" d="M108.46,135.42s16.15,26.44,22.42,28.92"/><path class="b" d="M101.74,103.51s-5.06,7.5,7.93,12.92c12.99,5.42,26.55,3.77,37.63,16.86"/><path class="b" d="M108.35,115.85s-3.24-50.83,33.34-30.28c0,0,4.15,3.93,12.6-1.78,0,0,6.29-1,11.43,4.85,0,0,3.02,3.12,9.8-.97,0,0,9.73,7.43,10.26,32.31"/><path class="b" d="M230.44,102.77s13.24-13.79,9.63-23.67c-3.6-9.87-3.31-20.61-4.62-24.48,0,0,10.28-16.1-5.75-5.16,0,0-3.79,6.77-17.24,9.04-13.45,2.27-39.62,1.29-52.01,26.26"/><path class="b" d="M138.21,83.77s-5.56-15.79-1.13-20.71c4.43-4.92,20.65-2.56,27.06,15.54"/><path class="b" d="M159.59,69.05s-1.47-15.46,16.77-18.21c0,0,9.4-16.27,23.93-10.72,0,0,6.56,3.94,11.12-4.81,4.56-8.75,8.14,21.32,8.14,21.32"/><path class="b" d="M140.35,60.96l6.57-12.01s10.38,1.62,21.05-3.34c0,0,2.35-1.01,8.72,3.35"/><path class="b" d="M108.65,105.36s-25.96-6.06-6.11-27.29c0,0,22.15-7.23,27.77-16.57,5.62-9.34,12.71-6.44,12.71-6.44"/><path class="b" d="M109.72,75.35s15.9-31.67,20.5-35.6c4.6-3.93,19.39-5.7,25.75-1.41,6.36,4.29,21.66-4.31,21.66-4.31,0,0,16.29-10.42,22.66,6.09"/></g></g><g><path class="f" d="M194.28,113.05s-10.13,2.32-12.56,6.01l-1.89,14.63s-9.99-12.05-31.6,44.9l-5.77,4.39s-13.06,14.63-14.26,15.14-20.6,20.34,4.67,11.66c0,0,6.05,.41,5.57,10.15,0,0,3.2,7.32,15.32,7.6,0,0,18.13,15.11,18.84,18.28,.71,3.17,17.66,14.43,27.74,8.82,0,0,4.2-.74,7.84-1.42,0,0-2.69,57.17,29.15,62.73,0,0,8.85-13.04,19.91-8.46,11.06,4.58,15.4-6.04,15.4-6.04,0,0,28.81,5.03,31.36-21.33,0,0,9.35-22.12,24.34-26.16,0,0,4.56,3.17,11.84,1.68,0,0,9.53,3.01,14.51,7.31,4.99,4.31,11.29,8.84,33.17-4.57,0,0,12.12-16.5,38.66-7.02,0,0,12.59,3.34-9.17-12.9,0,0,6.66-3.5,13.76,.37,0,0,1.25-13.19-7.77-19.87,0,0-6.13-11.96-30.14-19.94,0,0-14.3-3.15-14.94-17.75,0,0,6.36-3.47-.98-33.92,0,0,1.73-3.9-10.6-16.94,0,0,1.45-8.33-2.58-10.54-4.03-2.21-6.71-.84,.76-10.06,0,0-5.45-7.25-22.87-5.74,0,0-11.56,3.67-15.71-1.05,0,0,0-7.15-2.29-7.58-2.28-.43-16.98-1.22-17.32-11.71,0,0-.99-2.58-23.46-10.48,0,0-16.52-6.62-59.21,21.25,0,0-26.32-2.57-29.71,18.6Z"/><g><path class="b" d="M236.61,222.99s-15.71-51.6,16.9-30.19c0,0,22.65,11.05,37.44-7.5,0,0,15.12-9.44,19.86,8.02,0,0,27.89,15.58,33.38,4.31,0,0,12.5-7.03,18.92,4.52,0,0,3.48,3.05,12.37,2.64,8.89-.42,1.72,8,1.72,8,0,0-15.51,1.05-17.09,2.06-1.59,1.01-16.09,18.26-16.09,18.26l-19.88,8.95s-11.96-11.83-23.68,.85c0,0-14.11,2.83-33.85-13.66,0,0-10.6-6.44-30-6.25Z"/><path class="b" d="M320.18,239.22s.67,14.47,17.44,12.05c0,0,6.05,.79,16.49,8.78,10.45,7.99,31.19-6.03,31.19-6.03,0,0,13.61-17.37,38.66-7.02,0,0,12.53,3.41-9.17-12.9,0,0,5.49-3.68,13.76,.37,0,0,1.18-13.43-7.77-19.87,0,0-4.11-9.67-30.14-19.94,0,0-13.87-3.01-15.04-18.8,0,0-4.84,2.06-4.41,7.41,0,0,2.43,15.59-8.09,18.89"/><path class="b" d="M209.38,215.29s.33,14.76,15.08,24.95c0,0,14.85,14.01,35.56,12.94,0,0,13.57-5.6,16.77-3.6"/><path class="b" d="M176.21,130.26s-1.76-7.31-11.38,4.84c-9.62,12.15-19.53,40.2-19.53,40.2,0,0-4.27,1.81-6.51,4.44-2.24,2.63-12.02,14.59-14.35,14.54-2.33-.06-17.53,20.67,5.87,11.15,0,0,6.25-.89,5.57,10.15,0,0,3.39,6.79,15.32,7.6,0,0,13.85,11.25,19.26,18.85,0,0,15.09,14.58,28.19,7.84,0,0,21.85-2.38,27.53-8.16"/><path class="b" d="M205.62,248.85s-3.34,55.04,29.15,62.73c0,0,8.73-13.45,19.91-8.46,0,0,9.69,3.44,15.4-6.04,0,0,29.14,3.73,31.49-22.54,0,0,11.25-23.79,24.21-24.96"/><path class="b" d="M321.21,243.48s-7.35-3.4-9.18,.55-21.01,25.19-43.21-2.15c0,0-7.88-11.43-18.16-7.56-10.28,3.86-34.29-2.05-39.52-17.13"/><path class="b" d="M236.61,222.99s-24.48,10.42-42.08-30.64c0,0-24.89-21.84-21.9-43.27,0,0,7.31-27.46,6.56-34.36,0,0,5.09-5.02,12.56-6.01,0,0,2.21-18.91,25.26-17.62,23.05,1.29,28.82-.15,37.72,9.33"/><path class="b" d="M219.69,91.24s46.56-30.47,62.36-21.74c0,0,11.77,5.29,19.28,7.7,7.51,2.41-3.67,9.68,20.1,13.85,0,0,1.9,.3,2.12,7.46,0,0,4.98,4.13,13.51,1.68,8.53-2.45,22.93,1,25.23,5.23,0,0-10.46,8.98-.76,10.06,0,0,2.59,0,2.58,10.54,0,0,10.62,11.06,10.6,16.94-.02,5.89,6.37,28.03,.87,32.88"/><path class="b" d="M203.52,134.44s-18.4,4.13-11.24,12.68c0,0-8.19,24.98,17.13,37.56,0,0,12.53,2.25,23.02,22.97"/><path class="b" d="M198.46,176.58s3.4,30.79,8.04,35.7"/><path class="b" d="M205.92,144.84s-7.77,4.64,1.7,15.06c9.47,10.42,22.44,14.68,26.92,31.23"/><path class="b" d="M206.67,158.82s18.63-47.4,43.04-13.27c0,0,2.09,5.32,12.17,3.73,0,0,6.12,1.76,8.29,9.24,0,0,1.41,4.1,9.28,3.28,0,0,5.66,10.85-4.42,33.61"/><path class="b" d="M322.77,198.77s17.84-6.88,18.76-17.34c.93-10.47,5.74-20.07,6.2-24.13,0,0,16.15-10.22-3.02-7.11,0,0-6.31,4.53-19.44,.87-13.14-3.65-36.42-15.64-58.24,1.72"/><path class="b" d="M247.32,142.43s1.66-16.66,7.76-19.24,19.79,6.44,17.91,25.55"/><path class="b" d="M272.92,138.18s5.23-14.62,22.91-9.37c0,0,15.42-10.75,26.22,.45,0,0,4.27,6.35,12.11,.36,7.84-5.99-1.67,22.76-1.67,22.76"/><path class="b" d="M258.93,122.69l11.04-8.09s8.71,5.87,20.48,5.91c0,0,2.56,.09,6.47,6.74"/><path class="b" d="M211.39,149.45s-20.94-16.5,6.05-27.3c0,0,23.13,2.85,32.18-3.22,9.05-6.07,14.24-.44,14.24-.44"/><path class="b" d="M225.09,122.72s27.83-21.93,33.67-23.54c5.83-1.61,19.98,3.07,23.92,9.65s21.44,5.28,21.44,5.28c0,0,19.17-2.52,17.94,15.13"/></g></g></svg>