<?xml version="1.0" encoding="UTF-8"?><svg id="a" xmlns="http://www.w3.org/2000/svg" viewBox="0 0 460.26 156.92"><defs><style>.b{stroke:#1d8542;stroke-width:.25px;}.b,.c{fill:none;stroke-miterlimit:10;}.d{fill:#12401f;}.e{fill:#8d6d39;}.c{stroke:#d9d1c8;stroke-width:.75px;}.f{fill:#3f2111;}</style></defs><g><g><path class="d" d="M299.91,90.73s50.46,31.61,68.63-9.61c0,0-28.92-35.55-68.63,9.61Z"/><path class="b" d="M306.2,94.77s37.84-12.9,61.56-12.89c0,0-10.46,41.01-67.86,14.06,0,0,30.32-45.27,66.84-15.05"/></g><g><path class="d" d="M460.26,33.55s-49.95-27.94-65.43,12.49c0,0,29.45,32.74,65.43-12.49Z"/><path class="b" d="M454.03,29.96s-35.71,14.19-58.48,15.31c0,0,8.08-39.87,64.47-16.73,0,0-26.94,44.9-63.45,17.64"/></g><g><path class="f" d="M323.3,29.14s-2.97,2.32-3.2,3.91l1.63,5.1s-5.14-2.42-3.47,19.61l-1.22,2.33s-2.04,6.82-2.35,7.17-3.64,9.85,3.33,3.11c0,0,2.05-.8,3.39,2.48,0,0,2.18,1.91,6.2,.14,0,0,8.28,2.17,9,3.1s8.02,2.02,10.47-1.37c0,0,1.27-.89,2.36-1.67,0,0,7.91,19.19,19.23,16.12,0,0,.9-5.65,5.24-5.84,4.34-.2,4.13-4.35,4.13-4.35,0,0,10.24-2.78,7.02-11.83,0,0-.33-8.71,3.97-12.34,0,0,1.98,.34,4.15-1.27,0,0,3.59-.48,5.89,.17s5.07,1.17,10.19-6.6c0,0,1.44-7.28,11.62-8.26,0,0,4.65-.84-5-2.82,0,0,1.65-2.17,4.58-2,0,0-1.62-4.53-5.61-5.33,0,0-3.86-2.98-12.97-1.91,0,0-5.18,1.16-7.64-3.53,0,0,1.56-2.12-5.54-10.99,0,0-.03-1.55-6.09-3.93,0,0-.81-2.96-2.47-3.06s-2.33,.76-1.3-3.42c0,0-2.91-1.54-8.4,1.63,0,0-3.23,2.98-5.32,2.07,0,0-1.1-2.35-1.92-2.14s-5.77,2.21-7.49-1.18c0,0-.72-.7-9.32,.17,0,0-6.45,.37-16.18,16.09,0,0-9.04,3.21-6.9,10.68Z"/><g><path class="c" d="M354.12,58.74s-13.1-14.53,.9-12.52c0,0,9.14,.15,11.14-8.23,0,0,3.52-5.43,7.76-.42,0,0,11.56,.83,11.63-3.72,0,0,3.02-4.23,6.91-1.43,0,0,1.61,.47,4.47-1.04s1.8,2.36,1.8,2.36c0,0-4.93,2.73-5.3,3.31s-2.48,8.47-2.48,8.47l-5.15,6s-5.75-2.04-7.65,3.92c0,0-4.2,3.1-13.22,.72,0,0-4.47-.48-10.82,2.56Z"/><path class="c" d="M384.08,51.2s2.45,4.65,7.58,1.27c0,0,2.11-.67,6.77,.35,4.66,1.02,9.32-6.78,9.32-6.78,0,0,1.8-7.8,11.62-8.26,0,0,4.64-.81-5-2.82,0,0,1.24-2.05,4.58-2,0,0-1.68-4.59-5.61-5.33,0,0-2.84-2.54-12.97-1.91,0,0-5.02,1.15-7.83-3.86,0,0-1.27,1.42-.31,3.11,0,0,3.2,4.75,.25,7.45"/><path class="c" d="M344,60.4s2.38,4.8,8.79,5.88c0,0,7.03,2.32,13.67-1.22,0,0,3.6-3.93,4.96-3.76"/><path class="c" d="M320.01,37.57s-1.7-2.13-2.99,3.34c-1.29,5.47-.23,16.21-.23,16.21,0,0-1.12,1.25-1.45,2.46s-1.7,6.64-2.48,6.98-2.58,9.49,3.64,2.76c0,0,1.92-1.25,3.39,2.48,0,0,2.16,1.71,6.2,.14,0,0,6.28,1.56,9.23,3.23,0,0,7.2,2.47,10.46-1.76,0,0,6.81-4.15,7.79-6.92"/><path class="c" d="M347.93,72s7.37,18.6,19.23,16.12c0,0,.8-5.76,5.24-5.84,0,0,3.71-.36,4.13-4.35,0,0,10.15-3.26,6.87-12.25,0,0,.03-9.55,4.11-11.92"/><path class="c" d="M385.07,52.45s-2.94,.02-2.93,1.59-3.02,11.51-14.52,5.94c0,0-4.35-2.54-7.13,.31s-11.58,4.6-15.62,.46"/><path class="c" d="M354.12,58.74s-6.44,7.19-18.54-3.59c0,0-11.54-3.34-13.85-10.84,0,0-1.82-10.14-3.13-12.3,0,0,.9-2.43,3.2-3.91,0,0-2.18-6.55,5.59-9.68,7.77-3.12,9.44-4.49,13.83-2.74"/><path class="c" d="M328.29,18.06S338.9,.89,345.43,1.32c0,0,4.68-.07,7.52-.44s.28,3.74,8.73,1.46c0,0,.67-.2,1.85,2.12,0,0,2.27,.59,4.7-1.53s7.69-3.2,9.09-2.16c0,0-2.05,4.56,1.3,3.42,0,0,.85-.4,2.47,3.06,0,0,5.19,2,6.09,3.93s6.4,8.23,5.35,10.67"/><path class="c" d="M329.63,34.74s-5.41,4.19-1.74,5.89c0,0,1.15,9.47,11.41,9.7,0,0,4.46-1.19,11.1,4"/><path class="c" d="M334.45,49.36s5.86,9.59,8.13,10.49"/><path class="c" d="M332.02,37.79s-1.84,2.72,2.88,4.69c4.71,1.97,9.63,1.37,13.65,6.12"/><path class="c" d="M334.42,42.26s-1.18-18.44,12.1-10.98c0,0,1.51,1.43,4.57-.65,0,0,2.28-.36,4.15,1.76,0,0,1.09,1.13,3.55-.35,0,0,3.53,2.69,3.72,11.72"/><path class="c" d="M378.7,37.52s4.8-5,3.49-8.59c-1.31-3.58-1.2-7.48-1.68-8.88,0,0,3.73-5.84-2.09-1.87,0,0-1.37,2.46-6.25,3.28s-14.37,.47-18.87,9.53"/><path class="c" d="M345.25,30.63s-2.02-5.73-.41-7.51,7.49-.93,9.82,5.64"/><path class="c" d="M353,25.29s-.53-5.61,6.08-6.61c0,0,3.41-5.9,8.68-3.89,0,0,2.38,1.43,4.03-1.74s2.95,7.73,2.95,7.73"/><path class="c" d="M346.02,22.35l2.38-4.36s3.76,.59,7.64-1.21c0,0,.85-.37,3.16,1.22"/><path class="c" d="M334.52,38.46s-9.42-2.2-2.22-9.9c0,0,8.04-2.62,10.07-6.01s4.61-2.34,4.61-2.34"/><path class="c" d="M334.91,27.57s5.77-11.49,7.44-12.91c1.67-1.43,7.03-2.07,9.34-.51s7.86-1.56,7.86-1.56c0,0,5.91-3.78,8.22,2.21"/></g></g><g><path class="e" d="M369.58,44.15s-3.68,.84-4.56,2.18l-.69,5.31s-3.62-4.37-11.46,16.29l-2.09,1.59s-4.74,5.31-5.17,5.49-7.47,7.38,1.69,4.23c0,0,2.2,.15,2.02,3.68,0,0,1.16,2.65,5.56,2.76,0,0,6.58,5.48,6.83,6.63s6.41,5.24,10.06,3.2c0,0,1.52-.27,2.84-.52,0,0-.98,20.74,10.57,22.76,0,0,3.21-4.73,7.22-3.07,4.01,1.66,5.59-2.19,5.59-2.19,0,0,10.45,1.83,11.38-7.74,0,0,3.39-8.02,8.83-9.49,0,0,1.65,1.15,4.29,.61,0,0,3.46,1.09,5.26,2.65s4.09,3.21,12.03-1.66c0,0,4.4-5.98,14.02-2.55,0,0,4.57,1.21-3.33-4.68,0,0,2.41-1.27,4.99,.13,0,0,.46-4.78-2.82-7.21,0,0-2.23-4.34-10.93-7.23,0,0-5.19-1.14-5.42-6.44,0,0,2.31-1.26-.36-12.31,0,0,.63-1.42-3.85-6.15,0,0,.53-3.02-.94-3.82s-2.43-.3,.28-3.65c0,0-1.98-2.63-8.3-2.08,0,0-4.19,1.33-5.7-.38,0,0,0-2.59-.83-2.75s-6.16-.44-6.28-4.25c0,0-.36-.94-8.51-3.8,0,0-5.99-2.4-21.48,7.71,0,0-9.55-.93-10.78,6.75Z"/><g><path class="c" d="M384.93,84.03s-5.7-18.72,6.13-10.95c0,0,8.21,4.01,13.58-2.72,0,0,5.49-3.42,7.21,2.91,0,0,10.12,5.65,12.11,1.56,0,0,4.53-2.55,6.86,1.64,0,0,1.26,1.11,4.49,.96s.62,2.9,.62,2.9c0,0-5.63,.38-6.2,.75s-5.84,6.62-5.84,6.62l-7.21,3.25s-4.34-4.29-8.59,.31c0,0-5.12,1.03-12.28-4.96,0,0-3.85-2.33-10.88-2.27Z"/><path class="c" d="M415.25,89.92s.24,5.25,6.33,4.37c0,0,2.19,.29,5.98,3.18,3.79,2.9,11.31-2.19,11.31-2.19,0,0,4.94-6.3,14.02-2.55,0,0,4.55,1.24-3.33-4.68,0,0,1.99-1.33,4.99,.13,0,0,.43-4.87-2.82-7.21,0,0-1.49-3.51-10.93-7.23,0,0-5.03-1.09-5.46-6.82,0,0-1.75,.75-1.6,2.69,0,0,.88,5.66-2.94,6.85"/><path class="c" d="M375.05,81.24s.12,5.35,5.47,9.05c0,0,5.39,5.08,12.9,4.69,0,0,4.92-2.03,6.08-1.31"/><path class="c" d="M363.02,50.39s-.64-2.65-4.13,1.75c-3.49,4.41-7.08,14.58-7.08,14.58,0,0-1.55,.66-2.36,1.61s-4.36,5.29-5.21,5.27-6.36,7.5,2.13,4.04c0,0,2.27-.32,2.02,3.68,0,0,1.23,2.46,5.56,2.76,0,0,5.02,4.08,6.99,6.84,0,0,5.48,5.29,10.22,2.84,0,0,7.93-.86,9.99-2.96"/><path class="c" d="M373.69,93.41s-1.21,19.97,10.57,22.76c0,0,3.17-4.88,7.22-3.07,0,0,3.52,1.25,5.59-2.19,0,0,10.57,1.35,11.42-8.17,0,0,4.08-8.63,8.78-9.05"/><path class="c" d="M415.62,91.46s-2.67-1.23-3.33,.2-7.62,9.14-15.67-.78c0,0-2.86-4.15-6.59-2.74-3.73,1.4-12.44-.74-14.34-6.21"/><path class="c" d="M384.93,84.03s-8.88,3.78-15.27-11.12c0,0-9.03-7.92-7.95-15.69,0,0,2.65-9.96,2.38-12.46,0,0,1.85-1.82,4.56-2.18,0,0,.8-6.86,9.16-6.39,8.36,.47,10.45-.06,13.68,3.38"/><path class="c" d="M378.79,36.24s16.89-11.05,22.62-7.89c0,0,4.27,1.92,7,2.79s-1.33,3.51,7.29,5.02c0,0,.69,.11,.77,2.71,0,0,1.81,1.5,4.9,.61,3.09-.89,8.32,.36,9.15,1.9,0,0-3.79,3.26-.28,3.65,0,0,.94,0,.94,3.82,0,0,3.85,4.01,3.85,6.15s2.31,10.17,.32,11.93"/><path class="c" d="M372.93,51.91s-6.68,1.5-4.08,4.6c0,0-2.97,9.06,6.22,13.62,0,0,4.54,.82,8.35,8.33"/><path class="c" d="M371.09,67.2s1.24,11.17,2.92,12.95"/><path class="c" d="M373.8,55.68s-2.82,1.68,.62,5.46,8.14,5.32,9.76,11.33"/><path class="c" d="M374.07,60.75s6.76-17.2,15.61-4.81c0,0,.76,1.93,4.41,1.35,0,0,2.22,.64,3.01,3.35,0,0,.51,1.49,3.37,1.19,0,0,2.05,3.94-1.6,12.19"/><path class="c" d="M416.19,75.24s6.47-2.49,6.81-6.29c.34-3.8,2.08-7.28,2.25-8.75,0,0,5.86-3.71-1.1-2.58,0,0-2.29,1.64-7.05,.32-4.77-1.33-13.21-5.67-21.13,.62"/><path class="c" d="M388.81,54.81s.6-6.04,2.82-6.98,7.18,2.34,6.5,9.27"/><path class="c" d="M398.1,53.26s1.9-5.3,8.31-3.4c0,0,5.59-3.9,9.51,.16,0,0,1.55,2.3,4.39,.13s-.61,8.26-.61,8.26"/><path class="c" d="M393.03,47.65l4.01-2.94s3.16,2.13,7.43,2.14c0,0,.93,.03,2.35,2.44"/><path class="c" d="M375.78,57.35s-7.6-5.99,2.19-9.9c0,0,8.39,1.03,11.67-1.17s5.17-.16,5.17-.16"/><path class="c" d="M380.75,47.66s10.1-7.96,12.21-8.54c2.12-.58,7.25,1.11,8.68,3.5s7.78,1.92,7.78,1.92c0,0,6.95-.91,6.51,5.49"/></g></g></g><g><path class="f" d="M33.09,73.62c-2.52,4.41-7.8,8.46-14.31,8.46-10.47,0-18.78-9.99-18.78-21.75s8.34-21.93,19.35-21.93c2.88,0,8.16,.78,11.94,2.46l-1.83,5.34c-2.76-2.22-9.33-6.84-11.04-7.11-8.31,.54-12.21,7.26-12.21,18.18,0,13.65,6.81,22.92,15.66,22.92,5.07,0,8.25-3.03,10.35-7.11l.87,.54Z"/><path class="f" d="M51.93,78.99c-1.74,1.2-4.62,2.85-7.71,2.85-4.53,0-8.58-3.51-8.58-8.31,0-5.16,4.71-7.68,9.3-7.68,2.28,0,4.47,.63,6.87,1.62v-5.19c0-2.67,0-8.19-6.99-8.19-2.73,0-4.74,.87-7.05,2.46l-.54-.84c2.31-1.32,6.06-2.73,10.59-2.73,9.72,0,9.72,6.48,9.72,9.6v18.66h-4.89l-.72-2.25Zm-.12-10.86c-1.44-.54-3.72-1.11-5.76-1.11-2.58,.51-4.74,2.43-4.74,6.39s1.95,6.63,5.67,6.63c2.04,0,3.54-.84,4.83-1.8v-10.11Z"/><path class="f" d="M95.28,60.96c0-1.89,0-6-4.53-6-2.55,0-4.23,1.29-5.55,3.03,.27,1.2,.27,2.4,.27,3.24v20.01h-5.73v-20.28c0-1.89,0-6-4.53-6-2.43,0-4.05,1.17-5.34,2.76v23.52h-5.73v-27.66l4.41-.42,1.17,3.72c2.1-2.22,5.1-3.9,8.46-3.9,4.32,0,6.09,2.01,6.81,4.2,2.1-2.37,5.22-4.2,8.73-4.2,7.29,0,7.29,5.88,7.29,8.58v19.68h-5.73v-20.28Z"/><path class="f" d="M110.46,41.55c1.74,0,3.21,1.26,3.21,3.21s-1.47,3.24-3.21,3.24-3.24-1.29-3.24-3.24,1.47-3.21,3.24-3.21Zm-2.85,12.03l5.73-.42v28.08h-5.73v-27.66Z"/><path class="f" d="M120.24,39.24l5.67-.42v42.42h-5.67V39.24Z"/><path class="f" d="M132.84,39.24l5.67-.42v42.42h-5.67V39.24Z"/><path class="f" d="M168.3,75.9c-2.13,3.75-6.69,5.94-11.04,5.94-7.41,0-13.62-6.45-13.62-14.43s6.33-14.43,13.92-14.43c8.25,0,10.35,6.9,10.35,11.28,0,.36,0,.69-.03,.99h-18.3v.15c0,7.8,3.6,14.97,10.17,14.97,2.61,0,5.79-1.11,7.68-5.01l.87,.54Zm-6.48-11.34c.21-4.77-1.8-10.02-5.4-10.89-3.69,0-6.6,4.29-6.84,10.89h12.24Z"/><path class="f" d="M188.19,39.24h12.09c12,0,15.12,6.24,15.12,11.04,0,6.3-4.8,9.6-8.76,10.92l10.89,20.04h-6.96l-10.08-19.2c-2.37-.15-4.65-.39-6.15-.6v19.8h-6.15V39.24Zm6.15,21.57c1.77,.15,4.05,.3,5.94,.3,.84,0,1.62-.03,2.22-.12,2.46-.9,6.54-3.69,6.54-10.47,0-9.84-8.4-10.59-11.7-10.59h-3v20.88Z"/><path class="f" d="M218.94,67.41c0-8.34,6.75-14.43,13.71-14.43s13.71,6.09,13.71,14.43-6.75,14.43-13.71,14.43-13.71-6.06-13.71-14.43Zm14.31,13.74c4.29-.66,7.14-5.01,7.14-12.45,0-8.16-3.3-14.1-8.61-15.03-4.35,.63-6.87,5.1-6.87,12.63,0,7.98,2.67,14.04,8.34,14.85Z"/><path class="f" d="M264.06,56.16c-2.1-1.77-4.2-2.49-6-2.49-2.88,0-4.47,1.71-4.47,3.87s1.41,3.87,5.79,7.02c4.68,3.33,6.48,5.43,6.48,8.97,0,5.64-4.74,8.31-9.12,8.31-2.88,0-5.37-1.2-7.38-2.73l.54-.84c1.47,1.35,3.69,2.85,6.39,2.85,2.97,0,5.13-1.8,5.13-4.77,0-2.25-1.05-3.69-5.64-7.17s-6-5.76-6-8.7c0-4.44,3.54-7.5,7.86-7.5,2.58,0,5.16,1.11,6.99,2.31l-.57,.87Z"/><path class="f" d="M293.72,75.9c-2.13,3.75-6.69,5.94-11.04,5.94-7.41,0-13.62-6.45-13.62-14.43s6.33-14.43,13.92-14.43c8.25,0,10.35,6.9,10.35,11.28,0,.36,0,.69-.03,.99h-18.3v.15c0,7.8,3.6,14.97,10.17,14.97,2.61,0,5.79-1.11,7.68-5.01l.87,.54Zm-6.48-11.34c.21-4.77-1.8-10.02-5.4-10.89-3.69,0-6.6,4.29-6.84,10.89h12.24Z"/></g><g><path class="f" d="M118.4,114.09c11.64,0,17.67,4.44,17.67,12s-5.61,13.26-13.92,13.26c-1.77,0-4.71-.27-7.08-.81v17.55h-6.15v-42h9.48Zm-3.33,23.76c1.74,.3,3.48,.42,5.46,.42,.63,0,1.32,0,2.01-.03,4.38-1.56,7.14-5.58,7.14-11.7,0-11.1-8.76-11.76-11.7-11.76h-2.91v23.07Z"/><path class="f" d="M158.17,136.23c0-2.1,0-6.33-5.07-6.33-2.34,0-4.35,.9-6.3,2.97v23.22h-5.67v-42l5.67-.42v18.27c2.73-2.76,5.94-4.11,9.57-4.11,7.53,0,7.53,6.06,7.53,8.76v19.5h-5.73v-19.86Z"/><path class="f" d="M168.68,142.26c0-8.34,6.75-14.43,13.71-14.43s13.71,6.09,13.71,14.43-6.75,14.43-13.71,14.43-13.71-6.06-13.71-14.43Zm14.31,13.74c4.29-.66,7.14-5.01,7.14-12.45,0-8.16-3.3-14.1-8.61-15.03-4.35,.63-6.87,5.1-6.87,12.63,0,7.98,2.67,14.04,8.34,14.85Z"/><path class="f" d="M214.81,129.42c-1.26-.06-5.16-.21-7.59-.27v23.04c0,1.95,.69,3.48,3.03,3.48,1.62,0,3-.78,4.26-1.98l.54,.87c-1.89,1.2-4.17,2.13-6.78,2.13-5.25,0-6.75-3.57-6.75-7.32v-20.25h-3.27v-.69h3.27v-4.05l5.7-5.07v9.12h7.59v.99Z"/><path class="f" d="M216.14,142.26c0-8.34,6.75-14.43,13.71-14.43s13.71,6.09,13.71,14.43-6.75,14.43-13.71,14.43-13.71-6.06-13.71-14.43Zm14.31,13.74c4.29-.66,7.14-5.01,7.14-12.45,0-8.16-3.3-14.1-8.61-15.03-4.35,.63-6.87,5.1-6.87,12.63,0,7.98,2.67,14.04,8.34,14.85Z"/><path class="f" d="M289.54,156.08l-3.48-4.17c-3.03,3.03-6.93,5.01-11.61,5.01-6.78,0-13.14-4.14-13.14-10.86,0-5.1,3.69-9.51,10.14-11.85-2.49-3.3-4.26-6.6-4.26-10.56,0-6.12,4.26-10.41,10.89-10.41,6.21,0,10.41,3.72,10.41,8.67,0,5.88-5.94,8.88-10.8,10.56l.81,.99,10.74,13.17c1.95-3.45,3.21-7.56,3.36-11.88l1.08,.06c-.42,4.17-1.77,8.61-3.99,12.39l7.23,8.88h-7.38Zm-15.81-19.02c-.3-.36-1.32-1.59-1.89-2.34-3.12,1.44-4.47,4.53-4.47,8.46,0,7.02,4.11,12.06,9.99,12.06,3.3,0,6.06-1.59,8.28-3.84l-11.91-14.34Zm3.54-5.1c3.69-1.8,6.12-5.4,6.12-10.17s-2.43-7.77-6.27-7.77c-3.51,0-5.94,2.46-5.94,5.82,0,3.9,3.15,8.4,6.09,12.12Z"/><path class="f" d="M338.89,115.08c-1.53-.06-10.5-.3-12-.3h-5.31v19.44h3.6c1.44,0,10.26-.09,12-.15v.99c-1.74-.06-10.56-.15-12-.15h-3.6v21.18h-6.15v-42h23.46v.99Z"/><path class="f" d="M345.22,116.4c1.74,0,3.21,1.26,3.21,3.21s-1.47,3.24-3.21,3.24-3.24-1.29-3.24-3.24,1.47-3.21,3.24-3.21Zm-2.85,12.03l5.73-.42v28.08h-5.73v-27.66Z"/><path class="f" d="M355,114.09l5.67-.42v42.42h-5.67v-42Z"/><path class="f" d="M398.77,135.81c0-1.89,0-6-4.53-6-2.55,0-4.23,1.29-5.55,3.03,.27,1.2,.27,2.4,.27,3.24v20.01h-5.73v-20.28c0-1.89,0-6-4.53-6-2.43,0-4.05,1.17-5.34,2.76v23.52h-5.73v-27.66l4.41-.42,1.17,3.72c2.1-2.22,5.1-3.9,8.46-3.9,4.32,0,6.09,2.01,6.81,4.2,2.1-2.37,5.22-4.2,8.73-4.2,7.29,0,7.29,5.88,7.29,8.58v19.68h-5.73v-20.28Z"/></g></svg>