<?xml version="1.0" encoding="UTF-8"?><svg id="a" xmlns="http://www.w3.org/2000/svg" viewBox="0 0 446.83 508.89"><defs><style>.b{stroke:#1d8542;stroke-width:.25px;}.b,.c,.d{fill:none;stroke-miterlimit:10;}.e{fill:#12401f;}.c{stroke:#d9d1c8;stroke-width:.75px;}.f{fill:#3f2111;}.d{stroke:#8d6d39;stroke-width:2px;}</style></defs><rect class="d" x="4.91" y="74.7" width="448.35" height="363" transform="translate(485.29 27.11) rotate(90)"/><g><g><path class="e" d="M125.46,8.94s-52.74-16.9-59.65,24.41c0,0,34.22,25.4,59.65-24.41Z"/><path class="b" d="M118.86,6.73s-31.14,20.31-52.52,25.75c0,0,0-39.36,57.93-28.25,0,0-16.93,47.76-56.78,28.91"/></g><g><g><path class="e" d="M0,76.55s57.7,8.55,57.82-35.57c0,0-39.91-20.54-57.82,35.57Z"/><path class="b" d="M7.23,77.71s28.89-26.44,50.18-35.74c0,0,6.72,40.91-55.37,39.27,0,0,9.43-52.53,54.07-39.76"/></g><g><path class="f" d="M29,25.5s-3.11,1.99-3.48,3.51l1.12,5.11s-4.78-2.83-5.18,18.79l-1.4,2.16s-2.61,6.45-2.95,6.77-4.45,9.27,2.96,3.34c0,0,2.07-.59,3.08,2.72,0,0,1.95,2.06,6.03,.7,0,0,7.87,2.88,8.49,3.85s7.63,2.71,10.33-.38c0,0,1.32-.75,2.45-1.42,0,0,5.95,19.43,17.26,17.47,0,0,1.39-5.42,5.64-5.21,4.25,.21,4.42-3.86,4.42-3.86,0,0,10.23-1.77,7.92-10.89,0,0,.47-8.51,5-11.66,0,0,1.9,.51,4.16-.86,0,0,3.54-.14,5.73,.7s4.83,1.6,10.54-5.5c0,0,2.07-6.97,12.08-6.98,0,0,4.61-.39-4.61-3.21,0,0,1.8-1.97,4.64-1.53,0,0-1.16-4.56-4.98-5.71,0,0-3.48-3.26-12.46-3.05,0,0-5.16,.66-7.12-4.14,0,0,1.71-1.92-4.39-11.22,0,0,.11-1.51-5.57-4.39,0,0-.51-2.96-2.13-3.21s-2.34,.52-.95-3.45c0,0-2.69-1.77-8.33,.82,0,0-3.42,2.61-5.38,1.53,0,0-.86-2.39-1.67-2.26s-5.82,1.63-7.19-1.84c0,0-.64-.74-9.1-.69,0,0-6.31-.23-17.24,14.2,0,0-9.11,2.29-7.7,9.77Z"/><g><path class="c" d="M56.32,57.16s-11.43-15.36,2.03-12.11c0,0,8.89,.98,11.61-6.99,0,0,3.92-4.97,7.6,.3,0,0,11.19,1.87,11.67-2.56,0,0,3.34-3.85,6.86-.76,0,0,1.53,.6,4.45-.6,2.92-1.21,1.53,2.47,1.53,2.47,0,0-5.06,2.21-5.47,2.74s-3.19,8.03-3.19,8.03l-5.57,5.37s-5.41-2.52-7.81,3.12c0,0-4.37,2.64-12.95-.51,0,0-4.31-.88-10.78,1.51Z"/><path class="c" d="M86.2,52.57s1.96,4.76,7.27,1.94c0,0,2.11-.46,6.56,.96,4.45,1.42,9.7-5.75,9.7-5.75,0,0,2.47-7.44,12.08-6.98,0,0,4.6-.36-4.61-3.21,0,0,1.39-1.89,4.64-1.53,0,0-1.22-4.63-4.98-5.71,0,0-2.53-2.74-12.46-3.05,0,0-5,.66-7.28-4.48,0,0-1.37,1.27-.58,3.01,0,0,2.68,4.92-.44,7.28"/><path class="c" d="M46.3,57.85s1.88,4.89,8.03,6.53c0,0,6.64,2.9,13.43,.06,0,0,3.87-3.5,5.17-3.21"/><path class="c" d="M25.03,33.41s-1.47-2.23-3.22,2.98c-1.76,5.21-1.71,15.78-1.71,15.78,0,0-1.21,1.12-1.64,2.27s-2.27,6.32-3.05,6.58-3.38,9.01,3.3,3.02c0,0,1.98-1.05,3.08,2.72,0,0,1.95,1.86,6.03,.7,0,0,5.98,2.1,8.7,3.99,0,0,6.79,3.06,10.36-.76,0,0,7.02-3.42,8.22-6.03"/><path class="c" d="M49.07,69.52s5.48,18.8,17.26,17.47c0,0,1.3-5.54,5.64-5.21,0,0,3.65-.01,4.42-3.86,0,0,10.18-2.24,7.82-11.3,0,0,.91-9.3,5.1-11.24"/><path class="c" d="M87.05,53.87s-2.86-.25-3,1.28-4,10.94-14.7,4.46c0,0-4-2.88-6.98-.35-2.97,2.52-11.71,3.42-15.26-.99"/><path class="c" d="M56.32,57.16s-6.93,6.42-17.74-5.2c0,0-10.94-4.32-12.5-11.83,0,0-.85-10.05-1.93-12.27,0,0,1.1-2.29,3.48-3.51,0,0-1.53-6.58,6.33-8.92s9.61-3.51,13.72-1.4"/><path class="c" d="M34.88,15.16S46.79-.6,53.12,.42c0,0,4.57,.36,7.37,.26s-.07,3.67,8.38,2.22c0,0,.67-.13,1.6,2.24,0,0,2.16,.78,4.72-1.06s7.78-2.41,9.06-1.27c0,0-2.42,4.25,.95,3.45,0,0,.87-.31,2.13,3.21,0,0,4.88,2.42,5.57,4.39s5.49,8.6,4.23,10.88"/><path class="c" d="M34.65,31.54s-5.65,3.59-2.24,5.58c0,0,.25,9.33,10.23,10.5,0,0,4.46-.75,10.45,4.92"/><path class="c" d="M38.02,46.23s4.83,9.88,6.96,10.97"/><path class="c" d="M36.7,34.73s-2.04,2.48,2.37,4.83c4.41,2.35,9.26,2.21,12.74,7.21"/><path class="c" d="M38.63,39.31s.54-18.07,12.79-9.59c0,0,1.34,1.53,4.51-.21,0,0,2.26-.14,3.88,2.09,0,0,.96,1.2,3.5-.02,0,0,3.19,2.95,2.55,11.76"/><path class="c" d="M82.22,38.74s5.14-4.44,4.19-8.04c-.95-3.61-.49-7.4-.82-8.81,0,0,4.17-5.35-1.86-2.01,0,0-1.56,2.27-6.39,2.62-4.83,.35-14.05-.86-19.26,7.55"/><path class="c" d="M50.25,28.96s-1.44-5.77,.29-7.36,7.38-.22,9.05,6.39"/><path class="c" d="M58.3,24.47s0-5.51,6.53-5.88c0,0,3.86-5.44,8.82-2.99,0,0,2.19,1.61,4.09-1.33,1.9-2.94,2.17,7.81,2.17,7.81"/><path class="c" d="M51.77,20.97l2.72-4.03s3.61,.92,7.55-.48c0,0,.87-.28,2.97,1.48"/><path class="c" d="M39.08,35.61s-8.98-3.01-1.25-9.85c0,0,8.07-1.82,10.37-4.93s4.71-1.85,4.71-1.85"/><path class="c" d="M40.46,25.04s6.67-10.67,8.43-11.9,7.04-1.37,9.15,.36,7.8-.8,7.8-.8c0,0,6.1-3.14,7.81,2.91"/></g></g></g></g><g><g><path class="e" d="M336.87,507.29s16.49-52.95,54.33-34.85c0,0,1.13,42.66-54.33,34.85Z"/><path class="b" d="M338.86,500.61s34.57-13.84,51.32-28.23c0,0-32.27-22.64-56.49,31.23,0,0,48.89,13.6,56.37-29.91"/></g><g><path class="e" d="M439.04,408.37s-.07,58.41-43.79,52c0,0-14.44-42.56,43.79-52Z"/><path class="b" d="M439.12,415.71s-30.46,24.7-42.82,44.41c0,0,39.52,12.71,47.08-49.04,0,0-53.42,1.57-47.38,47.67"/></g><g><path class="f" d="M423.43,439.24s3.47,1.27,4.16,2.68l.02,5.24s4.06-3.81,9.15,17.24l1.84,1.8s3.96,5.74,4.36,5.97,6.36,8.09-2.16,3.9c0,0-2.15-.13-2.42,3.33,0,0-1.46,2.44-5.74,2,0,0-7.07,4.52-7.46,5.61s-6.87,4.31-10.18,1.88c0,0-1.45-.45-2.7-.85,0,0-1.59,20.29-13.07,20.83,0,0-2.54-4.99-6.65-3.87s-5.16-2.82-5.16-2.82c0,0-10.39,.5-10.11-8.92,0,0-2.32-8.22-7.42-10.31,0,0-1.75,.91-4.25,.07,0,0-3.49,.64-5.44,1.93-1.95,1.3-4.37,2.62-11.5-3.09,0,0-3.54-6.36-13.33-4.2,0,0-4.59,.62,3.81-4.14,0,0-2.19-1.53-4.87-.48,0,0,.14-4.71,3.62-6.66,0,0,2.7-3.95,11.52-5.69,0,0,5.19-.48,6.06-5.6,0,0-2.09-1.51,1.85-11.92,0,0-.44-1.45,4.49-5.51,0,0-.14-3,1.38-3.6s2.4,0,.18-3.58c0,0,2.25-2.31,8.32-1.01,0,0,3.92,1.81,5.59,.33,0,0,.32-2.52,1.14-2.57s6.05,.32,6.63-3.36c0,0,.46-.87,8.74-2.65,0,0,6.12-1.6,19.94,10.13,0,0,9.4,.26,9.65,7.88Z"/><g><path class="c" d="M403.61,476.14s7.84-17.5-4.62-11.4c0,0-8.48,2.89-12.87-4.31,0,0-4.92-4-7.36,1.95,0,0-10.53,4.26-11.97,.04,0,0-4.1-3.03-6.87,.75,0,0-1.36,.92-4.48,.38s-.96,2.75-.96,2.75c0,0,5.42,1.06,5.94,1.49s4.86,7.15,4.86,7.15l6.61,4.04s4.75-3.64,8.31,1.35c0,0,4.85,1.62,12.55-3.31,0,0,4.03-1.8,10.86-.87Z"/><path class="c" d="M373.41,478.15s-.88,5.07-6.69,3.47c0,0-2.17,0-6.21,2.36-4.04,2.35-10.73-3.51-10.73-3.51,0,0-4.03-6.73-13.33-4.2,0,0-4.57,.65,3.81-4.14,0,0-1.77-1.54-4.87-.48,0,0,.18-4.79,3.62-6.66,0,0,1.88-3.23,11.52-5.69,0,0,5.03-.44,6.14-5.96,0,0,1.61,.94,1.22,2.81,0,0-1.55,5.39,2.02,7.02"/><path class="c" d="M413.56,474.63s-.77,5.19-6.43,8.13c0,0-5.86,4.28-13.12,2.98,0,0-4.54-2.58-5.76-2.02"/><path class="c" d="M429.04,446.11s.95-2.5,3.8,2.21c2.85,4.71,5.1,15.05,5.1,15.05,0,0,1.42,.83,2.1,1.86s3.59,5.68,4.42,5.77,5.27,8.07-2.57,3.67c0,0-2.17-.59-2.42,3.33,0,0-1.5,2.24-5.74,2,0,0-5.38,3.35-7.63,5.79,0,0-5.97,4.47-10.29,1.51,0,0-7.6-1.81-9.35-4.1"/><path class="c" d="M413.39,486.64s-1.27,19.57-13.07,20.83c0,0-2.48-5.13-6.65-3.87,0,0-3.57,.78-5.16-2.82,0,0-10.44,.02-10.11-9.35,0,0-2.91-8.89-7.43-9.88"/><path class="c" d="M372.86,479.61s2.75-.87,3.21,.6,6.29,9.82,15.34,1.16c0,0,3.29-3.68,6.74-1.86,3.45,1.82,12.19,.8,14.7-4.29"/><path class="c" d="M403.61,476.14s8.17,4.76,16.21-8.94c0,0,9.75-6.6,9.65-14.29,0,0-1.36-10.01-.79-12.41,0,0-1.57-2-4.16-2.68,0,0,.06-6.77-8.13-7.34-8.19-.57-10.16-1.34-13.72,1.61"/><path class="c" d="M415.43,430.41s-15.07-12.82-21.03-10.44c0,0-4.39,1.34-7.14,1.86s.86,3.58-7.71,3.99c0,0-.68,.02-1.08,2.54,0,0-1.94,1.24-4.84,0s-8.13-.66-9.13,.72c0,0,3.29,3.63-.18,3.58,0,0-.91-.12-1.38,3.6,0,0-4.24,3.43-4.49,5.51-.26,2.08-3.49,9.6-1.77,11.56"/><path class="c" d="M419.22,446.37s6.31,2.28,3.4,4.97c0,0,1.78,9.18-7.71,12.49,0,0-4.52,.24-9.14,7.08"/><path class="c" d="M419.13,461.46s-2.57,10.71-4.42,12.24"/><path class="c" d="M417.91,449.93s2.53,1.98-1.27,5.24-8.57,4.18-10.88,9.82"/><path class="c" d="M417.02,454.83s-4.46-17.55-14.59-6.59c0,0-.98,1.78-4.46,.78,0,0-2.24,.35-3.34,2.89,0,0-.68,1.39-3.42,.74,0,0-2.48,3.58,.07,12.05"/><path class="c" d="M374.29,463.76s-5.99-3.22-5.85-6.95c.14-3.73-1.13-7.34-1.12-8.79,0,0-5.24-4.32,1.38-2.37,0,0,2.02,1.88,6.82,1.17,4.8-.7,13.54-3.9,20.47,3.19"/><path class="c" d="M403.41,447.25s.15-5.95-1.88-7.13-7.27,1.39-7.45,8.22"/><path class="c" d="M394.57,444.61s-1.2-5.39-7.67-4.33c0,0-4.96-4.48-9.27-1.01,0,0-1.79,2.05-4.29-.41s-.42,8.1-.42,8.1"/><path class="c" d="M400.19,439.76l-3.54-3.35s-3.33,1.68-7.49,1.17c0,0-.91-.08-2.58,2.09"/><path class="c" d="M415.77,451.32s8.12-4.89-.92-9.9c0,0-8.28-.02-11.21-2.57s-5-.79-5-.79"/><path class="c" d="M412.13,441.28s-8.84-8.97-10.83-9.8c-1.99-.83-7.18,.19-8.87,2.34s-7.8,.91-7.8,.91c0,0-6.65-1.74-7,4.54"/></g></g></g></svg>