<?xml version="1.0" encoding="utf-8"?>
<!-- Generator: Adobe Illustrator 24.3.0, SVG Export Plug-In . SVG Version: 6.00 Build 0)  -->
<svg version="1.1" xmlns="http://www.w3.org/2000/svg" xmlns:xlink="http://www.w3.org/1999/xlink" x="0px" y="0px"
	 viewBox="0 0 216 216" style="enable-background:new 0 0 216 216;" xml:space="preserve">
<style type="text/css">
	.Arched_x0020_Green{fill:url(#SVGID_1_);stroke:#FFFFFF;stroke-width:0.25;stroke-miterlimit:1;}
	.st0{fill:url(#SVGID_2_);}
	.st1{fill:url(#SVGID_3_);}
	.st2{fill:#E85025;}
	.st3{fill:#514D4D;}
	.st4{fill:url(#SVGID_4_);}
	.st5{fill:url(#SVGID_5_);}
	.st6{fill:url(#SVGID_6_);}
	.st7{fill:url(#SVGID_7_);}
	.st8{fill:#141414;}
	.st9{fill:url(#SVGID_8_);}
	.st10{fill:#E0E1E2;}
	.st11{fill:#A9A8A8;}
	.st12{fill:#B53225;}
	.st13{fill:#CD8D2A;}
</style>
<linearGradient id="SVGID_1_" gradientUnits="userSpaceOnUse" x1="0" y1="216" x2="0.7071" y2="215.2929">
	<stop  offset="0" style="stop-color:#20AC4B"/>
	<stop  offset="0.9831" style="stop-color:#19361A"/>
</linearGradient>
<g id="Background">
	<linearGradient id="SVGID_2_" gradientUnits="userSpaceOnUse" x1="10.1974" y1="-8.5566" x2="205.8026" y2="224.5566">
		<stop  offset="0" style="stop-color:#FAA334"/>
		<stop  offset="1" style="stop-color:#5D2600"/>
	</linearGradient>
	<rect class="st0" width="216" height="216"/>
	<linearGradient id="SVGID_3_" gradientUnits="userSpaceOnUse" x1="10.1974" y1="-8.5566" x2="205.8026" y2="224.5566">
		<stop  offset="0" style="stop-color:#FDBB33"/>
		<stop  offset="1" style="stop-color:#853E00"/>
	</linearGradient>
	<rect class="st1" width="216" height="216"/>
	<path class="st2" d="M0,0h216v216H0V0z M11.53,204.47h192.94V11.53H11.53V204.47z"/>
</g>
<g id="Camera">
	<polygon class="st3" points="88.43,63.94 87.48,53.75 59.14,53.75 57.87,62.67 	"/>
	<linearGradient id="SVGID_4_" gradientUnits="userSpaceOnUse" x1="22.8891" y1="104.474" x2="194.958" y2="104.474">
		<stop  offset="0" style="stop-color:#5A5B5D"/>
		<stop  offset="0.0705" style="stop-color:#4C4C4E"/>
		<stop  offset="0.1756" style="stop-color:#38383A"/>
		<stop  offset="0.3065" style="stop-color:#1E1E1F"/>
		<stop  offset="0.4902" style="stop-color:#070708"/>
		<stop  offset="1" style="stop-color:#000000"/>
	</linearGradient>
	<path class="st4" d="M30.46,173.8h154.95c0,0,7.55-0.47,7.55-9.67c0,0,3.3-45.28,1.41-87.74c0,0,0.71-9.91-14.86-13.92l-6.6-0.94
		c0,0-2.97-0.46-6.13-7.31l-6.71-15.12c0,0-21.01-8.92-48.4,0l-7.63,15.35c0,0-1.89,7.08-7.78,7.31l-19.81,0.94
		c0,0-28.77-3.77-50.47,0c0,0-5.19,29.95-2.12,101.42C23.86,164.13,24.8,173.8,30.46,173.8z"/>
	<linearGradient id="SVGID_5_" gradientUnits="userSpaceOnUse" x1="101.5972" y1="71.2314" x2="169.516" y2="152.1739">
		<stop  offset="0" style="stop-color:#3B3B3B"/>
		<stop  offset="0.4667" style="stop-color:#212121"/>
		<stop  offset="1" style="stop-color:#050505"/>
	</linearGradient>
	<path class="st5" d="M188.39,111.7c0,29.18-23.65,52.83-52.83,52.83c-29.18,0-52.83-23.65-52.83-52.83
		c0-29.18,23.65-52.83,52.83-52.83C164.73,58.87,188.39,82.52,188.39,111.7z"/>
	<radialGradient id="SVGID_6_" cx="135.5569" cy="111.7029" r="48.1308" gradientUnits="userSpaceOnUse">
		<stop  offset="3.958120e-03" style="stop-color:#FFF2DB"/>
		<stop  offset="0.309" style="stop-color:#D7B189"/>
		<stop  offset="0.6098" style="stop-color:#A46F45"/>
		<stop  offset="0.7809" style="stop-color:#8C5027"/>
		<stop  offset="1" style="stop-color:#561814"/>
	</radialGradient>
	<circle class="st6" cx="135.56" cy="111.7" r="48.13"/>
	<linearGradient id="SVGID_7_" gradientUnits="userSpaceOnUse" x1="107.9776" y1="78.835" x2="163.1356" y2="144.5697">
		<stop  offset="0" style="stop-color:#424242"/>
		<stop  offset="0.4667" style="stop-color:#212121"/>
		<stop  offset="1" style="stop-color:#080808"/>
	</linearGradient>
	<path class="st7" d="M178.46,111.7c0,23.7-19.21,42.9-42.9,42.9c-23.7,0-42.9-19.21-42.9-42.9c0-23.7,19.21-42.9,42.9-42.9
		C159.25,68.8,178.46,88.01,178.46,111.7z"/>
	<path class="st8" d="M170.58,111.7c0,19.34-15.68,35.02-35.02,35.02s-35.02-15.68-35.02-35.02c0-19.34,15.68-35.02,35.02-35.02
		S170.58,92.36,170.58,111.7z"/>
	<linearGradient id="SVGID_8_" gradientUnits="userSpaceOnUse" x1="115.909" y1="88.2871" x2="155.2043" y2="135.1174">
		<stop  offset="0" style="stop-color:#A3A3A3"/>
		<stop  offset="0.4667" style="stop-color:#333333"/>
		<stop  offset="1" style="stop-color:#121212"/>
	</linearGradient>
	<path class="st9" d="M166.12,111.7c0,16.88-13.68,30.57-30.57,30.57c-16.88,0-30.57-13.69-30.57-30.57
		c0-16.88,13.68-30.57,30.57-30.57C152.44,81.14,166.12,94.82,166.12,111.7z"/>
	<path class="st10" d="M117.73,120.94c0,0,0-17.19,15.28-21.97C133.01,98.97,110.08,98.33,117.73,120.94z"/>
	<path class="st10" d="M123.46,97.69c0,0,11.78-11.14,24.52-4.14C147.97,93.55,136.83,89.41,123.46,97.69z"/>
	<path class="st11" d="M111.68,39.11l4.46,9.55h38.53l5.41-9.55C160.07,39.11,140.33,28.92,111.68,39.11z"/>
	<polygon class="st12" points="31.76,72.22 66.78,72.22 48.63,78.91 	"/>
	<path class="st13" d="M60.1,66.01c0,1.32-4.92,2.39-10.98,2.39c-6.07,0-10.98-1.07-10.98-2.39c0-1.32,4.92-2.39,10.98-2.39
		C55.18,63.62,60.1,64.69,60.1,66.01z"/>
</g>
</svg>
