<?xml version="1.0" encoding="UTF-8"?><svg xmlns="http://www.w3.org/2000/svg" xmlns:xlink="http://www.w3.org/1999/xlink" viewBox="0 0 132.01 132.01"><defs><style>.d{fill:url(#c);}.e{fill:#148b8b;}.e,.f{fill-rule:evenodd;}.f{fill:#fefefe;}</style><linearGradient id="c" x1="136.14" y1="69.68" x2="-4.14" y2="62.33" gradientTransform="translate(130.5 -1.48) rotate(88.7)" gradientUnits="userSpaceOnUse"><stop offset="0" stop-color="#73c7d2"/><stop offset="1" stop-color="#00979a"/></linearGradient></defs><g id="a"/><g id="b"><path class="e" d="M106.34,44.22c4.08,4.07,7.09,9.31,8.43,15.36,2.4,10.82-1.13,21.57-8.43,28.87v-6.81c4.11-5.94,5.84-13.5,4.15-21.11-.78-3.52-2.22-6.72-4.15-9.51v-6.8h0Zm0,26.55c.57-2.84,.6-5.84,0-8.85v8.85h0Zm0-33.36l6.46-1.43c2.39-.53,4.78,.99,5.31,3.39l8.22,37.11c.53,2.39-.99,4.78-3.39,5.31l-9.92,2.2c-1.13,1.84-2.43,3.57-3.9,5.17l14.73-3.26c4.65-1.03,7.61-5.67,6.58-10.32l-8.22-37.11c-1.03-4.65-5.67-7.61-10.32-6.58l-5.56,1.23v4.3Zm-4.79,2.89c1.72,1.14,3.32,2.45,4.79,3.91v6.8c-1.37-1.97-2.98-3.73-4.79-5.25v-5.46h0Zm4.79,48.14c-1.45,1.45-3.05,2.77-4.79,3.92v-5.46c1.83-1.54,3.44-3.31,4.79-5.26v6.81h0Zm0-55.33v4.3l-3.46,.77c-.44-.29-.88-.57-1.33-.84v-3.17l4.79-1.06h0Zm0,28.81v8.85c-.55,2.74-1.61,5.34-3.09,7.66-.52,.81-1.08,1.58-1.7,2.32v-1.36c.35-.46,.67-.93,.98-1.41,2.98-4.68,4.18-10.49,2.88-16.33-.7-3.14-2.04-5.98-3.87-8.39v-1.36c2.24,2.68,3.89,5.92,4.69,9.56,.03,.15,.07,.3,.1,.45h0Zm-4.79,16.84c3.41-4.75,4.86-10.87,3.5-17.03-.65-2.91-1.86-5.55-3.5-7.83v9.71c.29,1.86,.28,3.7,0,5.48v9.67Zm-17.29-43.68c6.26,0,12.26,1.88,17.29,5.23v5.46c-4.76-4-10.86-6.31-17.29-6.31v-4.38h0Zm17.29,57.28c-3.12,2.07-6.66,3.62-10.54,4.47-2.26,.5-4.53,.74-6.75,.74v-4.38c1.92,0,3.86-.21,5.81-.64,4.38-.97,8.27-2.96,11.49-5.66v5.46h0Zm0-58.2l-4.38,.97c1.52,.63,2.98,1.37,4.38,2.2v-3.17h0Zm0,17.73c-1.49-1.78-3.25-3.32-5.19-4.56-3.55-2.26-7.74-3.54-12.1-3.53v.85c4.2,0,8.23,1.22,11.65,3.4,2.16,1.38,4.08,3.13,5.64,5.2v-1.36h0Zm0,1.99c-3.95-5.49-10.38-8.87-17.29-8.86v3.79c8.04,0,15.28,5.55,17.09,13.72,.08,.35,.14,.71,.2,1.06v-9.71h0Zm0,15.19c-1.1,6.89-6.29,12.74-13.51,14.34-1.27,.28-2.54,.42-3.78,.42v3.79c1.52,0,3.06-.17,4.6-.51,5.33-1.18,9.74-4.26,12.69-8.37v-9.67h0Zm0,10.31c-3,3.97-7.37,6.94-12.61,8.1-1.57,.35-3.14,.51-4.68,.52v.85c1.61,0,3.24-.18,4.87-.54,5.06-1.12,9.35-3.86,12.43-7.56v-1.36Zm-24.05-43.57c2.26-.5,4.53-.74,6.75-.74v4.38c-1.92,0-3.86,.21-5.81,.64-3.47,.77-6.64,2.18-9.4,4.08v-5.15c2.58-1.44,5.42-2.53,8.46-3.21h0Zm6.75,61.76c-5.42,0-10.64-1.41-15.21-3.96v-5.15c4.4,3.02,9.68,4.73,15.21,4.72v4.38h0Zm0-53.77c-1.61,0-3.23,.18-4.87,.54-4,.89-7.52,2.79-10.34,5.38v1.17c2.8-2.77,6.39-4.8,10.52-5.72,1.57-.35,3.14-.52,4.68-.52v-.85h0Zm0,1.22v3.79c-1.25,0-2.52,.14-3.78,.42-5.02,1.11-9.06,4.28-11.43,8.42v-6.24c2.79-2.85,6.42-4.96,10.61-5.88,1.54-.34,3.08-.5,4.6-.51h0Zm0,38.81v3.79c-5.8,0-11.27-2.38-15.21-6.39v-6.23c3.09,5.42,8.91,8.84,15.21,8.83h0Zm0,4.17c-4.2,0-8.23-1.22-11.65-3.4-1.28-.82-2.47-1.76-3.56-2.83v1.17c.97,.88,2,1.68,3.1,2.38,3.55,2.26,7.74,3.54,12.1,3.54v-.85h0Zm-15.21,10.03l2.3-.51c-.78-.32-1.55-.68-2.3-1.06v1.57Zm0-4.41c-.86-.48-1.7-1-2.51-1.56v-5.54c.8,.7,1.63,1.35,2.51,1.95v5.15h0Zm-2.51-53.04c.81-.55,1.64-1.07,2.51-1.55v5.15c-.88,.6-1.71,1.25-2.51,1.95v-5.54h0Zm2.51,9.14v1.17c-.92,.91-1.76,1.9-2.51,2.96v-1.42c.76-.97,1.6-1.87,2.51-2.71h0Zm0,1.7c-.93,.95-1.77,1.99-2.51,3.09v23.64c.74,1.11,1.58,2.14,2.51,3.08v-6.23c-.85-1.49-1.49-3.13-1.88-4.89-.98-4.42-.19-8.81,1.88-12.45v-6.24h0Zm0,30.35v1.17c-.9-.83-1.74-1.73-2.51-2.7v-1.42c.75,1.06,1.59,2.05,2.51,2.95h0Zm0,14.69v1.57l-2.51,.55v-3.52c.81,.5,1.65,.97,2.51,1.4Zm-2.51-4.4c-6.29-4.33-11.01-10.95-12.79-18.98-.07-.31-.13-.62-.19-.93v-11.68c1.54-8.05,6.22-15.23,12.98-19.89v5.54c-7.12,6.26-10.71,16.1-8.52,26.01,1.29,5.81,4.36,10.75,8.52,14.39v5.54h0Zm0-39.64c-.45,.58-.88,1.18-1.27,1.8-3.1,4.86-4.34,10.9-3,16.97,.76,3.41,2.25,6.47,4.27,9.04v-1.42c-1.61-2.28-2.8-4.91-3.44-7.81-1.29-5.84-.1-11.66,2.88-16.33,.18-.28,.37-.56,.56-.83v-1.42h0Zm0,2.08c-3.1,4.66-4.38,10.52-3.08,16.42,.59,2.66,1.65,5.09,3.08,7.22v-23.64h0Zm0,40.55v3.52l-12.98,2.87v-4.3l12.08-2.67c.3,.2,.6,.39,.91,.58h0Zm-12.98-45.96l1.93-.43c1.13-1.84,2.43-3.57,3.9-5.17l-5.83,1.29v4.3h0Zm0-5.78l.55-.12c-.11-.5-.3-.96-.55-1.38v1.5Zm0,28.83c-.76-3.97-.72-7.92,0-11.68v11.68h0Zm0-30.34v1.5l-14.89,3.3c-.54-2.46,1.02-4.92,3.48-5.46l6.51-1.44c1.96-.43,3.91,.47,4.9,2.1h0Zm0,2.98l-21.72,4.81c-4.65,1.03-7.61,5.68-6.58,10.33l8.22,37.11c1.03,4.65,5.68,7.61,10.32,6.58l9.76-2.16v-4.3l-10.67,2.36c-2.39,.53-4.78-1-5.31-3.39l-8.22-37.12c-.53-2.39,.99-4.78,3.39-5.31l20.81-4.61v-4.3Z"/><path class="e" d="M46.46,117.3l-3.16,.7c-2.68,.59-5.36,.58-7.89,.04v-2.58c2.34,.58,4.84,.64,7.34,.09l3.16-.7,.54,2.45h0Zm-11.05-4.44v-2.64c1.94,.72,4.1,.91,6.26,.43l3.16-.7,.54,2.45-3.16,.7c-2.33,.52-4.66,.4-6.8-.24Zm0,5.18c-6.96-1.47-12.78-6.88-14.41-14.25l-.46-2.06,2.45-.54,.46,2.06c1.37,6.2,6.17,10.79,11.96,12.22v2.58h0Zm0-7.82c-3.45-1.28-6.21-4.22-7.06-8.06l-.46-2.06-2.45,.54,.46,2.06c1.11,5.02,4.89,8.8,9.51,10.16v-2.64Z"/><g><circle class="d" cx="66.01" cy="66.01" r="66.01" transform="translate(-1.48 130.5) rotate(-88.7)"/><path class="f" d="M99.03,36.75c4.08,4.07,7.09,9.31,8.43,15.36,2.4,10.82-1.13,21.57-8.43,28.87v-6.81c4.11-5.94,5.84-13.5,4.15-21.11-.78-3.52-2.22-6.72-4.15-9.51v-6.8h0Zm0,26.55c.57-2.84,.6-5.84,0-8.85v8.85h0Zm0-33.36l6.46-1.43c2.39-.53,4.78,.99,5.31,3.39l8.22,37.12c.53,2.39-.99,4.78-3.39,5.31l-9.92,2.2c-1.13,1.84-2.43,3.57-3.9,5.17l14.73-3.26c4.65-1.03,7.61-5.68,6.58-10.33l-8.22-37.11c-1.03-4.65-5.68-7.61-10.32-6.58l-5.56,1.23v4.3Zm-4.79,2.89c1.72,1.14,3.32,2.45,4.79,3.91v6.8c-1.37-1.97-2.98-3.73-4.79-5.25v-5.46h0Zm4.79,48.14c-1.45,1.45-3.05,2.77-4.79,3.92v-5.46c1.83-1.54,3.44-3.31,4.79-5.26v6.81h0Zm0-55.34v4.3l-3.46,.77c-.44-.29-.88-.57-1.33-.84v-3.17l4.79-1.06h0Zm0,28.81v8.85c-.55,2.74-1.61,5.34-3.09,7.66-.51,.81-1.08,1.58-1.7,2.32v-1.36c.35-.46,.67-.93,.98-1.41,2.98-4.68,4.18-10.49,2.88-16.33-.7-3.14-2.04-5.98-3.87-8.39v-1.36c2.24,2.68,3.89,5.92,4.69,9.56,.03,.15,.07,.3,.1,.46h0Zm-4.79,16.84c3.41-4.75,4.86-10.87,3.5-17.03-.65-2.91-1.86-5.55-3.5-7.83v9.71c.29,1.86,.28,3.7,0,5.48v9.67Zm-17.29-43.68c6.26,0,12.26,1.88,17.29,5.23v5.46c-4.76-4-10.86-6.32-17.29-6.31v-4.38h0Zm17.29,57.28c-3.12,2.07-6.66,3.62-10.54,4.47-2.26,.5-4.53,.74-6.75,.74v-4.38c1.91,0,3.86-.21,5.81-.64,4.38-.97,8.27-2.96,11.48-5.66v5.46h0Zm0-58.2l-4.38,.97c1.51,.63,2.98,1.37,4.38,2.2v-3.17h0Zm0,17.73c-1.49-1.78-3.25-3.32-5.19-4.56-3.55-2.26-7.74-3.54-12.1-3.54v.85c4.2,0,8.23,1.22,11.65,3.4,2.16,1.38,4.08,3.13,5.64,5.2v-1.36h0Zm0,1.99c-3.95-5.49-10.38-8.87-17.29-8.86v3.79c8.04,0,15.28,5.55,17.09,13.72,.08,.35,.14,.71,.2,1.06v-9.71h0Zm0,15.19c-1.1,6.89-6.28,12.74-13.51,14.34-1.27,.28-2.54,.42-3.78,.42v3.79c1.52,0,3.06-.17,4.6-.51,5.33-1.18,9.74-4.26,12.69-8.37v-9.67h0Zm0,10.31c-3,3.97-7.37,6.94-12.61,8.1-1.57,.35-3.14,.52-4.68,.52v.85c1.61,0,3.24-.18,4.87-.54,5.06-1.12,9.34-3.86,12.42-7.56v-1.36Zm-24.05-43.57c2.27-.5,4.53-.74,6.75-.74v4.38c-1.92,0-3.86,.21-5.81,.64-3.47,.77-6.64,2.18-9.4,4.08v-5.15c2.58-1.44,5.42-2.53,8.45-3.21h0Zm6.75,61.76c-5.42,0-10.64-1.41-15.21-3.96v-5.15c4.4,3.02,9.68,4.73,15.21,4.73v4.38h0Zm0-53.77c-1.61,0-3.24,.18-4.87,.54-4,.89-7.52,2.79-10.34,5.38v1.17c2.8-2.77,6.39-4.8,10.52-5.72,1.57-.35,3.14-.51,4.68-.52v-.85h0Zm0,1.22v3.79c-1.25,0-2.52,.14-3.78,.42-5.02,1.11-9.06,4.28-11.42,8.42v-6.24c2.79-2.85,6.42-4.96,10.61-5.89,1.54-.34,3.08-.5,4.6-.51h0Zm0,38.81v3.79c-5.8,0-11.27-2.38-15.21-6.39v-6.23c3.09,5.42,8.91,8.84,15.21,8.83h0Zm0,4.17c-4.2,0-8.23-1.22-11.65-3.4-1.28-.82-2.47-1.76-3.56-2.83v1.17c.97,.88,2,1.68,3.1,2.38,3.55,2.27,7.74,3.54,12.1,3.54v-.85h0Zm-15.21,10.03l2.3-.51c-.78-.32-1.55-.68-2.3-1.06v1.57Zm0-4.41c-.86-.48-1.7-1-2.51-1.56v-5.54c.8,.7,1.63,1.35,2.51,1.95v5.15h0Zm-2.51-53.04c.81-.56,1.64-1.08,2.51-1.56v5.15c-.88,.6-1.71,1.25-2.51,1.95v-5.54h0Zm2.51,9.14v1.17c-.92,.91-1.76,1.9-2.51,2.96v-1.42c.76-.97,1.6-1.87,2.51-2.71h0Zm0,1.7c-.93,.95-1.77,1.99-2.51,3.09v23.64c.74,1.11,1.58,2.14,2.51,3.08v-6.23c-.85-1.49-1.49-3.13-1.88-4.89-.98-4.42-.19-8.81,1.88-12.45v-6.24h0Zm0,30.35v1.17c-.9-.83-1.74-1.73-2.51-2.7v-1.42c.75,1.06,1.59,2.05,2.51,2.95h0Zm0,14.69v1.57l-2.51,.55v-3.52c.81,.5,1.65,.97,2.51,1.4Zm-2.51-4.4c-6.29-4.32-11.01-10.95-12.79-18.98-.07-.31-.13-.62-.19-.93v-11.68c1.54-8.05,6.22-15.23,12.98-19.89v5.54c-7.12,6.26-10.71,16.1-8.52,26.01,1.29,5.81,4.36,10.75,8.52,14.39v5.54h0Zm0-39.64c-.45,.58-.88,1.18-1.27,1.8-3.1,4.86-4.34,10.9-3,16.97,.75,3.41,2.25,6.47,4.27,9.04v-1.42c-1.61-2.28-2.8-4.91-3.44-7.81-1.29-5.84-.1-11.66,2.89-16.33,.18-.28,.37-.56,.56-.83v-1.42h0Zm0,2.08c-3.1,4.66-4.38,10.52-3.08,16.42,.59,2.66,1.65,5.09,3.08,7.22v-23.64h0Zm0,40.55v3.52l-12.98,2.87v-4.3l12.08-2.67c.3,.2,.6,.39,.91,.58h0Zm-12.98-45.96l1.93-.43c1.13-1.84,2.43-3.57,3.9-5.17l-5.83,1.29v4.31h0Zm0-5.78l.55-.12c-.11-.5-.3-.96-.55-1.38v1.5Zm0,28.83c-.76-3.97-.72-7.92,0-11.68v11.68h0Zm0-30.34v1.5l-14.89,3.3c-.54-2.46,1.02-4.92,3.48-5.46l6.51-1.44c1.96-.43,3.91,.47,4.9,2.1h0Zm0,2.98l-21.72,4.81c-4.65,1.03-7.61,5.67-6.58,10.32l8.22,37.11c1.03,4.65,5.68,7.61,10.32,6.58l9.76-2.16v-4.3l-10.67,2.36c-2.39,.53-4.78-.99-5.31-3.39l-8.22-37.11c-.53-2.39,.99-4.78,3.39-5.31l20.81-4.61v-4.31Z"/><path class="f" d="M41.09,111.15l-3.16,.7c-2.68,.59-5.36,.58-7.89,.04v-2.58c2.34,.58,4.84,.64,7.34,.09l3.16-.7,.54,2.45h0Zm-11.05-4.44v-2.64c1.94,.72,4.1,.91,6.26,.43l3.16-.7,.54,2.45-3.17,.7c-2.33,.52-4.66,.4-6.8-.23Zm0,5.18c-6.96-1.48-12.78-6.88-14.41-14.25l-.46-2.06,2.45-.54,.46,2.06c1.37,6.2,6.17,10.79,11.96,12.22v2.58h0Zm0-7.82c-3.45-1.28-6.21-4.22-7.06-8.06l-.46-2.06-2.45,.54,.46,2.06c1.11,5.03,4.89,8.8,9.51,10.16v-2.64Z"/></g></g></svg>