<?xml version="1.0" encoding="UTF-8" standalone="no"?>
<svg
   xmlns:dc="http://purl.org/dc/elements/1.1/"
   xmlns:cc="http://creativecommons.org/ns#"
   xmlns:rdf="http://www.w3.org/1999/02/22-rdf-syntax-ns#"
   xmlns:svg="http://www.w3.org/2000/svg"
   xmlns="http://www.w3.org/2000/svg"
   xmlns:sodipodi="http://sodipodi.sourceforge.net/DTD/sodipodi-0.dtd"
   xmlns:inkscape="http://www.inkscape.org/namespaces/inkscape"
   version="1.1"
   id="svg2"
   xml:space="preserve"
   width="1401.6133"
   height="1130.8667"
   viewBox="0 0 1401.6133 1130.8667"
   sodipodi:docname="Vector Camera [Converted].eps"><metadata
     id="metadata8"><rdf:RDF><cc:Work
         rdf:about=""><dc:format>image/svg+xml</dc:format><dc:type
           rdf:resource="http://purl.org/dc/dcmitype/StillImage" /></cc:Work></rdf:RDF></metadata><defs
     id="defs6" /><sodipodi:namedview
     pagecolor="#ffffff"
     bordercolor="#666666"
     borderopacity="1"
     objecttolerance="10"
     gridtolerance="10"
     guidetolerance="10"
     inkscape:pageopacity="0"
     inkscape:pageshadow="2"
     inkscape:window-width="640"
     inkscape:window-height="480"
     id="namedview4" /><g
     id="g10"
     inkscape:groupmode="layer"
     inkscape:label="ink_ext_XXXXXX"
     transform="matrix(1.3333333,0,0,-1.3333333,0,1130.8667)"><g
       id="g12"
       transform="scale(0.1)"><path
         d="M 2199.23,5940.28 H 841.809 v 662.93 H 2199.23 Z m 1443.42,1902.63 c 35.61,113.86 141.07,191.37 260.37,191.37 h 2714.63 c 119.3,0 224.76,-77.51 260.38,-191.37 v 0 c 79.68,-254.74 -110.62,-513.64 -377.51,-513.64 H 4020.16 c -266.9,0 -457.19,258.91 -377.51,513.64 z m 6143.37,-584.99 v 187.82 c 0,210.26 -170.46,380.72 -380.73,380.72 h -943.21 c -210.26,0 -380.72,-170.46 -380.72,-380.72 V 7261.27 H 7520.3 l -243.93,779.84 c -81.96,262.01 -324.65,440.38 -599.17,440.38 H 3843.47 c -274.52,0 -517.21,-178.37 -599.17,-440.38 L 3000.37,7261.27 H 792.438 C 354.789,7261.27 0,6906.49 0,6468.83 V 1329.77 C 0,892.109 354.789,537.332 792.438,537.332 H 3075.46 C 2410.32,1135.64 1991.81,2002.76 1991.81,2967.84 c 0,1805.16 1463.37,3268.52 3268.53,3268.52 1805.15,0 3268.52,-1463.36 3268.52,-3268.52 0,-965.08 -418.51,-1832.2 -1083.65,-2430.508 h 2274.43 c 437.66,0 792.46,354.777 792.46,792.438 v 5139.06 c 0,415.25 -319.6,755.29 -726.08,789.09"
         style="fill:#211d1d;fill-opacity:1;fill-rule:nonzero;stroke:none"
         id="path14" /><path
         d="m 3028.31,2967.84 c 0,1232.72 999.32,2232.03 2232.03,2232.03 1232.71,0 2232.03,-999.31 2232.03,-2232.03 0,-1232.71 -999.32,-2232.027 -2232.03,-2232.027 -1232.71,0 -2232.03,999.317 -2232.03,2232.027 z M 6962.53,537.332 c 765.06,536.808 1265.65,1424.938 1265.65,2430.508 0,1639.1 -1328.75,2967.84 -2967.84,2967.84 -1639.1,0 -2967.84,-1328.74 -2967.84,-2967.84 0,-1005.57 500.58,-1893.7 1265.64,-2430.508 C 4040.13,199.129 4626.81,0 5260.34,0 c 633.52,0 1220.2,199.129 1702.19,537.332"
         style="fill:#211d1d;fill-opacity:1;fill-rule:nonzero;stroke:none"
         id="path16" /><path
         d="m 5260.34,3815.8 c 468.29,0 847.95,-379.67 847.95,-847.96 0,-468.29 -379.66,-847.95 -847.95,-847.95 -468.29,0 -847.96,379.66 -847.96,847.95 0,468.29 379.67,847.96 847.96,847.96 z m 699.56,423.97 c 140.49,0 254.38,-113.89 254.38,-254.38 0,-140.49 -113.89,-254.39 -254.38,-254.39 -140.49,0 -254.39,113.9 -254.39,254.39 0,140.49 113.9,254.38 254.39,254.38 z M 5260.34,1081.15 c 1041.94,0 1886.69,844.75 1886.69,1886.69 0,1041.95 -844.75,1886.7 -1886.69,1886.7 -1041.95,0 -1886.7,-844.75 -1886.7,-1886.7 0,-1041.94 844.75,-1886.69 1886.7,-1886.69"
         style="fill:#211d1d;fill-opacity:1;fill-rule:nonzero;stroke:none"
         id="path18" /></g></g></svg>
