<?xml version="1.0" encoding="utf-8"?>
<!-- Generator: Adobe Illustrator 26.0.1, SVG Export Plug-In . SVG Version: 6.00 Build 0)  -->
<svg version="1.1" id="Layer_1" xmlns="http://www.w3.org/2000/svg" xmlns:xlink="http://www.w3.org/1999/xlink" x="0px" y="0px"
	 viewBox="0 0 390 390" style="enable-background:new 0 0 390 390;" xml:space="preserve">
<style type="text/css">
	.st0{fill:#D3482F;}
</style>
<path class="st0" d="M195,178.68c-42.11,0-76.25,34.13-76.25,76.25c0,42.11,34.13,76.25,76.25,76.25s76.25-34.13,76.25-76.25
	C271.25,212.82,237.11,178.68,195,178.68z M195,317.99c-34.83,0-63.07-28.23-63.07-63.06c0-34.84,28.24-63.08,63.07-63.08
	s63.07,28.24,63.07,63.08C258.07,289.76,229.83,317.99,195,317.99z M348.92,141.96h-14.19v-8.48h2.82c3.12,0,5.66-2.21,5.66-4.94
	c0-2.73-2.53-4.94-5.66-4.94h-19.77c-3.11,0-5.64,2.22-5.64,4.94c0,2.74,2.53,4.94,5.64,4.94h2.83v8.48h-59.37
	c-1.32-23.64-19.01-42.37-40.71-42.37h-51.05c-21.7,0-39.39,18.73-40.72,42.37H41.08c-12.48,0-22.59,10.12-22.59,22.59V345.3
	c0,12.48,10.12,22.6,22.59,22.6h307.84c12.47,0,22.59-10.12,22.59-22.6V164.55C371.51,152.08,361.39,141.96,348.92,141.96z
	 M169.47,122.19h51.05c9.11,0,16.83,8.81,18.01,19.77h-87.08C152.64,131,160.36,122.19,169.47,122.19z M195,342.47
	c-48.35,0-87.55-39.19-87.55-87.54c0-48.36,39.19-87.55,87.55-87.55c48.36,0,87.54,39.19,87.54,87.55
	C282.54,303.28,243.36,342.47,195,342.47z M346.56,174.44c0,3.12-2.53,5.65-5.66,5.65h-29.66c-3.11,0-5.64-2.53-5.64-5.65v-1.41
	c0-3.12,2.53-5.66,5.64-5.66h29.66c3.13,0,5.66,2.53,5.66,5.66V174.44z M66.91,92.56l40.71-5.39L97,47.51l39.58,10.61l5.32-40.63
	l32.6,24.98L195.03,6.9l20.48,35.5l32.51-24.98l5.38,40.72l39.67-10.63l-10.6,39.58l40.63,5.32l-28.74,40.14h-19.06l14.7-26.42
	l-30.13-3.94l7.86-29.35l-29.42,7.88l-3.98-30.19l-24.1,18.51l-15.19-26.32L179.8,69.1l-24.17-18.53l-3.94,30.14l-29.35-7.86
	l7.88,29.42l-30.19,3.99l14.46,26.31l-18.83,0.05L66.91,92.56z"/>
<g>
</g>
<g>
</g>
<g>
</g>
<g>
</g>
<g>
</g>
<g>
</g>
</svg>
