<?xml version="1.0" encoding="utf-8"?>
<!-- Generator: Adobe Illustrator 26.0.3, SVG Export Plug-In . SVG Version: 6.00 Build 0)  -->
<svg version="1.1" id="Vrstva_1" xmlns="http://www.w3.org/2000/svg" xmlns:xlink="http://www.w3.org/1999/xlink" x="0px" y="0px"
	 viewBox="0 0 21.16 21.16" style="enable-background:new 0 0 21.16 21.16;" xml:space="preserve">
<style type="text/css">
	.st0{opacity:0.1;fill:#020202;}
	.st1{fill:#FFFFFF;}
	.st2{fill:url(#SVGID_1_);}
	.st3{opacity:0.4;}
	.st4{fill:#020202;}
	.st5{opacity:0.9877;fill:#020202;}
	.st6{opacity:0.9753;fill:#020202;}
	.st7{opacity:0.963;fill:#020202;}
	.st8{opacity:0.9506;fill:#020202;}
	.st9{opacity:0.9383;fill:#020202;}
	.st10{opacity:0.9259;fill:#020202;}
	.st11{opacity:0.9136;fill:#020202;}
	.st12{opacity:0.9012;fill:#020202;}
	.st13{opacity:0.8889;fill:#020202;}
	.st14{opacity:0.8765;fill:#020202;}
	.st15{opacity:0.8642;fill:#020202;}
	.st16{opacity:0.8519;fill:#020202;}
	.st17{opacity:0.8395;fill:#020202;}
	.st18{opacity:0.8272;fill:#020202;}
	.st19{opacity:0.8148;fill:#020202;}
	.st20{opacity:0.8025;fill:#020202;}
	.st21{opacity:0.7901;fill:#020202;}
	.st22{opacity:0.7778;fill:#020202;}
	.st23{opacity:0.7654;fill:#020202;}
	.st24{opacity:0.7531;fill:#020202;}
	.st25{opacity:0.7407;fill:#020202;}
	.st26{opacity:0.7284;fill:#020202;}
	.st27{opacity:0.716;fill:#020202;}
	.st28{opacity:0.7037;fill:#020202;}
	.st29{opacity:0.6914;fill:#020202;}
	.st30{opacity:0.679;fill:#020202;}
	.st31{opacity:0.6667;fill:#020202;}
	.st32{opacity:0.6543;fill:#020202;}
	.st33{opacity:0.642;fill:#020202;}
	.st34{opacity:0.6296;fill:#020202;}
	.st35{opacity:0.6173;fill:#020202;}
	.st36{opacity:0.6049;fill:#020202;}
	.st37{opacity:0.5926;fill:#020202;}
	.st38{opacity:0.5802;fill:#020202;}
	.st39{opacity:0.5679;fill:#020202;}
	.st40{opacity:0.5556;fill:#020202;}
	.st41{opacity:0.5432;fill:#020202;}
	.st42{opacity:0.5309;fill:#020202;}
	.st43{opacity:0.5185;fill:#020202;}
	.st44{opacity:0.5062;fill:#020202;}
	.st45{opacity:0.4938;fill:#020202;}
	.st46{opacity:0.4815;fill:#020202;}
	.st47{opacity:0.4691;fill:#020202;}
	.st48{opacity:0.4568;fill:#020202;}
	.st49{opacity:0.4444;fill:#020202;}
	.st50{opacity:0.4321;fill:#020202;}
	.st51{opacity:0.4198;fill:#020202;}
	.st52{opacity:0.4074;fill:#020202;}
	.st53{opacity:0.3951;fill:#020202;}
	.st54{opacity:0.3827;fill:#020202;}
	.st55{opacity:0.3704;fill:#020202;}
	.st56{opacity:0.358;fill:#020202;}
	.st57{opacity:0.3457;fill:#020202;}
	.st58{opacity:0.3333;fill:#020202;}
	.st59{opacity:0.321;fill:#020202;}
	.st60{opacity:0.3086;fill:#020202;}
	.st61{opacity:0.2963;fill:#020202;}
	.st62{opacity:0.284;fill:#020202;}
	.st63{opacity:0.2716;fill:#020202;}
	.st64{opacity:0.2593;fill:#020202;}
	.st65{opacity:0.2469;fill:#020202;}
	.st66{opacity:0.2346;fill:#020202;}
	.st67{opacity:0.2222;fill:#020202;}
	.st68{opacity:0.2099;fill:#020202;}
	.st69{opacity:0.1975;fill:#020202;}
	.st70{opacity:0.1852;fill:#020202;}
	.st71{opacity:0.1728;fill:#020202;}
	.st72{opacity:0.1605;fill:#020202;}
	.st73{opacity:0.1481;fill:#020202;}
	.st74{opacity:0.1358;fill:#020202;}
	.st75{opacity:0.1235;fill:#020202;}
	.st76{opacity:0.1111;fill:#020202;}
	.st77{opacity:0.0988;fill:#020202;}
	.st78{opacity:0.0864;fill:#020202;}
	.st79{opacity:0.0741;fill:#020202;}
	.st80{opacity:0.0617;fill:#020202;}
	.st81{opacity:0.0494;fill:#020202;}
	.st82{opacity:0.037;fill:#020202;}
	.st83{opacity:0.0247;fill:#020202;}
	.st84{opacity:0.0123;fill:#020202;}
	.st85{opacity:0;fill:#020202;}
	.st86{fill:url(#SVGID_00000120551131602405433810000011242687238800064165_);}
	.st87{fill:url(#SVGID_00000131364438829906794250000018012170880455533466_);}
	.st88{fill:url(#SVGID_00000085970991828779723560000013833586739866117272_);}
	.st89{fill:url(#SVGID_00000151518482345559921270000008994183392118292098_);}
	.st90{fill:url(#SVGID_00000147189021429589445470000000976618906182911364_);}
	.st91{fill:#515252;}
</style>
<g>
	<circle class="st0" cx="10.58" cy="10.58" r="7.69"/>
	<circle class="st0" cx="10.58" cy="10.58" r="7.29"/>
	<circle class="st1" cx="10.58" cy="10.58" r="6.64"/>
	<linearGradient id="SVGID_1_" gradientUnits="userSpaceOnUse" x1="5.3013" y1="9.0417" x2="10.6665" y2="5.9441">
		<stop  offset="0" style="stop-color:#8A4586"/>
		<stop  offset="1" style="stop-color:#3D4989"/>
	</linearGradient>
	<path class="st2" d="M9.69,4.26c-2.24,0.31-4.1,1.78-4.97,3.78h7.15L9.69,4.26z"/>
	<g class="st3">
		<polygon class="st4" points="11.87,8.04 9.69,4.26 9.69,4.26 9.66,4.28 11.83,8.04 11.87,8.04 11.87,8.04 		"/>
		<polygon class="st5" points="11.87,8.04 9.68,4.26 9.68,4.26 9.65,4.28 11.82,8.04 11.87,8.04 11.87,8.04 		"/>
		<polygon class="st6" points="11.86,8.04 9.68,4.26 9.68,4.26 9.64,4.28 11.81,8.04 11.86,8.04 11.86,8.04 		"/>
		<polygon class="st7" points="11.85,8.04 9.67,4.26 9.67,4.26 9.64,4.28 11.81,8.04 11.85,8.04 11.85,8.04 		"/>
		<polygon class="st8" points="11.84,8.04 9.66,4.26 9.66,4.26 9.63,4.28 11.8,8.04 11.84,8.04 11.84,8.04 		"/>
		<polygon class="st9" points="11.84,8.04 9.66,4.26 9.66,4.26 9.62,4.28 11.79,8.04 11.84,8.04 11.84,8.04 		"/>
		<polygon class="st10" points="11.83,8.04 9.65,4.26 9.65,4.26 9.62,4.28 11.78,8.04 11.83,8.04 11.83,8.04 		"/>
		<polygon class="st11" points="11.82,8.04 9.64,4.26 9.64,4.26 9.61,4.28 11.77,8.04 11.82,8.04 11.82,8.04 		"/>
		<polygon class="st12" points="11.81,8.04 9.64,4.27 9.64,4.27 9.6,4.29 11.77,8.04 11.81,8.04 11.81,8.04 		"/>
		<polygon class="st13" points="11.81,8.04 9.63,4.27 9.63,4.27 9.59,4.29 11.76,8.04 11.81,8.04 11.81,8.04 		"/>
		<polygon class="st14" points="11.8,8.04 9.62,4.27 9.62,4.27 9.59,4.29 11.75,8.04 11.8,8.04 11.8,8.04 		"/>
		<polygon class="st15" points="11.79,8.04 9.62,4.27 9.62,4.27 9.58,4.29 11.74,8.04 11.79,8.04 11.79,8.04 		"/>
		<polygon class="st16" points="11.78,8.04 9.61,4.27 9.61,4.27 9.57,4.29 11.74,8.04 11.78,8.04 11.78,8.04 		"/>
		<polygon class="st17" points="11.77,8.04 9.6,4.27 9.6,4.27 9.57,4.29 11.73,8.04 11.77,8.04 11.77,8.04 		"/>
		<polygon class="st18" points="11.77,8.04 9.59,4.27 9.59,4.27 9.56,4.29 11.72,8.04 11.77,8.04 11.77,8.04 		"/>
		<polygon class="st19" points="11.76,8.04 9.59,4.27 9.59,4.27 9.55,4.29 11.71,8.04 11.76,8.04 11.76,8.04 		"/>
		<polygon class="st20" points="11.75,8.04 9.58,4.28 9.58,4.28 9.55,4.3 11.71,8.04 11.75,8.04 11.75,8.04 		"/>
		<polygon class="st21" points="11.74,8.04 9.57,4.28 9.57,4.28 9.54,4.3 11.7,8.04 11.74,8.04 11.74,8.04 		"/>
		<polygon class="st22" points="11.74,8.04 9.57,4.28 9.57,4.28 9.53,4.3 11.69,8.04 11.74,8.04 11.74,8.04 		"/>
		<polygon class="st23" points="11.73,8.04 9.56,4.28 9.56,4.28 9.53,4.3 11.68,8.04 11.73,8.04 11.73,8.04 		"/>
		<polygon class="st24" points="11.72,8.04 9.55,4.28 9.55,4.28 9.52,4.3 11.68,8.04 11.72,8.04 11.72,8.04 		"/>
		<polygon class="st25" points="11.71,8.04 9.55,4.28 9.55,4.28 9.51,4.3 11.67,8.04 11.71,8.04 11.71,8.04 		"/>
		<polygon class="st26" points="11.71,8.04 9.54,4.28 9.54,4.28 9.5,4.3 11.66,8.04 11.71,8.04 11.71,8.04 		"/>
		<polygon class="st27" points="11.7,8.04 9.53,4.28 9.53,4.28 9.5,4.3 11.65,8.04 11.7,8.04 11.7,8.04 		"/>
		<polygon class="st28" points="11.69,8.04 9.53,4.29 9.53,4.29 9.49,4.31 11.64,8.04 11.69,8.04 11.69,8.04 		"/>
		<polygon class="st29" points="11.68,8.04 9.52,4.29 9.52,4.29 9.48,4.31 11.64,8.04 11.68,8.04 11.68,8.04 		"/>
		<polygon class="st30" points="11.68,8.04 9.51,4.29 9.51,4.29 9.48,4.31 11.63,8.04 11.68,8.04 11.68,8.04 		"/>
		<polygon class="st31" points="11.67,8.04 9.5,4.29 9.5,4.29 9.47,4.31 11.62,8.04 11.67,8.04 11.67,8.04 		"/>
		<polygon class="st32" points="11.66,8.04 9.5,4.29 9.5,4.29 9.46,4.31 11.61,8.04 11.66,8.04 11.66,8.04 		"/>
		<polygon class="st33" points="11.65,8.04 9.49,4.29 9.49,4.29 9.46,4.31 11.61,8.04 11.65,8.04 11.65,8.04 		"/>
		<polygon class="st34" points="11.64,8.04 9.48,4.29 9.48,4.29 9.45,4.31 11.6,8.04 11.64,8.04 11.64,8.04 		"/>
		<polygon class="st35" points="11.64,8.04 9.48,4.3 9.48,4.3 9.44,4.32 11.59,8.04 11.64,8.04 11.64,8.04 		"/>
		<polygon class="st36" points="11.63,8.04 9.47,4.3 9.47,4.3 9.44,4.32 11.58,8.04 11.63,8.04 11.63,8.04 		"/>
		<polygon class="st37" points="11.62,8.04 9.46,4.3 9.46,4.3 9.43,4.32 11.58,8.04 11.62,8.04 11.62,8.04 		"/>
		<polygon class="st38" points="11.61,8.04 9.46,4.3 9.46,4.3 9.42,4.32 11.57,8.04 11.61,8.04 11.61,8.04 		"/>
		<polygon class="st39" points="11.61,8.04 9.45,4.3 9.45,4.3 9.41,4.32 11.56,8.04 11.61,8.04 11.61,8.04 		"/>
		<polygon class="st40" points="11.6,8.04 9.44,4.3 9.44,4.3 9.41,4.32 11.55,8.04 11.6,8.04 11.6,8.04 		"/>
		<polygon class="st41" points="11.59,8.04 9.44,4.3 9.44,4.3 9.4,4.32 11.55,8.04 11.59,8.04 11.59,8.04 		"/>
		<polygon class="st42" points="11.58,8.04 9.43,4.3 9.43,4.3 9.39,4.32 11.54,8.04 11.58,8.04 11.58,8.04 		"/>
		<polygon class="st43" points="11.58,8.04 9.42,4.31 9.42,4.31 9.39,4.33 11.53,8.04 11.58,8.04 11.58,8.04 		"/>
		<polygon class="st44" points="11.57,8.04 9.41,4.31 9.41,4.31 9.38,4.33 11.52,8.04 11.57,8.04 11.57,8.04 		"/>
		<polygon class="st45" points="11.56,8.04 9.41,4.31 9.41,4.31 9.37,4.33 11.51,8.04 11.56,8.04 11.56,8.04 		"/>
		<polygon class="st46" points="11.55,8.04 9.4,4.31 9.4,4.31 9.37,4.33 11.51,8.04 11.55,8.04 11.55,8.04 		"/>
		<polygon class="st47" points="11.55,8.04 9.39,4.31 9.39,4.31 9.36,4.33 11.5,8.04 11.55,8.04 11.55,8.04 		"/>
		<polygon class="st48" points="11.54,8.04 9.39,4.31 9.39,4.31 9.35,4.33 11.49,8.04 11.54,8.04 11.54,8.04 		"/>
		<polygon class="st49" points="11.53,8.04 9.38,4.31 9.38,4.31 9.35,4.33 11.48,8.04 11.53,8.04 11.53,8.04 		"/>
		<polygon class="st50" points="11.52,8.04 9.37,4.31 9.37,4.31 9.34,4.33 11.48,8.04 11.52,8.04 11.52,8.04 		"/>
		<polygon class="st51" points="11.51,8.04 9.37,4.32 9.37,4.32 9.33,4.34 11.47,8.04 11.51,8.04 11.51,8.04 		"/>
		<polygon class="st52" points="11.51,8.04 9.36,4.32 9.36,4.32 9.32,4.34 11.46,8.04 11.51,8.04 11.51,8.04 		"/>
		<polygon class="st53" points="11.5,8.04 9.35,4.32 9.35,4.32 9.32,4.34 11.45,8.04 11.5,8.04 11.5,8.04 		"/>
		<polygon class="st54" points="11.49,8.04 9.35,4.32 9.35,4.32 9.31,4.34 11.45,8.04 11.49,8.04 11.49,8.04 		"/>
		<polygon class="st55" points="11.48,8.04 9.34,4.32 9.34,4.32 9.3,4.34 11.44,8.04 11.48,8.04 11.48,8.04 		"/>
		<polygon class="st56" points="11.48,8.04 9.33,4.32 9.33,4.32 9.3,4.34 11.43,8.04 11.48,8.04 11.48,8.04 		"/>
		<polygon class="st57" points="11.47,8.04 9.32,4.32 9.32,4.32 9.29,4.34 11.42,8.04 11.47,8.04 11.47,8.04 		"/>
		<polygon class="st58" points="11.46,8.04 9.32,4.32 9.32,4.32 9.28,4.34 11.41,8.04 11.46,8.04 11.46,8.04 		"/>
		<polygon class="st59" points="11.45,8.04 9.31,4.33 9.31,4.33 9.28,4.35 11.41,8.04 11.45,8.04 11.45,8.04 		"/>
		<polygon class="st60" points="11.45,8.04 9.3,4.33 9.3,4.33 9.27,4.35 11.4,8.04 11.45,8.04 11.45,8.04 		"/>
		<polygon class="st61" points="11.44,8.04 9.3,4.33 9.3,4.33 9.26,4.35 11.39,8.04 11.44,8.04 11.44,8.04 		"/>
		<polygon class="st62" points="11.43,8.04 9.29,4.33 9.29,4.33 9.26,4.35 11.38,8.04 11.43,8.04 11.43,8.04 		"/>
		<polygon class="st63" points="11.42,8.04 9.28,4.33 9.28,4.33 9.25,4.35 11.38,8.04 11.42,8.04 11.42,8.04 		"/>
		<polygon class="st64" points="11.41,8.04 9.28,4.33 9.28,4.33 9.24,4.35 11.37,8.04 11.41,8.04 11.41,8.04 		"/>
		<polygon class="st65" points="11.41,8.04 9.27,4.33 9.27,4.33 9.23,4.35 11.36,8.04 11.41,8.04 11.41,8.04 		"/>
		<polygon class="st66" points="11.4,8.04 9.26,4.34 9.26,4.34 9.23,4.36 11.35,8.04 11.4,8.04 11.4,8.04 		"/>
		<polygon class="st67" points="11.39,8.04 9.26,4.34 9.26,4.34 9.22,4.36 11.35,8.04 11.39,8.04 11.39,8.04 		"/>
		<polygon class="st68" points="11.38,8.04 9.25,4.34 9.25,4.34 9.21,4.36 11.34,8.04 11.38,8.04 11.38,8.04 		"/>
		<polygon class="st69" points="11.38,8.04 9.24,4.34 9.24,4.34 9.21,4.36 11.33,8.04 11.38,8.04 11.38,8.04 		"/>
		<polygon class="st70" points="11.37,8.04 9.23,4.34 9.23,4.34 9.2,4.36 11.32,8.04 11.37,8.04 11.37,8.04 		"/>
		<polygon class="st71" points="11.36,8.04 9.23,4.34 9.23,4.34 9.19,4.36 11.32,8.04 11.36,8.04 11.36,8.04 		"/>
		<polygon class="st72" points="11.35,8.04 9.22,4.34 9.22,4.34 9.19,4.36 11.31,8.04 11.35,8.04 11.35,8.04 		"/>
		<polygon class="st73" points="11.35,8.04 9.21,4.34 9.21,4.34 9.18,4.36 11.3,8.04 11.35,8.04 11.35,8.04 		"/>
		<polygon class="st74" points="11.34,8.04 9.21,4.35 9.21,4.35 9.17,4.37 11.29,8.04 11.34,8.04 11.34,8.04 		"/>
		<polygon class="st75" points="11.33,8.04 9.2,4.35 9.2,4.35 9.17,4.37 11.28,8.04 11.33,8.04 11.33,8.04 		"/>
		<polygon class="st76" points="11.32,8.04 9.19,4.35 9.19,4.35 9.16,4.37 11.28,8.04 11.32,8.04 11.32,8.04 		"/>
		<polygon class="st77" points="11.32,8.04 9.19,4.35 9.19,4.35 9.15,4.37 11.27,8.04 11.32,8.04 11.32,8.04 		"/>
		<polygon class="st78" points="11.31,8.04 9.18,4.35 9.18,4.35 9.15,4.37 11.26,8.04 11.31,8.04 11.31,8.04 		"/>
		<polygon class="st79" points="11.3,8.04 9.17,4.35 9.17,4.35 9.14,4.37 11.25,8.04 11.3,8.04 11.3,8.04 		"/>
		<polygon class="st80" points="11.29,8.04 9.17,4.35 9.17,4.35 9.13,4.37 11.25,8.04 11.29,8.04 11.29,8.04 		"/>
		<polygon class="st81" points="11.28,8.04 9.16,4.35 9.16,4.35 9.12,4.37 11.24,8.04 11.28,8.04 11.28,8.04 		"/>
		<polygon class="st82" points="11.28,8.04 9.15,4.36 9.15,4.36 9.12,4.38 11.23,8.04 11.28,8.04 11.28,8.04 		"/>
		<polygon class="st83" points="11.27,8.04 9.15,4.36 9.15,4.36 9.11,4.38 11.22,8.04 11.27,8.04 11.27,8.04 		"/>
		<polygon class="st84" points="11.26,8.04 9.14,4.36 9.14,4.36 9.1,4.38 11.22,8.04 11.26,8.04 11.26,8.04 		"/>
		<polygon class="st85" points="11.25,8.04 9.13,4.36 9.13,4.36 9.1,4.38 11.21,8.04 11.25,8.04 11.25,8.04 		"/>
	</g>
	
		<linearGradient id="SVGID_00000091708848816385496240000001189897466635326094_" gradientUnits="userSpaceOnUse" x1="5.2178" y1="9.9888" x2="10.5828" y2="6.8913" gradientTransform="matrix(0.5001 0.866 -0.866 0.5001 15.3129 -4.2743)">
		<stop  offset="0" style="stop-color:#F0CC1D"/>
		<stop  offset="1" style="stop-color:#DEA926"/>
	</linearGradient>
	<path style="fill:url(#SVGID_00000091708848816385496240000001189897466635326094_);" d="M15.61,6.65
		c-1.39-1.78-3.59-2.66-5.76-2.41l3.58,6.19L15.61,6.65z"/>
	<g class="st3">
		<polygon class="st4" points="13.43,10.43 15.61,6.65 15.61,6.65 15.58,6.63 13.41,10.39 13.43,10.43 13.43,10.43 		"/>
		<polygon class="st5" points="13.43,10.42 15.61,6.64 15.61,6.64 15.57,6.62 13.4,10.38 13.43,10.42 13.43,10.42 		"/>
		<polygon class="st6" points="13.42,10.42 15.6,6.64 15.6,6.64 15.57,6.62 13.4,10.38 13.42,10.42 13.42,10.42 		"/>
		<polygon class="st7" points="13.42,10.41 15.6,6.63 15.6,6.63 15.56,6.61 13.4,10.37 13.42,10.41 13.42,10.41 		"/>
		<polygon class="st8" points="13.41,10.4 15.59,6.63 15.59,6.63 15.56,6.61 13.39,10.36 13.41,10.4 13.41,10.4 		"/>
		<polygon class="st9" points="13.41,10.4 15.59,6.62 15.59,6.62 15.55,6.6 13.39,10.36 13.41,10.4 13.41,10.4 		"/>
		<polygon class="st10" points="13.41,10.39 15.58,6.62 15.58,6.62 15.55,6.6 13.38,10.35 13.41,10.39 13.41,10.39 		"/>
		<polygon class="st11" points="13.4,10.38 15.58,6.61 15.58,6.61 15.55,6.59 13.38,10.34 13.4,10.38 13.4,10.38 		"/>
		<polygon class="st12" points="13.4,10.38 15.58,6.61 15.58,6.61 15.54,6.59 13.38,10.34 13.4,10.38 13.4,10.38 		"/>
		<polygon class="st13" points="13.4,10.37 15.57,6.6 15.57,6.6 15.54,6.58 13.37,10.33 13.4,10.37 13.4,10.37 		"/>
		<polygon class="st14" points="13.39,10.36 15.57,6.59 15.57,6.59 15.53,6.57 13.37,10.32 13.39,10.36 13.39,10.36 		"/>
		<polygon class="st15" points="13.39,10.36 15.56,6.59 15.56,6.59 15.53,6.57 13.36,10.32 13.39,10.36 13.39,10.36 		"/>
		<polygon class="st16" points="13.38,10.35 15.56,6.58 15.56,6.58 15.52,6.56 13.36,10.31 13.38,10.35 13.38,10.35 		"/>
		<polygon class="st17" points="13.38,10.34 15.55,6.58 15.55,6.58 15.52,6.56 13.36,10.3 13.38,10.34 13.38,10.34 		"/>
		<polygon class="st18" points="13.38,10.34 15.55,6.57 15.55,6.57 15.51,6.55 13.35,10.3 13.38,10.34 13.38,10.34 		"/>
		<polygon class="st19" points="13.37,10.33 15.54,6.57 15.54,6.57 15.51,6.55 13.35,10.29 13.37,10.33 13.37,10.33 		"/>
		<polygon class="st20" points="13.37,10.32 15.54,6.56 15.54,6.56 15.5,6.54 13.35,10.28 13.37,10.32 13.37,10.32 		"/>
		<polygon class="st21" points="13.36,10.32 15.53,6.56 15.53,6.56 15.5,6.54 13.34,10.28 13.36,10.32 13.36,10.32 		"/>
		<polygon class="st22" points="13.36,10.31 15.53,6.55 15.53,6.55 15.5,6.53 13.34,10.27 13.36,10.31 13.36,10.31 		"/>
		<polygon class="st23" points="13.36,10.3 15.53,6.55 15.53,6.55 15.49,6.53 13.33,10.26 13.36,10.3 13.36,10.3 		"/>
		<polygon class="st24" points="13.35,10.3 15.52,6.54 15.52,6.54 15.49,6.52 13.33,10.26 13.35,10.3 13.35,10.3 		"/>
		<polygon class="st25" points="13.35,10.29 15.52,6.54 15.52,6.54 15.48,6.52 13.33,10.25 13.35,10.29 13.35,10.29 		"/>
		<polygon class="st26" points="13.35,10.28 15.51,6.53 15.51,6.53 15.48,6.51 13.32,10.24 13.35,10.28 13.35,10.28 		"/>
		<polygon class="st27" points="13.34,10.28 15.51,6.52 15.51,6.52 15.47,6.51 13.32,10.24 13.34,10.28 13.34,10.28 		"/>
		<polygon class="st28" points="13.34,10.27 15.5,6.52 15.5,6.52 15.47,6.5 13.31,10.23 13.34,10.27 13.34,10.27 		"/>
		<polygon class="st29" points="13.33,10.26 15.5,6.51 15.5,6.51 15.46,6.49 13.31,10.22 13.33,10.26 13.33,10.26 		"/>
		<polygon class="st30" points="13.33,10.26 15.49,6.51 15.49,6.51 15.46,6.49 13.31,10.22 13.33,10.26 13.33,10.26 		"/>
		<polygon class="st31" points="13.33,10.25 15.49,6.5 15.49,6.5 15.45,6.48 13.3,10.21 13.33,10.25 13.33,10.25 		"/>
		<polygon class="st32" points="13.32,10.24 15.48,6.5 15.48,6.5 15.45,6.48 13.3,10.2 13.32,10.24 13.32,10.24 		"/>
		<polygon class="st33" points="13.32,10.24 15.48,6.49 15.48,6.49 15.45,6.47 13.3,10.2 13.32,10.24 13.32,10.24 		"/>
		<polygon class="st34" points="13.31,10.23 15.48,6.49 15.48,6.49 15.44,6.47 13.29,10.19 13.31,10.23 13.31,10.23 		"/>
		<polygon class="st35" points="13.31,10.22 15.47,6.48 15.47,6.48 15.44,6.46 13.29,10.18 13.31,10.22 13.31,10.22 		"/>
		<polygon class="st36" points="13.31,10.22 15.47,6.48 15.47,6.48 15.43,6.46 13.28,10.18 13.31,10.22 13.31,10.22 		"/>
		<polygon class="st37" points="13.3,10.21 15.46,6.47 15.46,6.47 15.43,6.45 13.28,10.17 13.3,10.21 13.3,10.21 		"/>
		<polygon class="st38" points="13.3,10.2 15.46,6.47 15.46,6.47 15.42,6.45 13.28,10.16 13.3,10.2 13.3,10.2 		"/>
		<polygon class="st39" points="13.3,10.2 15.45,6.46 15.45,6.46 15.42,6.44 13.27,10.16 13.3,10.2 13.3,10.2 		"/>
		<polygon class="st40" points="13.29,10.19 15.45,6.46 15.45,6.46 15.41,6.44 13.27,10.15 13.29,10.19 13.29,10.19 		"/>
		<polygon class="st41" points="13.29,10.18 15.44,6.45 15.44,6.45 15.41,6.43 13.27,10.14 13.29,10.18 13.29,10.18 		"/>
		<polygon class="st42" points="13.28,10.18 15.44,6.44 15.44,6.44 15.4,6.42 13.26,10.14 13.28,10.18 13.28,10.18 		"/>
		<polygon class="st43" points="13.28,10.17 15.43,6.44 15.43,6.44 15.4,6.42 13.26,10.13 13.28,10.17 13.28,10.17 		"/>
		<polygon class="st44" points="13.28,10.16 15.43,6.43 15.43,6.43 15.39,6.41 13.25,10.12 13.28,10.16 13.28,10.16 		"/>
		<polygon class="st45" points="13.27,10.16 15.42,6.43 15.42,6.43 15.39,6.41 13.25,10.12 13.27,10.16 13.27,10.16 		"/>
		<polygon class="st46" points="13.27,10.15 15.42,6.42 15.42,6.42 15.39,6.4 13.25,10.11 13.27,10.15 13.27,10.15 		"/>
		<polygon class="st47" points="13.27,10.14 15.42,6.42 15.42,6.42 15.38,6.4 13.24,10.1 13.27,10.14 13.27,10.14 		"/>
		<polygon class="st48" points="13.26,10.14 15.41,6.41 15.41,6.41 15.38,6.39 13.24,10.1 13.26,10.14 13.26,10.14 		"/>
		<polygon class="st49" points="13.26,10.13 15.41,6.41 15.41,6.41 15.37,6.39 13.23,10.09 13.26,10.13 13.26,10.13 		"/>
		<polygon class="st50" points="13.25,10.12 15.4,6.4 15.4,6.4 15.37,6.38 13.23,10.08 13.25,10.12 13.25,10.12 		"/>
		<polygon class="st51" points="13.25,10.12 15.4,6.4 15.4,6.4 15.36,6.38 13.23,10.08 13.25,10.12 13.25,10.12 		"/>
		<polygon class="st52" points="13.25,10.11 15.39,6.39 15.39,6.39 15.36,6.37 13.22,10.07 13.25,10.11 13.25,10.11 		"/>
		<polygon class="st53" points="13.24,10.1 15.39,6.39 15.39,6.39 15.35,6.37 13.22,10.06 13.24,10.1 13.24,10.1 		"/>
		<polygon class="st54" points="13.24,10.1 15.38,6.38 15.38,6.38 15.35,6.36 13.22,10.06 13.24,10.1 13.24,10.1 		"/>
		<polygon class="st55" points="13.23,10.09 15.38,6.38 15.38,6.38 15.34,6.36 13.21,10.05 13.23,10.09 13.23,10.09 		"/>
		<polygon class="st56" points="13.23,10.08 15.37,6.37 15.37,6.37 15.34,6.35 13.21,10.04 13.23,10.08 13.23,10.08 		"/>
		<polygon class="st57" points="13.23,10.08 15.37,6.36 15.37,6.36 15.34,6.34 13.2,10.04 13.23,10.08 13.23,10.08 		"/>
		<polygon class="st58" points="13.22,10.07 15.37,6.36 15.37,6.36 15.33,6.34 13.2,10.03 13.22,10.07 13.22,10.07 		"/>
		<polygon class="st59" points="13.22,10.06 15.36,6.35 15.36,6.35 15.33,6.33 13.2,10.02 13.22,10.06 13.22,10.06 		"/>
		<polygon class="st60" points="13.22,10.06 15.36,6.35 15.36,6.35 15.32,6.33 13.19,10.02 13.22,10.06 13.22,10.06 		"/>
		<polygon class="st61" points="13.21,10.05 15.35,6.34 15.35,6.34 15.32,6.32 13.19,10.01 13.21,10.05 13.21,10.05 		"/>
		<polygon class="st62" points="13.21,10.04 15.35,6.34 15.35,6.34 15.31,6.32 13.18,10 13.21,10.04 13.21,10.04 		"/>
		<polygon class="st63" points="13.2,10.04 15.34,6.33 15.34,6.33 15.31,6.31 13.18,10 13.2,10.04 13.2,10.04 		"/>
		<polygon class="st64" points="13.2,10.03 15.34,6.33 15.34,6.33 15.3,6.31 13.18,9.99 13.2,10.03 13.2,10.03 		"/>
		<polygon class="st65" points="13.2,10.02 15.33,6.32 15.33,6.32 15.3,6.3 13.17,9.98 13.2,10.02 13.2,10.02 		"/>
		<polygon class="st66" points="13.19,10.02 15.33,6.32 15.33,6.32 15.29,6.3 13.17,9.98 13.19,10.02 13.19,10.02 		"/>
		<polygon class="st67" points="13.19,10.01 15.32,6.31 15.32,6.31 15.29,6.29 13.17,9.97 13.19,10.01 13.19,10.01 		"/>
		<polygon class="st68" points="13.18,10 15.32,6.31 15.32,6.31 15.29,6.29 13.16,9.96 13.18,10 13.18,10 		"/>
		<polygon class="st69" points="13.18,10 15.32,6.3 15.32,6.3 15.28,6.28 13.16,9.96 13.18,10 13.18,10 		"/>
		<polygon class="st70" points="13.18,9.99 15.31,6.3 15.31,6.3 15.28,6.28 13.15,9.95 13.18,9.99 13.18,9.99 		"/>
		<polygon class="st71" points="13.17,9.98 15.31,6.29 15.31,6.29 15.27,6.27 13.15,9.94 13.17,9.98 13.17,9.98 		"/>
		<polygon class="st72" points="13.17,9.98 15.3,6.28 15.3,6.28 15.27,6.26 13.15,9.94 13.17,9.98 13.17,9.98 		"/>
		<polygon class="st73" points="13.17,9.97 15.3,6.28 15.3,6.28 15.26,6.26 13.14,9.93 13.17,9.97 13.17,9.97 		"/>
		<polygon class="st74" points="13.16,9.96 15.29,6.27 15.29,6.27 15.26,6.25 13.14,9.92 13.16,9.96 13.16,9.96 		"/>
		<polygon class="st75" points="13.16,9.96 15.29,6.27 15.29,6.27 15.25,6.25 13.13,9.92 13.16,9.96 13.16,9.96 		"/>
		<polygon class="st76" points="13.15,9.95 15.28,6.26 15.28,6.26 15.25,6.24 13.13,9.91 13.15,9.95 13.15,9.95 		"/>
		<polygon class="st77" points="13.15,9.94 15.28,6.26 15.28,6.26 15.24,6.24 13.13,9.9 13.15,9.94 13.15,9.94 		"/>
		<polygon class="st78" points="13.15,9.94 15.27,6.25 15.27,6.25 15.24,6.23 13.12,9.9 13.15,9.94 13.15,9.94 		"/>
		<polygon class="st79" points="13.14,9.93 15.27,6.25 15.27,6.25 15.23,6.23 13.12,9.89 13.14,9.93 13.14,9.93 		"/>
		<polygon class="st80" points="13.14,9.92 15.26,6.24 15.26,6.24 15.23,6.22 13.12,9.89 13.14,9.92 13.14,9.92 		"/>
		<polygon class="st81" points="13.13,9.92 15.26,6.24 15.26,6.24 15.23,6.22 13.11,9.88 13.13,9.92 13.13,9.92 		"/>
		<polygon class="st82" points="13.13,9.91 15.26,6.23 15.26,6.23 15.22,6.21 13.11,9.87 13.13,9.91 13.13,9.91 		"/>
		<polygon class="st83" points="13.13,9.9 15.25,6.23 15.25,6.23 15.22,6.21 13.1,9.87 13.13,9.9 13.13,9.9 		"/>
		<polygon class="st84" points="13.12,9.9 15.25,6.22 15.25,6.22 15.21,6.2 13.1,9.86 13.12,9.9 13.12,9.9 		"/>
		<polygon class="st85" points="13.12,9.89 15.24,6.22 15.24,6.22 15.21,6.2 13.1,9.85 13.12,9.89 13.12,9.89 		"/>
	</g>
	
		<linearGradient id="SVGID_00000080200661541830542490000005469925440691502986_" gradientUnits="userSpaceOnUse" x1="6.5927" y1="9.8314" x2="11.9579" y2="6.7338" gradientTransform="matrix(-0.4999 0.8661 -0.8661 -0.4999 26.361 5.9817)">
		<stop  offset="0" style="stop-color:#5CA983"/>
		<stop  offset="1" style="stop-color:#5591C1"/>
	</linearGradient>
	<path style="fill:url(#SVGID_00000080200661541830542490000005469925440691502986_);" d="M16.5,12.97
		c0.85-2.09,0.51-4.44-0.79-6.19l-3.58,6.2L16.5,12.97z"/>
	<g class="st3">
		<polygon class="st4" points="12.14,12.97 16.5,12.97 16.5,12.97 16.5,12.93 12.16,12.93 12.14,12.97 12.14,12.97 		"/>
		<polygon class="st5" points="12.14,12.97 16.5,12.97 16.5,12.97 16.5,12.93 12.16,12.93 12.14,12.97 12.14,12.97 		"/>
		<polygon class="st6" points="12.14,12.96 16.51,12.96 16.51,12.96 16.51,12.92 12.17,12.92 12.14,12.96 12.14,12.96 		"/>
		<polygon class="st7" points="12.15,12.95 16.51,12.95 16.51,12.95 16.51,12.91 12.17,12.91 12.15,12.95 12.15,12.95 		"/>
		<polygon class="st8" points="12.15,12.95 16.51,12.95 16.51,12.95 16.51,12.91 12.17,12.91 12.15,12.95 12.15,12.95 		"/>
		<polygon class="st9" points="12.15,12.94 16.51,12.94 16.51,12.94 16.51,12.9 12.18,12.9 12.15,12.94 12.15,12.94 		"/>
		<polygon class="st10" points="12.16,12.93 16.52,12.93 16.52,12.93 16.52,12.89 12.18,12.89 12.16,12.93 12.16,12.93 		"/>
		<polygon class="st11" points="12.16,12.93 16.52,12.93 16.52,12.93 16.52,12.89 12.19,12.89 12.16,12.93 12.16,12.93 		"/>
		<polygon class="st12" points="12.17,12.92 16.52,12.92 16.52,12.92 16.52,12.88 12.19,12.88 12.17,12.92 12.17,12.92 		"/>
		<polygon class="st13" points="12.17,12.91 16.52,12.91 16.52,12.91 16.52,12.87 12.19,12.87 12.17,12.91 12.17,12.91 		"/>
		<polygon class="st14" points="12.17,12.91 16.52,12.91 16.52,12.91 16.52,12.87 12.2,12.87 12.17,12.91 12.17,12.91 		"/>
		<polygon class="st15" points="12.18,12.9 16.53,12.9 16.53,12.9 16.53,12.86 12.2,12.86 12.18,12.9 12.18,12.9 		"/>
		<polygon class="st16" points="12.18,12.89 16.53,12.89 16.53,12.89 16.53,12.85 12.2,12.85 12.18,12.89 12.18,12.89 		"/>
		<polygon class="st17" points="12.19,12.89 16.53,12.89 16.53,12.89 16.53,12.85 12.21,12.85 12.19,12.89 12.19,12.89 		"/>
		<polygon class="st18" points="12.19,12.88 16.53,12.88 16.53,12.88 16.53,12.84 12.21,12.84 12.19,12.88 12.19,12.88 		"/>
		<polygon class="st19" points="12.19,12.87 16.54,12.87 16.54,12.87 16.54,12.83 12.22,12.83 12.19,12.87 12.19,12.87 		"/>
		<polygon class="st20" points="12.2,12.87 16.54,12.87 16.54,12.87 16.54,12.83 12.22,12.83 12.2,12.87 12.2,12.87 		"/>
		<polygon class="st21" points="12.2,12.86 16.54,12.86 16.54,12.86 16.54,12.82 12.22,12.82 12.2,12.86 12.2,12.86 		"/>
		<polygon class="st22" points="12.2,12.85 16.54,12.85 16.54,12.85 16.54,12.81 12.23,12.81 12.2,12.85 12.2,12.85 		"/>
		<polygon class="st23" points="12.21,12.85 16.55,12.85 16.55,12.85 16.55,12.81 12.23,12.81 12.21,12.85 12.21,12.85 		"/>
		<polygon class="st24" points="12.21,12.84 16.55,12.84 16.55,12.84 16.55,12.8 12.23,12.8 12.21,12.84 12.21,12.84 		"/>
		<polygon class="st25" points="12.22,12.83 16.55,12.83 16.55,12.83 16.55,12.79 12.24,12.79 12.22,12.83 12.22,12.83 		"/>
		<polygon class="st26" points="12.22,12.83 16.55,12.83 16.55,12.83 16.55,12.79 12.24,12.79 12.22,12.83 12.22,12.83 		"/>
		<polygon class="st27" points="12.22,12.82 16.56,12.82 16.56,12.82 16.56,12.78 12.25,12.78 12.22,12.82 12.22,12.82 		"/>
		<polygon class="st28" points="12.23,12.81 16.56,12.81 16.56,12.81 16.56,12.77 12.25,12.77 12.23,12.81 12.23,12.81 		"/>
		<polygon class="st29" points="12.23,12.81 16.56,12.81 16.56,12.81 16.56,12.77 12.25,12.77 12.23,12.81 12.23,12.81 		"/>
		<polygon class="st30" points="12.23,12.8 16.56,12.8 16.56,12.8 16.56,12.76 12.26,12.76 12.23,12.8 12.23,12.8 		"/>
		<polygon class="st31" points="12.24,12.79 16.56,12.79 16.56,12.79 16.56,12.75 12.26,12.75 12.24,12.79 12.24,12.79 		"/>
		<polygon class="st32" points="12.24,12.79 16.57,12.79 16.57,12.79 16.57,12.75 12.27,12.75 12.24,12.79 12.24,12.79 		"/>
		<polygon class="st33" points="12.25,12.78 16.57,12.78 16.57,12.78 16.57,12.74 12.27,12.74 12.25,12.78 12.25,12.78 		"/>
		<polygon class="st34" points="12.25,12.77 16.57,12.77 16.57,12.77 16.57,12.73 12.27,12.73 12.25,12.77 12.25,12.77 		"/>
		<polygon class="st35" points="12.25,12.77 16.57,12.77 16.57,12.77 16.57,12.73 12.28,12.73 12.25,12.77 12.25,12.77 		"/>
		<polygon class="st36" points="12.26,12.76 16.58,12.76 16.58,12.76 16.58,12.72 12.28,12.72 12.26,12.76 12.26,12.76 		"/>
		<polygon class="st37" points="12.26,12.75 16.58,12.75 16.58,12.75 16.58,12.71 12.28,12.71 12.26,12.75 12.26,12.75 		"/>
		<polygon class="st38" points="12.27,12.75 16.58,12.75 16.58,12.75 16.58,12.71 12.29,12.71 12.27,12.75 12.27,12.75 		"/>
		<polygon class="st39" points="12.27,12.74 16.58,12.74 16.58,12.74 16.58,12.7 12.29,12.7 12.27,12.74 12.27,12.74 		"/>
		<polygon class="st40" points="12.27,12.73 16.59,12.73 16.59,12.73 16.59,12.69 12.3,12.69 12.27,12.73 12.27,12.73 		"/>
		<polygon class="st41" points="12.28,12.73 16.59,12.73 16.59,12.73 16.59,12.69 12.3,12.69 12.28,12.73 12.28,12.73 		"/>
		<polygon class="st42" points="12.28,12.72 16.59,12.72 16.59,12.72 16.59,12.68 12.3,12.68 12.28,12.72 12.28,12.72 		"/>
		<polygon class="st43" points="12.28,12.71 16.59,12.71 16.59,12.71 16.59,12.67 12.31,12.67 12.28,12.71 12.28,12.71 		"/>
		<polygon class="st44" points="12.29,12.71 16.59,12.71 16.59,12.71 16.59,12.67 12.31,12.67 12.29,12.71 12.29,12.71 		"/>
		<polygon class="st45" points="12.29,12.7 16.6,12.7 16.6,12.7 16.6,12.66 12.32,12.66 12.29,12.7 12.29,12.7 		"/>
		<polygon class="st46" points="12.3,12.69 16.6,12.69 16.6,12.69 16.6,12.65 12.32,12.65 12.3,12.69 12.3,12.69 		"/>
		<polygon class="st47" points="12.3,12.69 16.6,12.69 16.6,12.69 16.6,12.65 12.32,12.65 12.3,12.69 12.3,12.69 		"/>
		<polygon class="st48" points="12.3,12.68 16.6,12.68 16.6,12.68 16.6,12.64 12.33,12.64 12.3,12.68 12.3,12.68 		"/>
		<polygon class="st49" points="12.31,12.67 16.61,12.67 16.61,12.67 16.61,12.63 12.33,12.63 12.31,12.67 12.31,12.67 		"/>
		<polygon class="st50" points="12.31,12.67 16.61,12.67 16.61,12.67 16.61,12.63 12.33,12.63 12.31,12.67 12.31,12.67 		"/>
		<polygon class="st51" points="12.32,12.66 16.61,12.66 16.61,12.66 16.61,12.62 12.34,12.62 12.32,12.66 12.32,12.66 		"/>
		<polygon class="st52" points="12.32,12.65 16.61,12.65 16.61,12.65 16.61,12.61 12.34,12.61 12.32,12.65 12.32,12.65 		"/>
		<polygon class="st53" points="12.32,12.65 16.62,12.65 16.62,12.65 16.62,12.61 12.35,12.61 12.32,12.65 12.32,12.65 		"/>
		<polygon class="st54" points="12.33,12.64 16.62,12.64 16.62,12.64 16.62,12.6 12.35,12.6 12.33,12.64 12.33,12.64 		"/>
		<polygon class="st55" points="12.33,12.63 16.62,12.63 16.62,12.63 16.62,12.59 12.35,12.59 12.33,12.63 12.33,12.63 		"/>
		<polygon class="st56" points="12.33,12.63 16.62,12.63 16.62,12.63 16.62,12.59 12.36,12.59 12.33,12.63 12.33,12.63 		"/>
		<polygon class="st57" points="12.34,12.62 16.63,12.62 16.63,12.62 16.63,12.58 12.36,12.58 12.34,12.62 12.34,12.62 		"/>
		<polygon class="st58" points="12.34,12.61 16.63,12.61 16.63,12.61 16.63,12.57 12.37,12.57 12.34,12.61 12.34,12.61 		"/>
		<polygon class="st59" points="12.35,12.61 16.63,12.61 16.63,12.61 16.63,12.57 12.37,12.57 12.35,12.61 12.35,12.61 		"/>
		<polygon class="st60" points="12.35,12.6 16.63,12.6 16.63,12.6 16.63,12.56 12.37,12.56 12.35,12.6 12.35,12.6 		"/>
		<polygon class="st61" points="12.35,12.59 16.63,12.59 16.63,12.59 16.63,12.55 12.38,12.55 12.35,12.59 12.35,12.59 		"/>
		<polygon class="st62" points="12.36,12.59 16.64,12.59 16.64,12.59 16.64,12.55 12.38,12.55 12.36,12.59 12.36,12.59 		"/>
		<polygon class="st63" points="12.36,12.58 16.64,12.58 16.64,12.58 16.64,12.54 12.38,12.54 12.36,12.58 12.36,12.58 		"/>
		<polygon class="st64" points="12.37,12.57 16.64,12.57 16.64,12.57 16.64,12.53 12.39,12.53 12.37,12.57 12.37,12.57 		"/>
		<polygon class="st65" points="12.37,12.57 16.64,12.57 16.64,12.57 16.64,12.53 12.39,12.53 12.37,12.57 12.37,12.57 		"/>
		<polygon class="st66" points="12.37,12.56 16.65,12.56 16.65,12.56 16.65,12.52 12.4,12.52 12.37,12.56 12.37,12.56 		"/>
		<polygon class="st67" points="12.38,12.55 16.65,12.55 16.65,12.55 16.65,12.51 12.4,12.51 12.38,12.55 12.38,12.55 		"/>
		<polygon class="st68" points="12.38,12.55 16.65,12.55 16.65,12.55 16.65,12.51 12.4,12.51 12.38,12.55 12.38,12.55 		"/>
		<polygon class="st69" points="12.38,12.54 16.65,12.54 16.65,12.54 16.65,12.5 12.41,12.5 12.38,12.54 12.38,12.54 		"/>
		<polygon class="st70" points="12.39,12.53 16.66,12.53 16.66,12.53 16.66,12.49 12.41,12.49 12.39,12.53 12.39,12.53 		"/>
		<polygon class="st71" points="12.39,12.53 16.66,12.53 16.66,12.53 16.66,12.49 12.41,12.49 12.39,12.53 12.39,12.53 		"/>
		<polygon class="st72" points="12.4,12.52 16.66,12.52 16.66,12.52 16.66,12.48 12.42,12.48 12.4,12.52 12.4,12.52 		"/>
		<polygon class="st73" points="12.4,12.51 16.66,12.51 16.66,12.51 16.66,12.47 12.42,12.48 12.4,12.51 12.4,12.51 		"/>
		<polygon class="st74" points="12.4,12.51 16.67,12.51 16.67,12.51 16.67,12.47 12.43,12.47 12.4,12.51 12.4,12.51 		"/>
		<polygon class="st75" points="12.41,12.5 16.67,12.5 16.67,12.5 16.67,12.46 12.43,12.46 12.41,12.5 12.41,12.5 		"/>
		<polygon class="st76" points="12.41,12.49 16.67,12.49 16.67,12.49 16.67,12.45 12.43,12.46 12.41,12.49 12.41,12.49 		"/>
		<polygon class="st77" points="12.41,12.49 16.67,12.49 16.67,12.49 16.67,12.45 12.44,12.45 12.41,12.49 12.41,12.49 		"/>
		<polygon class="st78" points="12.42,12.48 16.67,12.48 16.67,12.48 16.67,12.44 12.44,12.44 12.42,12.48 12.42,12.48 		"/>
		<polygon class="st79" points="12.42,12.48 16.68,12.47 16.68,12.47 16.68,12.43 12.45,12.44 12.42,12.48 12.42,12.48 		"/>
		<polygon class="st80" points="12.43,12.47 16.68,12.47 16.68,12.47 16.68,12.43 12.45,12.43 12.43,12.47 12.43,12.47 		"/>
		<polygon class="st81" points="12.43,12.46 16.68,12.46 16.68,12.46 16.68,12.42 12.45,12.42 12.43,12.46 12.43,12.46 		"/>
		<polygon class="st82" points="12.43,12.46 16.68,12.45 16.68,12.45 16.68,12.41 12.46,12.42 12.43,12.46 12.43,12.46 		"/>
		<polygon class="st83" points="12.44,12.45 16.69,12.45 16.69,12.45 16.69,12.41 12.46,12.41 12.44,12.45 12.44,12.45 		"/>
		<polygon class="st84" points="12.44,12.44 16.69,12.44 16.69,12.44 16.69,12.4 12.46,12.4 12.44,12.44 12.44,12.44 		"/>
		<polygon class="st85" points="12.45,12.44 16.69,12.43 16.69,12.43 16.69,12.39 12.47,12.4 12.45,12.44 12.45,12.44 		"/>
	</g>
	
		<linearGradient id="SVGID_00000161631517684257532810000010868552397571741885_" gradientUnits="userSpaceOnUse" x1="7.0893" y1="9.25" x2="12.4546" y2="6.1524" gradientTransform="matrix(-1 2.000000e-04 -2.000000e-04 -1 22.9495 21.3652)">
		<stop  offset="0" style="stop-color:#D5CD26"/>
		<stop  offset="1" style="stop-color:#9FB73D"/>
	</linearGradient>
	<path style="fill:url(#SVGID_00000161631517684257532810000010868552397571741885_);" d="M11.47,16.9c2.24-0.31,4.1-1.78,4.97-3.78
		l-7.15,0L11.47,16.9z"/>
	<g class="st3">
		<polygon class="st4" points="9.29,13.12 11.47,16.9 11.47,16.9 11.5,16.88 9.33,13.12 9.29,13.12 9.29,13.12 		"/>
		<polygon class="st5" points="9.29,13.12 11.48,16.9 11.48,16.9 11.51,16.88 9.34,13.12 9.29,13.12 9.29,13.12 		"/>
		<polygon class="st6" points="9.3,13.12 11.48,16.9 11.48,16.9 11.52,16.88 9.35,13.12 9.3,13.12 9.3,13.12 		"/>
		<polygon class="st7" points="9.31,13.12 11.49,16.9 11.49,16.9 11.52,16.88 9.35,13.12 9.31,13.12 9.31,13.12 		"/>
		<polygon class="st8" points="9.32,13.12 11.5,16.9 11.5,16.9 11.53,16.88 9.36,13.12 9.32,13.12 9.32,13.12 		"/>
		<polygon class="st9" points="9.32,13.12 11.5,16.9 11.5,16.9 11.54,16.88 9.37,13.12 9.32,13.12 9.32,13.12 		"/>
		<polygon class="st10" points="9.33,13.12 11.51,16.9 11.51,16.9 11.55,16.88 9.38,13.12 9.33,13.12 9.33,13.12 		"/>
		<polygon class="st11" points="9.34,13.12 11.52,16.89 11.52,16.89 11.55,16.88 9.39,13.12 9.34,13.12 9.34,13.12 		"/>
		<polygon class="st12" points="9.35,13.12 11.52,16.89 11.52,16.89 11.56,16.87 9.39,13.12 9.35,13.12 9.35,13.12 		"/>
		<polygon class="st13" points="9.35,13.12 11.53,16.89 11.53,16.89 11.57,16.87 9.4,13.12 9.35,13.12 9.35,13.12 		"/>
		<polygon class="st14" points="9.36,13.12 11.54,16.89 11.54,16.89 11.57,16.87 9.41,13.12 9.36,13.12 9.36,13.12 		"/>
		<polygon class="st15" points="9.37,13.12 11.55,16.89 11.55,16.89 11.58,16.87 9.42,13.12 9.37,13.12 9.37,13.12 		"/>
		<polygon class="st16" points="9.38,13.12 11.55,16.89 11.55,16.89 11.59,16.87 9.42,13.12 9.38,13.12 9.38,13.12 		"/>
		<polygon class="st17" points="9.39,13.12 11.56,16.89 11.56,16.89 11.59,16.87 9.43,13.12 9.39,13.12 9.39,13.12 		"/>
		<polygon class="st18" points="9.39,13.12 11.57,16.89 11.57,16.89 11.6,16.87 9.44,13.12 9.39,13.12 9.39,13.12 		"/>
		<polygon class="st19" points="9.4,13.12 11.57,16.88 11.57,16.88 11.61,16.86 9.45,13.12 9.4,13.12 9.4,13.12 		"/>
		<polygon class="st20" points="9.41,13.12 11.58,16.88 11.58,16.88 11.61,16.86 9.45,13.12 9.41,13.12 9.41,13.12 		"/>
		<polygon class="st21" points="9.42,13.12 11.59,16.88 11.59,16.88 11.62,16.86 9.46,13.12 9.42,13.12 9.42,13.12 		"/>
		<polygon class="st22" points="9.42,13.12 11.59,16.88 11.59,16.88 11.63,16.86 9.47,13.12 9.42,13.12 9.42,13.12 		"/>
		<polygon class="st23" points="9.43,13.12 11.6,16.88 11.6,16.88 11.64,16.86 9.48,13.12 9.43,13.12 9.43,13.12 		"/>
		<polygon class="st24" points="9.44,13.12 11.61,16.88 11.61,16.88 11.64,16.86 9.48,13.12 9.44,13.12 9.44,13.12 		"/>
		<polygon class="st25" points="9.45,13.12 11.61,16.88 11.61,16.88 11.65,16.86 9.49,13.12 9.45,13.12 9.45,13.12 		"/>
		<polygon class="st26" points="9.45,13.12 11.62,16.88 11.62,16.88 11.66,16.86 9.5,13.12 9.45,13.12 9.45,13.12 		"/>
		<polygon class="st27" points="9.46,13.12 11.63,16.87 11.63,16.87 11.66,16.85 9.51,13.12 9.46,13.12 9.46,13.12 		"/>
		<polygon class="st28" points="9.47,13.12 11.64,16.87 11.64,16.87 11.67,16.85 9.52,13.12 9.47,13.12 9.47,13.12 		"/>
		<polygon class="st29" points="9.48,13.12 11.64,16.87 11.64,16.87 11.68,16.85 9.52,13.12 9.48,13.12 9.48,13.12 		"/>
		<polygon class="st30" points="9.48,13.12 11.65,16.87 11.65,16.87 11.68,16.85 9.53,13.12 9.48,13.12 9.48,13.12 		"/>
		<polygon class="st31" points="9.49,13.12 11.66,16.87 11.66,16.87 11.69,16.85 9.54,13.12 9.49,13.12 9.49,13.12 		"/>
		<polygon class="st32" points="9.5,13.12 11.66,16.87 11.66,16.87 11.7,16.85 9.55,13.12 9.5,13.12 9.5,13.12 		"/>
		<polygon class="st33" points="9.51,13.12 11.67,16.87 11.67,16.87 11.7,16.85 9.55,13.12 9.51,13.12 9.51,13.12 		"/>
		<polygon class="st34" points="9.52,13.12 11.68,16.87 11.68,16.87 11.71,16.85 9.56,13.12 9.52,13.12 9.52,13.12 		"/>
		<polygon class="st35" points="9.52,13.12 11.68,16.86 11.68,16.86 11.72,16.84 9.57,13.12 9.52,13.12 9.52,13.12 		"/>
		<polygon class="st36" points="9.53,13.12 11.69,16.86 11.69,16.86 11.72,16.84 9.58,13.12 9.53,13.12 9.53,13.12 		"/>
		<polygon class="st37" points="9.54,13.12 11.7,16.86 11.7,16.86 11.73,16.84 9.58,13.12 9.54,13.12 9.54,13.12 		"/>
		<polygon class="st38" points="9.55,13.12 11.7,16.86 11.7,16.86 11.74,16.84 9.59,13.12 9.55,13.12 9.55,13.12 		"/>
		<polygon class="st39" points="9.55,13.12 11.71,16.86 11.71,16.86 11.75,16.84 9.6,13.12 9.55,13.12 9.55,13.12 		"/>
		<polygon class="st40" points="9.56,13.12 11.72,16.86 11.72,16.86 11.75,16.84 9.61,13.12 9.56,13.12 9.56,13.12 		"/>
		<polygon class="st41" points="9.57,13.12 11.73,16.86 11.73,16.86 11.76,16.84 9.61,13.12 9.57,13.12 9.57,13.12 		"/>
		<polygon class="st42" points="9.58,13.12 11.73,16.85 11.73,16.85 11.77,16.83 9.62,13.12 9.58,13.12 9.58,13.12 		"/>
		<polygon class="st43" points="9.58,13.12 11.74,16.85 11.74,16.85 11.77,16.83 9.63,13.12 9.58,13.12 9.58,13.12 		"/>
		<polygon class="st44" points="9.59,13.12 11.75,16.85 11.75,16.85 11.78,16.83 9.64,13.12 9.59,13.12 9.59,13.12 		"/>
		<polygon class="st45" points="9.6,13.12 11.75,16.85 11.75,16.85 11.79,16.83 9.65,13.12 9.6,13.12 9.6,13.12 		"/>
		<polygon class="st46" points="9.61,13.12 11.76,16.85 11.76,16.85 11.79,16.83 9.65,13.12 9.61,13.12 9.61,13.12 		"/>
		<polygon class="st47" points="9.61,13.12 11.77,16.85 11.77,16.85 11.8,16.83 9.66,13.12 9.61,13.12 9.61,13.12 		"/>
		<polygon class="st48" points="9.62,13.12 11.77,16.85 11.77,16.85 11.81,16.83 9.67,13.12 9.62,13.12 9.62,13.12 		"/>
		<polygon class="st49" points="9.63,13.12 11.78,16.85 11.78,16.85 11.81,16.83 9.68,13.12 9.63,13.12 9.63,13.12 		"/>
		<polygon class="st50" points="9.64,13.12 11.79,16.84 11.79,16.84 11.82,16.82 9.68,13.12 9.64,13.12 9.64,13.12 		"/>
		<polygon class="st51" points="9.65,13.12 11.79,16.84 11.79,16.84 11.83,16.82 9.69,13.12 9.65,13.12 9.65,13.12 		"/>
		<polygon class="st52" points="9.65,13.12 11.8,16.84 11.8,16.84 11.84,16.82 9.7,13.12 9.65,13.12 9.65,13.12 		"/>
		<polygon class="st53" points="9.66,13.12 11.81,16.84 11.81,16.84 11.84,16.82 9.71,13.12 9.66,13.12 9.66,13.12 		"/>
		<polygon class="st54" points="9.67,13.12 11.81,16.84 11.81,16.84 11.85,16.82 9.71,13.12 9.67,13.12 9.67,13.12 		"/>
		<polygon class="st55" points="9.68,13.12 11.82,16.84 11.82,16.84 11.86,16.82 9.72,13.12 9.68,13.12 9.68,13.12 		"/>
		<polygon class="st56" points="9.68,13.12 11.83,16.84 11.83,16.84 11.86,16.82 9.73,13.12 9.68,13.12 9.68,13.12 		"/>
		<polygon class="st57" points="9.69,13.12 11.84,16.84 11.84,16.84 11.87,16.82 9.74,13.12 9.69,13.12 9.69,13.12 		"/>
		<polygon class="st58" points="9.7,13.12 11.84,16.83 11.84,16.83 11.88,16.81 9.75,13.12 9.7,13.12 9.7,13.12 		"/>
		<polygon class="st59" points="9.71,13.12 11.85,16.83 11.85,16.83 11.88,16.81 9.75,13.12 9.71,13.12 9.71,13.12 		"/>
		<polygon class="st60" points="9.71,13.12 11.86,16.83 11.86,16.83 11.89,16.81 9.76,13.12 9.71,13.12 9.71,13.12 		"/>
		<polygon class="st61" points="9.72,13.12 11.86,16.83 11.86,16.83 11.9,16.81 9.77,13.12 9.72,13.12 9.72,13.12 		"/>
		<polygon class="st62" points="9.73,13.12 11.87,16.83 11.87,16.83 11.9,16.81 9.78,13.12 9.73,13.12 9.73,13.12 		"/>
		<polygon class="st63" points="9.74,13.12 11.88,16.83 11.88,16.83 11.91,16.81 9.78,13.12 9.74,13.12 9.74,13.12 		"/>
		<polygon class="st64" points="9.75,13.12 11.88,16.83 11.88,16.83 11.92,16.81 9.79,13.12 9.75,13.12 9.74,13.12 		"/>
		<polygon class="st65" points="9.75,13.12 11.89,16.83 11.89,16.83 11.93,16.81 9.8,13.12 9.75,13.12 9.75,13.12 		"/>
		<polygon class="st66" points="9.76,13.12 11.9,16.82 11.9,16.82 11.93,16.8 9.81,13.12 9.76,13.12 9.76,13.12 		"/>
		<polygon class="st67" points="9.77,13.12 11.9,16.82 11.9,16.82 11.94,16.8 9.81,13.12 9.77,13.12 9.77,13.12 		"/>
		<polygon class="st68" points="9.78,13.12 11.91,16.82 11.91,16.82 11.95,16.8 9.82,13.12 9.78,13.12 9.78,13.12 		"/>
		<polygon class="st69" points="9.78,13.12 11.92,16.82 11.92,16.82 11.95,16.8 9.83,13.12 9.78,13.12 9.78,13.12 		"/>
		<polygon class="st70" points="9.79,13.12 11.93,16.82 11.93,16.82 11.96,16.8 9.84,13.12 9.79,13.12 9.79,13.12 		"/>
		<polygon class="st71" points="9.8,13.12 11.93,16.82 11.93,16.82 11.97,16.8 9.84,13.12 9.8,13.12 9.8,13.12 		"/>
		<polygon class="st72" points="9.81,13.12 11.94,16.82 11.94,16.82 11.97,16.8 9.85,13.12 9.81,13.12 9.81,13.12 		"/>
		<polygon class="st73" points="9.81,13.12 11.95,16.82 11.95,16.82 11.98,16.8 9.86,13.12 9.81,13.12 9.81,13.12 		"/>
		<polygon class="st74" points="9.82,13.12 11.95,16.81 11.95,16.81 11.99,16.79 9.87,13.12 9.82,13.12 9.82,13.12 		"/>
		<polygon class="st75" points="9.83,13.12 11.96,16.81 11.96,16.81 11.99,16.79 9.88,13.12 9.83,13.12 9.83,13.12 		"/>
		<polygon class="st76" points="9.84,13.12 11.97,16.81 11.97,16.81 12,16.79 9.88,13.12 9.84,13.12 9.84,13.12 		"/>
		<polygon class="st77" points="9.84,13.12 11.97,16.81 11.97,16.81 12.01,16.79 9.89,13.12 9.84,13.12 9.84,13.12 		"/>
		<polygon class="st78" points="9.85,13.12 11.98,16.81 11.98,16.81 12.02,16.79 9.9,13.12 9.85,13.12 9.85,13.12 		"/>
		<polygon class="st79" points="9.86,13.12 11.99,16.81 11.99,16.81 12.02,16.79 9.91,13.12 9.86,13.12 9.86,13.12 		"/>
		<polygon class="st80" points="9.87,13.12 11.99,16.81 11.99,16.81 12.03,16.79 9.91,13.12 9.87,13.12 9.87,13.12 		"/>
		<polygon class="st81" points="9.88,13.12 12,16.8 12,16.8 12.04,16.78 9.92,13.12 9.88,13.12 9.88,13.12 		"/>
		<polygon class="st82" points="9.88,13.12 12.01,16.8 12.01,16.8 12.04,16.78 9.93,13.12 9.88,13.12 9.88,13.12 		"/>
		<polygon class="st83" points="9.89,13.12 12.02,16.8 12.02,16.8 12.05,16.78 9.94,13.12 9.89,13.12 9.89,13.12 		"/>
		<polygon class="st84" points="9.9,13.12 12.02,16.8 12.02,16.8 12.06,16.78 9.94,13.12 9.9,13.12 9.9,13.12 		"/>
		<polygon class="st85" points="9.91,13.12 12.03,16.8 12.03,16.8 12.06,16.78 9.95,13.12 9.91,13.12 9.91,13.12 		"/>
	</g>
	
		<linearGradient id="SVGID_00000111152926852756187630000006977567469719796898_" gradientUnits="userSpaceOnUse" x1="6.8916" y1="8.2661" x2="12.2569" y2="5.1684" gradientTransform="matrix(-0.5002 -0.8659 0.8659 -0.5002 8.1779 26.0218)">
		<stop  offset="0" style="stop-color:#49BAE5"/>
		<stop  offset="1" style="stop-color:#4F569A"/>
	</linearGradient>
	<path style="fill:url(#SVGID_00000111152926852756187630000006977567469719796898_);" d="M5.55,14.51
		c1.39,1.78,3.59,2.66,5.76,2.41l-3.58-6.19L5.55,14.51z"/>
	<g class="st3">
		<polygon class="st4" points="7.73,10.73 5.55,14.51 5.55,14.51 5.58,14.53 7.75,10.77 7.73,10.73 7.73,10.73 		"/>
		<polygon class="st5" points="7.73,10.74 5.55,14.52 5.55,14.52 5.59,14.54 7.76,10.78 7.73,10.74 7.73,10.74 		"/>
		<polygon class="st6" points="7.74,10.74 5.56,14.52 5.56,14.52 5.59,14.54 7.76,10.78 7.74,10.74 7.74,10.74 		"/>
		<polygon class="st7" points="7.74,10.75 5.56,14.53 5.56,14.53 5.6,14.55 7.76,10.79 7.74,10.75 7.74,10.75 		"/>
		<polygon class="st8" points="7.74,10.76 5.57,14.53 5.57,14.53 5.6,14.55 7.77,10.8 7.74,10.76 7.74,10.76 		"/>
		<polygon class="st9" points="7.75,10.76 5.57,14.54 5.57,14.54 5.61,14.56 7.77,10.8 7.75,10.76 7.75,10.76 		"/>
		<polygon class="st10" points="7.75,10.77 5.58,14.54 5.58,14.54 5.61,14.56 7.78,10.81 7.75,10.77 7.75,10.77 		"/>
		<polygon class="st11" points="7.76,10.78 5.58,14.55 5.58,14.55 5.61,14.57 7.78,10.82 7.76,10.78 7.76,10.78 		"/>
		<polygon class="st12" points="7.76,10.78 5.58,14.56 5.58,14.56 5.62,14.58 7.78,10.82 7.76,10.78 7.76,10.78 		"/>
		<polygon class="st13" points="7.76,10.79 5.59,14.56 5.59,14.56 5.62,14.58 7.79,10.83 7.76,10.79 7.76,10.79 		"/>
		<polygon class="st14" points="7.77,10.8 5.59,14.57 5.59,14.57 5.63,14.59 7.79,10.84 7.77,10.8 7.77,10.8 		"/>
		<polygon class="st15" points="7.77,10.8 5.6,14.57 5.6,14.57 5.63,14.59 7.79,10.84 7.77,10.8 7.77,10.8 		"/>
		<polygon class="st16" points="7.78,10.81 5.6,14.58 5.6,14.58 5.64,14.6 7.8,10.85 7.78,10.81 7.78,10.81 		"/>
		<polygon class="st17" points="7.78,10.82 5.61,14.58 5.61,14.58 5.64,14.6 7.8,10.86 7.78,10.82 7.78,10.82 		"/>
		<polygon class="st18" points="7.78,10.82 5.61,14.59 5.61,14.59 5.65,14.61 7.81,10.86 7.78,10.82 7.78,10.82 		"/>
		<polygon class="st19" points="7.79,10.83 5.62,14.59 5.62,14.59 5.65,14.61 7.81,10.87 7.79,10.83 7.79,10.83 		"/>
		<polygon class="st20" points="7.79,10.84 5.62,14.6 5.62,14.6 5.66,14.62 7.81,10.88 7.79,10.84 7.79,10.84 		"/>
		<polygon class="st21" points="7.79,10.84 5.63,14.6 5.63,14.6 5.66,14.62 7.82,10.88 7.79,10.84 7.79,10.84 		"/>
		<polygon class="st22" points="7.8,10.85 5.63,14.61 5.63,14.61 5.66,14.63 7.82,10.89 7.8,10.85 7.8,10.85 		"/>
		<polygon class="st23" points="7.8,10.86 5.63,14.61 5.63,14.61 5.67,14.63 7.83,10.9 7.8,10.86 7.8,10.86 		"/>
		<polygon class="st24" points="7.81,10.86 5.64,14.62 5.64,14.62 5.67,14.64 7.83,10.9 7.81,10.86 7.81,10.86 		"/>
		<polygon class="st25" points="7.81,10.87 5.64,14.62 5.64,14.62 5.68,14.64 7.83,10.91 7.81,10.87 7.81,10.87 		"/>
		<polygon class="st26" points="7.81,10.88 5.65,14.63 5.65,14.63 5.68,14.65 7.84,10.92 7.81,10.88 7.81,10.88 		"/>
		<polygon class="st27" points="7.82,10.88 5.65,14.64 5.65,14.64 5.69,14.66 7.84,10.92 7.82,10.88 7.82,10.88 		"/>
		<polygon class="st28" points="7.82,10.89 5.66,14.64 5.66,14.64 5.69,14.66 7.84,10.93 7.82,10.89 7.82,10.89 		"/>
		<polygon class="st29" points="7.83,10.9 5.66,14.65 5.66,14.65 5.7,14.67 7.85,10.94 7.83,10.9 7.83,10.9 		"/>
		<polygon class="st30" points="7.83,10.9 5.67,14.65 5.67,14.65 5.7,14.67 7.85,10.94 7.83,10.9 7.83,10.9 		"/>
		<polygon class="st31" points="7.83,10.91 5.67,14.66 5.67,14.66 5.71,14.68 7.86,10.95 7.83,10.91 7.83,10.91 		"/>
		<polygon class="st32" points="7.84,10.92 5.68,14.66 5.68,14.66 5.71,14.68 7.86,10.96 7.84,10.92 7.84,10.92 		"/>
		<polygon class="st33" points="7.84,10.92 5.68,14.67 5.68,14.67 5.71,14.69 7.86,10.96 7.84,10.92 7.84,10.92 		"/>
		<polygon class="st34" points="7.84,10.93 5.68,14.67 5.68,14.67 5.72,14.69 7.87,10.97 7.84,10.93 7.84,10.93 		"/>
		<polygon class="st35" points="7.85,10.94 5.69,14.68 5.69,14.68 5.72,14.7 7.87,10.98 7.85,10.94 7.85,10.94 		"/>
		<polygon class="st36" points="7.85,10.94 5.69,14.68 5.69,14.68 5.73,14.7 7.88,10.98 7.85,10.94 7.85,10.94 		"/>
		<polygon class="st37" points="7.86,10.95 5.7,14.69 5.7,14.69 5.73,14.71 7.88,10.99 7.86,10.95 7.86,10.95 		"/>
		<polygon class="st38" points="7.86,10.96 5.7,14.69 5.7,14.69 5.74,14.71 7.88,11 7.86,10.96 7.86,10.96 		"/>
		<polygon class="st39" points="7.86,10.96 5.71,14.7 5.71,14.7 5.74,14.72 7.89,11 7.86,10.96 7.86,10.96 		"/>
		<polygon class="st40" points="7.87,10.97 5.71,14.7 5.71,14.7 5.75,14.72 7.89,11.01 7.87,10.97 7.87,10.97 		"/>
		<polygon class="st41" points="7.87,10.98 5.72,14.71 5.72,14.71 5.75,14.73 7.89,11.02 7.87,10.98 7.87,10.98 		"/>
		<polygon class="st42" points="7.88,10.98 5.72,14.72 5.72,14.72 5.76,14.74 7.9,11.02 7.88,10.98 7.88,10.98 		"/>
		<polygon class="st43" points="7.88,10.99 5.73,14.72 5.73,14.72 5.76,14.74 7.9,11.03 7.88,10.99 7.88,10.99 		"/>
		<polygon class="st44" points="7.88,11 5.73,14.73 5.73,14.73 5.77,14.75 7.91,11.04 7.88,11 7.88,11 		"/>
		<polygon class="st45" points="7.89,11 5.74,14.73 5.74,14.73 5.77,14.75 7.91,11.04 7.89,11 7.89,11 		"/>
		<polygon class="st46" points="7.89,11.01 5.74,14.74 5.74,14.74 5.77,14.76 7.91,11.05 7.89,11.01 7.89,11.01 		"/>
		<polygon class="st47" points="7.89,11.02 5.74,14.74 5.74,14.74 5.78,14.76 7.92,11.06 7.89,11.02 7.89,11.02 		"/>
		<polygon class="st48" points="7.9,11.02 5.75,14.75 5.75,14.75 5.78,14.77 7.92,11.06 7.9,11.02 7.9,11.02 		"/>
		<polygon class="st49" points="7.9,11.03 5.75,14.75 5.75,14.75 5.79,14.77 7.92,11.07 7.9,11.03 7.9,11.03 		"/>
		<polygon class="st50" points="7.91,11.04 5.76,14.76 5.76,14.76 5.79,14.78 7.93,11.08 7.91,11.04 7.91,11.04 		"/>
		<polygon class="st51" points="7.91,11.04 5.76,14.76 5.76,14.76 5.8,14.78 7.93,11.08 7.91,11.04 7.91,11.04 		"/>
		<polygon class="st52" points="7.91,11.05 5.77,14.77 5.77,14.77 5.8,14.79 7.94,11.09 7.91,11.05 7.91,11.05 		"/>
		<polygon class="st53" points="7.92,11.06 5.77,14.77 5.77,14.77 5.81,14.79 7.94,11.1 7.92,11.06 7.92,11.06 		"/>
		<polygon class="st54" points="7.92,11.06 5.78,14.78 5.78,14.78 5.81,14.8 7.94,11.1 7.92,11.06 7.92,11.06 		"/>
		<polygon class="st55" points="7.92,11.07 5.78,14.78 5.78,14.78 5.82,14.8 7.95,11.11 7.92,11.07 7.92,11.07 		"/>
		<polygon class="st56" points="7.93,11.08 5.79,14.79 5.79,14.79 5.82,14.81 7.95,11.12 7.93,11.08 7.93,11.08 		"/>
		<polygon class="st57" points="7.93,11.08 5.79,14.8 5.79,14.8 5.82,14.82 7.96,11.12 7.93,11.08 7.93,11.08 		"/>
		<polygon class="st58" points="7.94,11.09 5.79,14.8 5.79,14.8 5.83,14.82 7.96,11.13 7.94,11.09 7.94,11.09 		"/>
		<polygon class="st59" points="7.94,11.1 5.8,14.81 5.8,14.81 5.83,14.83 7.96,11.14 7.94,11.1 7.94,11.1 		"/>
		<polygon class="st60" points="7.94,11.1 5.8,14.81 5.8,14.81 5.84,14.83 7.97,11.14 7.94,11.1 7.94,11.1 		"/>
		<polygon class="st61" points="7.95,11.11 5.81,14.82 5.81,14.82 5.84,14.84 7.97,11.15 7.95,11.11 7.95,11.11 		"/>
		<polygon class="st62" points="7.95,11.12 5.81,14.82 5.81,14.82 5.85,14.84 7.97,11.16 7.95,11.12 7.95,11.12 		"/>
		<polygon class="st63" points="7.96,11.12 5.82,14.83 5.82,14.83 5.85,14.85 7.98,11.16 7.96,11.12 7.96,11.12 		"/>
		<polygon class="st64" points="7.96,11.13 5.82,14.83 5.82,14.83 5.86,14.85 7.98,11.17 7.96,11.13 7.96,11.13 		"/>
		<polygon class="st65" points="7.96,11.14 5.83,14.84 5.83,14.84 5.86,14.86 7.99,11.18 7.96,11.14 7.96,11.14 		"/>
		<polygon class="st66" points="7.97,11.14 5.83,14.84 5.83,14.84 5.87,14.86 7.99,11.18 7.97,11.14 7.97,11.14 		"/>
		<polygon class="st67" points="7.97,11.15 5.84,14.85 5.84,14.85 5.87,14.87 7.99,11.19 7.97,11.15 7.97,11.15 		"/>
		<polygon class="st68" points="7.97,11.16 5.84,14.85 5.84,14.85 5.87,14.87 8,11.2 7.97,11.16 7.97,11.16 		"/>
		<polygon class="st69" points="7.98,11.16 5.84,14.86 5.84,14.86 5.88,14.88 8,11.2 7.98,11.16 7.98,11.16 		"/>
		<polygon class="st70" points="7.98,11.17 5.85,14.87 5.85,14.87 5.88,14.89 8.01,11.21 7.98,11.17 7.98,11.17 		"/>
		<polygon class="st71" points="7.99,11.18 5.85,14.87 5.85,14.87 5.89,14.89 8.01,11.22 7.99,11.18 7.99,11.18 		"/>
		<polygon class="st72" points="7.99,11.18 5.86,14.88 5.86,14.88 5.89,14.9 8.01,11.22 7.99,11.18 7.99,11.18 		"/>
		<polygon class="st73" points="7.99,11.19 5.86,14.88 5.86,14.88 5.9,14.9 8.02,11.23 7.99,11.19 7.99,11.19 		"/>
		<polygon class="st74" points="8,11.2 5.87,14.89 5.87,14.89 5.9,14.91 8.02,11.23 8,11.2 8,11.2 		"/>
		<polygon class="st75" points="8,11.2 5.87,14.89 5.87,14.89 5.91,14.91 8.02,11.24 8,11.2 8,11.2 		"/>
		<polygon class="st76" points="8.01,11.21 5.88,14.9 5.88,14.9 5.91,14.92 8.03,11.25 8.01,11.21 8.01,11.21 		"/>
		<polygon class="st77" points="8.01,11.22 5.88,14.9 5.88,14.9 5.92,14.92 8.03,11.25 8.01,11.22 8.01,11.22 		"/>
		<polygon class="st78" points="8.01,11.22 5.89,14.91 5.89,14.91 5.92,14.93 8.04,11.26 8.01,11.22 8.01,11.22 		"/>
		<polygon class="st79" points="8.02,11.23 5.89,14.91 5.89,14.91 5.93,14.93 8.04,11.27 8.02,11.23 8.02,11.23 		"/>
		<polygon class="st80" points="8.02,11.23 5.9,14.92 5.9,14.92 5.93,14.94 8.04,11.27 8.02,11.23 8.02,11.23 		"/>
		<polygon class="st81" points="8.02,11.24 5.9,14.92 5.9,14.92 5.93,14.94 8.05,11.28 8.02,11.24 8.02,11.24 		"/>
		<polygon class="st82" points="8.03,11.25 5.9,14.93 5.9,14.93 5.94,14.95 8.05,11.29 8.03,11.25 8.03,11.25 		"/>
		<polygon class="st83" points="8.03,11.25 5.91,14.93 5.91,14.93 5.94,14.95 8.06,11.29 8.03,11.25 8.03,11.25 		"/>
		<polygon class="st84" points="8.04,11.26 5.91,14.94 5.91,14.94 5.95,14.96 8.06,11.3 8.04,11.26 8.04,11.26 		"/>
		<polygon class="st85" points="8.04,11.27 5.92,14.95 5.92,14.95 5.95,14.97 8.06,11.31 8.04,11.27 8.04,11.27 		"/>
	</g>
	
		<linearGradient id="SVGID_00000143601674687658537810000001638347619315918241_" gradientUnits="userSpaceOnUse" x1="5.4188" y1="8.5797" x2="10.7839" y2="5.4821" gradientTransform="matrix(0.4997 -0.8662 0.8662 0.4997 -3.5295 14.7896)">
		<stop  offset="0" style="stop-color:#E12040"/>
		<stop  offset="1" style="stop-color:#E1227D"/>
	</linearGradient>
	<path style="fill:url(#SVGID_00000143601674687658537810000001638347619315918241_);" d="M4.66,8.19
		c-0.85,2.09-0.51,4.44,0.79,6.19l3.57-6.2L4.66,8.19z"/>
	<g class="st3">
		<polygon class="st4" points="9.02,8.19 4.66,8.19 4.66,8.19 4.66,8.23 9,8.23 9.02,8.19 9.02,8.19 		"/>
		<polygon class="st5" points="9.02,8.19 4.66,8.2 4.66,8.2 4.66,8.24 9,8.23 9.02,8.19 9.02,8.19 		"/>
		<polygon class="st6" points="9.02,8.2 4.65,8.2 4.65,8.2 4.65,8.24 8.99,8.24 9.02,8.2 9.02,8.2 		"/>
		<polygon class="st7" points="9.01,8.21 4.65,8.21 4.65,8.21 4.65,8.25 8.99,8.25 9.01,8.21 9.01,8.21 		"/>
		<polygon class="st8" points="9.01,8.21 4.65,8.22 4.65,8.22 4.65,8.26 8.99,8.25 9.01,8.21 9.01,8.21 		"/>
		<polygon class="st9" points="9,8.22 4.65,8.22 4.65,8.22 4.65,8.26 8.98,8.26 9,8.22 9,8.22 		"/>
		<polygon class="st10" points="9,8.23 4.64,8.23 4.64,8.23 4.64,8.27 8.98,8.27 9,8.23 9,8.23 		"/>
		<polygon class="st11" points="9,8.23 4.64,8.24 4.64,8.24 4.64,8.27 8.97,8.27 9,8.23 9,8.23 		"/>
		<polygon class="st12" points="8.99,8.24 4.64,8.24 4.64,8.24 4.64,8.28 8.97,8.28 8.99,8.24 8.99,8.24 		"/>
		<polygon class="st13" points="8.99,8.25 4.64,8.25 4.64,8.25 4.64,8.29 8.97,8.29 8.99,8.25 8.99,8.25 		"/>
		<polygon class="st14" points="8.99,8.25 4.63,8.26 4.63,8.26 4.63,8.29 8.96,8.29 8.99,8.25 8.99,8.25 		"/>
		<polygon class="st15" points="8.98,8.26 4.63,8.26 4.63,8.26 4.63,8.3 8.96,8.3 8.98,8.26 8.98,8.26 		"/>
		<polygon class="st16" points="8.98,8.27 4.63,8.27 4.63,8.27 4.63,8.31 8.95,8.31 8.98,8.27 8.98,8.27 		"/>
		<polygon class="st17" points="8.97,8.27 4.63,8.27 4.63,8.27 4.63,8.31 8.95,8.31 8.97,8.27 8.97,8.27 		"/>
		<polygon class="st18" points="8.97,8.28 4.62,8.28 4.62,8.28 4.62,8.32 8.95,8.32 8.97,8.28 8.97,8.28 		"/>
		<polygon class="st19" points="8.97,8.29 4.62,8.29 4.62,8.29 4.62,8.33 8.94,8.33 8.97,8.29 8.97,8.29 		"/>
		<polygon class="st20" points="8.96,8.29 4.62,8.29 4.62,8.29 4.62,8.33 8.94,8.33 8.96,8.29 8.96,8.29 		"/>
		<polygon class="st21" points="8.96,8.3 4.62,8.3 4.62,8.3 4.62,8.34 8.94,8.34 8.96,8.3 8.96,8.3 		"/>
		<polygon class="st22" points="8.95,8.31 4.62,8.31 4.62,8.31 4.62,8.35 8.93,8.35 8.95,8.31 8.95,8.31 		"/>
		<polygon class="st23" points="8.95,8.31 4.61,8.31 4.61,8.31 4.61,8.35 8.93,8.35 8.95,8.31 8.95,8.31 		"/>
		<polygon class="st24" points="8.95,8.32 4.61,8.32 4.61,8.32 4.61,8.36 8.92,8.36 8.95,8.32 8.95,8.32 		"/>
		<polygon class="st25" points="8.94,8.33 4.61,8.33 4.61,8.33 4.61,8.37 8.92,8.37 8.94,8.33 8.94,8.33 		"/>
		<polygon class="st26" points="8.94,8.33 4.61,8.33 4.61,8.33 4.61,8.37 8.92,8.37 8.94,8.33 8.94,8.33 		"/>
		<polygon class="st27" points="8.94,8.34 4.6,8.34 4.6,8.34 4.6,8.38 8.91,8.38 8.94,8.34 8.94,8.34 		"/>
		<polygon class="st28" points="8.93,8.35 4.6,8.35 4.6,8.35 4.6,8.39 8.91,8.39 8.93,8.35 8.93,8.35 		"/>
		<polygon class="st29" points="8.93,8.35 4.6,8.35 4.6,8.35 4.6,8.39 8.9,8.39 8.93,8.35 8.93,8.35 		"/>
		<polygon class="st30" points="8.92,8.36 4.6,8.36 4.6,8.36 4.6,8.4 8.9,8.4 8.92,8.36 8.92,8.36 		"/>
		<polygon class="st31" points="8.92,8.37 4.59,8.37 4.59,8.37 4.59,8.41 8.9,8.41 8.92,8.37 8.92,8.37 		"/>
		<polygon class="st32" points="8.92,8.37 4.59,8.37 4.59,8.37 4.59,8.41 8.89,8.41 8.92,8.37 8.92,8.37 		"/>
		<polygon class="st33" points="8.91,8.38 4.59,8.38 4.59,8.38 4.59,8.42 8.89,8.42 8.91,8.38 8.91,8.38 		"/>
		<polygon class="st34" points="8.91,8.39 4.59,8.39 4.59,8.39 4.59,8.43 8.89,8.43 8.91,8.39 8.91,8.39 		"/>
		<polygon class="st35" points="8.9,8.39 4.59,8.39 4.59,8.39 4.59,8.43 8.88,8.43 8.9,8.39 8.9,8.39 		"/>
		<polygon class="st36" points="8.9,8.4 4.58,8.4 4.58,8.4 4.58,8.44 8.88,8.44 8.9,8.4 8.9,8.4 		"/>
		<polygon class="st37" points="8.9,8.41 4.58,8.41 4.58,8.41 4.58,8.45 8.87,8.45 8.9,8.41 8.9,8.41 		"/>
		<polygon class="st38" points="8.89,8.41 4.58,8.41 4.58,8.41 4.58,8.45 8.87,8.45 8.89,8.41 8.89,8.41 		"/>
		<polygon class="st39" points="8.89,8.42 4.58,8.42 4.58,8.42 4.58,8.46 8.87,8.46 8.89,8.42 8.89,8.42 		"/>
		<polygon class="st40" points="8.89,8.43 4.57,8.43 4.57,8.43 4.57,8.47 8.86,8.47 8.89,8.43 8.89,8.43 		"/>
		<polygon class="st41" points="8.88,8.43 4.57,8.43 4.57,8.43 4.57,8.47 8.86,8.47 8.88,8.43 8.88,8.43 		"/>
		<polygon class="st42" points="8.88,8.44 4.57,8.44 4.57,8.44 4.57,8.48 8.86,8.48 8.88,8.44 8.88,8.44 		"/>
		<polygon class="st43" points="8.87,8.45 4.57,8.45 4.57,8.45 4.57,8.49 8.85,8.49 8.87,8.45 8.87,8.45 		"/>
		<polygon class="st44" points="8.87,8.45 4.56,8.45 4.56,8.45 4.56,8.49 8.85,8.49 8.87,8.45 8.87,8.45 		"/>
		<polygon class="st45" points="8.87,8.46 4.56,8.46 4.56,8.46 4.56,8.5 8.84,8.5 8.87,8.46 8.87,8.46 		"/>
		<polygon class="st46" points="8.86,8.47 4.56,8.47 4.56,8.47 4.56,8.51 8.84,8.51 8.86,8.47 8.86,8.47 		"/>
		<polygon class="st47" points="8.86,8.47 4.56,8.47 4.56,8.47 4.56,8.51 8.84,8.51 8.86,8.47 8.86,8.47 		"/>
		<polygon class="st48" points="8.86,8.48 4.55,8.48 4.55,8.48 4.55,8.52 8.83,8.52 8.86,8.48 8.86,8.48 		"/>
		<polygon class="st49" points="8.85,8.49 4.55,8.49 4.55,8.49 4.55,8.53 8.83,8.53 8.85,8.49 8.85,8.49 		"/>
		<polygon class="st50" points="8.85,8.49 4.55,8.49 4.55,8.49 4.55,8.53 8.82,8.53 8.85,8.49 8.85,8.49 		"/>
		<polygon class="st51" points="8.84,8.5 4.55,8.5 4.55,8.5 4.55,8.54 8.82,8.54 8.84,8.5 8.84,8.5 		"/>
		<polygon class="st52" points="8.84,8.51 4.55,8.51 4.55,8.51 4.55,8.55 8.82,8.55 8.84,8.51 8.84,8.51 		"/>
		<polygon class="st53" points="8.84,8.51 4.54,8.51 4.54,8.51 4.54,8.55 8.81,8.55 8.84,8.51 8.84,8.51 		"/>
		<polygon class="st54" points="8.83,8.52 4.54,8.52 4.54,8.52 4.54,8.56 8.81,8.56 8.83,8.52 8.83,8.52 		"/>
		<polygon class="st55" points="8.83,8.53 4.54,8.53 4.54,8.53 4.54,8.57 8.81,8.57 8.83,8.53 8.83,8.53 		"/>
		<polygon class="st56" points="8.82,8.53 4.54,8.53 4.54,8.53 4.54,8.57 8.8,8.57 8.82,8.53 8.82,8.53 		"/>
		<polygon class="st57" points="8.82,8.54 4.53,8.54 4.53,8.54 4.53,8.58 8.8,8.58 8.82,8.54 8.82,8.54 		"/>
		<polygon class="st58" points="8.82,8.55 4.53,8.55 4.53,8.55 4.53,8.59 8.79,8.59 8.82,8.55 8.82,8.55 		"/>
		<polygon class="st59" points="8.81,8.55 4.53,8.55 4.53,8.55 4.53,8.59 8.79,8.59 8.81,8.55 8.81,8.55 		"/>
		<polygon class="st60" points="8.81,8.56 4.53,8.56 4.53,8.56 4.53,8.6 8.79,8.6 8.81,8.56 8.81,8.56 		"/>
		<polygon class="st61" points="8.81,8.57 4.52,8.57 4.52,8.57 4.52,8.61 8.78,8.61 8.81,8.57 8.81,8.57 		"/>
		<polygon class="st62" points="8.8,8.57 4.52,8.57 4.52,8.57 4.52,8.61 8.78,8.61 8.8,8.57 8.8,8.57 		"/>
		<polygon class="st63" points="8.8,8.58 4.52,8.58 4.52,8.58 4.52,8.62 8.77,8.62 8.8,8.58 8.8,8.58 		"/>
		<polygon class="st64" points="8.79,8.59 4.52,8.59 4.52,8.59 4.52,8.63 8.77,8.63 8.79,8.59 8.79,8.59 		"/>
		<polygon class="st65" points="8.79,8.59 4.51,8.59 4.51,8.59 4.51,8.63 8.77,8.63 8.79,8.59 8.79,8.59 		"/>
		<polygon class="st66" points="8.79,8.6 4.51,8.6 4.51,8.6 4.51,8.64 8.76,8.64 8.79,8.6 8.79,8.6 		"/>
		<polygon class="st67" points="8.78,8.61 4.51,8.61 4.51,8.61 4.51,8.65 8.76,8.65 8.78,8.61 8.78,8.61 		"/>
		<polygon class="st68" points="8.78,8.61 4.51,8.61 4.51,8.61 4.51,8.65 8.76,8.65 8.78,8.61 8.78,8.61 		"/>
		<polygon class="st69" points="8.77,8.62 4.51,8.62 4.51,8.62 4.51,8.66 8.75,8.66 8.77,8.62 8.77,8.62 		"/>
		<polygon class="st70" points="8.77,8.62 4.5,8.63 4.5,8.63 4.5,8.67 8.75,8.66 8.77,8.62 8.77,8.62 		"/>
		<polygon class="st71" points="8.77,8.63 4.5,8.63 4.5,8.63 4.5,8.67 8.74,8.67 8.77,8.63 8.77,8.63 		"/>
		<polygon class="st72" points="8.76,8.64 4.5,8.64 4.5,8.64 4.5,8.68 8.74,8.68 8.76,8.64 8.76,8.64 		"/>
		<polygon class="st73" points="8.76,8.64 4.5,8.65 4.5,8.65 4.5,8.69 8.74,8.68 8.76,8.64 8.76,8.64 		"/>
		<polygon class="st74" points="8.76,8.65 4.49,8.65 4.49,8.65 4.49,8.69 8.73,8.69 8.76,8.65 8.76,8.65 		"/>
		<polygon class="st75" points="8.75,8.66 4.49,8.66 4.49,8.66 4.49,8.7 8.73,8.7 8.75,8.66 8.75,8.66 		"/>
		<polygon class="st76" points="8.75,8.66 4.49,8.67 4.49,8.67 4.49,8.71 8.72,8.7 8.75,8.66 8.75,8.66 		"/>
		<polygon class="st77" points="8.74,8.67 4.49,8.67 4.49,8.67 4.49,8.71 8.72,8.71 8.74,8.67 8.74,8.67 		"/>
		<polygon class="st78" points="8.74,8.68 4.48,8.68 4.48,8.68 4.48,8.72 8.72,8.72 8.74,8.68 8.74,8.68 		"/>
		<polygon class="st79" points="8.74,8.68 4.48,8.69 4.48,8.69 4.48,8.73 8.71,8.72 8.74,8.68 8.74,8.68 		"/>
		<polygon class="st80" points="8.73,8.69 4.48,8.69 4.48,8.69 4.48,8.73 8.71,8.73 8.73,8.69 8.73,8.69 		"/>
		<polygon class="st81" points="8.73,8.7 4.48,8.7 4.48,8.7 4.48,8.74 8.71,8.74 8.73,8.7 8.73,8.7 		"/>
		<polygon class="st82" points="8.72,8.7 4.48,8.71 4.48,8.71 4.48,8.75 8.7,8.74 8.72,8.7 8.72,8.7 		"/>
		<polygon class="st83" points="8.72,8.71 4.47,8.71 4.47,8.71 4.47,8.75 8.7,8.75 8.72,8.71 8.72,8.71 		"/>
		<polygon class="st84" points="8.72,8.72 4.47,8.72 4.47,8.72 4.47,8.76 8.69,8.76 8.72,8.72 8.72,8.72 		"/>
		<polygon class="st85" points="8.71,8.72 4.47,8.73 4.47,8.73 4.47,8.77 8.69,8.76 8.71,8.72 8.71,8.72 		"/>
	</g>
	<g>
		<path class="st91" d="M10.58,17.34c-1.81,0-3.5-0.7-4.78-1.98c-1.28-1.28-1.98-2.98-1.98-4.78s0.7-3.5,1.98-4.78
			c1.28-1.28,2.98-1.98,4.78-1.98c1.81,0,3.5,0.7,4.78,1.98c1.28,1.28,1.98,2.98,1.98,4.78s-0.7,3.5-1.98,4.78
			C14.08,16.64,12.39,17.34,10.58,17.34z M10.58,4.07c-1.74,0-3.37,0.68-4.6,1.91s-1.91,2.87-1.91,4.6s0.68,3.37,1.91,4.6
			s2.87,1.91,4.6,1.91c1.74,0,3.37-0.68,4.6-1.91s1.91-2.87,1.91-4.6s-0.68-3.37-1.91-4.6S12.32,4.07,10.58,4.07z"/>
	</g>
</g>
<g>
	<path d="M18.06,18.06c-1.01,1.01-2.19,1.79-3.5,2.32c-1.27,0.51-2.61,0.77-3.98,0.77c-1.37,0-2.71-0.26-3.98-0.77
		c-1.31-0.53-2.49-1.31-3.5-2.32c-1.01-1.01-1.79-2.19-2.32-3.5C0.26,13.29,0,11.95,0,10.58S0.26,7.87,0.77,6.6
		C1.31,5.29,2.09,4.11,3.1,3.1c1.01-1.01,2.19-1.79,3.5-2.32C7.87,0.26,9.21,0,10.58,0c1.37,0,2.71,0.26,3.98,0.77
		c1.31,0.53,2.49,1.31,3.5,2.32c1.01,1.01,1.79,2.19,2.32,3.5c0.51,1.27,0.77,2.61,0.77,3.98s-0.26,2.71-0.77,3.98
		C19.85,15.87,19.07,17.05,18.06,18.06z M4.46,4.46c-1.63,1.63-2.54,3.81-2.54,6.12s0.9,4.49,2.54,6.12s3.81,2.54,6.12,2.54
		c2.31,0,4.49-0.9,6.12-2.54c1.63-1.63,2.54-3.81,2.54-6.12s-0.9-4.49-2.54-6.12c-1.63-1.63-3.81-2.54-6.12-2.54
		C8.27,1.92,6.09,2.82,4.46,4.46z"/>
</g>
<circle cx="10.58" cy="10.58" r="4.73"/>
<g>
</g>
<g>
</g>
<g>
</g>
<g>
</g>
<g>
</g>
<g>
</g>
</svg>
