<?xml version="1.0" encoding="utf-8"?>
<!-- Generator: Adobe Illustrator 26.1.0, SVG Export Plug-In . SVG Version: 6.00 Build 0)  -->
<svg version="1.1" id="Vrstva_1" xmlns="http://www.w3.org/2000/svg" xmlns:xlink="http://www.w3.org/1999/xlink" x="0px" y="0px"
	 viewBox="0 0 81.91 28.85" style="enable-background:new 0 0 81.91 28.85;" xml:space="preserve">
<style type="text/css">
	.st0{opacity:0.1;fill:#020202;}
	.st1{fill:#FFFFFF;}
	.st2{fill:url(#SVGID_1_);}
	.st3{opacity:0.4;}
	.st4{fill:#020202;}
	.st5{opacity:0.9877;fill:#020202;}
	.st6{opacity:0.9753;fill:#020202;}
	.st7{opacity:0.963;fill:#020202;}
	.st8{opacity:0.9506;fill:#020202;}
	.st9{opacity:0.9383;fill:#020202;}
	.st10{opacity:0.9259;fill:#020202;}
	.st11{opacity:0.9136;fill:#020202;}
	.st12{opacity:0.9012;fill:#020202;}
	.st13{opacity:0.8889;fill:#020202;}
	.st14{opacity:0.8765;fill:#020202;}
	.st15{opacity:0.8642;fill:#020202;}
	.st16{opacity:0.8519;fill:#020202;}
	.st17{opacity:0.8395;fill:#020202;}
	.st18{opacity:0.8272;fill:#020202;}
	.st19{opacity:0.8148;fill:#020202;}
	.st20{opacity:0.8025;fill:#020202;}
	.st21{opacity:0.7901;fill:#020202;}
	.st22{opacity:0.7778;fill:#020202;}
	.st23{opacity:0.7654;fill:#020202;}
	.st24{opacity:0.7531;fill:#020202;}
	.st25{opacity:0.7407;fill:#020202;}
	.st26{opacity:0.7284;fill:#020202;}
	.st27{opacity:0.716;fill:#020202;}
	.st28{opacity:0.7037;fill:#020202;}
	.st29{opacity:0.6914;fill:#020202;}
	.st30{opacity:0.679;fill:#020202;}
	.st31{opacity:0.6667;fill:#020202;}
	.st32{opacity:0.6543;fill:#020202;}
	.st33{opacity:0.642;fill:#020202;}
	.st34{opacity:0.6296;fill:#020202;}
	.st35{opacity:0.6173;fill:#020202;}
	.st36{opacity:0.6049;fill:#020202;}
	.st37{opacity:0.5926;fill:#020202;}
	.st38{opacity:0.5802;fill:#020202;}
	.st39{opacity:0.5679;fill:#020202;}
	.st40{opacity:0.5556;fill:#020202;}
	.st41{opacity:0.5432;fill:#020202;}
	.st42{opacity:0.5309;fill:#020202;}
	.st43{opacity:0.5185;fill:#020202;}
	.st44{opacity:0.5062;fill:#020202;}
	.st45{opacity:0.4938;fill:#020202;}
	.st46{opacity:0.4815;fill:#020202;}
	.st47{opacity:0.4691;fill:#020202;}
	.st48{opacity:0.4568;fill:#020202;}
	.st49{opacity:0.4444;fill:#020202;}
	.st50{opacity:0.4321;fill:#020202;}
	.st51{opacity:0.4198;fill:#020202;}
	.st52{opacity:0.4074;fill:#020202;}
	.st53{opacity:0.3951;fill:#020202;}
	.st54{opacity:0.3827;fill:#020202;}
	.st55{opacity:0.3704;fill:#020202;}
	.st56{opacity:0.358;fill:#020202;}
	.st57{opacity:0.3457;fill:#020202;}
	.st58{opacity:0.3333;fill:#020202;}
	.st59{opacity:0.321;fill:#020202;}
	.st60{opacity:0.3086;fill:#020202;}
	.st61{opacity:0.2963;fill:#020202;}
	.st62{opacity:0.284;fill:#020202;}
	.st63{opacity:0.2716;fill:#020202;}
	.st64{opacity:0.2593;fill:#020202;}
	.st65{opacity:0.2469;fill:#020202;}
	.st66{opacity:0.2346;fill:#020202;}
	.st67{opacity:0.2222;fill:#020202;}
	.st68{opacity:0.2099;fill:#020202;}
	.st69{opacity:0.1975;fill:#020202;}
	.st70{opacity:0.1852;fill:#020202;}
	.st71{opacity:0.1728;fill:#020202;}
	.st72{opacity:0.1605;fill:#020202;}
	.st73{opacity:0.1481;fill:#020202;}
	.st74{opacity:0.1358;fill:#020202;}
	.st75{opacity:0.1235;fill:#020202;}
	.st76{opacity:0.1111;fill:#020202;}
	.st77{opacity:0.0988;fill:#020202;}
	.st78{opacity:0.0864;fill:#020202;}
	.st79{opacity:0.0741;fill:#020202;}
	.st80{opacity:0.0617;fill:#020202;}
	.st81{opacity:0.0494;fill:#020202;}
	.st82{opacity:0.037;fill:#020202;}
	.st83{opacity:0.0247;fill:#020202;}
	.st84{opacity:0.0123;fill:#020202;}
	.st85{opacity:0;fill:#020202;}
	.st86{fill:url(#SVGID_00000021102742095764197410000015702789512312817590_);}
	.st87{fill:url(#SVGID_00000093864700548428054410000010519716846050770604_);}
	.st88{fill:url(#SVGID_00000108292737449260323420000017752527912866906252_);}
	.st89{fill:url(#SVGID_00000084526579604577537990000006856674168166886819_);}
	.st90{fill:url(#SVGID_00000031206773505849662090000011062066870469116840_);}
	.st91{fill:#515252;}
</style>
<g>
	<circle class="st0" cx="40.95" cy="14.43" r="7.69"/>
	<circle class="st0" cx="40.95" cy="14.43" r="7.29"/>
	<circle class="st1" cx="40.95" cy="14.43" r="6.64"/>
	<linearGradient id="SVGID_1_" gradientUnits="userSpaceOnUse" x1="35.6758" y1="12.8889" x2="41.041" y2="9.7913">
		<stop  offset="0" style="stop-color:#8A4586"/>
		<stop  offset="1" style="stop-color:#3D4989"/>
	</linearGradient>
	<path class="st2" d="M40.07,8.1c-2.24,0.31-4.1,1.78-4.97,3.78h7.15L40.07,8.1z"/>
	<g class="st3">
		<polygon class="st4" points="42.25,11.88 40.07,8.1 40.07,8.1 40.03,8.12 42.2,11.88 42.25,11.88 42.25,11.88 		"/>
		<polygon class="st5" points="42.24,11.88 40.06,8.1 40.06,8.1 40.02,8.12 42.2,11.88 42.24,11.88 42.24,11.88 		"/>
		<polygon class="st6" points="42.23,11.88 40.05,8.11 40.05,8.11 40.02,8.12 42.19,11.88 42.23,11.88 42.23,11.88 		"/>
		<polygon class="st7" points="42.23,11.88 40.04,8.11 40.04,8.11 40.01,8.13 42.18,11.88 42.23,11.88 42.23,11.88 		"/>
		<polygon class="st8" points="42.22,11.88 40.04,8.11 40.04,8.11 40,8.13 42.17,11.88 42.22,11.88 42.22,11.88 		"/>
		<polygon class="st9" points="42.21,11.88 40.03,8.11 40.03,8.11 40,8.13 42.16,11.88 42.21,11.88 42.21,11.88 		"/>
		<polygon class="st10" points="42.2,11.88 40.02,8.11 40.02,8.11 39.99,8.13 42.16,11.88 42.2,11.88 42.2,11.88 		"/>
		<polygon class="st11" points="42.2,11.88 40.02,8.11 40.02,8.11 39.98,8.13 42.15,11.88 42.2,11.88 42.2,11.88 		"/>
		<polygon class="st12" points="42.19,11.88 40.01,8.11 40.01,8.11 39.98,8.13 42.14,11.88 42.19,11.88 42.19,11.88 		"/>
		<polygon class="st13" points="42.18,11.88 40,8.11 40,8.11 39.97,8.13 42.13,11.88 42.18,11.88 42.18,11.88 		"/>
		<polygon class="st14" points="42.17,11.88 40,8.12 40,8.12 39.96,8.14 42.13,11.88 42.17,11.88 42.17,11.88 		"/>
		<polygon class="st15" points="42.16,11.88 39.99,8.12 39.99,8.12 39.96,8.14 42.12,11.88 42.16,11.88 42.16,11.88 		"/>
		<polygon class="st16" points="42.16,11.88 39.98,8.12 39.98,8.12 39.95,8.14 42.11,11.88 42.16,11.88 42.16,11.88 		"/>
		<polygon class="st17" points="42.15,11.88 39.98,8.12 39.98,8.12 39.94,8.14 42.1,11.88 42.15,11.88 42.15,11.88 		"/>
		<polygon class="st18" points="42.14,11.88 39.97,8.12 39.97,8.12 39.93,8.14 42.1,11.88 42.14,11.88 42.14,11.88 		"/>
		<polygon class="st19" points="42.13,11.88 39.96,8.12 39.96,8.12 39.93,8.14 42.09,11.88 42.13,11.88 42.13,11.88 		"/>
		<polygon class="st20" points="42.13,11.88 39.96,8.12 39.96,8.12 39.92,8.14 42.08,11.88 42.13,11.88 42.13,11.88 		"/>
		<polygon class="st21" points="42.12,11.88 39.95,8.12 39.95,8.12 39.91,8.14 42.07,11.88 42.12,11.88 42.12,11.88 		"/>
		<polygon class="st22" points="42.11,11.88 39.94,8.13 39.94,8.13 39.91,8.15 42.06,11.88 42.11,11.88 42.11,11.88 		"/>
		<polygon class="st23" points="42.1,11.88 39.93,8.13 39.93,8.13 39.9,8.15 42.06,11.88 42.1,11.88 42.1,11.88 		"/>
		<polygon class="st24" points="42.1,11.88 39.93,8.13 39.93,8.13 39.89,8.15 42.05,11.88 42.1,11.88 42.1,11.88 		"/>
		<polygon class="st25" points="42.09,11.88 39.92,8.13 39.92,8.13 39.89,8.15 42.04,11.88 42.09,11.88 42.09,11.88 		"/>
		<polygon class="st26" points="42.08,11.88 39.91,8.13 39.91,8.13 39.88,8.15 42.03,11.88 42.08,11.88 42.08,11.88 		"/>
		<polygon class="st27" points="42.07,11.88 39.91,8.13 39.91,8.13 39.87,8.15 42.03,11.88 42.07,11.88 42.07,11.88 		"/>
		<polygon class="st28" points="42.06,11.88 39.9,8.13 39.9,8.13 39.87,8.15 42.02,11.88 42.06,11.88 42.06,11.88 		"/>
		<polygon class="st29" points="42.06,11.88 39.89,8.13 39.89,8.13 39.86,8.15 42.01,11.88 42.06,11.88 42.06,11.88 		"/>
		<polygon class="st30" points="42.05,11.88 39.89,8.14 39.89,8.14 39.85,8.16 42,11.88 42.05,11.88 42.05,11.88 		"/>
		<polygon class="st31" points="42.04,11.88 39.88,8.14 39.88,8.14 39.84,8.16 42,11.88 42.04,11.88 42.04,11.88 		"/>
		<polygon class="st32" points="42.03,11.88 39.87,8.14 39.87,8.14 39.84,8.16 41.99,11.88 42.03,11.88 42.03,11.88 		"/>
		<polygon class="st33" points="42.03,11.88 39.87,8.14 39.87,8.14 39.83,8.16 41.98,11.88 42.03,11.88 42.03,11.88 		"/>
		<polygon class="st34" points="42.02,11.88 39.86,8.14 39.86,8.14 39.82,8.16 41.97,11.88 42.02,11.88 42.02,11.88 		"/>
		<polygon class="st35" points="42.01,11.88 39.85,8.14 39.85,8.14 39.82,8.16 41.97,11.88 42.01,11.88 42.01,11.88 		"/>
		<polygon class="st36" points="42,11.88 39.84,8.14 39.84,8.14 39.81,8.16 41.96,11.88 42,11.88 42,11.88 		"/>
		<polygon class="st37" points="42,11.88 39.84,8.14 39.84,8.14 39.8,8.16 41.95,11.88 42,11.88 42,11.88 		"/>
		<polygon class="st38" points="41.99,11.88 39.83,8.15 39.83,8.15 39.8,8.17 41.94,11.88 41.99,11.88 41.99,11.88 		"/>
		<polygon class="st39" points="41.98,11.88 39.82,8.15 39.82,8.15 39.79,8.17 41.93,11.88 41.98,11.88 41.98,11.88 		"/>
		<polygon class="st40" points="41.97,11.88 39.82,8.15 39.82,8.15 39.78,8.17 41.93,11.88 41.97,11.88 41.97,11.88 		"/>
		<polygon class="st41" points="41.97,11.88 39.81,8.15 39.81,8.15 39.78,8.17 41.92,11.88 41.97,11.88 41.97,11.88 		"/>
		<polygon class="st42" points="41.96,11.88 39.8,8.15 39.8,8.15 39.77,8.17 41.91,11.88 41.96,11.88 41.96,11.88 		"/>
		<polygon class="st43" points="41.95,11.88 39.8,8.15 39.8,8.15 39.76,8.17 41.9,11.88 41.95,11.88 41.95,11.88 		"/>
		<polygon class="st44" points="41.94,11.88 39.79,8.15 39.79,8.15 39.75,8.17 41.9,11.88 41.94,11.88 41.94,11.88 		"/>
		<polygon class="st45" points="41.93,11.88 39.78,8.16 39.78,8.16 39.75,8.18 41.89,11.88 41.93,11.88 41.93,11.88 		"/>
		<polygon class="st46" points="41.93,11.88 39.78,8.16 39.78,8.16 39.74,8.18 41.88,11.88 41.93,11.88 41.93,11.88 		"/>
		<polygon class="st47" points="41.92,11.88 39.77,8.16 39.77,8.16 39.73,8.18 41.87,11.88 41.92,11.88 41.92,11.88 		"/>
		<polygon class="st48" points="41.91,11.88 39.76,8.16 39.76,8.16 39.73,8.18 41.87,11.88 41.91,11.88 41.91,11.88 		"/>
		<polygon class="st49" points="41.9,11.88 39.75,8.16 39.75,8.16 39.72,8.18 41.86,11.88 41.9,11.88 41.9,11.88 		"/>
		<polygon class="st50" points="41.9,11.88 39.75,8.16 39.75,8.16 39.71,8.18 41.85,11.88 41.9,11.88 41.9,11.88 		"/>
		<polygon class="st51" points="41.89,11.88 39.74,8.16 39.74,8.16 39.71,8.18 41.84,11.88 41.89,11.88 41.89,11.88 		"/>
		<polygon class="st52" points="41.88,11.88 39.73,8.16 39.73,8.16 39.7,8.18 41.84,11.88 41.88,11.88 41.88,11.88 		"/>
		<polygon class="st53" points="41.87,11.88 39.73,8.17 39.73,8.17 39.69,8.19 41.83,11.88 41.87,11.88 41.87,11.88 		"/>
		<polygon class="st54" points="41.87,11.88 39.72,8.17 39.72,8.17 39.69,8.19 41.82,11.88 41.87,11.88 41.87,11.88 		"/>
		<polygon class="st55" points="41.86,11.88 39.71,8.17 39.71,8.17 39.68,8.19 41.81,11.88 41.86,11.88 41.86,11.88 		"/>
		<polygon class="st56" points="41.85,11.88 39.71,8.17 39.71,8.17 39.67,8.19 41.8,11.88 41.85,11.88 41.85,11.88 		"/>
		<polygon class="st57" points="41.84,11.88 39.7,8.17 39.7,8.17 39.66,8.19 41.8,11.88 41.84,11.88 41.84,11.88 		"/>
		<polygon class="st58" points="41.84,11.88 39.69,8.17 39.69,8.17 39.66,8.19 41.79,11.88 41.84,11.88 41.84,11.88 		"/>
		<polygon class="st59" points="41.83,11.88 39.69,8.17 39.69,8.17 39.65,8.19 41.78,11.88 41.83,11.88 41.83,11.88 		"/>
		<polygon class="st60" points="41.82,11.88 39.68,8.17 39.68,8.17 39.64,8.19 41.77,11.88 41.82,11.88 41.82,11.88 		"/>
		<polygon class="st61" points="41.81,11.88 39.67,8.18 39.67,8.18 39.64,8.2 41.77,11.88 41.81,11.88 41.81,11.88 		"/>
		<polygon class="st62" points="41.8,11.88 39.66,8.18 39.66,8.18 39.63,8.2 41.76,11.88 41.8,11.88 41.8,11.88 		"/>
		<polygon class="st63" points="41.8,11.88 39.66,8.18 39.66,8.18 39.62,8.2 41.75,11.88 41.8,11.88 41.8,11.88 		"/>
		<polygon class="st64" points="41.79,11.88 39.65,8.18 39.65,8.18 39.62,8.2 41.74,11.88 41.79,11.88 41.79,11.88 		"/>
		<polygon class="st65" points="41.78,11.88 39.64,8.18 39.64,8.18 39.61,8.2 41.74,11.88 41.78,11.88 41.78,11.88 		"/>
		<polygon class="st66" points="41.77,11.88 39.64,8.18 39.64,8.18 39.6,8.2 41.73,11.88 41.77,11.88 41.77,11.88 		"/>
		<polygon class="st67" points="41.77,11.88 39.63,8.18 39.63,8.18 39.6,8.2 41.72,11.88 41.77,11.88 41.77,11.88 		"/>
		<polygon class="st68" points="41.76,11.88 39.62,8.18 39.62,8.18 39.59,8.2 41.71,11.88 41.76,11.88 41.76,11.88 		"/>
		<polygon class="st69" points="41.75,11.88 39.62,8.19 39.62,8.19 39.58,8.21 41.7,11.88 41.75,11.88 41.75,11.88 		"/>
		<polygon class="st70" points="41.74,11.88 39.61,8.19 39.61,8.19 39.58,8.21 41.7,11.88 41.74,11.88 41.74,11.88 		"/>
		<polygon class="st71" points="41.74,11.88 39.6,8.19 39.6,8.19 39.57,8.21 41.69,11.88 41.74,11.88 41.74,11.88 		"/>
		<polygon class="st72" points="41.73,11.88 39.6,8.19 39.6,8.19 39.56,8.21 41.68,11.88 41.73,11.88 41.73,11.88 		"/>
		<polygon class="st73" points="41.72,11.88 39.59,8.19 39.59,8.19 39.55,8.21 41.67,11.88 41.72,11.88 41.72,11.88 		"/>
		<polygon class="st74" points="41.71,11.88 39.58,8.19 39.58,8.19 39.55,8.21 41.67,11.88 41.71,11.88 41.71,11.88 		"/>
		<polygon class="st75" points="41.71,11.88 39.57,8.19 39.57,8.19 39.54,8.21 41.66,11.88 41.7,11.88 41.71,11.88 		"/>
		<polygon class="st76" points="41.7,11.88 39.57,8.2 39.57,8.2 39.53,8.22 41.65,11.88 41.7,11.88 41.7,11.88 		"/>
		<polygon class="st77" points="41.69,11.88 39.56,8.2 39.56,8.2 39.53,8.22 41.64,11.88 41.69,11.88 41.69,11.88 		"/>
		<polygon class="st78" points="41.68,11.88 39.55,8.2 39.55,8.2 39.52,8.22 41.64,11.88 41.68,11.88 41.68,11.88 		"/>
		<polygon class="st79" points="41.67,11.88 39.55,8.2 39.55,8.2 39.51,8.22 41.63,11.88 41.67,11.88 41.67,11.88 		"/>
		<polygon class="st80" points="41.67,11.88 39.54,8.2 39.54,8.2 39.51,8.22 41.62,11.88 41.67,11.88 41.67,11.88 		"/>
		<polygon class="st81" points="41.66,11.88 39.53,8.2 39.53,8.2 39.5,8.22 41.61,11.88 41.66,11.88 41.66,11.88 		"/>
		<polygon class="st82" points="41.65,11.88 39.53,8.2 39.53,8.2 39.49,8.22 41.61,11.88 41.65,11.88 41.65,11.88 		"/>
		<polygon class="st83" points="41.64,11.88 39.52,8.2 39.52,8.2 39.49,8.22 41.6,11.88 41.64,11.88 41.64,11.88 		"/>
		<polygon class="st84" points="41.64,11.88 39.51,8.21 39.51,8.21 39.48,8.23 41.59,11.88 41.64,11.88 41.64,11.88 		"/>
		<polygon class="st85" points="41.63,11.88 39.51,8.21 39.51,8.21 39.47,8.23 41.58,11.88 41.63,11.88 41.63,11.88 		"/>
	</g>
	
		<linearGradient id="SVGID_00000039106256257183997900000013192564274607974060_" gradientUnits="userSpaceOnUse" x1="35.5923" y1="13.836" x2="40.9573" y2="10.7385" gradientTransform="matrix(0.5001 0.866 -0.866 0.5001 33.8287 -28.6554)">
		<stop  offset="0" style="stop-color:#F0CC1D"/>
		<stop  offset="1" style="stop-color:#DEA926"/>
	</linearGradient>
	<path style="fill:url(#SVGID_00000039106256257183997900000013192564274607974060_);" d="M45.99,10.49
		c-1.39-1.78-3.59-2.66-5.76-2.41l3.58,6.19L45.99,10.49z"/>
	<g class="st3">
		<polygon class="st4" points="43.8,14.28 45.99,10.49 45.99,10.49 45.95,10.48 43.78,14.24 43.8,14.28 43.8,14.28 		"/>
		<polygon class="st5" points="43.8,14.27 45.98,10.49 45.98,10.49 45.95,10.47 43.78,14.23 43.8,14.27 43.8,14.27 		"/>
		<polygon class="st6" points="43.8,14.26 45.98,10.48 45.98,10.48 45.94,10.46 43.77,14.22 43.8,14.26 43.8,14.26 		"/>
		<polygon class="st7" points="43.79,14.26 45.97,10.48 45.97,10.48 45.94,10.46 43.77,14.22 43.79,14.26 43.79,14.26 		"/>
		<polygon class="st8" points="43.79,14.25 45.97,10.47 45.97,10.47 45.93,10.45 43.77,14.21 43.79,14.25 43.79,14.25 		"/>
		<polygon class="st9" points="43.79,14.24 45.96,10.47 45.96,10.47 45.93,10.45 43.76,14.2 43.79,14.24 43.79,14.24 		"/>
		<polygon class="st10" points="43.78,14.24 45.96,10.46 45.96,10.46 45.92,10.44 43.76,14.2 43.78,14.24 43.78,14.24 		"/>
		<polygon class="st11" points="43.78,14.23 45.95,10.46 45.95,10.46 45.92,10.44 43.75,14.19 43.78,14.23 43.78,14.23 		"/>
		<polygon class="st12" points="43.77,14.22 45.95,10.45 45.95,10.45 45.92,10.43 43.75,14.18 43.77,14.22 43.77,14.22 		"/>
		<polygon class="st13" points="43.77,14.22 45.95,10.45 45.95,10.45 45.91,10.43 43.75,14.18 43.77,14.22 43.77,14.22 		"/>
		<polygon class="st14" points="43.77,14.21 45.94,10.44 45.94,10.44 45.91,10.42 43.74,14.17 43.77,14.21 43.77,14.21 		"/>
		<polygon class="st15" points="43.76,14.2 45.94,10.44 45.94,10.44 45.9,10.42 43.74,14.16 43.76,14.2 43.76,14.2 		"/>
		<polygon class="st16" points="43.76,14.2 45.93,10.43 45.93,10.43 45.9,10.41 43.74,14.16 43.76,14.2 43.76,14.2 		"/>
		<polygon class="st17" points="43.75,14.19 45.93,10.43 45.93,10.43 45.89,10.41 43.73,14.15 43.75,14.19 43.75,14.19 		"/>
		<polygon class="st18" points="43.75,14.18 45.92,10.42 45.92,10.42 45.89,10.4 43.73,14.14 43.75,14.18 43.75,14.18 		"/>
		<polygon class="st19" points="43.75,14.18 45.92,10.41 45.92,10.41 45.88,10.39 43.72,14.14 43.75,14.18 43.75,14.18 		"/>
		<polygon class="st20" points="43.74,14.17 45.91,10.41 45.91,10.41 45.88,10.39 43.72,14.13 43.74,14.17 43.74,14.17 		"/>
		<polygon class="st21" points="43.74,14.16 45.91,10.4 45.91,10.4 45.87,10.38 43.72,14.12 43.74,14.16 43.74,14.16 		"/>
		<polygon class="st22" points="43.74,14.16 45.9,10.4 45.9,10.4 45.87,10.38 43.71,14.12 43.74,14.16 43.74,14.16 		"/>
		<polygon class="st23" points="43.73,14.15 45.9,10.39 45.9,10.39 45.87,10.37 43.71,14.11 43.73,14.15 43.73,14.15 		"/>
		<polygon class="st24" points="43.73,14.14 45.9,10.39 45.9,10.39 45.86,10.37 43.7,14.1 43.73,14.14 43.73,14.14 		"/>
		<polygon class="st25" points="43.72,14.14 45.89,10.38 45.89,10.38 45.86,10.36 43.7,14.1 43.72,14.14 43.72,14.14 		"/>
		<polygon class="st26" points="43.72,14.13 45.89,10.38 45.89,10.38 45.85,10.36 43.7,14.09 43.72,14.13 43.72,14.13 		"/>
		<polygon class="st27" points="43.72,14.12 45.88,10.37 45.88,10.37 45.85,10.35 43.69,14.08 43.72,14.12 43.72,14.12 		"/>
		<polygon class="st28" points="43.71,14.12 45.88,10.37 45.88,10.37 45.84,10.35 43.69,14.08 43.71,14.12 43.71,14.12 		"/>
		<polygon class="st29" points="43.71,14.11 45.87,10.36 45.87,10.36 45.84,10.34 43.69,14.07 43.71,14.11 43.71,14.11 		"/>
		<polygon class="st30" points="43.7,14.1 45.87,10.36 45.87,10.36 45.83,10.34 43.68,14.06 43.7,14.1 43.7,14.1 		"/>
		<polygon class="st31" points="43.7,14.1 45.86,10.35 45.86,10.35 45.83,10.33 43.68,14.06 43.7,14.1 43.7,14.1 		"/>
		<polygon class="st32" points="43.7,14.09 45.86,10.35 45.86,10.35 45.82,10.33 43.67,14.05 43.7,14.09 43.7,14.09 		"/>
		<polygon class="st33" points="43.69,14.08 45.85,10.34 45.85,10.34 45.82,10.32 43.67,14.04 43.69,14.08 43.69,14.08 		"/>
		<polygon class="st34" points="43.69,14.08 45.85,10.33 45.85,10.33 45.82,10.31 43.67,14.04 43.69,14.08 43.69,14.08 		"/>
		<polygon class="st35" points="43.69,14.07 45.85,10.33 45.85,10.33 45.81,10.31 43.66,14.03 43.69,14.07 43.69,14.07 		"/>
		<polygon class="st36" points="43.68,14.06 45.84,10.32 45.84,10.32 45.81,10.3 43.66,14.02 43.68,14.06 43.68,14.06 		"/>
		<polygon class="st37" points="43.68,14.06 45.84,10.32 45.84,10.32 45.8,10.3 43.65,14.02 43.68,14.06 43.68,14.06 		"/>
		<polygon class="st38" points="43.67,14.05 45.83,10.31 45.83,10.31 45.8,10.29 43.65,14.01 43.67,14.05 43.67,14.05 		"/>
		<polygon class="st39" points="43.67,14.04 45.83,10.31 45.83,10.31 45.79,10.29 43.65,14 43.67,14.04 43.67,14.04 		"/>
		<polygon class="st40" points="43.67,14.04 45.82,10.3 45.82,10.3 45.79,10.28 43.64,14 43.67,14.04 43.67,14.04 		"/>
		<polygon class="st41" points="43.66,14.03 45.82,10.3 45.82,10.3 45.78,10.28 43.64,13.99 43.66,14.03 43.66,14.03 		"/>
		<polygon class="st42" points="43.66,14.02 45.81,10.29 45.81,10.29 45.78,10.27 43.64,13.98 43.66,14.02 43.66,14.02 		"/>
		<polygon class="st43" points="43.65,14.02 45.81,10.29 45.81,10.29 45.77,10.27 43.63,13.98 43.65,14.02 43.65,14.02 		"/>
		<polygon class="st44" points="43.65,14.01 45.8,10.28 45.8,10.28 45.77,10.26 43.63,13.97 43.65,14.01 43.65,14.01 		"/>
		<polygon class="st45" points="43.65,14 45.8,10.28 45.8,10.28 45.76,10.26 43.62,13.96 43.65,14 43.65,14 		"/>
		<polygon class="st46" points="43.64,14 45.79,10.27 45.79,10.27 45.76,10.25 43.62,13.96 43.64,14 43.64,14 		"/>
		<polygon class="st47" points="43.64,13.99 45.79,10.27 45.79,10.27 45.76,10.25 43.62,13.95 43.64,13.99 43.64,13.99 		"/>
		<polygon class="st48" points="43.64,13.98 45.79,10.26 45.79,10.26 45.75,10.24 43.61,13.94 43.64,13.98 43.64,13.98 		"/>
		<polygon class="st49" points="43.63,13.98 45.78,10.25 45.78,10.25 45.75,10.23 43.61,13.94 43.63,13.98 43.63,13.98 		"/>
		<polygon class="st50" points="43.63,13.97 45.78,10.25 45.78,10.25 45.74,10.23 43.61,13.93 43.63,13.97 43.63,13.97 		"/>
		<polygon class="st51" points="43.62,13.96 45.77,10.24 45.77,10.24 45.74,10.22 43.6,13.92 43.62,13.96 43.62,13.96 		"/>
		<polygon class="st52" points="43.62,13.96 45.77,10.24 45.77,10.24 45.73,10.22 43.6,13.92 43.62,13.96 43.62,13.96 		"/>
		<polygon class="st53" points="43.62,13.95 45.76,10.23 45.76,10.23 45.73,10.21 43.59,13.91 43.62,13.95 43.62,13.95 		"/>
		<polygon class="st54" points="43.61,13.94 45.76,10.23 45.76,10.23 45.72,10.21 43.59,13.9 43.61,13.94 43.61,13.94 		"/>
		<polygon class="st55" points="43.61,13.94 45.75,10.22 45.75,10.22 45.72,10.2 43.59,13.9 43.61,13.94 43.61,13.94 		"/>
		<polygon class="st56" points="43.61,13.93 45.75,10.22 45.75,10.22 45.71,10.2 43.58,13.89 43.61,13.93 43.61,13.93 		"/>
		<polygon class="st57" points="43.6,13.92 45.74,10.21 45.74,10.21 45.71,10.19 43.58,13.88 43.6,13.92 43.6,13.92 		"/>
		<polygon class="st58" points="43.6,13.92 45.74,10.21 45.74,10.21 45.71,10.19 43.57,13.88 43.6,13.92 43.6,13.92 		"/>
		<polygon class="st59" points="43.59,13.91 45.74,10.2 45.74,10.2 45.7,10.18 43.57,13.87 43.59,13.91 43.59,13.91 		"/>
		<polygon class="st60" points="43.59,13.9 45.73,10.2 45.73,10.2 45.7,10.18 43.57,13.86 43.59,13.9 43.59,13.9 		"/>
		<polygon class="st61" points="43.59,13.9 45.73,10.19 45.73,10.19 45.69,10.17 43.56,13.86 43.59,13.9 43.59,13.9 		"/>
		<polygon class="st62" points="43.58,13.89 45.72,10.19 45.72,10.19 45.69,10.17 43.56,13.85 43.58,13.89 43.58,13.89 		"/>
		<polygon class="st63" points="43.58,13.88 45.72,10.18 45.72,10.18 45.68,10.16 43.56,13.84 43.58,13.88 43.58,13.88 		"/>
		<polygon class="st64" points="43.57,13.88 45.71,10.17 45.71,10.17 45.68,10.15 43.55,13.84 43.57,13.88 43.57,13.88 		"/>
		<polygon class="st65" points="43.57,13.87 45.71,10.17 45.71,10.17 45.67,10.15 43.55,13.83 43.57,13.87 43.57,13.87 		"/>
		<polygon class="st66" points="43.57,13.86 45.7,10.16 45.7,10.16 45.67,10.14 43.54,13.83 43.57,13.86 43.57,13.86 		"/>
		<polygon class="st67" points="43.56,13.86 45.7,10.16 45.7,10.16 45.66,10.14 43.54,13.82 43.56,13.86 43.56,13.86 		"/>
		<polygon class="st68" points="43.56,13.85 45.69,10.15 45.69,10.15 45.66,10.13 43.54,13.81 43.56,13.85 43.56,13.85 		"/>
		<polygon class="st69" points="43.56,13.84 45.69,10.15 45.69,10.15 45.66,10.13 43.53,13.81 43.56,13.84 43.56,13.84 		"/>
		<polygon class="st70" points="43.55,13.84 45.69,10.14 45.69,10.14 45.65,10.12 43.53,13.8 43.55,13.84 43.55,13.84 		"/>
		<polygon class="st71" points="43.55,13.83 45.68,10.14 45.68,10.14 45.65,10.12 43.52,13.79 43.55,13.83 43.55,13.83 		"/>
		<polygon class="st72" points="43.54,13.83 45.68,10.13 45.68,10.13 45.64,10.11 43.52,13.79 43.54,13.83 43.54,13.83 		"/>
		<polygon class="st73" points="43.54,13.82 45.67,10.13 45.67,10.13 45.64,10.11 43.52,13.78 43.54,13.82 43.54,13.82 		"/>
		<polygon class="st74" points="43.54,13.81 45.67,10.12 45.67,10.12 45.63,10.1 43.51,13.77 43.54,13.81 43.54,13.81 		"/>
		<polygon class="st75" points="43.53,13.81 45.66,10.12 45.66,10.12 45.63,10.1 43.51,13.77 43.53,13.81 43.53,13.81 		"/>
		<polygon class="st76" points="43.53,13.8 45.66,10.11 45.66,10.11 45.62,10.09 43.51,13.76 43.53,13.8 43.53,13.8 		"/>
		<polygon class="st77" points="43.52,13.79 45.65,10.1 45.65,10.1 45.62,10.08 43.5,13.75 43.52,13.79 43.52,13.79 		"/>
		<polygon class="st78" points="43.52,13.79 45.65,10.1 45.65,10.1 45.61,10.08 43.5,13.75 43.52,13.79 43.52,13.79 		"/>
		<polygon class="st79" points="43.52,13.78 45.64,10.09 45.64,10.09 45.61,10.07 43.49,13.74 43.52,13.78 43.52,13.78 		"/>
		<polygon class="st80" points="43.51,13.77 45.64,10.09 45.64,10.09 45.6,10.07 43.49,13.73 43.51,13.77 43.51,13.77 		"/>
		<polygon class="st81" points="43.51,13.77 45.63,10.08 45.63,10.08 45.6,10.06 43.49,13.73 43.51,13.77 43.51,13.77 		"/>
		<polygon class="st82" points="43.51,13.76 45.63,10.08 45.63,10.08 45.6,10.06 43.48,13.72 43.51,13.76 43.51,13.76 		"/>
		<polygon class="st83" points="43.5,13.75 45.63,10.07 45.63,10.07 45.59,10.05 43.48,13.71 43.5,13.75 43.5,13.75 		"/>
		<polygon class="st84" points="43.5,13.75 45.62,10.07 45.62,10.07 45.59,10.05 43.47,13.71 43.5,13.75 43.5,13.75 		"/>
		<polygon class="st85" points="43.49,13.74 45.62,10.06 45.62,10.06 45.58,10.04 43.47,13.7 43.49,13.74 43.49,13.74 		"/>
	</g>
	
		<linearGradient id="SVGID_00000039823466643562409870000001825308675249552262_" gradientUnits="userSpaceOnUse" x1="36.9672" y1="13.6786" x2="42.3324" y2="10.581" gradientTransform="matrix(-0.4999 0.8661 -0.8661 -0.4999 75.2518 -14.5553)">
		<stop  offset="0" style="stop-color:#5CA983"/>
		<stop  offset="1" style="stop-color:#5591C1"/>
	</linearGradient>
	<path style="fill:url(#SVGID_00000039823466643562409870000001825308675249552262_);" d="M46.88,16.82
		c0.85-2.09,0.51-4.44-0.79-6.2l-3.58,6.2L46.88,16.82z"/>
	<g class="st3">
		<polygon class="st4" points="42.51,16.82 46.88,16.82 46.88,16.82 46.88,16.78 42.53,16.78 42.51,16.82 42.51,16.82 		"/>
		<polygon class="st5" points="42.51,16.81 46.88,16.81 46.88,16.81 46.88,16.77 42.54,16.77 42.51,16.81 42.51,16.81 		"/>
		<polygon class="st6" points="42.52,16.81 46.88,16.81 46.88,16.81 46.88,16.77 42.54,16.77 42.52,16.81 42.52,16.81 		"/>
		<polygon class="st7" points="42.52,16.8 46.88,16.8 46.88,16.8 46.88,16.76 42.54,16.76 42.52,16.8 42.52,16.8 		"/>
		<polygon class="st8" points="42.53,16.79 46.89,16.79 46.89,16.79 46.89,16.75 42.55,16.75 42.53,16.79 42.53,16.79 		"/>
		<polygon class="st9" points="42.53,16.79 46.89,16.79 46.89,16.79 46.89,16.75 42.55,16.75 42.53,16.79 42.53,16.79 		"/>
		<polygon class="st10" points="42.53,16.78 46.89,16.78 46.89,16.78 46.89,16.74 42.56,16.74 42.53,16.78 42.53,16.78 		"/>
		<polygon class="st11" points="42.54,16.77 46.89,16.77 46.89,16.77 46.89,16.73 42.56,16.73 42.54,16.77 42.54,16.77 		"/>
		<polygon class="st12" points="42.54,16.77 46.89,16.77 46.89,16.77 46.89,16.73 42.56,16.73 42.54,16.77 42.54,16.77 		"/>
		<polygon class="st13" points="42.54,16.76 46.9,16.76 46.9,16.76 46.9,16.72 42.57,16.72 42.54,16.76 42.54,16.76 		"/>
		<polygon class="st14" points="42.55,16.75 46.9,16.75 46.9,16.75 46.9,16.71 42.57,16.71 42.55,16.75 42.55,16.75 		"/>
		<polygon class="st15" points="42.55,16.75 46.9,16.75 46.9,16.75 46.9,16.71 42.58,16.71 42.55,16.75 42.55,16.75 		"/>
		<polygon class="st16" points="42.56,16.74 46.9,16.74 46.9,16.74 46.9,16.7 42.58,16.7 42.56,16.74 42.56,16.74 		"/>
		<polygon class="st17" points="42.56,16.73 46.91,16.73 46.91,16.73 46.91,16.69 42.58,16.69 42.56,16.73 42.56,16.73 		"/>
		<polygon class="st18" points="42.56,16.73 46.91,16.73 46.91,16.73 46.91,16.69 42.59,16.69 42.56,16.73 42.56,16.73 		"/>
		<polygon class="st19" points="42.57,16.72 46.91,16.72 46.91,16.72 46.91,16.68 42.59,16.68 42.57,16.72 42.57,16.72 		"/>
		<polygon class="st20" points="42.57,16.71 46.91,16.71 46.91,16.71 46.91,16.67 42.59,16.67 42.57,16.71 42.57,16.71 		"/>
		<polygon class="st21" points="42.58,16.71 46.92,16.71 46.92,16.71 46.92,16.67 42.6,16.67 42.58,16.71 42.58,16.71 		"/>
		<polygon class="st22" points="42.58,16.7 46.92,16.7 46.92,16.7 46.92,16.66 42.6,16.66 42.58,16.7 42.58,16.7 		"/>
		<polygon class="st23" points="42.58,16.69 46.92,16.69 46.92,16.69 46.92,16.65 42.61,16.65 42.58,16.69 42.58,16.69 		"/>
		<polygon class="st24" points="42.59,16.69 46.92,16.69 46.92,16.69 46.92,16.65 42.61,16.65 42.59,16.69 42.59,16.69 		"/>
		<polygon class="st25" points="42.59,16.68 46.92,16.68 46.92,16.68 46.92,16.64 42.61,16.64 42.59,16.68 42.59,16.68 		"/>
		<polygon class="st26" points="42.59,16.67 46.93,16.67 46.93,16.67 46.93,16.63 42.62,16.63 42.59,16.67 42.59,16.67 		"/>
		<polygon class="st27" points="42.6,16.67 46.93,16.67 46.93,16.67 46.93,16.63 42.62,16.63 42.6,16.67 42.6,16.67 		"/>
		<polygon class="st28" points="42.6,16.66 46.93,16.66 46.93,16.66 46.93,16.62 42.62,16.62 42.6,16.66 42.6,16.66 		"/>
		<polygon class="st29" points="42.61,16.65 46.93,16.65 46.93,16.65 46.93,16.61 42.63,16.61 42.61,16.65 42.61,16.65 		"/>
		<polygon class="st30" points="42.61,16.65 46.94,16.65 46.94,16.65 46.94,16.61 42.63,16.61 42.61,16.65 42.61,16.65 		"/>
		<polygon class="st31" points="42.61,16.64 46.94,16.64 46.94,16.64 46.94,16.6 42.64,16.6 42.61,16.64 42.61,16.64 		"/>
		<polygon class="st32" points="42.62,16.63 46.94,16.63 46.94,16.63 46.94,16.59 42.64,16.59 42.62,16.63 42.62,16.63 		"/>
		<polygon class="st33" points="42.62,16.63 46.94,16.63 46.94,16.63 46.94,16.59 42.64,16.59 42.62,16.63 42.62,16.63 		"/>
		<polygon class="st34" points="42.62,16.62 46.95,16.62 46.95,16.62 46.95,16.58 42.65,16.58 42.62,16.62 42.62,16.62 		"/>
		<polygon class="st35" points="42.63,16.61 46.95,16.61 46.95,16.61 46.95,16.57 42.65,16.57 42.63,16.61 42.63,16.61 		"/>
		<polygon class="st36" points="42.63,16.61 46.95,16.61 46.95,16.61 46.95,16.57 42.66,16.57 42.63,16.61 42.63,16.61 		"/>
		<polygon class="st37" points="42.64,16.6 46.95,16.6 46.95,16.6 46.95,16.56 42.66,16.56 42.64,16.6 42.64,16.6 		"/>
		<polygon class="st38" points="42.64,16.59 46.96,16.59 46.96,16.59 46.96,16.55 42.66,16.55 42.64,16.59 42.64,16.59 		"/>
		<polygon class="st39" points="42.64,16.59 46.96,16.59 46.96,16.59 46.96,16.55 42.67,16.55 42.64,16.59 42.64,16.59 		"/>
		<polygon class="st40" points="42.65,16.58 46.96,16.58 46.96,16.58 46.96,16.54 42.67,16.54 42.65,16.58 42.65,16.58 		"/>
		<polygon class="st41" points="42.65,16.57 46.96,16.57 46.96,16.57 46.96,16.53 42.67,16.53 42.65,16.57 42.65,16.57 		"/>
		<polygon class="st42" points="42.66,16.57 46.96,16.57 46.96,16.57 46.96,16.53 42.68,16.53 42.66,16.57 42.66,16.57 		"/>
		<polygon class="st43" points="42.66,16.56 46.97,16.56 46.97,16.56 46.97,16.52 42.68,16.52 42.66,16.56 42.66,16.56 		"/>
		<polygon class="st44" points="42.66,16.55 46.97,16.55 46.97,16.55 46.97,16.51 42.69,16.51 42.66,16.55 42.66,16.55 		"/>
		<polygon class="st45" points="42.67,16.55 46.97,16.55 46.97,16.55 46.97,16.51 42.69,16.51 42.67,16.55 42.67,16.55 		"/>
		<polygon class="st46" points="42.67,16.54 46.97,16.54 46.97,16.54 46.97,16.5 42.69,16.5 42.67,16.54 42.67,16.54 		"/>
		<polygon class="st47" points="42.67,16.53 46.98,16.53 46.98,16.53 46.98,16.49 42.7,16.49 42.67,16.53 42.67,16.53 		"/>
		<polygon class="st48" points="42.68,16.53 46.98,16.53 46.98,16.53 46.98,16.49 42.7,16.49 42.68,16.53 42.68,16.53 		"/>
		<polygon class="st49" points="42.68,16.52 46.98,16.52 46.98,16.52 46.98,16.48 42.71,16.48 42.68,16.52 42.68,16.52 		"/>
		<polygon class="st50" points="42.69,16.51 46.98,16.51 46.98,16.51 46.98,16.47 42.71,16.47 42.69,16.51 42.69,16.51 		"/>
		<polygon class="st51" points="42.69,16.51 46.99,16.51 46.99,16.51 46.99,16.47 42.71,16.47 42.69,16.51 42.69,16.51 		"/>
		<polygon class="st52" points="42.69,16.5 46.99,16.5 46.99,16.5 46.99,16.46 42.72,16.46 42.69,16.5 42.69,16.5 		"/>
		<polygon class="st53" points="42.7,16.49 46.99,16.49 46.99,16.49 46.99,16.45 42.72,16.45 42.7,16.49 42.7,16.49 		"/>
		<polygon class="st54" points="42.7,16.49 46.99,16.49 46.99,16.49 46.99,16.45 42.72,16.45 42.7,16.49 42.7,16.49 		"/>
		<polygon class="st55" points="42.71,16.48 47,16.48 47,16.48 47,16.44 42.73,16.44 42.71,16.48 42.71,16.48 		"/>
		<polygon class="st56" points="42.71,16.47 47,16.47 47,16.47 47,16.43 42.73,16.43 42.71,16.47 42.71,16.47 		"/>
		<polygon class="st57" points="42.71,16.47 47,16.47 47,16.47 47,16.43 42.74,16.43 42.71,16.47 42.71,16.47 		"/>
		<polygon class="st58" points="42.72,16.46 47,16.46 47,16.46 47,16.42 42.74,16.42 42.72,16.46 42.72,16.46 		"/>
		<polygon class="st59" points="42.72,16.45 47,16.45 47,16.45 47,16.41 42.74,16.41 42.72,16.45 42.72,16.45 		"/>
		<polygon class="st60" points="42.72,16.45 47.01,16.45 47.01,16.45 47.01,16.41 42.75,16.41 42.72,16.45 42.72,16.45 		"/>
		<polygon class="st61" points="42.73,16.44 47.01,16.44 47.01,16.44 47.01,16.4 42.75,16.4 42.73,16.44 42.73,16.44 		"/>
		<polygon class="st62" points="42.73,16.43 47.01,16.43 47.01,16.43 47.01,16.39 42.75,16.4 42.73,16.43 42.73,16.43 		"/>
		<polygon class="st63" points="42.74,16.43 47.01,16.43 47.01,16.43 47.01,16.39 42.76,16.39 42.74,16.43 42.74,16.43 		"/>
		<polygon class="st64" points="42.74,16.42 47.02,16.42 47.02,16.42 47.02,16.38 42.76,16.38 42.74,16.42 42.74,16.42 		"/>
		<polygon class="st65" points="42.74,16.42 47.02,16.41 47.02,16.41 47.02,16.37 42.77,16.38 42.74,16.42 42.74,16.42 		"/>
		<polygon class="st66" points="42.75,16.41 47.02,16.41 47.02,16.41 47.02,16.37 42.77,16.37 42.75,16.41 42.75,16.41 		"/>
		<polygon class="st67" points="42.75,16.4 47.02,16.4 47.02,16.4 47.02,16.36 42.77,16.36 42.75,16.4 42.75,16.4 		"/>
		<polygon class="st68" points="42.75,16.4 47.03,16.39 47.03,16.39 47.03,16.35 42.78,16.36 42.75,16.4 42.75,16.4 		"/>
		<polygon class="st69" points="42.76,16.39 47.03,16.39 47.03,16.39 47.03,16.35 42.78,16.35 42.76,16.39 42.76,16.39 		"/>
		<polygon class="st70" points="42.76,16.38 47.03,16.38 47.03,16.38 47.03,16.34 42.79,16.34 42.76,16.38 42.76,16.38 		"/>
		<polygon class="st71" points="42.77,16.38 47.03,16.37 47.03,16.37 47.03,16.33 42.79,16.34 42.77,16.38 42.77,16.38 		"/>
		<polygon class="st72" points="42.77,16.37 47.03,16.37 47.03,16.37 47.03,16.33 42.79,16.33 42.77,16.37 42.77,16.37 		"/>
		<polygon class="st73" points="42.77,16.36 47.04,16.36 47.04,16.36 47.04,16.32 42.8,16.32 42.77,16.36 42.77,16.36 		"/>
		<polygon class="st74" points="42.78,16.36 47.04,16.35 47.04,16.35 47.04,16.31 42.8,16.32 42.78,16.36 42.78,16.36 		"/>
		<polygon class="st75" points="42.78,16.35 47.04,16.35 47.04,16.35 47.04,16.31 42.8,16.31 42.78,16.35 42.78,16.35 		"/>
		<polygon class="st76" points="42.79,16.34 47.04,16.34 47.04,16.34 47.04,16.3 42.81,16.3 42.79,16.34 42.79,16.34 		"/>
		<polygon class="st77" points="42.79,16.34 47.05,16.33 47.05,16.33 47.05,16.3 42.81,16.3 42.79,16.34 42.79,16.34 		"/>
		<polygon class="st78" points="42.79,16.33 47.05,16.33 47.05,16.33 47.05,16.29 42.82,16.29 42.79,16.33 42.79,16.33 		"/>
		<polygon class="st79" points="42.8,16.32 47.05,16.32 47.05,16.32 47.05,16.28 42.82,16.28 42.8,16.32 42.8,16.32 		"/>
		<polygon class="st80" points="42.8,16.32 47.05,16.31 47.05,16.31 47.05,16.28 42.82,16.28 42.8,16.32 42.8,16.32 		"/>
		<polygon class="st81" points="42.8,16.31 47.06,16.31 47.06,16.31 47.06,16.27 42.83,16.27 42.8,16.31 42.8,16.31 		"/>
		<polygon class="st82" points="42.81,16.3 47.06,16.3 47.06,16.3 47.06,16.26 42.83,16.26 42.81,16.3 42.81,16.3 		"/>
		<polygon class="st83" points="42.81,16.3 47.06,16.3 47.06,16.3 47.06,16.26 42.84,16.26 42.81,16.3 42.81,16.3 		"/>
		<polygon class="st84" points="42.82,16.29 47.06,16.29 47.06,16.29 47.06,16.25 42.84,16.25 42.82,16.29 42.82,16.29 		"/>
		<polygon class="st85" points="42.82,16.28 47.07,16.28 47.07,16.28 47.07,16.24 42.84,16.24 42.82,16.28 42.82,16.28 		"/>
	</g>
	
		<linearGradient id="SVGID_00000017512641305404771250000010527208045179462549_" gradientUnits="userSpaceOnUse" x1="37.4638" y1="13.0972" x2="42.8291" y2="9.9995" gradientTransform="matrix(-1 2.000000e-04 -2.000000e-04 -1 83.6993 29.0535)">
		<stop  offset="0" style="stop-color:#D5CD26"/>
		<stop  offset="1" style="stop-color:#9FB73D"/>
	</linearGradient>
	<path style="fill:url(#SVGID_00000017512641305404771250000010527208045179462549_);" d="M41.84,20.75
		c2.24-0.31,4.1-1.78,4.97-3.78l-7.15,0L41.84,20.75z"/>
	<g class="st3">
		<polygon class="st4" points="39.66,16.97 41.84,20.75 41.84,20.75 41.88,20.73 39.71,16.97 39.66,16.97 39.66,16.97 		"/>
		<polygon class="st5" points="39.67,16.97 41.85,20.75 41.85,20.75 41.89,20.73 39.71,16.97 39.67,16.97 39.67,16.97 		"/>
		<polygon class="st6" points="39.68,16.97 41.86,20.75 41.86,20.75 41.89,20.73 39.72,16.97 39.68,16.97 39.68,16.97 		"/>
		<polygon class="st7" points="39.68,16.97 41.86,20.75 41.86,20.75 41.9,20.73 39.73,16.97 39.68,16.97 39.68,16.97 		"/>
		<polygon class="st8" points="39.69,16.97 41.87,20.75 41.87,20.75 41.91,20.73 39.74,16.97 39.69,16.97 39.69,16.97 		"/>
		<polygon class="st9" points="39.7,16.97 41.88,20.74 41.88,20.74 41.91,20.72 39.74,16.97 39.7,16.97 39.7,16.97 		"/>
		<polygon class="st10" points="39.71,16.97 41.89,20.74 41.89,20.74 41.92,20.72 39.75,16.97 39.71,16.97 39.71,16.97 		"/>
		<polygon class="st11" points="39.71,16.97 41.89,20.74 41.89,20.74 41.93,20.72 39.76,16.97 39.71,16.97 39.71,16.97 		"/>
		<polygon class="st12" points="39.72,16.97 41.9,20.74 41.9,20.74 41.93,20.72 39.77,16.97 39.72,16.97 39.72,16.97 		"/>
		<polygon class="st13" points="39.73,16.97 41.91,20.74 41.91,20.74 41.94,20.72 39.77,16.97 39.73,16.97 39.73,16.97 		"/>
		<polygon class="st14" points="39.74,16.97 41.91,20.74 41.91,20.74 41.95,20.72 39.78,16.97 39.74,16.97 39.74,16.97 		"/>
		<polygon class="st15" points="39.74,16.97 41.92,20.74 41.92,20.74 41.95,20.72 39.79,16.97 39.74,16.97 39.74,16.97 		"/>
		<polygon class="st16" points="39.75,16.97 41.93,20.74 41.93,20.74 41.96,20.72 39.8,16.97 39.75,16.97 39.75,16.97 		"/>
		<polygon class="st17" points="39.76,16.97 41.93,20.73 41.93,20.73 41.97,20.71 39.81,16.97 39.76,16.97 39.76,16.97 		"/>
		<polygon class="st18" points="39.77,16.97 41.94,20.73 41.94,20.73 41.98,20.71 39.81,16.97 39.77,16.97 39.77,16.97 		"/>
		<polygon class="st19" points="39.77,16.97 41.95,20.73 41.95,20.73 41.98,20.71 39.82,16.97 39.77,16.97 39.77,16.97 		"/>
		<polygon class="st20" points="39.78,16.97 41.95,20.73 41.95,20.73 41.99,20.71 39.83,16.97 39.78,16.97 39.78,16.97 		"/>
		<polygon class="st21" points="39.79,16.97 41.96,20.73 41.96,20.73 42,20.71 39.84,16.97 39.79,16.97 39.79,16.97 		"/>
		<polygon class="st22" points="39.8,16.97 41.97,20.73 41.97,20.73 42,20.71 39.84,16.97 39.8,16.97 39.8,16.97 		"/>
		<polygon class="st23" points="39.81,16.97 41.98,20.73 41.98,20.73 42.01,20.71 39.85,16.97 39.81,16.97 39.81,16.97 		"/>
		<polygon class="st24" points="39.81,16.97 41.98,20.73 41.98,20.73 42.02,20.71 39.86,16.97 39.81,16.97 39.81,16.97 		"/>
		<polygon class="st25" points="39.82,16.97 41.99,20.72 41.99,20.72 42.02,20.7 39.87,16.97 39.82,16.97 39.82,16.97 		"/>
		<polygon class="st26" points="39.83,16.97 42,20.72 42,20.72 42.03,20.7 39.87,16.97 39.83,16.97 39.83,16.97 		"/>
		<polygon class="st27" points="39.84,16.97 42,20.72 42,20.72 42.04,20.7 39.88,16.97 39.84,16.97 39.84,16.97 		"/>
		<polygon class="st28" points="39.84,16.97 42.01,20.72 42.01,20.72 42.04,20.7 39.89,16.97 39.84,16.97 39.84,16.97 		"/>
		<polygon class="st29" points="39.85,16.97 42.02,20.72 42.02,20.72 42.05,20.7 39.9,16.97 39.85,16.97 39.85,16.97 		"/>
		<polygon class="st30" points="39.86,16.97 42.02,20.72 42.02,20.72 42.06,20.7 39.91,16.97 39.86,16.97 39.86,16.97 		"/>
		<polygon class="st31" points="39.87,16.97 42.03,20.72 42.03,20.72 42.06,20.7 39.91,16.97 39.87,16.97 39.87,16.97 		"/>
		<polygon class="st32" points="39.87,16.97 42.04,20.71 42.04,20.71 42.07,20.7 39.92,16.97 39.87,16.97 39.87,16.97 		"/>
		<polygon class="st33" points="39.88,16.97 42.04,20.71 42.04,20.71 42.08,20.69 39.93,16.97 39.88,16.97 39.88,16.97 		"/>
		<polygon class="st34" points="39.89,16.97 42.05,20.71 42.05,20.71 42.09,20.69 39.94,16.97 39.89,16.97 39.89,16.97 		"/>
		<polygon class="st35" points="39.9,16.97 42.06,20.71 42.06,20.71 42.09,20.69 39.94,16.97 39.9,16.97 39.9,16.97 		"/>
		<polygon class="st36" points="39.91,16.97 42.06,20.71 42.06,20.71 42.1,20.69 39.95,16.97 39.91,16.97 39.91,16.97 		"/>
		<polygon class="st37" points="39.91,16.97 42.07,20.71 42.07,20.71 42.11,20.69 39.96,16.97 39.91,16.97 39.91,16.97 		"/>
		<polygon class="st38" points="39.92,16.97 42.08,20.71 42.08,20.71 42.11,20.69 39.97,16.97 39.92,16.97 39.92,16.97 		"/>
		<polygon class="st39" points="39.93,16.97 42.09,20.71 42.09,20.71 42.12,20.69 39.97,16.97 39.93,16.97 39.93,16.97 		"/>
		<polygon class="st40" points="39.94,16.97 42.09,20.7 42.09,20.7 42.13,20.68 39.98,16.97 39.94,16.97 39.94,16.97 		"/>
		<polygon class="st41" points="39.94,16.97 42.1,20.7 42.1,20.7 42.13,20.68 39.99,16.97 39.94,16.97 39.94,16.97 		"/>
		<polygon class="st42" points="39.95,16.97 42.11,20.7 42.11,20.7 42.14,20.68 40,16.97 39.95,16.97 39.95,16.97 		"/>
		<polygon class="st43" points="39.96,16.97 42.11,20.7 42.11,20.7 42.15,20.68 40,16.97 39.96,16.97 39.96,16.97 		"/>
		<polygon class="st44" points="39.97,16.97 42.12,20.7 42.12,20.7 42.15,20.68 40.01,16.97 39.97,16.97 39.97,16.97 		"/>
		<polygon class="st45" points="39.97,16.97 42.13,20.7 42.13,20.7 42.16,20.68 40.02,16.97 39.97,16.97 39.97,16.97 		"/>
		<polygon class="st46" points="39.98,16.97 42.13,20.7 42.13,20.7 42.17,20.68 40.03,16.97 39.98,16.97 39.98,16.97 		"/>
		<polygon class="st47" points="39.99,16.97 42.14,20.7 42.14,20.7 42.18,20.68 40.04,16.97 39.99,16.97 39.99,16.97 		"/>
		<polygon class="st48" points="40,16.97 42.15,20.69 42.15,20.69 42.18,20.67 40.04,16.97 40,16.97 40,16.97 		"/>
		<polygon class="st49" points="40,16.97 42.15,20.69 42.15,20.69 42.19,20.67 40.05,16.97 40,16.97 40,16.97 		"/>
		<polygon class="st50" points="40.01,16.97 42.16,20.69 42.16,20.69 42.2,20.67 40.06,16.97 40.01,16.97 40.01,16.97 		"/>
		<polygon class="st51" points="40.02,16.97 42.17,20.69 42.17,20.69 42.2,20.67 40.07,16.97 40.02,16.97 40.02,16.97 		"/>
		<polygon class="st52" points="40.03,16.97 42.18,20.69 42.18,20.69 42.21,20.67 40.07,16.97 40.03,16.97 40.03,16.97 		"/>
		<polygon class="st53" points="40.04,16.97 42.18,20.69 42.18,20.69 42.22,20.67 40.08,16.97 40.04,16.97 40.04,16.97 		"/>
		<polygon class="st54" points="40.04,16.97 42.19,20.69 42.19,20.69 42.22,20.67 40.09,16.97 40.04,16.97 40.04,16.97 		"/>
		<polygon class="st55" points="40.05,16.97 42.2,20.69 42.2,20.69 42.23,20.67 40.1,16.97 40.05,16.97 40.05,16.97 		"/>
		<polygon class="st56" points="40.06,16.97 42.2,20.68 42.2,20.68 42.24,20.66 40.1,16.97 40.06,16.97 40.06,16.97 		"/>
		<polygon class="st57" points="40.07,16.97 42.21,20.68 42.21,20.68 42.24,20.66 40.11,16.97 40.07,16.97 40.07,16.97 		"/>
		<polygon class="st58" points="40.07,16.97 42.22,20.68 42.22,20.68 42.25,20.66 40.12,16.97 40.07,16.97 40.07,16.97 		"/>
		<polygon class="st59" points="40.08,16.97 42.22,20.68 42.22,20.68 42.26,20.66 40.13,16.97 40.08,16.97 40.08,16.97 		"/>
		<polygon class="st60" points="40.09,16.97 42.23,20.68 42.23,20.68 42.27,20.66 40.13,16.97 40.09,16.97 40.09,16.97 		"/>
		<polygon class="st61" points="40.1,16.97 42.24,20.68 42.24,20.68 42.27,20.66 40.14,16.97 40.1,16.97 40.1,16.97 		"/>
		<polygon class="st62" points="40.1,16.97 42.24,20.68 42.24,20.68 42.28,20.66 40.15,16.97 40.1,16.97 40.1,16.97 		"/>
		<polygon class="st63" points="40.11,16.97 42.25,20.68 42.25,20.68 42.29,20.66 40.16,16.97 40.11,16.97 40.11,16.97 		"/>
		<polygon class="st64" points="40.12,16.97 42.26,20.67 42.26,20.67 42.29,20.65 40.17,16.97 40.12,16.97 40.12,16.97 		"/>
		<polygon class="st65" points="40.13,16.97 42.27,20.67 42.27,20.67 42.3,20.65 40.17,16.97 40.13,16.97 40.13,16.97 		"/>
		<polygon class="st66" points="40.13,16.97 42.27,20.67 42.27,20.67 42.31,20.65 40.18,16.97 40.13,16.97 40.13,16.97 		"/>
		<polygon class="st67" points="40.14,16.97 42.28,20.67 42.28,20.67 42.31,20.65 40.19,16.97 40.14,16.97 40.14,16.97 		"/>
		<polygon class="st68" points="40.15,16.97 42.29,20.67 42.29,20.67 42.32,20.65 40.2,16.97 40.15,16.97 40.15,16.97 		"/>
		<polygon class="st69" points="40.16,16.97 42.29,20.67 42.29,20.67 42.33,20.65 40.2,16.97 40.16,16.97 40.16,16.97 		"/>
		<polygon class="st70" points="40.17,16.97 42.3,20.67 42.3,20.67 42.33,20.65 40.21,16.97 40.17,16.97 40.17,16.97 		"/>
		<polygon class="st71" points="40.17,16.97 42.31,20.66 42.31,20.66 42.34,20.64 40.22,16.97 40.17,16.97 40.17,16.97 		"/>
		<polygon class="st72" points="40.18,16.97 42.31,20.66 42.31,20.66 42.35,20.64 40.23,16.97 40.18,16.97 40.18,16.97 		"/>
		<polygon class="st73" points="40.19,16.97 42.32,20.66 42.32,20.66 42.36,20.64 40.23,16.97 40.19,16.97 40.19,16.97 		"/>
		<polygon class="st74" points="40.2,16.97 42.33,20.66 42.33,20.66 42.36,20.64 40.24,16.97 40.2,16.97 40.2,16.97 		"/>
		<polygon class="st75" points="40.2,16.97 42.33,20.66 42.33,20.66 42.37,20.64 40.25,16.97 40.2,16.97 40.2,16.97 		"/>
		<polygon class="st76" points="40.21,16.97 42.34,20.66 42.34,20.66 42.38,20.64 40.26,16.97 40.21,16.97 40.21,16.97 		"/>
		<polygon class="st77" points="40.22,16.97 42.35,20.66 42.35,20.66 42.38,20.64 40.27,16.97 40.22,16.97 40.22,16.97 		"/>
		<polygon class="st78" points="40.23,16.97 42.36,20.66 42.36,20.66 42.39,20.64 40.27,16.97 40.23,16.97 40.23,16.97 		"/>
		<polygon class="st79" points="40.23,16.97 42.36,20.65 42.36,20.65 42.4,20.63 40.28,16.97 40.23,16.97 40.23,16.97 		"/>
		<polygon class="st80" points="40.24,16.97 42.37,20.65 42.37,20.65 42.4,20.63 40.29,16.97 40.24,16.97 40.24,16.97 		"/>
		<polygon class="st81" points="40.25,16.97 42.38,20.65 42.38,20.65 42.41,20.63 40.3,16.97 40.25,16.97 40.25,16.97 		"/>
		<polygon class="st82" points="40.26,16.97 42.38,20.65 42.38,20.65 42.42,20.63 40.3,16.97 40.26,16.97 40.26,16.97 		"/>
		<polygon class="st83" points="40.27,16.97 42.39,20.65 42.39,20.65 42.42,20.63 40.31,16.97 40.27,16.97 40.27,16.97 		"/>
		<polygon class="st84" points="40.27,16.97 42.4,20.65 42.4,20.65 42.43,20.63 40.32,16.97 40.27,16.97 40.27,16.97 		"/>
		<polygon class="st85" points="40.28,16.97 42.4,20.65 42.4,20.65 42.44,20.63 40.33,16.97 40.28,16.97 40.28,16.97 		"/>
	</g>
	
		<linearGradient id="SVGID_00000127738422832513011510000017899292417402355881_" gradientUnits="userSpaceOnUse" x1="37.2661" y1="12.1133" x2="42.6314" y2="9.0156" gradientTransform="matrix(-0.5002 -0.8659 0.8659 -0.5002 50.4144 58.0946)">
		<stop  offset="0" style="stop-color:#49BAE5"/>
		<stop  offset="1" style="stop-color:#4F569A"/>
	</linearGradient>
	<path style="fill:url(#SVGID_00000127738422832513011510000017899292417402355881_);" d="M35.92,18.36
		c1.39,1.78,3.59,2.66,5.76,2.41l-3.58-6.19L35.92,18.36z"/>
	<g class="st3">
		<polygon class="st4" points="38.1,14.58 35.92,18.36 35.92,18.36 35.96,18.38 38.13,14.62 38.1,14.58 38.1,14.58 		"/>
		<polygon class="st5" points="38.11,14.58 35.93,18.36 35.93,18.36 35.96,18.38 38.13,14.62 38.11,14.58 38.11,14.58 		"/>
		<polygon class="st6" points="38.11,14.59 35.93,18.37 35.93,18.37 35.97,18.39 38.13,14.63 38.11,14.59 38.11,14.59 		"/>
		<polygon class="st7" points="38.12,14.6 35.94,18.38 35.94,18.38 35.97,18.4 38.14,14.64 38.12,14.6 38.12,14.6 		"/>
		<polygon class="st8" points="38.12,14.6 35.94,18.38 35.94,18.38 35.98,18.4 38.14,14.64 38.12,14.6 38.12,14.6 		"/>
		<polygon class="st9" points="38.12,14.61 35.95,18.39 35.95,18.39 35.98,18.41 38.15,14.65 38.12,14.61 38.12,14.61 		"/>
		<polygon class="st10" points="38.13,14.62 35.95,18.39 35.95,18.39 35.98,18.41 38.15,14.66 38.13,14.62 38.13,14.62 		"/>
		<polygon class="st11" points="38.13,14.62 35.95,18.4 35.95,18.4 35.99,18.42 38.15,14.66 38.13,14.62 38.13,14.62 		"/>
		<polygon class="st12" points="38.13,14.63 35.96,18.4 35.96,18.4 35.99,18.42 38.16,14.67 38.13,14.63 38.13,14.63 		"/>
		<polygon class="st13" points="38.14,14.64 35.96,18.41 35.96,18.41 36,18.43 38.16,14.68 38.14,14.64 38.14,14.64 		"/>
		<polygon class="st14" points="38.14,14.64 35.97,18.41 35.97,18.41 36,18.43 38.17,14.68 38.14,14.64 38.14,14.64 		"/>
		<polygon class="st15" points="38.15,14.65 35.97,18.42 35.97,18.42 36.01,18.44 38.17,14.69 38.15,14.65 38.15,14.65 		"/>
		<polygon class="st16" points="38.15,14.66 35.98,18.42 35.98,18.42 36.01,18.44 38.17,14.7 38.15,14.66 38.15,14.66 		"/>
		<polygon class="st17" points="38.15,14.66 35.98,18.43 35.98,18.43 36.02,18.45 38.18,14.7 38.15,14.66 38.15,14.66 		"/>
		<polygon class="st18" points="38.16,14.67 35.99,18.43 35.99,18.43 36.02,18.45 38.18,14.71 38.16,14.67 38.16,14.67 		"/>
		<polygon class="st19" points="38.16,14.68 35.99,18.44 35.99,18.44 36.03,18.46 38.18,14.72 38.16,14.68 38.16,14.68 		"/>
		<polygon class="st20" points="38.17,14.68 36,18.45 36,18.45 36.03,18.47 38.19,14.72 38.17,14.68 38.17,14.68 		"/>
		<polygon class="st21" points="38.17,14.69 36,18.45 36,18.45 36.03,18.47 38.19,14.73 38.17,14.69 38.17,14.69 		"/>
		<polygon class="st22" points="38.17,14.7 36,18.46 36,18.46 36.04,18.48 38.2,14.74 38.17,14.7 38.17,14.7 		"/>
		<polygon class="st23" points="38.18,14.7 36.01,18.46 36.01,18.46 36.04,18.48 38.2,14.74 38.18,14.7 38.18,14.7 		"/>
		<polygon class="st24" points="38.18,14.71 36.01,18.47 36.01,18.47 36.05,18.49 38.2,14.75 38.18,14.71 38.18,14.71 		"/>
		<polygon class="st25" points="38.18,14.72 36.02,18.47 36.02,18.47 36.05,18.49 38.21,14.76 38.18,14.72 38.18,14.72 		"/>
		<polygon class="st26" points="38.19,14.72 36.02,18.48 36.02,18.48 36.06,18.5 38.21,14.76 38.19,14.72 38.19,14.72 		"/>
		<polygon class="st27" points="38.19,14.73 36.03,18.48 36.03,18.48 36.06,18.5 38.22,14.77 38.19,14.73 38.19,14.73 		"/>
		<polygon class="st28" points="38.2,14.74 36.03,18.49 36.03,18.49 36.07,18.51 38.22,14.78 38.2,14.74 38.2,14.74 		"/>
		<polygon class="st29" points="38.2,14.74 36.04,18.49 36.04,18.49 36.07,18.51 38.22,14.78 38.2,14.74 38.2,14.74 		"/>
		<polygon class="st30" points="38.2,14.75 36.04,18.5 36.04,18.5 36.08,18.52 38.23,14.79 38.2,14.75 38.2,14.75 		"/>
		<polygon class="st31" points="38.21,14.76 36.05,18.5 36.05,18.5 36.08,18.52 38.23,14.8 38.21,14.76 38.21,14.76 		"/>
		<polygon class="st32" points="38.21,14.76 36.05,18.51 36.05,18.51 36.08,18.53 38.23,14.8 38.21,14.76 38.21,14.76 		"/>
		<polygon class="st33" points="38.22,14.77 36.05,18.51 36.05,18.51 36.09,18.53 38.24,14.81 38.22,14.77 38.22,14.77 		"/>
		<polygon class="st34" points="38.22,14.78 36.06,18.52 36.06,18.52 36.09,18.54 38.24,14.82 38.22,14.78 38.22,14.78 		"/>
		<polygon class="st35" points="38.22,14.78 36.06,18.53 36.06,18.53 36.1,18.55 38.25,14.82 38.22,14.78 38.22,14.78 		"/>
		<polygon class="st36" points="38.23,14.79 36.07,18.53 36.07,18.53 36.1,18.55 38.25,14.83 38.23,14.79 38.23,14.79 		"/>
		<polygon class="st37" points="38.23,14.8 36.07,18.54 36.07,18.54 36.11,18.56 38.25,14.84 38.23,14.8 38.23,14.8 		"/>
		<polygon class="st38" points="38.23,14.8 36.08,18.54 36.08,18.54 36.11,18.56 38.26,14.84 38.23,14.8 38.23,14.8 		"/>
		<polygon class="st39" points="38.24,14.81 36.08,18.55 36.08,18.55 36.12,18.57 38.26,14.85 38.24,14.81 38.24,14.81 		"/>
		<polygon class="st40" points="38.24,14.82 36.09,18.55 36.09,18.55 36.12,18.57 38.26,14.86 38.24,14.82 38.24,14.82 		"/>
		<polygon class="st41" points="38.25,14.82 36.09,18.56 36.09,18.56 36.13,18.58 38.27,14.86 38.25,14.82 38.25,14.82 		"/>
		<polygon class="st42" points="38.25,14.83 36.1,18.56 36.1,18.56 36.13,18.58 38.27,14.87 38.25,14.83 38.25,14.83 		"/>
		<polygon class="st43" points="38.25,14.84 36.1,18.57 36.1,18.57 36.14,18.59 38.28,14.88 38.25,14.84 38.25,14.84 		"/>
		<polygon class="st44" points="38.26,14.84 36.11,18.57 36.11,18.57 36.14,18.59 38.28,14.88 38.26,14.84 38.26,14.84 		"/>
		<polygon class="st45" points="38.26,14.85 36.11,18.58 36.11,18.58 36.14,18.6 38.28,14.89 38.26,14.85 38.26,14.85 		"/>
		<polygon class="st46" points="38.26,14.86 36.11,18.58 36.11,18.58 36.15,18.6 38.29,14.9 38.26,14.86 38.26,14.86 		"/>
		<polygon class="st47" points="38.27,14.86 36.12,18.59 36.12,18.59 36.15,18.61 38.29,14.9 38.27,14.86 38.27,14.86 		"/>
		<polygon class="st48" points="38.27,14.87 36.12,18.59 36.12,18.59 36.16,18.61 38.3,14.91 38.27,14.87 38.27,14.87 		"/>
		<polygon class="st49" points="38.28,14.88 36.13,18.6 36.13,18.6 36.16,18.62 38.3,14.92 38.28,14.88 38.28,14.88 		"/>
		<polygon class="st50" points="38.28,14.88 36.13,18.61 36.13,18.61 36.17,18.63 38.3,14.92 38.28,14.88 38.28,14.88 		"/>
		<polygon class="st51" points="38.28,14.89 36.14,18.61 36.14,18.61 36.17,18.63 38.31,14.93 38.28,14.89 38.28,14.89 		"/>
		<polygon class="st52" points="38.29,14.9 36.14,18.62 36.14,18.62 36.18,18.64 38.31,14.94 38.29,14.9 38.29,14.9 		"/>
		<polygon class="st53" points="38.29,14.9 36.15,18.62 36.15,18.62 36.18,18.64 38.31,14.94 38.29,14.9 38.29,14.9 		"/>
		<polygon class="st54" points="38.3,14.91 36.15,18.63 36.15,18.63 36.19,18.65 38.32,14.95 38.3,14.91 38.3,14.91 		"/>
		<polygon class="st55" points="38.3,14.92 36.16,18.63 36.16,18.63 36.19,18.65 38.32,14.96 38.3,14.92 38.3,14.92 		"/>
		<polygon class="st56" points="38.3,14.92 36.16,18.64 36.16,18.64 36.19,18.66 38.33,14.96 38.3,14.92 38.3,14.92 		"/>
		<polygon class="st57" points="38.31,14.93 36.16,18.64 36.16,18.64 36.2,18.66 38.33,14.97 38.31,14.93 38.31,14.93 		"/>
		<polygon class="st58" points="38.31,14.94 36.17,18.65 36.17,18.65 36.2,18.67 38.33,14.98 38.31,14.94 38.31,14.94 		"/>
		<polygon class="st59" points="38.31,14.94 36.17,18.65 36.17,18.65 36.21,18.67 38.34,14.98 38.31,14.94 38.31,14.94 		"/>
		<polygon class="st60" points="38.32,14.95 36.18,18.66 36.18,18.66 36.21,18.68 38.34,14.99 38.32,14.95 38.32,14.95 		"/>
		<polygon class="st61" points="38.32,14.96 36.18,18.66 36.18,18.66 36.22,18.68 38.35,15 38.32,14.96 38.32,14.96 		"/>
		<polygon class="st62" points="38.33,14.96 36.19,18.67 36.19,18.67 36.22,18.69 38.35,15 38.33,14.96 38.33,14.96 		"/>
		<polygon class="st63" points="38.33,14.97 36.19,18.67 36.19,18.67 36.23,18.69 38.35,15.01 38.33,14.97 38.33,14.97 		"/>
		<polygon class="st64" points="38.33,14.98 36.2,18.68 36.2,18.68 36.23,18.7 38.36,15.02 38.33,14.98 38.33,14.98 		"/>
		<polygon class="st65" points="38.34,14.98 36.2,18.69 36.2,18.69 36.24,18.71 38.36,15.02 38.34,14.98 38.34,14.98 		"/>
		<polygon class="st66" points="38.34,14.99 36.21,18.69 36.21,18.69 36.24,18.71 38.36,15.03 38.34,14.99 38.34,14.99 		"/>
		<polygon class="st67" points="38.35,15 36.21,18.7 36.21,18.7 36.24,18.72 38.37,15.04 38.35,15 38.35,15 		"/>
		<polygon class="st68" points="38.35,15 36.21,18.7 36.21,18.7 36.25,18.72 38.37,15.04 38.35,15 38.35,15 		"/>
		<polygon class="st69" points="38.35,15.01 36.22,18.71 36.22,18.71 36.25,18.73 38.38,15.05 38.35,15.01 38.35,15.01 		"/>
		<polygon class="st70" points="38.36,15.02 36.22,18.71 36.22,18.71 36.26,18.73 38.38,15.06 38.36,15.02 38.36,15.02 		"/>
		<polygon class="st71" points="38.36,15.02 36.23,18.72 36.23,18.72 36.26,18.74 38.38,15.06 38.36,15.02 38.36,15.02 		"/>
		<polygon class="st72" points="38.36,15.03 36.23,18.72 36.23,18.72 36.27,18.74 38.39,15.07 38.36,15.03 38.36,15.03 		"/>
		<polygon class="st73" points="38.37,15.04 36.24,18.73 36.24,18.73 36.27,18.75 38.39,15.08 38.37,15.04 38.37,15.04 		"/>
		<polygon class="st74" points="38.37,15.04 36.24,18.73 36.24,18.73 36.28,18.75 38.4,15.08 38.37,15.04 38.37,15.04 		"/>
		<polygon class="st75" points="38.38,15.05 36.25,18.74 36.25,18.74 36.28,18.76 38.4,15.09 38.38,15.05 38.38,15.05 		"/>
		<polygon class="st76" points="38.38,15.06 36.25,18.74 36.25,18.74 36.29,18.76 38.4,15.1 38.38,15.06 38.38,15.06 		"/>
		<polygon class="st77" points="38.38,15.06 36.26,18.75 36.26,18.75 36.29,18.77 38.41,15.1 38.38,15.06 38.38,15.06 		"/>
		<polygon class="st78" points="38.39,15.07 36.26,18.76 36.26,18.76 36.3,18.77 38.41,15.11 38.39,15.07 38.39,15.07 		"/>
		<polygon class="st79" points="38.39,15.08 36.27,18.76 36.27,18.76 36.3,18.78 38.41,15.12 38.39,15.08 38.39,15.08 		"/>
		<polygon class="st80" points="38.4,15.08 36.27,18.77 36.27,18.77 36.3,18.79 38.42,15.12 38.4,15.08 38.4,15.08 		"/>
		<polygon class="st81" points="38.4,15.09 36.27,18.77 36.27,18.77 36.31,18.79 38.42,15.13 38.4,15.09 38.4,15.09 		"/>
		<polygon class="st82" points="38.4,15.1 36.28,18.78 36.28,18.78 36.31,18.8 38.43,15.14 38.4,15.1 38.4,15.1 		"/>
		<polygon class="st83" points="38.41,15.1 36.28,18.78 36.28,18.78 36.32,18.8 38.43,15.14 38.41,15.1 38.41,15.1 		"/>
		<polygon class="st84" points="38.41,15.11 36.29,18.79 36.29,18.79 36.32,18.81 38.43,15.15 38.41,15.11 38.41,15.11 		"/>
		<polygon class="st85" points="38.41,15.12 36.29,18.79 36.29,18.79 36.33,18.81 38.44,15.16 38.41,15.12 38.41,15.12 		"/>
	</g>
	
		<linearGradient id="SVGID_00000054974712283022090920000003814255395862246042_" gradientUnits="userSpaceOnUse" x1="35.7933" y1="12.4269" x2="41.1584" y2="9.3293" gradientTransform="matrix(0.4997 -0.8662 0.8662 0.4997 8.3344 43.0247)">
		<stop  offset="0" style="stop-color:#E12040"/>
		<stop  offset="1" style="stop-color:#E1227D"/>
	</linearGradient>
	<path style="fill:url(#SVGID_00000054974712283022090920000003814255395862246042_);" d="M35.03,12.04
		c-0.85,2.09-0.51,4.44,0.79,6.19l3.58-6.2L35.03,12.04z"/>
	<g class="st3">
		<polygon class="st4" points="39.4,12.03 35.03,12.04 35.03,12.04 35.03,12.08 39.38,12.07 39.4,12.03 39.4,12.03 		"/>
		<polygon class="st5" points="39.39,12.04 35.03,12.04 35.03,12.04 35.03,12.08 39.37,12.08 39.39,12.04 39.39,12.04 		"/>
		<polygon class="st6" points="39.39,12.05 35.03,12.05 35.03,12.05 35.03,12.09 39.37,12.09 39.39,12.05 39.39,12.05 		"/>
		<polygon class="st7" points="39.39,12.05 35.03,12.06 35.03,12.06 35.03,12.1 39.36,12.09 39.39,12.05 39.39,12.05 		"/>
		<polygon class="st8" points="39.38,12.06 35.02,12.06 35.02,12.06 35.02,12.1 39.36,12.1 39.38,12.06 39.38,12.06 		"/>
		<polygon class="st9" points="39.38,12.07 35.02,12.07 35.02,12.07 35.02,12.11 39.36,12.11 39.38,12.07 39.38,12.07 		"/>
		<polygon class="st10" points="39.38,12.07 35.02,12.08 35.02,12.08 35.02,12.12 39.35,12.11 39.38,12.07 39.38,12.07 		"/>
		<polygon class="st11" points="39.37,12.08 35.02,12.08 35.02,12.08 35.02,12.12 39.35,12.12 39.37,12.08 39.37,12.08 		"/>
		<polygon class="st12" points="39.37,12.09 35.01,12.09 35.01,12.09 35.01,12.13 39.34,12.13 39.37,12.09 39.37,12.09 		"/>
		<polygon class="st13" points="39.36,12.09 35.01,12.1 35.01,12.1 35.01,12.14 39.34,12.13 39.36,12.09 39.36,12.09 		"/>
		<polygon class="st14" points="39.36,12.1 35.01,12.1 35.01,12.1 35.01,12.14 39.34,12.14 39.36,12.1 39.36,12.1 		"/>
		<polygon class="st15" points="39.36,12.11 35.01,12.11 35.01,12.11 35.01,12.15 39.33,12.15 39.36,12.11 39.36,12.11 		"/>
		<polygon class="st16" points="39.35,12.11 35,12.12 35,12.12 35,12.16 39.33,12.15 39.35,12.11 39.35,12.11 		"/>
		<polygon class="st17" points="39.35,12.12 35,12.12 35,12.12 35,12.16 39.33,12.16 39.35,12.12 39.35,12.12 		"/>
		<polygon class="st18" points="39.34,12.13 35,12.13 35,12.13 35,12.17 39.32,12.17 39.34,12.13 39.34,12.13 		"/>
		<polygon class="st19" points="39.34,12.13 35,12.14 35,12.14 35,12.18 39.32,12.17 39.34,12.13 39.34,12.13 		"/>
		<polygon class="st20" points="39.34,12.14 34.99,12.14 34.99,12.14 34.99,12.18 39.31,12.18 39.34,12.14 39.34,12.14 		"/>
		<polygon class="st21" points="39.33,12.15 34.99,12.15 34.99,12.15 34.99,12.19 39.31,12.19 39.33,12.15 39.33,12.15 		"/>
		<polygon class="st22" points="39.33,12.15 34.99,12.16 34.99,12.16 34.99,12.2 39.31,12.19 39.33,12.15 39.33,12.15 		"/>
		<polygon class="st23" points="39.33,12.16 34.99,12.16 34.99,12.16 34.99,12.2 39.3,12.2 39.33,12.16 39.33,12.16 		"/>
		<polygon class="st24" points="39.32,12.17 34.99,12.17 34.99,12.17 34.99,12.21 39.3,12.21 39.32,12.17 39.32,12.17 		"/>
		<polygon class="st25" points="39.32,12.17 34.98,12.18 34.98,12.18 34.98,12.21 39.29,12.21 39.32,12.17 39.32,12.17 		"/>
		<polygon class="st26" points="39.31,12.18 34.98,12.18 34.98,12.18 34.98,12.22 39.29,12.22 39.31,12.18 39.31,12.18 		"/>
		<polygon class="st27" points="39.31,12.19 34.98,12.19 34.98,12.19 34.98,12.23 39.29,12.23 39.31,12.19 39.31,12.19 		"/>
		<polygon class="st28" points="39.31,12.19 34.98,12.19 34.98,12.19 34.98,12.23 39.28,12.23 39.31,12.19 39.31,12.19 		"/>
		<polygon class="st29" points="39.3,12.2 34.97,12.2 34.97,12.2 34.97,12.24 39.28,12.24 39.3,12.2 39.3,12.2 		"/>
		<polygon class="st30" points="39.3,12.21 34.97,12.21 34.97,12.21 34.97,12.25 39.28,12.25 39.3,12.21 39.3,12.21 		"/>
		<polygon class="st31" points="39.29,12.21 34.97,12.21 34.97,12.21 34.97,12.25 39.27,12.25 39.29,12.21 39.29,12.21 		"/>
		<polygon class="st32" points="39.29,12.22 34.97,12.22 34.97,12.22 34.97,12.26 39.27,12.26 39.29,12.22 39.29,12.22 		"/>
		<polygon class="st33" points="39.29,12.23 34.96,12.23 34.96,12.23 34.96,12.27 39.26,12.27 39.29,12.23 39.29,12.23 		"/>
		<polygon class="st34" points="39.28,12.23 34.96,12.23 34.96,12.23 34.96,12.27 39.26,12.27 39.28,12.23 39.28,12.23 		"/>
		<polygon class="st35" points="39.28,12.24 34.96,12.24 34.96,12.24 34.96,12.28 39.26,12.28 39.28,12.24 39.28,12.24 		"/>
		<polygon class="st36" points="39.28,12.25 34.96,12.25 34.96,12.25 34.96,12.29 39.25,12.29 39.28,12.25 39.28,12.25 		"/>
		<polygon class="st37" points="39.27,12.25 34.95,12.25 34.95,12.25 34.95,12.29 39.25,12.29 39.27,12.25 39.27,12.25 		"/>
		<polygon class="st38" points="39.27,12.26 34.95,12.26 34.95,12.26 34.95,12.3 39.24,12.3 39.27,12.26 39.27,12.26 		"/>
		<polygon class="st39" points="39.26,12.27 34.95,12.27 34.95,12.27 34.95,12.31 39.24,12.31 39.26,12.27 39.26,12.27 		"/>
		<polygon class="st40" points="39.26,12.27 34.95,12.27 34.95,12.27 34.95,12.31 39.24,12.31 39.26,12.27 39.26,12.27 		"/>
		<polygon class="st41" points="39.26,12.28 34.95,12.28 34.95,12.28 34.95,12.32 39.23,12.32 39.26,12.28 39.26,12.28 		"/>
		<polygon class="st42" points="39.25,12.29 34.94,12.29 34.94,12.29 34.94,12.33 39.23,12.33 39.25,12.29 39.25,12.29 		"/>
		<polygon class="st43" points="39.25,12.29 34.94,12.29 34.94,12.29 34.94,12.33 39.23,12.33 39.25,12.29 39.25,12.29 		"/>
		<polygon class="st44" points="39.24,12.3 34.94,12.3 34.94,12.3 34.94,12.34 39.22,12.34 39.24,12.3 39.24,12.3 		"/>
		<polygon class="st45" points="39.24,12.31 34.94,12.31 34.94,12.31 34.94,12.35 39.22,12.35 39.24,12.31 39.24,12.31 		"/>
		<polygon class="st46" points="39.24,12.31 34.93,12.31 34.93,12.31 34.93,12.35 39.21,12.35 39.24,12.31 39.24,12.31 		"/>
		<polygon class="st47" points="39.23,12.32 34.93,12.32 34.93,12.32 34.93,12.36 39.21,12.36 39.23,12.32 39.23,12.32 		"/>
		<polygon class="st48" points="39.23,12.33 34.93,12.33 34.93,12.33 34.93,12.37 39.21,12.37 39.23,12.33 39.23,12.33 		"/>
		<polygon class="st49" points="39.23,12.33 34.93,12.33 34.93,12.33 34.93,12.37 39.2,12.37 39.23,12.33 39.23,12.33 		"/>
		<polygon class="st50" points="39.22,12.34 34.92,12.34 34.92,12.34 34.92,12.38 39.2,12.38 39.22,12.34 39.22,12.34 		"/>
		<polygon class="st51" points="39.22,12.35 34.92,12.35 34.92,12.35 34.92,12.39 39.2,12.39 39.22,12.35 39.22,12.35 		"/>
		<polygon class="st52" points="39.21,12.35 34.92,12.35 34.92,12.35 34.92,12.39 39.19,12.39 39.21,12.35 39.21,12.35 		"/>
		<polygon class="st53" points="39.21,12.36 34.92,12.36 34.92,12.36 34.92,12.4 39.19,12.4 39.21,12.36 39.21,12.36 		"/>
		<polygon class="st54" points="39.21,12.37 34.92,12.37 34.92,12.37 34.92,12.41 39.18,12.41 39.21,12.37 39.21,12.37 		"/>
		<polygon class="st55" points="39.2,12.37 34.91,12.37 34.91,12.37 34.91,12.41 39.18,12.41 39.2,12.37 39.2,12.37 		"/>
		<polygon class="st56" points="39.2,12.38 34.91,12.38 34.91,12.38 34.91,12.42 39.18,12.42 39.2,12.38 39.2,12.38 		"/>
		<polygon class="st57" points="39.2,12.39 34.91,12.39 34.91,12.39 34.91,12.43 39.17,12.43 39.2,12.39 39.2,12.39 		"/>
		<polygon class="st58" points="39.19,12.39 34.91,12.39 34.91,12.39 34.91,12.43 39.17,12.43 39.19,12.39 39.19,12.39 		"/>
		<polygon class="st59" points="39.19,12.4 34.9,12.4 34.9,12.4 34.9,12.44 39.16,12.44 39.19,12.4 39.19,12.4 		"/>
		<polygon class="st60" points="39.18,12.41 34.9,12.41 34.9,12.41 34.9,12.45 39.16,12.45 39.18,12.41 39.18,12.41 		"/>
		<polygon class="st61" points="39.18,12.41 34.9,12.41 34.9,12.41 34.9,12.45 39.16,12.45 39.18,12.41 39.18,12.41 		"/>
		<polygon class="st62" points="39.18,12.42 34.9,12.42 34.9,12.42 34.9,12.46 39.15,12.46 39.18,12.42 39.18,12.42 		"/>
		<polygon class="st63" points="39.17,12.43 34.89,12.43 34.89,12.43 34.89,12.47 39.15,12.47 39.17,12.43 39.17,12.43 		"/>
		<polygon class="st64" points="39.17,12.43 34.89,12.43 34.89,12.43 34.89,12.47 39.15,12.47 39.17,12.43 39.17,12.43 		"/>
		<polygon class="st65" points="39.16,12.44 34.89,12.44 34.89,12.44 34.89,12.48 39.14,12.48 39.16,12.44 39.16,12.44 		"/>
		<polygon class="st66" points="39.16,12.45 34.89,12.45 34.89,12.45 34.89,12.49 39.14,12.49 39.16,12.45 39.16,12.45 		"/>
		<polygon class="st67" points="39.16,12.45 34.88,12.45 34.88,12.45 34.88,12.49 39.13,12.49 39.16,12.45 39.16,12.45 		"/>
		<polygon class="st68" points="39.15,12.46 34.88,12.46 34.88,12.46 34.88,12.5 39.13,12.5 39.15,12.46 39.15,12.46 		"/>
		<polygon class="st69" points="39.15,12.47 34.88,12.47 34.88,12.47 34.88,12.51 39.13,12.51 39.15,12.47 39.15,12.47 		"/>
		<polygon class="st70" points="39.15,12.47 34.88,12.47 34.88,12.47 34.88,12.51 39.12,12.51 39.15,12.47 39.15,12.47 		"/>
		<polygon class="st71" points="39.14,12.48 34.88,12.48 34.88,12.48 34.88,12.52 39.12,12.52 39.14,12.48 39.14,12.48 		"/>
		<polygon class="st72" points="39.14,12.49 34.87,12.49 34.87,12.49 34.87,12.53 39.11,12.53 39.14,12.49 39.14,12.49 		"/>
		<polygon class="st73" points="39.13,12.49 34.87,12.49 34.87,12.49 34.87,12.53 39.11,12.53 39.13,12.49 39.13,12.49 		"/>
		<polygon class="st74" points="39.13,12.5 34.87,12.5 34.87,12.5 34.87,12.54 39.11,12.54 39.13,12.5 39.13,12.5 		"/>
		<polygon class="st75" points="39.13,12.51 34.87,12.51 34.87,12.51 34.87,12.55 39.1,12.55 39.13,12.51 39.13,12.51 		"/>
		<polygon class="st76" points="39.12,12.51 34.86,12.51 34.86,12.51 34.86,12.55 39.1,12.55 39.12,12.51 39.12,12.51 		"/>
		<polygon class="st77" points="39.12,12.52 34.86,12.52 34.86,12.52 34.86,12.56 39.1,12.56 39.12,12.52 39.12,12.52 		"/>
		<polygon class="st78" points="39.11,12.53 34.86,12.53 34.86,12.53 34.86,12.57 39.09,12.57 39.11,12.53 39.11,12.53 		"/>
		<polygon class="st79" points="39.11,12.53 34.86,12.53 34.86,12.53 34.86,12.57 39.09,12.57 39.11,12.53 39.11,12.53 		"/>
		<polygon class="st80" points="39.11,12.54 34.85,12.54 34.85,12.54 34.85,12.58 39.08,12.58 39.11,12.54 39.11,12.54 		"/>
		<polygon class="st81" points="39.1,12.55 34.85,12.55 34.85,12.55 34.85,12.59 39.08,12.58 39.1,12.55 39.1,12.55 		"/>
		<polygon class="st82" points="39.1,12.55 34.85,12.55 34.85,12.55 34.85,12.59 39.08,12.59 39.1,12.55 39.1,12.55 		"/>
		<polygon class="st83" points="39.1,12.56 34.85,12.56 34.85,12.56 34.85,12.6 39.07,12.6 39.1,12.56 39.1,12.56 		"/>
		<polygon class="st84" points="39.09,12.57 34.84,12.57 34.84,12.57 34.84,12.61 39.07,12.6 39.09,12.57 39.09,12.57 		"/>
		<polygon class="st85" points="39.09,12.57 34.84,12.57 34.84,12.57 34.84,12.61 39.06,12.61 39.09,12.57 39.09,12.57 		"/>
	</g>
	<g>
		<path class="st91" d="M40.95,21.19c-1.81,0-3.5-0.7-4.78-1.98c-1.28-1.28-1.98-2.98-1.98-4.78s0.7-3.5,1.98-4.78
			c1.28-1.28,2.98-1.98,4.78-1.98c1.81,0,3.5,0.7,4.78,1.98c1.28,1.28,1.98,2.98,1.98,4.78s-0.7,3.5-1.98,4.78
			C44.46,20.49,42.76,21.19,40.95,21.19z M40.95,7.92c-1.74,0-3.37,0.68-4.6,1.91c-1.23,1.23-1.91,2.87-1.91,4.6s0.68,3.37,1.91,4.6
			c1.23,1.23,2.87,1.91,4.6,1.91c1.74,0,3.37-0.68,4.6-1.91c1.23-1.23,1.91-2.87,1.91-4.6s-0.68-3.37-1.91-4.6
			C44.33,8.59,42.69,7.92,40.95,7.92z"/>
	</g>
</g>
<g>
	<path d="M48.44,21.91c-1.01,1.01-2.19,1.79-3.5,2.32c-1.27,0.51-2.61,0.77-3.98,0.77c-1.37,0-2.71-0.26-3.98-0.77
		c-1.31-0.53-2.49-1.31-3.5-2.32c-1.01-1.01-1.79-2.19-2.32-3.5c-0.51-1.27-0.77-2.61-0.77-3.98s0.26-2.71,0.77-3.98
		c0.53-1.31,1.31-2.49,2.32-3.5c1.01-1.01,2.19-1.79,3.5-2.32c1.27-0.51,2.61-0.77,3.98-0.77c1.37,0,2.71,0.26,3.98,0.77
		c1.31,0.53,2.49,1.31,3.5,2.32c1.01,1.01,1.79,2.19,2.32,3.5c0.51,1.27,0.77,2.61,0.77,3.98s-0.26,2.71-0.77,3.98
		C50.23,19.72,49.44,20.9,48.44,21.91z M34.83,8.31c-1.63,1.63-2.54,3.81-2.54,6.12s0.9,4.49,2.54,6.12
		c1.63,1.63,3.81,2.54,6.12,2.54c2.31,0,4.49-0.9,6.12-2.54c1.63-1.63,2.54-3.81,2.54-6.12s-0.9-4.49-2.54-6.12
		c-1.63-1.63-3.81-2.54-6.12-2.54C38.64,5.77,36.47,6.67,34.83,8.31z"/>
</g>
<path d="M44.3,11.08c1.85,1.85,1.85,4.84,0,6.68c-1.85,1.85-4.84,1.85-6.68,0c-1.85-1.85-1.85-4.84,0-6.68
	C39.46,9.24,42.45,9.24,44.3,11.08z"/>
<g>
	<path d="M28.22,5.3C7.58,19.32,0,9.37,0,9.37c1.24,2.1,11.04,11.68,31.55,0.74C52.05-0.84,68.91,16.2,68.91,16.2
		C63.26,8.7,48.86-8.73,28.22,5.3z"/>
	<path d="M53.69,23.56c20.64-14.03,28.22-4.07,28.22-4.07c-1.24-2.1-11.04-11.68-31.55-0.74C29.85,29.69,13,12.65,13,12.65
		C18.65,20.15,33.05,37.58,53.69,23.56z"/>
</g>
</svg>
