<?xml version="1.0" encoding="utf-8"?>
<!-- Generator: Adobe Illustrator 26.2.1, SVG Export Plug-In . SVG Version: 6.00 Build 0)  -->
<svg version="1.1" id="DESIGNED_BY_FREEPIK" xmlns="http://www.w3.org/2000/svg" xmlns:xlink="http://www.w3.org/1999/xlink"
	 x="0px" y="0px" viewBox="0 0 162.52 159.1" style="enable-background:new 0 0 162.52 159.1;" xml:space="preserve">
<style type="text/css">
	.st0{fill-rule:evenodd;clip-rule:evenodd;fill:#F9C52A;}
	.st1{fill-rule:evenodd;clip-rule:evenodd;fill:#E24157;}
	.st2{fill-rule:evenodd;clip-rule:evenodd;}
</style>
<g>
	<path class="st0" d="M3.96,35.93c-0.72,1.46-0.85,2.9-0.34,4.44C3.82,41,4.09,41.52,4.7,41.71c3.18,1.01,6.22,2.47,9.72,2.33
		c3.26-0.13,6.54,0.05,9.81,0.14c1.98,0.06,3.95,0.29,5.93,0.3c6.46,0.04,12.92,0.03,19.39,0c1.29,0,2.59-0.06,3.86-0.24
		c3.35-0.46,6.72-0.41,10.06-0.15c1.89,0.15,3.76,0.19,5.65,0.17c7.32-0.07,14.64-0.16,21.96-0.2c8.27-0.04,16.54-0.03,24.81-0.03
		c1.03,0,2.06,0.1,3.09,0.18c1.11,0.09,2.22,0.3,3.33,0.31c7.24,0.02,14.48,0.05,21.71-0.03c2.57-0.03,5.13-0.34,7.7-0.54
		c0.25-0.02,0.52-0.07,0.75-0.18c2.04-1.05,4.32-0.89,6.58-1.27c0.52-1.13,0.89-2.3,0.46-3.7c-0.96-0.03-1.81-0.09-2.66-0.09
		c-5.34-0.01-10.68,0.07-16.02-0.03c-2.83-0.05-5.65-0.39-8.48-0.61c-0.09-0.01-0.17-0.05-0.25-0.05c-1.28-0.12-2.56-0.32-3.85-0.33
		c-8.62-0.03-17.23-0.02-25.85-0.03c-1.03,0-2.07-0.06-3.1-0.12c-1.8-0.11-3.6-0.32-5.4-0.37c-2.5-0.07-5,0-7.49-0.03
		c-0.94-0.01-1.89-0.13-2.83-0.21c-1.11-0.09-2.22-0.28-3.34-0.29c-6.03-0.03-12.06-0.02-18.09,0c-1.12,0-2.23,0.13-3.35,0.22
		c-3.26,0.26-6.52,0.76-9.77,0.76C40.42,37.63,31.81,38,23.2,37.27c-3.94-0.33-7.91-0.13-11.87-0.53c-2.23-0.23-4.46-0.3-6.65-0.8
		C4.45,35.88,4.19,35.93,3.96,35.93z"/>
	<path class="st1" d="M160.2,36.01c0-2.37,0.22-4.46-0.05-6.49c-0.59-4.41-0.24-8.96-1.87-13.23c-0.09-0.24-0.07-0.51-0.1-0.77
		c-0.25-2.18-1.12-4.14-2.05-6.09c-0.46-0.96-1.17-1.67-2.14-2.16c-1.48-0.75-3.01-1.25-4.7-1.23c-2.76,0.03-5.51,0.06-8.24-0.44
		c-0.42-0.08-0.86-0.07-1.29-0.07c-4.99-0.05-9.99,0.17-14.96-0.5c-1.96-0.26-3.93-0.42-5.9-0.59c-3.85-0.34-7.71-0.89-11.57-0.94
		C97.17,3.37,87.01,3.49,76.84,3.41c-2.75-0.02-5.49-0.39-8.23-0.63c-0.94-0.08-1.88-0.32-2.82-0.33
		C60.02,2.41,54.25,2.11,48.52,3.1c-1.78,0.31-3.58,0.48-5.37,0.76c-4.96,0.76-9.97,0.81-14.95,0.51c-3.43-0.21-6.86-0.42-10.3-0.53
		c-2.9-0.09-5.63,0.59-8.36,1.36C9.12,5.32,8.7,5.46,8.33,5.67c-2.7,1.5-5.13,3.2-5.36,6.7c-0.04,0.67-0.39,1.32-0.53,1.99
		c-0.16,0.75-0.33,1.52-0.34,2.28c-0.04,4.22-0.04,8.44-0.04,12.66c0,0.43-0.07,0.96,0.15,1.26c0.99,1.36,1.8,2.83,3.81,3.11
		c3.93,0.54,7.87,0.73,11.82,0.92c2.58,0.13,5.16,0.15,7.74,0.25c1.55,0.06,3.09,0.25,4.64,0.26c6.12,0.03,12.23,0.03,18.35,0
		c1.63-0.01,3.26-0.18,4.89-0.31c2.83-0.22,5.65-0.63,8.48-0.67c6.11-0.1,12.23-0.04,18.35-0.03c0.86,0,1.75-0.07,2.57,0.13
		c1.7,0.43,3.42,0.37,5.14,0.38c2.5,0.01,5-0.02,7.49,0.01c0.94,0.01,1.89,0.12,2.83,0.19c1.28,0.1,2.57,0.3,3.85,0.3
		c8.53,0.03,17.06-0.04,25.58,0.04c3.09,0.03,6.17,0.36,9.26,0.56c0.25,0.02,0.5,0.12,0.76,0.15c0.94,0.11,1.87,0.28,2.81,0.29
		c5.69,0.03,11.37,0.02,17.06,0.01C158.4,36.15,159.15,36.07,160.2,36.01z"/>
	<path class="st1" d="M157.88,115.27c-0.48,0.43-0.8,0.82-1.21,1.04c-0.52,0.28-1.1,0.5-1.68,0.62c-2.19,0.46-4.38,0.96-6.59,1.26
		c-2.04,0.28-4.11,0.39-6.17,0.46c-2.15,0.08-4.31,0-6.46,0.01c-0.77,0-1.55,0.05-2.32,0.1c-2.06,0.13-4.12,0.31-6.18,0.38
		c-2.41,0.09-4.84-0.06-7.23,0.16c-3.18,0.29-6.36,0.36-9.55,0.35c-4.05-0.01-8.1-0.01-12.15-0.01c-1.28,0-2.57-0.16-3.72,0.72
		c-0.36,0.27-0.99,0.23-1.5,0.27c-0.77,0.06-1.55,0.06-2.32,0.11c-5.58,0.41-11.16,0.86-16.77,0.7c-3.27-0.09-6.55,0-9.82,0.03
		c-2.07,0.02-4.14,0.1-6.2,0.11c-0.68,0-1.47,0.09-2.02-0.21c-1.14-0.63-2.32-0.56-3.51-0.57c-3.18-0.04-6.37,0.19-9.53-0.44
		c-0.75-0.15-1.55-0.06-2.32-0.06c-6.29-0.01-12.58-0.05-18.87,0.01c-2.65,0.03-5.27-0.74-7.95-0.2c-0.55,0.11-1.19-0.14-1.78-0.24
		c-0.68-0.11-1.35-0.31-2.03-0.34c-1.45-0.06-2.63-0.74-3.8-1.46c-0.34-0.21-0.49-0.73-1.21-0.51c-0.76,1.99-1.27,4.13-1.25,6.38
		c0.03,5.77,0.03,11.55,0.05,17.32c0,0.52-0.08,1.06,0.05,1.55c0.72,2.72,0.39,5.48,0.48,8.23c0.03,0.93-0.18,1.9,0.33,2.94
		c0.45,0.18,0.98,0.51,1.55,0.6c1.7,0.25,3.44,0.27,5.11,0.64c3.16,0.71,6.35,0.36,9.52,0.46c1.03,0.03,2.07,0.07,3.1,0.13
		c1.97,0.12,3.94,0.32,5.92,0.37c2.67,0.06,5.34,0,8.01,0.02c0.86,0.01,1.72,0.07,2.58,0.14c1.45,0.11,2.91,0.39,4.36,0.34
		c3.44-0.13,6.87-0.41,10.3-0.63c0.17-0.01,0.34-0.07,0.51-0.08c1.2-0.1,2.4-0.28,3.6-0.28c15.51-0.02,31.02-0.01,46.54-0.01
		c0.77,0,1.58-0.07,2.32,0.12c1.7,0.44,3.42,0.39,5.14,0.39c2.76,0,5.52,0.01,8.27,0c0.77,0,1.56,0.01,2.32-0.1
		c3.84-0.52,7.67-1.09,11.56-0.96c0.6,0.02,1.2-0.12,1.8-0.18c1.11-0.11,2.22-0.27,3.33-0.3c1.72-0.05,3.45,0,5.17-0.02
		c2.51-0.02,4.96-0.35,7.28-1.43c0.83-0.39,1.82-0.45,2.74-0.62c0.5-0.09,1.01-0.11,1.58-0.17c0.9-2.39,1.37-4.81,1.47-7.3
		c0.12-3-0.3-6.03,0.5-9c0-4.31,0.13-8.62-0.06-12.92c-0.07-1.7-0.43-3.4-0.43-5.13C158.7,117.14,158.4,116.26,157.88,115.27z"/>
	<path class="st0" d="M146.67,140.08c0-1.61,0.01-2.97,0-4.34c-0.01-1.22-0.69-1.94-1.81-2.19c-1.43-0.32-2.87-0.58-4.32-0.76
		c-1.45-0.18-2.95-0.07-4.37-0.36c-3.25-0.65-6.52-0.47-9.79-0.48c-1.2,0-2.44,0.08-3.58,0.4c-2.11,0.6-4.25,0.56-6.39,0.59
		c-3.1,0.04-6.2,0.02-9.3-0.02c-1.29-0.01-2.58-0.13-3.87-0.21c-1.55-0.09-3.09-0.26-4.63-0.27c-11.11-0.02-22.22,0.01-33.33-0.03
		c-2.58-0.01-5.16-0.21-7.74-0.37c-3.35-0.21-6.69-0.57-10.05-0.68c-4.47-0.15-8.96-0.05-13.43-0.18c-3-0.09-6-0.44-9-0.56
		c-2.58-0.11-5.13-0.01-7.4,1.55c-0.99,0.68-1.61,1.44-1.78,2.66c-0.18,1.35-0.6,2.67-0.85,4.02c-0.1,0.57-0.02,1.16-0.02,1.86
		c1.43,0.62,2.9,0.67,4.34,0.83c6.94,0.75,13.92,0.99,20.89,1c19.21,0.04,38.41,0.02,57.62-0.02c2.58-0.01,5.15-0.26,7.73-0.44
		c1.03-0.07,2.05-0.26,3.08-0.36c3.86-0.4,7.72-0.39,11.6-0.21c5.07,0.24,10.16,0.2,15.24,0.23c0.85,0.01,1.73-0.1,2.54-0.33
		c2.17-0.63,4.37-0.95,6.61-1.06C145.26,140.33,145.85,140.2,146.67,140.08z"/>
	<g>
		<path class="st2" d="M156.69,46.55c0,0.65,0,1.07,0,1.5c0.03,10.77,0.04,21.54,0.1,32.31c0.01,1.46,0.23,2.91,0.31,4.37
			c0.1,1.98,0.14,3.96,0.22,5.94c0.03,0.66-0.16,1.35,0.59,1.85c0.24,0.16,0.32,0.83,0.21,1.18c-1.07,3.45-0.83,6.98-0.82,10.51
			c0,1.46,0.09,2.94-0.08,4.39c-0.23,1.9,0.6,3.38,1.76,4.6c1.29,1.35,1.8,2.9,1.93,4.64c0.22,2.83,0.46,5.66,0.55,8.49
			c0.1,2.75,0.03,5.51,0.03,8.27c0,0.69,0.07,1.4-0.08,2.06c-0.63,2.81-0.4,5.66-0.42,8.5c-0.02,2.69-0.61,5.28-1.36,7.85
			c-0.35,1.19-1.03,1.99-2.37,1.97c-0.97-0.01-1.73,0.21-2.55,0.9c-0.64,0.54-1.77,0.56-2.69,0.66c-4.2,0.43-8.42,0.36-12.62,0.63
			c-5.14,0.32-10.32,0.41-15.43,1.25c-1.1,0.18-2.23,0.19-3.35,0.2c-2.41,0.03-4.83,0.05-7.24-0.01c-1.72-0.04-3.43-0.24-5.14-0.35
			c-0.94-0.06-1.89-0.14-2.84-0.14c-15.34-0.01-30.68-0.01-46.01,0c-1.37,0-2.75,0.15-4.12,0.25c-3.17,0.25-6.34,0.58-9.52,0.73
			c-1.62,0.08-3.26-0.17-4.89-0.27c-1.03-0.06-2.06-0.19-3.09-0.2c-2.24-0.03-4.48,0.04-6.72-0.02c-2.23-0.06-4.47-0.26-6.7-0.33
			c-2.84-0.09-5.69-0.06-8.52-0.19c-3.44-0.15-6.86-0.5-10.24-1.21c-0.5-0.1-1.01-0.25-1.48-0.45c-1.39-0.59-2.22-1.54-2.13-3.17
			c0.07-1.29,0.02-2.58,0.01-3.88c-0.02-1.89,0.13-3.78-0.41-5.65c-0.21-0.72-0.1-1.54-0.1-2.31c0-5.69,0.08-11.38,0-17.06
			c-0.03-2.46,0.57-4.77,1.21-7.09c0.15-0.53,0.56-1.14,1.02-1.4c0.89-0.5,1.28-1.17,1.67-2.1c0.37-0.86,0.36-1.6,0.35-2.45
			c-0.04-2.58-0.01-5.17,0.03-7.75c0.02-1.21,0-2.39-0.37-3.57c-0.22-0.73-0.26-1.52-0.28-2.29c-0.04-1.46-0.01-2.93-0.01-4.39
			c-0.01-2.24-0.11-4.46-0.34-6.69c-0.41-4.02-0.54-8.07-0.67-12.11c-0.1-3.01,0.01-6.03-0.01-9.05c-0.04-5.18,0.54-10.31,1.3-15.43
			c0.14-0.94,0.25-1.88,0.31-2.82c0.05-0.85,0.01-1.71,0.01-2.57c-0.88-0.42-1.66-0.77-2.42-1.17c-0.96-0.52-1.59-1.3-1.71-2.43
			c-0.14-1.28-0.28-2.56-0.44-3.83c-0.06-0.51-0.06-1.11-0.33-1.49c-0.78-1.07-0.73-2.26-0.74-3.47C0.04,27.33,0.04,22.41,0,17.5
			c-0.01-1.48,0.13-2.91,0.59-4.33c0.24-0.73,0.33-1.51,0.48-2.27c0.29-1.56,0.96-2.85,2.08-4.04c2.03-2.16,4.44-3.5,7.26-4.21
			C13,2,15.59,1.42,18.31,1.61c1.54,0.11,3.1,0.01,4.65,0.02c0.6,0,1.21-0.02,1.81,0.06c5.49,0.73,10.99,0.63,16.48,0.01
			c3.51-0.4,7-0.89,10.51-1.28c1.79-0.2,3.6-0.29,5.4-0.38c1.12-0.05,2.24,0.02,3.36-0.02c3.28-0.12,6.53,0.19,9.78,0.62
			c1.87,0.25,3.77,0.39,5.66,0.4c10.25,0.03,20.51-0.01,30.76,0.03c1.8,0.01,3.6,0.23,5.4,0.38c2.23,0.18,4.47,0.31,6.69,0.59
			c5.38,0.67,10.77,1.15,16.21,1.09c2.84-0.03,5.67-0.09,8.5,0.38c1.68,0.28,3.44,0.15,5.16,0.11c2.3-0.06,4.41,0.52,6.45,1.56
			c1.37,0.7,2.4,1.69,3.05,3.04c1.01,2.09,2.01,4.19,2.27,6.56c0.11,1.02,0.3,2.06,0.63,3.03c0.78,2.32,1.04,4.69,0.97,7.13
			c-0.02,0.77,0.12,1.54,0.17,2.31c0.12,1.89,0.34,3.78,0.3,5.66c-0.06,2.58-0.3,5.15-0.53,7.73c-0.08,0.85-0.27,1.71-0.57,2.5
			c-0.58,1.52-1.55,2.68-3.26,3.01C157.74,46.24,157.34,46.37,156.69,46.55z M160.2,36.01c0-2.37,0.22-4.46-0.05-6.49
			c-0.59-4.41-0.24-8.96-1.87-13.23c-0.09-0.24-0.07-0.51-0.1-0.77c-0.25-2.18-1.12-4.14-2.05-6.09c-0.46-0.96-1.17-1.67-2.14-2.16
			c-1.48-0.75-3.01-1.25-4.7-1.23c-2.76,0.03-5.51,0.06-8.24-0.44c-0.42-0.08-0.86-0.07-1.29-0.07c-4.99-0.05-9.99,0.17-14.96-0.5
			c-1.96-0.26-3.93-0.42-5.9-0.59c-3.85-0.34-7.71-0.89-11.57-0.94C97.17,3.37,87.01,3.49,76.84,3.41
			c-2.75-0.02-5.49-0.39-8.23-0.63c-0.94-0.08-1.88-0.32-2.82-0.33C60.02,2.41,54.25,2.11,48.52,3.1c-1.78,0.31-3.58,0.48-5.37,0.76
			c-4.96,0.76-9.97,0.81-14.95,0.51c-3.43-0.21-6.86-0.42-10.3-0.53c-2.9-0.09-5.63,0.59-8.36,1.36C9.12,5.32,8.7,5.46,8.33,5.67
			c-2.7,1.5-5.13,3.2-5.36,6.7c-0.04,0.67-0.39,1.32-0.53,1.99c-0.16,0.75-0.33,1.52-0.34,2.28c-0.04,4.22-0.04,8.44-0.04,12.66
			c0,0.43-0.07,0.96,0.15,1.26c0.99,1.36,1.8,2.83,3.81,3.11c3.93,0.54,7.87,0.73,11.82,0.92c2.58,0.13,5.16,0.15,7.74,0.25
			c1.55,0.06,3.09,0.25,4.64,0.26c6.12,0.03,12.23,0.03,18.35,0c1.63-0.01,3.26-0.18,4.89-0.31c2.83-0.22,5.65-0.63,8.48-0.67
			c6.11-0.1,12.23-0.04,18.35-0.03c0.86,0,1.75-0.07,2.57,0.13c1.7,0.43,3.42,0.37,5.14,0.38c2.5,0.01,5-0.02,7.49,0.01
			c0.94,0.01,1.89,0.12,2.83,0.19c1.28,0.1,2.57,0.3,3.85,0.3c8.53,0.03,17.06-0.04,25.58,0.04c3.09,0.03,6.17,0.36,9.26,0.56
			c0.25,0.02,0.5,0.12,0.76,0.15c0.94,0.11,1.87,0.28,2.81,0.29c5.69,0.03,11.37,0.02,17.06,0.01
			C158.4,36.15,159.15,36.07,160.2,36.01z M157.88,115.27c-0.48,0.43-0.8,0.82-1.21,1.04c-0.52,0.28-1.1,0.5-1.68,0.62
			c-2.19,0.46-4.38,0.96-6.59,1.26c-2.04,0.28-4.11,0.39-6.17,0.46c-2.15,0.08-4.31,0-6.46,0.01c-0.77,0-1.55,0.05-2.32,0.1
			c-2.06,0.13-4.12,0.31-6.18,0.38c-2.41,0.09-4.84-0.06-7.23,0.16c-3.18,0.29-6.36,0.36-9.55,0.35c-4.05-0.01-8.1-0.01-12.15-0.01
			c-1.28,0-2.57-0.16-3.72,0.72c-0.36,0.27-0.99,0.23-1.5,0.27c-0.77,0.06-1.55,0.06-2.32,0.11c-5.58,0.41-11.16,0.86-16.77,0.7
			c-3.27-0.09-6.55,0-9.82,0.03c-2.07,0.02-4.14,0.1-6.2,0.11c-0.68,0-1.47,0.09-2.02-0.21c-1.14-0.63-2.32-0.56-3.51-0.57
			c-3.18-0.04-6.37,0.19-9.53-0.44c-0.75-0.15-1.55-0.06-2.32-0.06c-6.29-0.01-12.58-0.05-18.87,0.01c-2.65,0.03-5.27-0.74-7.95-0.2
			c-0.55,0.11-1.19-0.14-1.78-0.24c-0.68-0.11-1.35-0.31-2.03-0.34c-1.45-0.06-2.63-0.74-3.8-1.46c-0.34-0.21-0.49-0.73-1.21-0.51
			c-0.76,1.99-1.27,4.13-1.25,6.38c0.03,5.77,0.03,11.55,0.05,17.32c0,0.52-0.08,1.06,0.05,1.55c0.72,2.72,0.39,5.48,0.48,8.23
			c0.03,0.93-0.18,1.9,0.33,2.94c0.45,0.18,0.98,0.51,1.55,0.6c1.7,0.25,3.44,0.27,5.11,0.64c3.16,0.71,6.35,0.36,9.52,0.46
			c1.03,0.03,2.07,0.07,3.1,0.13c1.97,0.12,3.94,0.32,5.92,0.37c2.67,0.06,5.34,0,8.01,0.02c0.86,0.01,1.72,0.07,2.58,0.14
			c1.45,0.11,2.91,0.39,4.36,0.34c3.44-0.13,6.87-0.41,10.3-0.63c0.17-0.01,0.34-0.07,0.51-0.08c1.2-0.1,2.4-0.28,3.6-0.28
			c15.51-0.02,31.02-0.01,46.54-0.01c0.77,0,1.58-0.07,2.32,0.12c1.7,0.44,3.42,0.39,5.14,0.39c2.76,0,5.52,0.01,8.27,0
			c0.77,0,1.56,0.01,2.32-0.1c3.84-0.52,7.67-1.09,11.56-0.96c0.6,0.02,1.2-0.12,1.8-0.18c1.11-0.11,2.22-0.27,3.33-0.3
			c1.72-0.05,3.45,0,5.17-0.02c2.51-0.02,4.96-0.35,7.28-1.43c0.83-0.39,1.82-0.45,2.74-0.62c0.5-0.09,1.01-0.11,1.58-0.17
			c0.9-2.39,1.37-4.81,1.47-7.3c0.12-3-0.3-6.03,0.5-9c0-4.31,0.13-8.62-0.06-12.92c-0.07-1.7-0.43-3.4-0.43-5.13
			C158.7,117.14,158.4,116.26,157.88,115.27z M66.85,47.19c-1.93-0.66-3.46-0.8-5.01-0.82c-3.79-0.05-7.57,0.31-11.35,0.41
			c-7.23,0.19-14.47,0.06-21.7-0.02c-4.48-0.05-8.95-0.31-13.43-0.39c-2.16-0.04-4.3-0.13-6.38-0.79c-0.3-0.09-0.65-0.01-1.08-0.01
			c-0.04,0.75-0.08,1.43-0.13,2.11C7.71,48.46,7.69,49.24,7.58,50C6.03,60.36,5.85,70.76,6.75,81.17
			c0.56,6.43,0.48,12.89,0.94,19.32c0.24,3.26,0.04,6.54,0.13,9.81c0.05,1.97,0.25,3.94,0.43,5.9c0.07,0.8,0.52,1.24,1.29,1.39
			c0.33,0.07,0.68,0.09,1.03,0.1c4.22,0.09,8.43,0.21,12.65,0.25c4.48,0.04,8.96-0.02,13.44,0.01c2.92,0.02,5.86-0.25,8.75,0.46
			c0.33,0.08,0.69,0.04,1.03,0.04c4.13,0,8.27,0,12.4-0.01c0.39,0,0.86,0.16,1.21-0.44c-0.75-0.81-1.76-1.28-2.72-1.74
			c-3.09-1.47-5.61-3.62-7.99-6.04c-2.66-2.69-4.56-5.82-5.89-9.31c-1.52-3.99-2.02-8.17-2.19-12.4c-0.09-2.15,0.04-4.31-0.02-6.46
			c-0.12-4.13,0.76-8.02,2.52-11.74c0.77-1.64,1.63-3.2,2.61-4.73c1.5-2.35,3.21-4.46,5.29-6.3c0.58-0.51,1.05-1.13,1.58-1.7
			c0.81-0.88,1.56-1.84,2.46-2.64c2.96-2.65,6.08-5.08,9.65-6.87C65.72,47.89,66.06,47.66,66.85,47.19z M93.55,46.62
			c0.07,0.16,0.09,0.29,0.14,0.3c0.41,0.11,0.84,0.2,1.26,0.3c3.5,0.8,6.68,2.32,9.48,4.53c2.09,1.65,4.13,3.39,5.99,5.29
			c1.92,1.96,3.83,3.96,5.17,6.42c2.89,5.32,4.38,11.02,4.53,17.06c0.1,4.05,0.05,8.1,0,12.15c-0.02,1.37-0.14,2.76-0.43,4.1
			c-0.85,3.93-2.58,7.48-4.96,10.69c-0.86,1.16-1.88,2.26-3.01,3.17c-2.74,2.22-5.5,4.43-8.56,6.22c-0.1,0.06-0.1,0.27-0.18,0.54
			c0.61,0.04,1.18,0.11,1.76,0.11c3.36,0.01,6.72,0.01,10.08-0.01c0.95-0.01,1.89-0.1,2.84-0.16c1.97-0.12,3.96-0.41,5.92-0.32
			c4.83,0.22,9.61-0.64,14.43-0.58c0.26,0,0.55,0.03,0.76-0.07c1.22-0.62,2.51-0.5,3.8-0.49c1.22,0.01,2.35-0.19,3.46-0.83
			c0.78-0.45,1.78-0.52,2.63-0.74c0.44,0.51,0.76,0.89,1.09,1.27c1.72-0.33,3.39-0.64,5.18-0.98c0.06-0.75,0.15-1.42,0.16-2.09
			c0.03-2.98-0.68-5.96,0.01-8.94c0.04-0.16,0.01-0.34,0.01-0.52c0-5,0.01-9.99,0-14.99c0-0.86-0.07-1.72-0.13-2.58
			c-0.12-1.63-0.35-3.25-0.36-4.88c-0.03-6.72-0.14-13.44,0.06-20.16c0.13-4.43-0.89-8.73-1-13.11c-0.01-0.17-0.05-0.34-0.1-0.5
			c-0.19-0.66-0.86-1.19-1.54-1.13c-0.51,0.04-1,0.22-1.51,0.31c-2.37,0.42-4.72,0.87-7.16,0.85c-7.06-0.06-14.13-0.03-21.19-0.06
			c-0.94,0-1.89-0.11-2.83-0.18c-1.2-0.1-2.39-0.32-3.59-0.31c-6.98,0.04-13.95,0.14-20.93,0.22C94.42,46.53,94,46.58,93.55,46.62z
			 M117.81,86.58C117.82,86.58,117.82,86.58,117.81,86.58c0.01-1.29,0.01-2.58,0.01-3.88c-0.03-5.84-0.99-11.47-3.62-16.75
			c-0.81-1.63-1.74-3.16-2.93-4.54c-2.02-2.36-4.21-4.55-6.58-6.56c-3.55-3.02-7.52-5.14-12.21-5.75c-0.94-0.12-1.87-0.32-2.79-0.54
			c-5.24-1.28-10.56-1.38-15.91-1.05c-3.58,0.22-6.58,1.86-9.57,3.58c-0.36,0.21-0.69,0.53-0.92,0.88
			c-0.74,1.13-1.84,1.78-2.98,2.41c-0.53,0.29-1.1,0.52-1.57,0.88c-2.86,2.23-5.15,5.03-7.52,7.74c-0.17,0.19-0.32,0.42-0.43,0.64
			c-0.88,1.78-1.9,3.47-3.35,4.87c-0.3,0.29-0.47,0.72-0.66,1.1c-2.09,4.13-3.37,8.45-3.14,13.15c0.08,1.72-0.01,3.44,0.02,5.17
			c0.06,3.46,0.51,6.9,1.44,10.21c1.14,4.02,3.26,7.5,6.18,10.59c3.22,3.42,7.29,5.41,11.32,7.53c0.53,0.28,1.13,0.42,1.7,0.6
			c3.22,0.99,6.46,1.79,9.88,1.33c0.5-0.07,1.03,0.04,1.55,0.03c2.92-0.06,5.88,0.11,8.77-0.27c2.23-0.29,4.44-0.36,6.67-0.46
			c1.28-0.06,2.56-0.24,3.82-0.52c4.35-0.95,8.38-2.61,11.76-5.61c0.26-0.23,0.55-0.41,0.84-0.6c3-1.98,5.34-4.54,7.08-7.72
			c1.91-3.46,3.09-7.09,3.14-11.05C117.83,90.19,117.81,88.39,117.81,86.58z M3.96,35.93c-0.72,1.46-0.85,2.9-0.34,4.44
			C3.82,41,4.09,41.52,4.7,41.71c3.18,1.01,6.22,2.47,9.72,2.33c3.26-0.13,6.54,0.05,9.81,0.14c1.98,0.06,3.95,0.29,5.93,0.3
			c6.46,0.04,12.92,0.03,19.39,0c1.29,0,2.59-0.06,3.86-0.24c3.35-0.46,6.72-0.41,10.06-0.15c1.89,0.15,3.76,0.19,5.65,0.17
			c7.32-0.07,14.64-0.16,21.96-0.2c8.27-0.04,16.54-0.03,24.81-0.03c1.03,0,2.06,0.1,3.09,0.18c1.11,0.09,2.22,0.3,3.33,0.31
			c7.24,0.02,14.48,0.05,21.71-0.03c2.57-0.03,5.13-0.34,7.7-0.54c0.25-0.02,0.52-0.07,0.75-0.18c2.04-1.05,4.32-0.89,6.58-1.27
			c0.52-1.13,0.89-2.3,0.46-3.7c-0.96-0.03-1.81-0.09-2.66-0.09c-5.34-0.01-10.68,0.07-16.02-0.03c-2.83-0.05-5.65-0.39-8.48-0.61
			c-0.09-0.01-0.17-0.05-0.25-0.05c-1.28-0.12-2.56-0.32-3.85-0.33c-8.62-0.03-17.23-0.02-25.85-0.03c-1.03,0-2.07-0.06-3.1-0.12
			c-1.8-0.11-3.6-0.32-5.4-0.37c-2.5-0.07-5,0-7.49-0.03c-0.94-0.01-1.89-0.13-2.83-0.21c-1.11-0.09-2.22-0.28-3.34-0.29
			c-6.03-0.03-12.06-0.02-18.09,0c-1.12,0-2.23,0.13-3.35,0.22c-3.26,0.26-6.52,0.76-9.77,0.76C40.42,37.63,31.81,38,23.2,37.27
			c-3.94-0.33-7.91-0.13-11.87-0.53c-2.23-0.23-4.46-0.3-6.65-0.8C4.45,35.88,4.19,35.93,3.96,35.93z"/>
		<path class="st2" d="M147.19,130.97c0.41,1.05,0.71,1.74,0.95,2.45c0.22,0.65,0.49,1.3,0.54,1.97c0.12,1.46,0.16,2.93,0.15,4.39
			c-0.02,1.74-0.5,2.26-2.25,2.54c-0.76,0.12-1.55,0.11-2.31,0.21c-1.7,0.23-3.42,0.4-5.09,0.77c-1.53,0.34-3.04,0.54-4.6,0.52
			c-5.94-0.07-11.88-0.07-17.81-0.19c-4.32-0.08-8.6,0.37-12.88,0.85c-1.28,0.14-2.57,0.27-3.86,0.27
			c-20.16,0.01-40.32,0.02-60.48,0c-7.07-0.01-14.12-0.38-21.15-1.14c-1.36-0.15-2.7-0.49-4.03-0.85c-1.02-0.27-1.56-1.01-1.52-2.12
			c0.03-1.03,0.01-2.07,0.05-3.1c0.04-1.11,0.14-2.22,0.19-3.33c0.03-0.72,0.21-1.33,0.83-1.79c1.11-0.81,2.12-1.77,3.28-2.5
			c0.78-0.5,1.71-0.92,2.61-1.03c4.09-0.52,8.17-1.07,12.32-0.2c3.38,0.71,6.87,0.54,10.3,0.51c5.7-0.05,11.35,0.58,17.02,0.92
			c1.98,0.12,3.96,0.2,5.94,0.2c10.68,0.02,21.37-0.02,32.05,0.02c2.32,0.01,4.64,0.26,6.96,0.34c2.41,0.09,4.82,0.19,7.23,0.13
			c4.38-0.1,8.76-0.37,13.15-0.47c3.95-0.08,7.9-0.34,11.86,0.25c2.45,0.37,4.99,0.17,7.48,0.24
			C145.13,130.86,146.15,130.92,147.19,130.97z M146.67,140.08c0-1.61,0.01-2.97,0-4.34c-0.01-1.22-0.69-1.94-1.81-2.19
			c-1.43-0.32-2.87-0.58-4.32-0.76c-1.45-0.18-2.95-0.07-4.37-0.36c-3.25-0.65-6.52-0.47-9.79-0.48c-1.2,0-2.44,0.08-3.58,0.4
			c-2.11,0.6-4.25,0.56-6.39,0.59c-3.1,0.04-6.2,0.02-9.3-0.02c-1.29-0.01-2.58-0.13-3.87-0.21c-1.55-0.09-3.09-0.26-4.63-0.27
			c-11.11-0.02-22.22,0.01-33.33-0.03c-2.58-0.01-5.16-0.21-7.74-0.37c-3.35-0.21-6.69-0.57-10.05-0.68
			c-4.47-0.15-8.96-0.05-13.43-0.18c-3-0.09-6-0.44-9-0.56c-2.58-0.11-5.13-0.01-7.4,1.55c-0.99,0.68-1.61,1.44-1.78,2.66
			c-0.18,1.35-0.6,2.67-0.85,4.02c-0.1,0.57-0.02,1.16-0.02,1.86c1.43,0.62,2.9,0.67,4.34,0.83c6.94,0.75,13.92,0.99,20.89,1
			c19.21,0.04,38.41,0.02,57.62-0.02c2.58-0.01,5.15-0.26,7.73-0.44c1.03-0.07,2.05-0.26,3.08-0.36c3.86-0.4,7.72-0.39,11.6-0.21
			c5.07,0.24,10.16,0.2,15.24,0.23c0.85,0.01,1.73-0.1,2.54-0.33c2.17-0.63,4.37-0.95,6.61-1.06
			C145.26,140.33,145.85,140.2,146.67,140.08z"/>
		<path class="st2" d="M23.59,54.39c3.68,0.32,7.54,0.65,11.4,0.99c1.49,0.13,2.85,0.62,4.15,1.32c0.82,0.45,1.29,1.1,1.3,2.06
			c0.05,2.66-0.65,5.13-2.03,7.37c-0.38,0.63-1.08,1.12-1.72,1.51c-1.27,0.78-2.7,1.11-4.19,1.1c-3.88-0.01-7.76,0.02-11.63-0.04
			c-1.37-0.02-2.74-0.25-4.11-0.44c-0.59-0.08-1.17-0.28-1.73-0.48c-1.62-0.6-2.54-1.8-2.56-3.52c-0.02-1.81-0.02-3.64,0.27-5.41
			c0.19-1.14,0.84-2.23,1.41-3.27c0.4-0.75,1.24-0.89,2.03-0.92C18.58,54.55,20.99,54.48,23.59,54.39z M16.05,56.85
			c-0.23,0.4-0.36,0.53-0.39,0.69c-0.42,2.02-0.84,4.03-1.23,6.05c-0.26,1.33,0.2,2.19,1.56,2.53c1.24,0.32,2.54,0.54,3.82,0.57
			c4.05,0.09,8.1,0.08,12.14,0.09c0.6,0,1.21-0.03,1.8-0.12c1.13-0.17,2.16-0.6,2.93-1.49c1.13-1.32,1.89-4.58,1.57-6.59
			c-1.06-0.78-2.3-1.09-3.61-1.18c-0.77-0.05-1.55-0.06-2.32-0.18c-4.1-0.67-8.25-0.49-12.37-0.6
			C18.66,56.6,17.38,56.77,16.05,56.85z"/>
		<path class="st2" d="M38.3,100.8c0.2,2.52-0.96,4.34-2.88,5.75c-3.37,2.49-7.17,3.65-11.36,3.51c-1.53-0.05-2.9-0.58-3.94-1.68
			c-0.88-0.93-1.73-1.94-2.33-3.06c-1.59-2.92-2.32-6.08-2.29-9.43c0.01-1.35,0.4-2.55,1.12-3.64c1.15-1.75,2.71-3.1,4.46-4.23
			c0.36-0.23,0.77-0.43,1.18-0.5c7.87-1.4,14.16,2.21,15.58,9.69C38.06,98.4,38.15,99.61,38.3,100.8z M36.27,100.23
			c-0.23-1.35-0.37-2.73-0.72-4.04c-0.68-2.51-2.22-4.43-4.43-5.81c-1.97-1.23-4.03-1.9-6.37-1.14c-0.48,0.15-1.03,0.08-1.53,0.19
			c-0.41,0.09-0.85,0.21-1.19,0.44c-1.37,0.91-2.6,1.98-3.54,3.34c-0.6,0.87-0.92,1.82-0.91,2.9c0.04,3.16,0.79,6.12,2.39,8.85
			c0.22,0.37,0.48,0.71,0.74,1.05c1.08,1.38,2.47,2.07,4.25,2c3.08-0.12,5.93-0.95,8.52-2.61C35.36,104.2,36.65,102.69,36.27,100.23
			z"/>
		<path class="st2" d="M147.68,54.06c0.89,2.25,0.87,4.57,0.84,6.89c-0.03,2.32-0.02,4.65,0,6.97c0.03,3.49-1.63,5.35-5.05,6.1
			c-0.67,0.15-1.36,0.22-2.04,0.22c-4.82,0-9.64-0.04-14.46-0.02c-1.28,0.01-2.37-0.3-3.28-1.2c-0.18-0.18-0.42-0.33-0.53-0.54
			c-0.71-1.37-1.48-2.72-2.04-4.15c-0.37-0.94-0.58-1.99-0.61-3c-0.07-3.1-0.07-6.2,0.02-9.29c0.03-1.1,0.33-2.2,0.62-3.27
			c0.27-0.99,1-1.54,2.03-1.74c3.63-0.71,7.28-1.15,11-1.11c3.04,0.03,5.99,0.52,8.94,1.11c1.04,0.21,1.94,0.68,2.72,1.39
			C146.46,52.99,147.09,53.54,147.68,54.06z M123.1,54.45c-0.22,0.43-0.43,0.65-0.43,0.87c-0.02,3.44-0.11,6.87,0.02,10.3
			c0.06,1.72,0.91,3.22,2.22,4.51c1.57-1.21,3.4-1.87,4.5-3.37c-0.38-1.6-0.78-3.07-1.08-4.56c-0.29-1.42,0.29-2.67,1.18-3.86
			C127.45,56.85,125.51,55.47,123.1,54.45z M130.72,57.2c1.71,0,3.69-0.08,5.66,0.03c1.24,0.06,2.13-0.38,2.97-1.22
			c0.79-0.79,1.68-1.47,2.56-2.16c0.32-0.25,0.8-0.34,0.64-0.91c-7.35-1.7-14.58-1.69-17.98,0.06
			C126.57,54.36,128.54,55.71,130.72,57.2z M125.95,71.85c1.25,0.05,1.92,0.11,2.59,0.11c2.66,0,5.32-0.01,7.98-0.01
			c1.8,0,3.6,0,5.4-0.01c1.02,0,1.95-0.24,2.79-0.97c-0.96-1.37-2.21-2.12-3.41-2.93c-0.75-0.5-1.46-0.73-2.41-0.44
			c-0.88,0.26-1.86,0.27-2.8,0.29c-1.62,0.04-3.24,0.01-4.82,0.01C129.41,68.81,127.82,70.04,125.95,71.85z M144.87,54.71
			c-2.05,0.7-3.48,1.71-4.53,3.32c1.06,2.74,1.39,5.6,1.39,8.44c1.17,0.86,2.26,1.68,3.38,2.47c0.24,0.17,0.57,0.2,1.04,0.36
			c0.07-0.78,0.15-1.35,0.15-1.93c0.02-2.48-0.06-4.97,0.04-7.45C146.42,58.04,145.65,56.48,144.87,54.71z M139.67,65.1
			c-0.21-1.7-0.36-3.21-0.62-4.7c-0.06-0.32-0.52-0.75-0.85-0.81c-2.15-0.38-4.3-0.99-6.52-0.39c-1.47,1.69-1.47,1.69-0.96,3.82
			c0.06,0.25,0.1,0.51,0.11,0.76c0.04,1.15,0.82,1.79,1.77,1.89C134.88,65.9,137.19,66.18,139.67,65.1z"/>
		<path class="st2" d="M127.83,108.1c-2.49,0.02-3.43-0.83-3.65-2.85c-0.17-1.56,0.14-2.92,1.65-3.73c0.22-0.12,0.47-0.23,0.72-0.27
			c1.71-0.26,3.95,1.26,4.29,2.94c0.12,0.58,0.12,1.19,0.11,1.79c-0.02,0.87-0.47,1.48-1.29,1.72
			C128.92,107.92,128.16,108.03,127.83,108.1z M128.85,105.8c0.48-0.84,0.21-1.54-0.22-2.19c-0.3-0.45-1.11-0.7-1.6-0.5
			c-0.5,0.21-0.83,0.61-0.81,1.18c0.01,0.49,0.09,0.97,0.14,1.44C127.29,106.19,128.09,106.16,128.85,105.8z"/>
		<path class="st2" d="M87.11,114.47c-2.34-0.09-4.94,0.24-7.48-0.46c-0.56-0.16-1.2-0.03-1.8-0.06c-3.63-0.18-7.16-0.83-10.54-2.21
			c-0.64-0.26-1.3-0.46-1.95-0.67c-1.14-0.37-2.28-0.71-3.18-1.61c-0.41-0.4-1.02-0.64-1.58-0.85c-2.51-0.94-4.3-2.81-6.05-4.7
			c-2.6-2.81-3.72-6.33-4.54-9.97c-0.13-0.58-0.25-1.2-0.2-1.79c0.23-2.92-0.13-5.83-0.16-8.75c-0.06-5.19,1.73-9.78,4.31-14.12
			c0.65-1.09,1.65-1.98,2.5-2.95c2-2.25,4-4.5,6-6.74c0.29-0.32,0.63-0.61,0.82-0.99c0.86-1.7,2.36-2.72,3.9-3.67
			c1.31-0.82,2.65-1.61,4.04-2.3c0.67-0.33,1.46-0.56,2.2-0.58c3.79-0.08,7.58-0.15,11.37-0.07c1.71,0.04,3.42,0.39,5.11,0.68
			c0.58,0.1,1.14,0.37,1.68,0.63c1.63,0.78,3.24,1.59,4.87,2.37c3.45,1.65,6.54,3.76,8.84,6.89c1.11,1.52,2.44,2.92,3.31,4.57
			c1.16,2.19,1.99,4.56,2.93,6.87c0.32,0.79,0.58,1.62,0.82,2.44c0.19,0.65,0.35,1.32,0.42,2c0.22,1.95,0.22,3.95,0.64,5.86
			c0.44,1.98,0.38,3.93,0.39,5.9c0.01,1.42-0.82,7.29-1.32,8.62c-1.05,2.76-2.49,5.28-4.6,7.39c-1.16,1.16-2.51,2.08-3.76,3.11
			c-1.55,1.29-3.26,2.22-4.97,3.19c-2.28,1.29-4.78,1.87-7.39,1.96C90.27,114.52,88.8,114.47,87.11,114.47z M79.07,53.86
			c-0.41,0-1.19,0.07-1.96-0.01c-2.84-0.32-5.41,0.27-7.81,1.89c-1.14,0.77-2.33,1.41-3.24,2.49c-2.61,3.08-5.32,6.09-7.92,9.18
			c-1.15,1.37-2.46,2.62-3.3,4.28c-1.38,2.71-2.4,5.51-2.98,8.48c-0.26,1.34-0.58,2.69-0.64,4.04c-0.07,1.62,0.09,3.26,0.2,4.89
			c0.05,0.77,0.11,1.56,0.31,2.3c0.89,3.33,1.78,6.66,3.91,9.48c0.2,0.27,0.39,0.58,0.48,0.91c0.37,1.23,1.24,2.06,2.22,2.77
			c3.77,2.77,7.88,4.84,12.4,6.14c4,1.15,8.15,1.15,12.23,1.6c2.81,0.31,5.68,0.15,8.52,0.03c2.67-0.11,5.24-0.61,7.63-2.04
			c1.49-0.89,2.82-1.95,4.21-2.95c1.04-0.75,2.06-1.55,2.98-2.44c1.88-1.82,3.36-4,4.11-6.47c0.81-2.7,1.19-5.52,1.34-8.35
			c0.12-2.16-0.26-4.27-0.46-6.41c-0.29-3.17-0.7-6.29-1.78-9.29c-0.67-1.86-1.29-3.77-2.24-5.49c-1.61-2.93-3.58-5.61-6.19-7.8
			c-1.93-1.61-3.9-3.07-6.27-3.99c-1.36-0.52-2.61-1.3-3.95-1.9c-0.77-0.35-1.59-0.63-2.42-0.82C85.46,53.69,82.44,53.9,79.07,53.86
			z"/>
		<path class="st2" d="M128.96,138.74c-2.59,0-5.17,0-7.76,0c-1.63,0-3.24,0.11-4.88,0.35c-2.8,0.4-5.64,0.62-8.47,0.64
			c-9.31,0.07-18.62-0.01-27.92,0.05c-2.78,0.02-5.49-0.34-8.21-0.78c-0.76-0.12-1.53-0.25-2.3-0.27
			c-8.1-0.12-16.19-0.23-24.29-0.31c-7.33-0.08-14.65-0.11-21.98-0.17c-0.6,0-1.21,0-1.81-0.07c-0.88-0.1-1.52-0.72-1.57-1.44
			c-0.05-0.71,0.47-1.55,1.21-1.81c0.48-0.17,1.01-0.3,1.51-0.29c5.68,0.11,11.38-0.37,17.05,0.35c0.77,0.1,1.55,0.11,2.32,0.13
			c1.21,0.02,2.41,0,3.62,0.01c30.94,0.16,61.88,0.31,92.81,0.47c0.69,0,1.38,0.02,2.05,0.15c0.72,0.14,1.22,0.82,1.22,1.48
			c0,0.66-0.51,1.3-1.25,1.42c-0.68,0.1-1.37,0.12-2.06,0.12c-3.1,0.01-6.21,0-9.31,0C128.96,138.78,128.96,138.76,128.96,138.74z"
			/>
		<path class="st2" d="M34.11,98.26c0.02,3.54-2.85,6.62-6.54,7.05c-3.25,0.38-5.98-1.17-7.27-4.18c-0.77-1.78-0.91-3.67-0.75-5.58
			c0.08-0.98,0.53-1.86,1.3-2.45c0.81-0.62,1.67-1.31,2.62-1.59c2.71-0.79,5.43-0.9,7.96,0.71c1.64,1.05,2.53,2.54,2.67,4.48
			C34.14,97.23,34.11,97.75,34.11,98.26z M32.45,98.05c0-3.62-1.93-5.45-5.59-5.52c-1.42-0.03-2.43,0.73-3.55,1.3
			c-1.93,0.98-2.24,1.56-2.03,3.62c0.06,0.59,0.18,1.19,0.32,1.77c0.77,3.15,2.84,4.61,6.01,4.24
			C30.28,103.15,32.45,100.73,32.45,98.05z"/>
		<path class="st2" d="M81.77,107.76c-2.31,0.1-5.05-0.1-7.78-0.56c-1.47-0.25-2.87-0.68-4.1-1.48c-2.23-1.45-4.43-2.91-6.1-5.11
			c-0.98-1.3-2.07-2.49-2.81-3.98c-1.7-3.46-2.43-7.11-2.58-10.95c-0.15-3.85,0.54-7.45,1.88-11.08c1.75-4.72,4.87-7.91,9.06-10.47
			c3.79-2.32,8.02-2.99,12.2-3.96c0.41-0.1,0.87-0.11,1.29-0.06c2.12,0.28,4.29,0.44,6.35,0.98c1.2,0.31,2.3,1.15,3.33,1.91
			c2.28,1.69,4.49,3.48,6.72,5.22c0.07,0.05,0.15,0.1,0.2,0.17c1.19,1.88,2.97,3.37,3.84,5.46c0.95,2.3,1.83,4.63,2.61,7
			c0.51,1.54,0.76,3.16,0.69,4.82c-0.08,1.81-0.06,3.62,0,5.43c0.06,1.9-0.51,3.55-1.6,5.07c-0.5,0.7-1.05,1.38-1.46,2.13
			c-1.22,2.21-3.17,3.58-5.29,4.77c-0.6,0.34-1.24,0.62-1.79,1.02c-3.7,2.68-7.86,3.81-12.39,3.68
			C83.43,107.75,82.83,107.76,81.77,107.76z M81.64,105.62c0.87,0,1.3-0.02,1.73,0c4.44,0.2,8.52-0.82,12.14-3.5
			c0.55-0.4,1.23-0.62,1.8-1c1.27-0.86,2.69-1.54,3.61-2.85c0.84-1.2,1.66-2.4,2.5-3.61c0.76-1.1,1.1-2.3,1.08-3.64
			c-0.04-2.07,0.03-4.13-0.02-6.2c-0.01-0.76-0.1-1.55-0.33-2.28c-0.86-2.7-1.61-5.45-2.76-8.02c-0.79-1.77-1.96-3.46-3.31-4.86
			c-1.59-1.66-3.47-3.08-5.37-4.4c-3.9-2.69-3.94-2.64-8.85-2.63c-2.4,0-4.79-0.07-7.17,0.52c-4,1-7.6,2.62-10.33,5.83
			c-0.17,0.2-0.34,0.39-0.54,0.56c-1.42,1.21-2.27,2.82-2.97,4.47c-1.58,3.74-2.73,7.58-2.33,11.75c0.32,3.36,0.8,6.63,2.32,9.7
			c0.7,1.41,1.75,2.52,2.66,3.75c1.54,2.08,3.59,3.45,5.73,4.72c0.94,0.55,2.06,0.85,3.14,1.08
			C76.91,105.54,79.48,105.73,81.64,105.62z"/>
		<path class="st2" d="M81.19,99.41c-4.53,0.35-7.98-1.94-11.19-4.62c-1.68-1.4-2.7-3.33-2.8-5.63c-0.03-0.58-0.23-1.17-0.42-1.74
			c-1.14-3.41-0.83-6.59,1.3-9.57c0.49-0.69,0.86-1.49,1.14-2.29c0.86-2.38,2.39-3.92,4.95-4.37c1.77-0.31,3.49-0.86,5.23-1.35
			c3.42-0.98,6.8-0.68,9.99,1.08c0.68,0.37,1.42,0.62,2.09,1c1.2,0.67,2.45,1.3,3.53,2.12c6.68,5.1,6.74,15.16,1.24,20.56
			c-2.42,2.38-5.22,3.89-8.65,4.15C85.45,98.94,83.32,99.2,81.19,99.41z M84.82,95.4c0.21,0.18,0.26,0.25,0.33,0.28
			c0.16,0.06,0.33,0.14,0.48,0.12c2.89-0.24,5.52-1.17,7.79-3c1.16-0.94,1.96-2.13,2.4-3.57c1.11-3.6-0.16-7.74-3.36-10.47
			c0,0.52-0.09,0.93,0.01,1.29c0.42,1.48,0.97,2.93,1.34,4.43c0.73,2.93,0.08,5.48-2.43,7.31c-1.72,1.25-3.48,2.46-5.63,2.91
			C85.42,94.77,85.15,95.14,84.82,95.4z M87.62,74.88c-3.2-2.01-6.9-2.08-9.71-0.3c-0.43,0.27-0.82,0.62-1.18,0.98
			c-0.41,0.39-0.25,0.76,0.49,1.3c3.43-1.94,5.4-2.05,9.86-0.5C87.24,75.91,87.41,75.45,87.62,74.88z M79.86,95.4
			c-0.77-0.65-1.26-1.29-1.92-1.58c-1.47-0.64-2.23-1.84-2.89-3.16c-0.46-0.92-0.86-1.87-1.31-2.8c-0.16-0.34-0.39-0.66-0.72-1.21
			C72.65,91.61,75.27,94.99,79.86,95.4z M84.16,83.86c-0.18-0.05-0.36-0.09-0.53-0.13c-0.32,0.67-0.71,1.32-0.93,2.03
			c-0.15,0.47,0.17,0.79,0.91,0.67C83.78,85.61,83.97,84.73,84.16,83.86z M81.73,78.06c2.27,0.6,2.27,0.6,3.97,0.33
			C84.46,77.76,83.47,77.31,81.73,78.06z M77.38,84.97c-0.09,0.01-0.17,0.02-0.26,0.03c0,0.66-0.04,1.32,0.02,1.97
			c0.03,0.33,0.25,0.64,0.82,0.27C77.77,86.52,77.58,85.75,77.38,84.97z M91.27,84.92c0.36-1.49,0.36-1.49-0.25-2.58
			C90.7,83.33,91.06,84.12,91.27,84.92z M81.5,89.45c-0.13,0.15-0.31,0.3-0.39,0.49c-0.03,0.08,0.13,0.32,0.25,0.37
			c0.22,0.08,0.5,0.14,0.72,0.09c0.18-0.04,0.35-0.23,0.45-0.41c0.04-0.06-0.12-0.32-0.25-0.37C82.07,89.52,81.81,89.51,81.5,89.45z
			 M89.29,79.25c-0.02-0.07-0.04-0.14-0.06-0.21c-0.03,0.09-0.07,0.18-0.11,0.28C89.18,79.29,89.24,79.27,89.29,79.25z"/>
	</g>
</g>
<g>
</g>
<g>
</g>
<g>
</g>
<g>
</g>
<g>
</g>
<g>
</g>
<g>
</g>
<g>
</g>
<g>
</g>
<g>
</g>
<g>
</g>
<g>
</g>
<g>
</g>
<g>
</g>
<g>
</g>
</svg>
