<svg id="Layer_1" data-name="Layer 1" xmlns="http://www.w3.org/2000/svg" viewBox="0 0 491.78 559.94"><defs><style>.cls-1{fill:#413a25;}.cls-2{fill:#3a2810;}.cls-3{fill:#f8e082;}.cls-4{fill:#c9db2a;}.cls-5{fill:#b27029;}.cls-6{fill:#faf002;}.cls-7{fill:#6cc8bb;}.cls-8{fill:#fab813;}.cls-9{fill:#f1a4c4;}.cls-10{fill:#ef5c25;}.cls-11{fill:#75491c;}.cls-12{fill:#4a3418;}.cls-13{fill:#f9eeb1;}.cls-14{fill:#f7e082;}</style></defs><path class="cls-1" d="M1441.76,3189.81c-2.34,3.23-4.61,6.52-7,9.7-23.36,30.78-39.77,65.06-51.61,101.68-3.54,10.95-6.34,22.1-9.56,33.14-4.17,14.31-9.41,28.19-16.86,41.14-8.85,15.39-20.13,28.61-34.89,38.67a103.91,103.91,0,0,1-39.69,16.09,101.49,101.49,0,0,1-30.32,1.29,113.51,113.51,0,0,1-49.72-17.58c-24.27-15.68-40.4-37.36-47.58-65.48-2.59-10.12-3.46-20.47-3.78-30.87-1.09-34.82,7.94-66.89,26.34-96.35,15.07-24.13,34.23-44.59,56.45-62.25,3.06-2.44,6.22-4.76,9.36-7.1a32.31,32.31,0,0,0,3.92-3.43c-.2-.67-.76-.65-1.16-.77-7.23-2.15-10.81-7.25-11.75-14.49-.68-5.24-.61-10.53-.88-15.8-.66-13-1.22-26-1.78-39.06-.27-6.15-.41-12.3-.66-18.45a22.19,22.19,0,0,1,7.87-18.28c3.29-2.93,6.69-5.72,10-8.62q13-11.4,25.93-22.83a21.37,21.37,0,0,0,7.6-15.48c.32-6.15.55-12.3.81-18.45q1.31-30.43,2.61-60.87c.24-5.51.61-11,.78-16.53.27-8.51,4.42-14.31,12.14-17.62a82.85,82.85,0,0,1,13.23-4.24,129.13,129.13,0,0,1,38.8-3.13c6.63.41,13.21,1.27,19.78,2.15a43.87,43.87,0,0,0,14.32-.51,47.84,47.84,0,0,1,15.29-.28c11.26,1.49,22.57,2.45,33.85,3.68,9.06,1,18.1,2.07,27.15,3.14a95.91,95.91,0,0,0,12.45.56,27.19,27.19,0,0,1,6,.41,12.09,12.09,0,0,1,4.42,1.77c5.11,3.44,10.87,4.95,16.9,5.53,6.85.67,13.72.82,20.55,1.77,4.24.58,8.43-.45,12.55-1.5,4.72-1.19,9.29-3,14.12-3.7,3-.41,4.13-1.78,4.91-4.52,1.87-6.58,6.9-10.15,13.73-10.16a293.79,293.79,0,0,1,46.84,3.32c4.73.76,9.44,1.65,14.1,2.78a26.6,26.6,0,0,1,4.54,1.52c6.82,3,10.36,8.29,10.58,15.73a150,150,0,0,1-.75,16.29c-.64,8-1.46,16.08-2.19,24.12a16.89,16.89,0,0,1-1,4.67,10.73,10.73,0,0,1-7.45,6.88c-1.07.3-2.19.46-3.25.81a14.35,14.35,0,0,1-6.83.56c-6.18-1-11.89.58-17.24,3.66a61.5,61.5,0,0,0-13.31,10.55c-5.61,5.76-6,12.38-1.11,19.09q14.4,19.77,29,39.44c2.52,3.42,4.46,7,4.28,11.42-.1,2.4-.23,4.79-.45,7.18-.6,6.45-1.51,12.86-2.42,19.27s-1.85,12.65-2.63,19a16.84,16.84,0,0,1-3.35,8.33,32.11,32.11,0,0,1-3.56,3.9c-10.67,10-20.86,20.52-31.33,30.75-15.84,15.49-31.63,31-47.75,46.21-10.55,9.94-21.77,19.09-32.78,28.48a11.64,11.64,0,0,1-11.61,2.57c-2-.6-4.07-.8-6.1-1.23a27.88,27.88,0,0,1-4.41-1.1,13,13,0,0,0-6-1.16,2.58,2.58,0,0,1-1.42-.16c-2.9-1.66-6.22-1.17-9.3-1.94-2.07-.52-4.24-.74-6.13-1.86,0-1,.73-1.48,1.47-2a6.29,6.29,0,0,0,2-1.57c.4,0,.8.13,1.19.13a23.86,23.86,0,0,1,12,2.45,6.41,6.41,0,0,0,2.09.46c4.94.78,10,1.07,14.79,2.57a7.83,7.83,0,0,0,8.72-2.33,27.05,27.05,0,0,0,2.46-4.09,15.07,15.07,0,0,0,2.33,0c1.07-.17,2.18-.42,2.36-1.8.92,0,1.41-.7,1.95-1.27,5.68-6,12.31-10.86,18.48-16.27a49.73,49.73,0,0,0,9-9.89,9.6,9.6,0,0,0,1.86,0c1.07-.21,2.18-.46,2.33-1.86a3.38,3.38,0,0,0,1.28-1.06c2.44-2.85,5.07-5.53,7.75-8.17q12.72-12.53,25.42-25.09c7.56-7.49,15.06-15,22.63-22.49,4.15-4.09,8.22-8.28,12.51-12.23a19.21,19.21,0,0,0,6.27-11.57c.8-5.52,1.54-11,2.34-16.56q1.61-11.1,3.26-22.21a3,3,0,0,0-.36-2.52,2.32,2.32,0,0,0-2.43-1.48,12.29,12.29,0,0,0-2.66-9.59c-2.81-3.76-5.54-7.57-8.27-11.38q-9.18-12.78-18.33-25.58c-1.42-2-2.13-2-3.82,0h-1.45c-.05-2.15-.29-4.3-.37-6.45-.26-6.7,0-13.4-.48-20.11-.36-5.09-.15-10.2-.43-15.31-.35-6.61-.55-13.23-1-19.83-.3-4.22-.52-8.43-1.07-12.62a3.67,3.67,0,0,0,.52-1.53,5.45,5.45,0,0,1,2.45,3.65,79,79,0,0,1,1.79,15.59c.2,9.51,0,19,.06,28.53a6.55,6.55,0,0,0,.24,2.6c.63,1.52,1.16,1.64,2.4.56,1.85-1.63,3.62-3.37,5.61-4.83a104.4,104.4,0,0,0,9.7-8.11,43.46,43.46,0,0,1,7.47-5.93c1.87-1.11,3.74-2.34,6-2.55.38.9-.19,1.53-.24,2.22-.22,2.61.79,3.52,3.36,2.93a37.61,37.61,0,0,1,8.73-1.09c4.58,0,7.59-2.34,8.42-6.58.52-2.64.79-5.34,1.07-8,.35-3.4.79-6.78,1.1-10.19s.86-6.61.85-10a14.62,14.62,0,0,1,.07-2.39,45.43,45.43,0,0,0,0-11.65c-.6-5.94-4.57-9.93-10.19-11.14-3.88-.83-7.77-1.63-11.67-2.33-3.28-.58-6.58-1.13-9.89-1.47-3.71-.38-7.44-.73-11.14-1.15-3.32-.37-6.66-.42-10-.68-5.56-.44-11.18-.16-16.77-.11a11.83,11.83,0,0,0-5.7,1.52c-2.79,1.55-3.71,4.22-4.39,7.06-.69,1-1.82,1.9-1.47,3.39a25.35,25.35,0,0,1-7.78,2.89c-3.1.59-6.2,1.24-9.28,2-1,.24-2.18.34-2.89,1.32.18.2.26.39.37.41,3.38.37,6.77.66,10.13,1.11a51.94,51.94,0,0,1,6.57.93v2.41c-2.31,0-4.75.41-6.91-.17a59.49,59.49,0,0,0-7.68-1.49,138,138,0,0,0-15.41-1.58c-6.57-.15-12.94-1.53-19.42-2.25-3.29-.36-6.57-.91-10-.45-2.78.38-5.45,1.06-8.16,1.67-.83-.2-1.79.26-2.51-.5,1.1-1.16,2.18-2.32,1.91-4.13-.08-.59-.23-1.12-.94-1.14-2.46-.09-5-.24-6.81,1.87l-2.86,0,0,0c0-1,0-2,0-3,.1-1.16-.33-1.8-1.58-1.88-2.85-.2-5.68-.6-8.52-.9-5.76-.6-11.5-1.38-17.27-1.88-5.3-.47-10.56-1.27-15.87-1.61-1.89-.13-3.8-.32-5.69-.52-4-.4-7.88-.94-11.83-1.3a115.75,115.75,0,0,1-12.29-1.36,23.26,23.26,0,0,0-6.4-.6,10,10,0,0,0-4.41,1.41c.35.27.48.44.59.44,2.64-.14,5.23.46,7.85.62,2,.12,4,.29,5.92.55,4.09.56,8.2.93,12.31,1.3,2,.19,4.11.39,6.16.6,4.34.45,8.69.83,13,1.4,2.44.32,5,.08,7.32.88v2c-3.52.12-7-.46-10.5-.7-4.2-.29-8.39-.85-12.58-1.3-3.4-.37-6.81-.72-10.2-1.12-4.9-.57-9.8-1.18-14.7-1.75-3.39-.39-6.8-.73-10.2-1.11-3.64-.41-7.26-.93-10.91-1.25-4.36-.37-8.72-.74-13.08-1.14-5.88-.53-11.76-.84-17.64-1.19-5-.3-10.06-.14-15.09-.15a4.06,4.06,0,0,0-2.4.29c.59,1.78,1.49,3.55.73,5.51-5.59,2.45-11.45,2.71-17.41,2.18a40.38,40.38,0,0,0-8.37.05c-4.65.56-7.31,3.14-8.4,7.61-1,4.24-1.05,8.56-1.27,12.86-.55,10.38-1,20.76-1.42,31.14-.73,17.89-1.48,35.78-2.08,53.67-.3,9.07-3.6,16.53-10.59,22.44-12.46,10.52-24.58,21.43-36.79,32.25-.56.5-1.4.81-1.47,1.83,1.41.58,2.81,1.17,4.22,1.72a4.12,4.12,0,0,1,2.25,2.05c.39.78,0,1.21-.75,1.41a3,3,0,0,1-1.64-.24c-1-.28-2-.67-3-.87-2.33-.46-3.53.42-3.69,2.8-.1,1.59,0,3.2,0,4.79.11,3.56,1.23,4.81,4.77,4.86a41.52,41.52,0,0,1,9.22,1.32c4.64,1.15,9.37,2,14,3.37l0,1.56c-5.72-.5-11.38-1.45-17-2.36-2.43-.4-4.8-1.22-7.3-1.21-2.17,0-2.91.51-3.27,2.63a12.64,12.64,0,0,0-.1,3.58c.75,5.64.22,11.32.75,17,.45,4.76.18,9.57.44,14.36.32,5.73.32,11.49.59,17.23a75.49,75.49,0,0,0,.52,8.36c.79,5,2.92,9.07,7.84,11.23a18.36,18.36,0,0,0,4.8,1.42c3.54.48,7,.46,10-2.08a9.53,9.53,0,0,1,4.25-2.11v1.93a8.57,8.57,0,0,1-2.26,1.75c-12.91,9-25.63,18.32-37.45,28.77-19.93,17.63-36.81,37.76-49.72,61.1a160.14,160.14,0,0,0-19.91,66.27,165.58,165.58,0,0,0,.79,33.75,108.61,108.61,0,0,0,9.17,32.38,61.12,61.12,0,0,0,6.59,11.65c.33.63.61,1.3,1,1.9a86.24,86.24,0,0,0,12.41,15.5,80.73,80.73,0,0,0,16.85,13,6.13,6.13,0,0,0,.72.63,96.59,96.59,0,0,0,37.34,15.37,70.87,70.87,0,0,0,12.86,2.77,53.46,53.46,0,0,0,20.7-.89,91.59,91.59,0,0,0,21.88-4.89,70.91,70.91,0,0,0,16.31-7.92c.58-.25,1.19-.46,1.75-.75a70.78,70.78,0,0,0,15.8-11.58c12.28-11.55,21.45-25.29,28.31-40.63,5.36-12,9.13-24.51,12.45-37.19a409.93,409.93,0,0,1,25.36-69.92,336.54,336.54,0,0,1,32.41-54.78c2.33-3.23,4.6-6.51,6.9-9.77a5.43,5.43,0,0,0,4.74,1.48A7.76,7.76,0,0,1,1441.76,3189.81Zm-120.42-306c-2.8-.88-5.62-1.79-8.59-1.57a6,6,0,0,0-4.9,2.8C1312.59,2884.91,1317,2885.75,1321.34,2883.82Z" transform="translate(-1150.64 -2872.18)"/><path class="cls-2" d="M1441.76,3189.81a7.76,7.76,0,0,0-1.18,0,5.43,5.43,0,0,1-4.74-1.48,33.55,33.55,0,0,0-3.07-16c-5-10.11-13.79-15.29-24.08-18.53a2.7,2.7,0,0,0-.6-.37,61.76,61.76,0,0,0-26.91-2.79,82.6,82.6,0,0,0-27.31,8.26,101.29,101.29,0,0,0-23.47,13.35c-14,10.46-25.93,23-36.53,36.83-13.6,17.75-24.18,37.23-32.61,57.89-4.43,10.86-8.86,21.74-11.51,33.23a4.2,4.2,0,0,1-2.85,3.26,46.13,46.13,0,0,1,.11-12.91,185.88,185.88,0,0,1,11.18-45.24c6.34-16.47,14.66-31.94,23.72-47,5.92-9.87,12.4-19.39,18.57-29.11,3.74-5.87,7.11-12,9.14-18.66a20.83,20.83,0,0,0,1.64-8.85,7.08,7.08,0,0,0-2.56-5.2,13.52,13.52,0,0,0-4.68-2.8,9.67,9.67,0,0,0-6.29-2.45c-4-.28-7.76.61-11.59,1.33-4.27.81-8.12,2.74-11.92,4.77a96,96,0,0,1-8.63,4.57c0-.64,0-1.29,0-1.93.4-.78,1.19-1,1.88-1.43s1.51-.76,1.43-1.72a2.21,2.21,0,0,0-1.7-1.82,8.16,8.16,0,0,0-1.63-.35,123.81,123.81,0,0,1-15.51-2.89c-5-1.38-7.17-4.15-7.54-9.26,0-.63-.18-1.26-.21-1.9a65.75,65.75,0,0,1,.21-13.38c.31-2,1.25-2.77,3.23-2.74a8.58,8.58,0,0,1,1.43.16c12.66,2.56,25.36,4.9,38.07,7.16,11.15,2,22.27,4.1,33.39,6.18q23.16,4.32,46.31,8.67l38.32,7.18,43.72,8.17c10.11,1.89,20.22,3.75,30.32,5.69,3.37.65,6.8,1,10.06,2.1s4.78,3.29,4.16,6.59a127.91,127.91,0,0,0-1.8,17.12c-.15,2.87-2,5.25-5.89,4.55-4.78-.86-9.54-1.88-14.31-2.82a84.53,84.53,0,0,0-8.46-1.59c-5.59-.54-10,2-13.85,5.82a4.35,4.35,0,0,0-.82,1.46,3.37,3.37,0,0,0,2.15,4.76,10.94,10.94,0,0,0,3.31.38,6.73,6.73,0,0,1,4.82,1.74,6.29,6.29,0,0,1-2,1.57c-.74.48-1.43,1-1.47,2A64.15,64.15,0,0,0,1441.76,3189.81Zm-165.34-57.22c-2-2-4.31-2.26-6.53-2.75a72.25,72.25,0,0,1-8.59-2,6.62,6.62,0,0,1-4.54-4.24,10.73,10.73,0,0,1-.77-4c.18-2.64-.58-5.21-.53-7.86a3.51,3.51,0,0,0-3.24-3.56c-.71-.11-1.42-.19-2.13-.27-2.86-.3-4.6.94-4.65,3.47-.09,4.72,0,9.43,0,14.14a2.64,2.64,0,0,0,2.43,2.77c4.81.67,9.48,2,14.23,3A48.49,48.49,0,0,0,1276.42,3132.59Zm181.59,37.3c6.43,1.35,12.39,2.66,18.39,3.85,2.48.49,4.93,1.28,7.51,1.2,2.08-.06,2.74-.57,2.88-2.64a37.62,37.62,0,0,1,.88-5.39c.91-4,.63-8.09.54-12.15a13.9,13.9,0,0,0-.75-2.89,5.32,5.32,0,0,0-1.61,2.82c-.8,2.83-.36,5.71-.43,8.57a15.83,15.83,0,0,1-.57,4.24,3.66,3.66,0,0,1-3.33,2.61,39.12,39.12,0,0,1-12.27-1.44,22.59,22.59,0,0,0-3.7-.87A10.12,10.12,0,0,0,1458,3169.89Z" transform="translate(-1150.64 -2872.18)"/><path class="cls-3" d="M1264.14,3070.3c-4.58-1.41-9.31-2.22-14-3.37a41.52,41.52,0,0,0-9.22-1.32c-3.54-.05-4.66-1.3-4.77-4.86,0-1.59-.13-3.2,0-4.79.16-2.38,1.36-3.26,3.69-2.8,1,.2,2,.59,3,.87a3,3,0,0,0,1.64.24c.73-.2,1.14-.63.75-1.41a4.12,4.12,0,0,0-2.25-2.05c-1.41-.55-2.81-1.14-4.22-1.72.07-1,.91-1.33,1.47-1.83,12.21-10.82,24.33-21.73,36.79-32.25,7-5.91,10.29-13.37,10.59-22.44.6-17.89,1.35-35.78,2.08-53.67.42-10.38.87-20.76,1.42-31.14.22-4.3.24-8.62,1.27-12.86,1.09-4.47,3.75-7.05,8.4-7.61a40.38,40.38,0,0,1,8.37-.05c6,.53,11.82.27,17.41-2.18l2.86.54c0,.7-.6,1.08-1,1.58-.75,1-.63,1.62.53,2,1.63.46,3.25.62,4.63-.79,1-1,2-2.07,3.49-2.29a3.74,3.74,0,0,0,2.87.93c.8-.06,1.34,0,1.44,1.06.11,1.24,1.08,1.74,2.2,1.79,5.19.24,10.33,1,15.53,1a7.81,7.81,0,0,0,4.08,1.73,5.28,5.28,0,0,0,3.84-.88c1.15-.7.62-1.83.72-2.81a4.34,4.34,0,0,1,.17-.69c1.35,0,2.7,0,4-.07,1.59-.06,3.2-.08,4.53-1.15h1.82c1.35,2.21,3.56,2.67,5.89,2.79,1.88.09,3.77.06,5.65.08.44,1.34,0,2.68-.08,4,0,1.09.26,1.59,1.4,1.66,5.46.34,10.92.74,16.38,1.11.6.47,1.36.29,2,.54-.31,1.06-1.56,1.26-2,2.2a92.19,92.19,0,0,0-14.8,3.92c-21.38,7.77-35.33,22.39-41.07,44.57a8.87,8.87,0,0,0-.49,2.78,2.87,2.87,0,0,0,3.19-2.71c.08-.55.27-1.09.4-1.63,1.83-7.78,5.15-14.76,11-20.4a24.25,24.25,0,0,0,1.91-2.15,20.21,20.21,0,0,1,6.25-5.16c1.9-1,3.86-1.93,5.77-2.93a20.58,20.58,0,0,0,4.54-2.63c.87.08,1.21-.66,1.74-1.11a4.09,4.09,0,0,0,3.56,1c1.11-.13,2.21-.41,3.32-.46a49,49,0,0,1,25.7,5.51c8.24,4.39,14.5,11,20.23,18.11a41.89,41.89,0,0,1,8.41,18.1,17.21,17.21,0,0,1,.54,6.71c-1.1-3-2-6-3.19-9a66.35,66.35,0,0,0-11.81-19.91c-6-6.76-13.61-11.33-22-14.61a37.08,37.08,0,0,0-29.39.61,59.23,59.23,0,0,0-14.57,9.14,5.64,5.64,0,0,0-2.41,4.64c0,.4-.07.8-.11,1.2l.05-.05c-3.32,1.32-4.09,4.13-4.23,7.29a.53.53,0,0,0-.12.42,5.27,5.27,0,0,0-2.29,5.81l-.41,6.28a22.22,22.22,0,0,0-1.36,6c-.67,6,.3,11.67,4.13,16.59a.44.44,0,0,0,.05.43c-.55,2.85.37,5.36,1.82,7.73,1.24,2,2.66,4,3.73,6.12a9.65,9.65,0,0,0,2.66,3.3,7.57,7.57,0,0,1,1.56,1.81,6.46,6.46,0,0,0,3.24,2.74l.1-.09c.73,1.62,1.06,3.64,3.54,3.5a.43.43,0,0,1,.48.42c0,2.12,1.6,2,3,2.14a5.46,5.46,0,0,0,5,3.07,17,17,0,0,0,9.7,5.28c2.18.47,4.43.49,6.63.95,12.47,2.55,23.18-1.73,32.32-9.65,6.44-5.57,10.34-13.14,12.11-21.62.26-1.24.47-2.5.74-3.75.24-1.09.85-1.7,2.05-1.44l.21,2.43c-.07.39-.14.78-.2,1.18-1.45,8.83-4.89,16.67-11.47,22.93-1.15,1.1-2.39,2.12-3.59,3.18a38.4,38.4,0,0,1-25.55,10c-12.09.23-22.78-4-32.09-11.42a59.53,59.53,0,0,1-20.33-30.37,44.53,44.53,0,0,1-1.58-6.76c-.32-2.37-1-3-3.19-3.39a5,5,0,0,0,0,.95,95.37,95.37,0,0,0,3.32,13c5.57,16.21,15.84,28.26,31.51,35.53a97.45,97.45,0,0,0,14,4.9c.14,1.21-.35,2.37-.38,3.54a10.34,10.34,0,0,1-3.49,7.35c-3.17,3.14-6.31,6.33-9.47,9.49l-26.74,26.75c-2,2-4.38,3.47-6,5.75-6.74-.88-13.36-2.34-20-3.62-6.19-1.19-12.41-2.27-18.76-2.18a8.67,8.67,0,0,0-3-1.46,48.56,48.56,0,0,0-10.24-2.33,105.2,105.2,0,0,1-13.39-2.5c-2.69-.74-5.53-.64-8.31-.84-1.09-.08-1.51.76-.95,1.71a2.78,2.78,0,0,0,1.49,1.15,16.17,16.17,0,0,0,3.22.89c6,1.08,12.07,2.22,18.13,3.22,4.31.71,8.57,2,13,1.62a2.91,2.91,0,0,0,1.82,1c7.62,1.31,15.23,2.67,22.85,4,4.54.81,9.08,1.69,13.67,2.23.18,1.81-.77,3.58-.34,5.38a25.55,25.55,0,0,1,.31,6.35c-7.9-1.11-15.79-2.27-23.56-4.11a172,172,0,0,0-23.31-4,37.54,37.54,0,0,1-9.81-2.06,24.91,24.91,0,0,0-5.09-1.25c-5.44-.83-10.86-1.8-16.3-2.62C1271.56,3071.37,1267.89,3070.56,1264.14,3070.3Zm64-61.35a20.83,20.83,0,0,0,20.88-17.27,25.17,25.17,0,0,0-17.11-27.75c-14.57-4.51-28.78,6.13-28.3,21.2C1304,2998,1315.29,3008.91,1328.15,3009Zm-55.78,49.9c-2.85-3.23-13.68-5.85-18.26-4.53.22,1.71,1.45,2.38,2.89,2.71a48.16,48.16,0,0,0,11.06,1.71,2.21,2.21,0,0,1,1.6.34C1270.59,3059.92,1271.38,3059.46,1272.37,3058.85Zm97.57-167.55c4.53,3.16,9.79,2,15.12,2.8a8.42,8.42,0,0,0-7-3.73A41,41,0,0,0,1369.94,2891.3Z" transform="translate(-1150.64 -2872.18)"/><path class="cls-4" d="M1353.87,3158.85a82.6,82.6,0,0,1,27.31-8.26,61.76,61.76,0,0,1,26.91,2.79,2.7,2.7,0,0,1,.6.37c-8.23,9.21-16.33,18.55-24.89,27.46-.9.93-1.35,1.75-.47,2.88a2.31,2.31,0,0,1-.37.61,154.13,154.13,0,0,0-16.28,17.89,166.91,166.91,0,0,0-23.31,39.8c-4.19,10.11-8,20.36-12,30.56-8.67,22.26-17.71,44.36-28.19,65.85a67.76,67.76,0,0,0-4.59,11.82,27.19,27.19,0,0,0-.82,9.74c.51,5.34,4.92,9.11,10.72,9.35a43.81,43.81,0,0,0,7.84-.82c-.61,5.54-1.24,11.08-1.81,16.63-.46,4.35-1,8.71-1.23,13.08-.25,4.77-.56,9.55-.43,14.34a70.91,70.91,0,0,1-16.31,7.92,91.59,91.59,0,0,1-21.88,4.89c.3-2.41-.38-4.75-.47-7.14-.16-4.48.56-8.92.47-13.38s.78-8.75.54-13.14a1.94,1.94,0,0,1,0-.48c.68-4.1.53-8.25.85-12.38.22-2.86-.25-5.8.17-8.61.59-3.89.27-7.79.73-11.68s.83-8.06,1.2-12.1,1.26-8.16,1.74-12.26c.79-6.63,2-13.19,3.13-19.76,1.18-6.73,2.56-13.42,4-20.1,2.34-10.75,5.06-21.38,8.31-31.88a287.17,287.17,0,0,1,14.29-37.27,256.84,256.84,0,0,1,13.94-26.21c7.29-11.77,15.19-23,25.26-32.62a33.86,33.86,0,0,0,4.2-5.21A3.65,3.65,0,0,0,1353.87,3158.85Z" transform="translate(-1150.64 -2872.18)"/><path class="cls-5" d="M1456.67,3187.72a6.73,6.73,0,0,0-4.82-1.74,10.94,10.94,0,0,1-3.31-.38,3.37,3.37,0,0,1-2.15-4.76,4.35,4.35,0,0,1,.82-1.46c3.83-3.81,8.26-6.36,13.85-5.82a84.53,84.53,0,0,1,8.46,1.59c4.77.94,9.53,2,14.31,2.82,3.88.7,5.74-1.68,5.89-4.55a127.91,127.91,0,0,1,1.8-17.12c.62-3.3-.89-5.47-4.16-6.59s-6.69-1.45-10.06-2.1c-10.1-1.94-20.21-3.8-30.32-5.69l-43.72-8.17-38.32-7.18q-23.14-4.34-46.31-8.67c-11.12-2.08-22.24-4.2-33.39-6.18-12.71-2.26-25.41-4.6-38.07-7.16a8.58,8.58,0,0,0-1.43-.16c-2,0-2.92.71-3.23,2.74a65.75,65.75,0,0,0-.21,13.38c0,.64.17,1.27.21,1.9.37,5.11,2.58,7.88,7.54,9.26a123.81,123.81,0,0,0,15.51,2.89,8.16,8.16,0,0,1,1.63.35,2.21,2.21,0,0,1,1.7,1.82c.08,1-.73,1.33-1.43,1.72s-1.48.65-1.88,1.43a9.53,9.53,0,0,0-4.25,2.11c-3,2.54-6.45,2.56-10,2.08a18.36,18.36,0,0,1-4.8-1.42c-4.92-2.16-7-6.2-7.84-11.23a75.49,75.49,0,0,1-.52-8.36c-.27-5.74-.27-11.5-.59-17.23-.26-4.79,0-9.6-.44-14.36-.53-5.66,0-11.34-.75-17a12.64,12.64,0,0,1,.1-3.58c.36-2.12,1.1-2.63,3.27-2.63,2.5,0,4.87.81,7.3,1.21,5.66.91,11.32,1.86,17,2.36a10.46,10.46,0,0,0,3.33,1.28c4.18,1.39,8.54,1.93,12.84,2.74,8.84,1.69,17.7,3.3,26.55,4.91,8.47,1.55,16.94,3,25.4,4.59,7.21,1.32,14.41,2.71,21.61,4,8.62,1.6,17.24,3.15,25.85,4.74,6.12,1.13,12.22,2.3,18.33,3.42,8.54,1.57,17.08,3.1,25.62,4.68,8,1.47,16,3,24,4.46,8.46,1.56,16.92,3.08,25.39,4.62,5.72,1,11.44,2.06,17.15,3.14,3,.56,6,1.07,8.88,1.91,4,1.17,5.48,3.38,5.59,7.57.07,3-.44,5.88-.66,8.82-.31,4.13-.85,8.24-1.3,12.36-.38,3.48-.75,7-1.15,10.45s-.82,7-1.23,10.44-.83,7-1.21,10.44-.74,7-1.11,10.44a27.05,27.05,0,0,1-2.46,4.09,7.83,7.83,0,0,1-8.72,2.33c-4.84-1.5-9.85-1.79-14.79-2.57a6.41,6.41,0,0,1-2.09-.46,23.86,23.86,0,0,0-12-2.45C1457.47,3187.85,1457.07,3187.76,1456.67,3187.72Zm-84.06-77.58c-3.46,2.68-3.77,2.69-7.51.15-.33-.23-.65-.46-1-.66-.59-.34-1.13-.88-1.91-.54-.4,3.77.73,5.62,4.16,6.81a19.31,19.31,0,0,0,2.77.77c1.72.35,2.51-.15,3.09-1.81a13.07,13.07,0,0,0,.38-4.74l.11-.15Zm-45.61-2a15.5,15.5,0,0,0,11.45,3.6,18.18,18.18,0,0,1-.94-3c0-.95-.26-1.9-.4-2.84-.38-2.56-1.35-3.43-4-3.52-.48,0-1,0-1.44,0a3.52,3.52,0,0,0-3.75,2.71c-.29.91-.65,1.8-1,2.7a2.68,2.68,0,0,1-1.26-.65,71.18,71.18,0,0,0-13.11-7.84c-3.74-1.66-7.44-2.87-11.46-1a2.86,2.86,0,0,1-3.14-.46,10.89,10.89,0,0,0-2.44-1.48c-1.26-.53-2,0-2.11,1.34-.08,1.11,0,2.23-.06,3.35-1-.55-1.22-1.6-1.6-2.56a5.46,5.46,0,0,0-1.58-2.63,1.33,1.33,0,0,0-2.07.14,11.87,11.87,0,0,0-2.52,4.29c-.19.63-.18,1,.53,1.31,1.73.61,3.43,1.27,5.15,1.89,1,.33,1.88.46,2.59-.5a5.13,5.13,0,0,0,.87-.36c2.61-1.63,2.71-1.64,4.5.93a5.82,5.82,0,0,0,3.91,2.49,22.93,22.93,0,0,0,4.94.66,50,50,0,0,1,7.83.58,17.27,17.27,0,0,1,7.65,2.42c1.7,1.09,1.87,1,3-.73C1326.73,3108.75,1326.85,3108.45,1327,3108.17Zm72.2,12c-1.87-1.89-3.48-4.11-6.53-3.83s-4.74,2.07-6.6,4.18a3.43,3.43,0,0,0,.75.31c3.49.28,7,.4,10.11,2.38a1.37,1.37,0,0,0,1.92-.46c.89-1.67,2-1.09,3.25-.62s2.54,1,3.81,1.41a8.06,8.06,0,0,0,3,.58c1.89-.08,2.34-.8,1.67-2.63a5.22,5.22,0,0,0-2.91-3,38.92,38.92,0,0,0-6.66-1.87c-1-.24-1.46.34-1.54,1.32C1399.45,3118.56,1399.75,3119.28,1399.2,3120.14Zm31,.66c-.36,0-.54.3-.71.56a21.69,21.69,0,0,0-2.22,4c-.52,1.34-.22,2.13,1.07,2.69a26.14,26.14,0,0,0,4.87,1.15c.62.14.86-.31.73-.87a19.6,19.6,0,0,0-3-7C1430.72,3121.06,1430.53,3120.78,1430.15,3120.8Zm-10.24,6.07c1.39,0,2.22-.45,2-1.4-.35-1.65-.27-3.31-.46-5-.14-1.27-1-1.81-2.39-1.76s-1.77.47-1.84,1.94c-.06,1.19,0,2.38,0,3.57C1417.32,3126.06,1418.14,3126.84,1419.91,3126.87Zm-71-15.41a26.07,26.07,0,0,1-.34-4.14,1.88,1.88,0,0,0-2-1.88c-1.08,0-1.74.72-1.81,2.06s0,2.53,0,3.79a3.05,3.05,0,0,0,.35,1.36,2.44,2.44,0,0,0,2.67,1.09C1348.71,3113.62,1349.15,3113,1349,3111.46Z" transform="translate(-1150.64 -2872.18)"/><path class="cls-6" d="M1353.87,3158.85a3.65,3.65,0,0,1-.8,2.68,33.86,33.86,0,0,1-4.2,5.21c-10.07,9.59-18,20.85-25.26,32.62a256.84,256.84,0,0,0-13.94,26.21,287.17,287.17,0,0,0-14.29,37.27c-3.25,10.5-6,21.13-8.31,31.88-1.45,6.68-2.83,13.37-4,20.1-1.14,6.57-2.34,13.13-3.13,19.76-.48,4.1-1.37,8.16-1.74,12.26s-.73,8.09-1.2,12.1-.14,7.79-.73,11.68c-.42,2.81,0,5.75-.17,8.61-.32,4.13-.17,8.28-.85,12.38a1.94,1.94,0,0,0,0,.48c.24,4.39-.64,8.74-.54,13.14s-.63,8.9-.47,13.38c.09,2.39.77,4.73.47,7.14a53.46,53.46,0,0,1-20.7.89,70.87,70.87,0,0,1-12.86-2.77c-.25-9.25.1-18.49-.35-27.75-.43-8.59,0-17.21.22-25.83.24-8,.53-15.93.62-23.91a4.3,4.3,0,0,1,.07-1c.82-3,.4-6.17.76-9.25.44-3.78.75-7.6,1.21-11.37.88-7.16,2.15-14.27,3.26-21.4a4.2,4.2,0,0,0,2.85-3.26c2.65-11.49,7.08-22.37,11.51-33.23,8.43-20.66,19-40.14,32.61-57.89,10.6-13.83,22.53-26.37,36.53-36.83A101.29,101.29,0,0,1,1353.87,3158.85Z" transform="translate(-1150.64 -2872.18)"/><path class="cls-7" d="M1383.33,3184.09c-.88-1.13-.43-2,.47-2.88,8.56-8.91,16.66-18.25,24.89-27.46,10.29,3.24,19.11,8.42,24.08,18.53a33.55,33.55,0,0,1,3.07,16c-2.3,3.26-4.57,6.54-6.9,9.77a336.54,336.54,0,0,0-32.41,54.78,409.93,409.93,0,0,0-25.36,69.92c-3.32,12.68-7.09,25.2-12.45,37.19-6.86,15.34-16,29.08-28.31,40.63a70.78,70.78,0,0,1-15.8,11.58c-.56.29-1.17.5-1.75.75-.13-4.79.18-9.57.43-14.34.24-4.37.77-8.73,1.23-13.08.57-5.55,1.2-11.09,1.81-16.63a43.28,43.28,0,0,0,4.09-3.32,51.91,51.91,0,0,0,10.9-15.36c6.57-13.41,11-27.58,14.88-41.93,3.62-13.32,6.47-26.84,10.49-40.06A259.83,259.83,0,0,1,1370.5,3232c6.49-13.62,15.06-26,23.49-38.41,3.1-4.56,6.25-9.08,9.34-13.65,1.15-1.69,1.16-2.73.25-4a3.7,3.7,0,0,0-4.09-1.14,10.26,10.26,0,0,0-2.87,1.17c-2,1.23-3.93,2.46-5.94,3.61C1388.19,3181,1386,3182.94,1383.33,3184.09Z" transform="translate(-1150.64 -2872.18)"/><path class="cls-8" d="M1246.9,3303.41c-1.11,7.13-2.38,14.24-3.26,21.4-.46,3.77-.77,7.59-1.21,11.37-.36,3.08.06,6.22-.76,9.25a4.3,4.3,0,0,0-.07,1c-.09,8-.38,15.95-.62,23.91-.26,8.62-.65,17.24-.22,25.83.45,9.26.1,18.5.35,27.75a96.59,96.59,0,0,1-37.34-15.37,6.13,6.13,0,0,1-.72-.63,3.84,3.84,0,0,0,0-.95,81.15,81.15,0,0,1-1.24-13.53q-.51-15.43.41-30.88a3.75,3.75,0,0,1,0-.48c.63-4.51.61-9.06.85-13.58.14-2.71.5-5.4.66-8.1.1-1.57.24-3.17.46-4.75a99.91,99.91,0,0,0,1.37-13,26.68,26.68,0,0,0,9.12-12.33,60.21,60.21,0,0,0,3.25-14.43,201.36,201.36,0,0,1,4.17-23.52,194.34,194.34,0,0,1,15.06-40.52,246.42,246.42,0,0,1,15.08-26.12,183,183,0,0,1,11.39-16c2.65-3.19,5.5-6.22,7.92-9.6a25.31,25.31,0,0,0,4.21-8,4.8,4.8,0,0,0,.86-.39c3.42-2.6,6.84-5.2,10.23-7.84a122.64,122.64,0,0,1,15.45-10.38,26.76,26.76,0,0,1,7.24-3c-2,6.72-5.4,12.8-9.14,18.67-6.17,9.72-12.65,19.24-18.57,29.11-9.06,15.1-17.38,30.57-23.72,47A185.88,185.88,0,0,0,1247,3290.5,46.13,46.13,0,0,0,1246.9,3303.41Z" transform="translate(-1150.64 -2872.18)"/><path class="cls-5" d="M1617.36,3033.84a3,3,0,0,1,.36,2.52q-1.63,11.1-3.26,22.21c-.8,5.52-1.54,11-2.34,16.56a19.21,19.21,0,0,1-6.27,11.57c-4.29,4-8.36,8.14-12.51,12.23-7.57,7.46-15.07,15-22.63,22.49q-12.69,12.57-25.42,25.09c-2.68,2.64-5.31,5.32-7.75,8.17a3.38,3.38,0,0,1-1.28,1.06,3.9,3.9,0,0,1-1.11-3.68,44.41,44.41,0,0,0,.57-4.49c.55-4.91,1-9.82,1.58-14.72.71-6.08,1.54-12.15,2.25-18.23.68-5.85,1.36-11.69,1.9-17.55a12.33,12.33,0,0,1,7-10.41,17.22,17.22,0,0,0,9-11.8,29.76,29.76,0,0,0,.93-7.33c-.09-4.55.65-9.07.48-13.62a3.74,3.74,0,0,1,.08-.95,45.56,45.56,0,0,0,.79-11.88c.19-3.07.37-6.13.55-9.2.74-3.58,1.58-7.17,1.38-10.84-.15-2.58-.17-5.27-1.89-7.49.14-2.19.61-4.35.54-6.56,1.93-.5,2.25-.95,2.33-3.2.16-4.86.15-9.72.38-14.59.41-8.44.82-16.89,1-25.34.21-8.23.1-16.46.11-24.69a110,110,0,0,0-.94-16.22c-1.27-8.61-6.28-14.16-14.66-16.33-3.73-1-7.55-1.17-11.32-1.8-3.53-.59-7.08-1.17-10.64-1.41a60.51,60.51,0,0,1-8.29-1c-2.89-.6-5.77-1.29-8.76-1-1.74.15-3.51.22-4.94,1.42a11.58,11.58,0,0,1-4.21-.67,8.27,8.27,0,0,0-6.22.22l-2.1-.11-3.75-1.94a5.07,5.07,0,0,0-3.63-.65,3.33,3.33,0,0,1,.37-3c2.71-.61,5.38-1.29,8.16-1.67,3.4-.46,6.68.09,10,.45,6.48.72,12.85,2.1,19.42,2.25a138,138,0,0,1,15.41,1.58,59.49,59.49,0,0,1,7.68,1.49c2.16.58,4.6.15,6.91.17,2.48.93,5.13.94,7.69,1.4,4,.72,8,1.53,11.42,3.82,2.16,1.43,3.68,3.47,5.34,5.39.55,4.19.77,8.4,1.07,12.62.48,6.6.68,13.22,1,19.83.28,5.11.07,10.22.43,15.31.48,6.71.22,13.41.48,20.11.08,2.15.32,4.3.37,6.45-.13,1.75-.37,3.49-.38,5.24-.12,16.86.24,33.73-.59,50.58,0,1-.16,2.06-.26,3.1-.31,3-.58,6-.61,9.06a4.65,4.65,0,0,0,5.44,4.88,6.74,6.74,0,0,0,3-1.49l27.59-22.25A3.65,3.65,0,0,1,1617.36,3033.84Z" transform="translate(-1150.64 -2872.18)"/><path class="cls-9" d="M1265.59,3141.82a96,96,0,0,0,8.63-4.57c3.8-2,7.65-4,11.92-4.77,3.83-.72,7.64-1.61,11.59-1.33a9.67,9.67,0,0,1,6.29,2.45c-.73.33-1.45.68-2.19,1a171.28,171.28,0,0,0-23.66,12.12c-16.55,10.22-30.73,23.14-43.29,37.92a231.71,231.71,0,0,0-33.73,52.76,282.06,282.06,0,0,0-21,66.79q-3.36,17.76-5,35.78c-.83,9.15-1.3,18.32-1.82,27.48-.19,3.35-.4,6.7-.61,10a61.12,61.12,0,0,1-6.59-11.65,108.61,108.61,0,0,1-9.17-32.38,165.58,165.58,0,0,1-.79-33.75,160.14,160.14,0,0,1,19.91-66.27c12.91-23.34,29.79-43.47,49.72-61.1,11.82-10.45,24.54-19.74,37.45-28.77A8.57,8.57,0,0,0,1265.59,3141.82Z" transform="translate(-1150.64 -2872.18)"/><path class="cls-10" d="M1172.8,3377.49c.21-3.35.42-6.7.61-10,.52-9.16,1-18.33,1.82-27.48q1.62-18,5-35.78a282.06,282.06,0,0,1,21-66.79,231.71,231.71,0,0,1,33.73-52.76c12.56-14.78,26.74-27.7,43.29-37.92a171.28,171.28,0,0,1,23.66-12.12c.74-.31,1.46-.66,2.19-1a13.52,13.52,0,0,1,4.68,2.8,7.08,7.08,0,0,1,2.56,5.2,20.83,20.83,0,0,1-1.64,8.85,26.42,26.42,0,0,0-7.24,3,122.64,122.64,0,0,0-15.45,10.38c-3.39,2.64-6.81,5.24-10.23,7.84a4.8,4.8,0,0,1-.86.39c-2.22-2.07-4.62-1.8-7.11-.57a61.85,61.85,0,0,0-16,11.22,212.9,212.9,0,0,0-26.46,31.56c-11.9,17.27-21.19,35.9-29.21,55.22a78.73,78.73,0,0,0-5.74,38.94,27.88,27.88,0,0,0,1.73,7.93,9.3,9.3,0,0,0,7.15,6.07,23.48,23.48,0,0,0,5.49.14,99.91,99.91,0,0,1-1.37,13c-.22,1.58-.36,3.18-.46,4.75-.16,2.7-.52,5.39-.66,8.1-.24,4.52-.22,9.07-.85,13.58a3.75,3.75,0,0,0,0,.48q-.9,15.42-.41,30.88a81.15,81.15,0,0,0,1.24,13.53,3.84,3.84,0,0,1,0,.95,80.73,80.73,0,0,1-16.85-13,86.24,86.24,0,0,1-12.41-15.5C1173.41,3378.79,1173.13,3378.12,1172.8,3377.49Z" transform="translate(-1150.64 -2872.18)"/><path class="cls-11" d="M1556.92,2886.46c.68-2.84,1.6-5.51,4.39-7.06a11.83,11.83,0,0,1,5.7-1.52c5.59-.05,11.21-.33,16.77.11,3.32.26,6.66.31,10,.68,3.7.42,7.43.77,11.14,1.15,3.31.34,6.61.89,9.89,1.47,3.9.7,7.79,1.5,11.67,2.33,5.62,1.21,9.59,5.2,10.19,11.14a45.43,45.43,0,0,1,0,11.65,14.62,14.62,0,0,0-.07,2.39c0,3.35-.55,6.64-.85,10s-.75,6.79-1.1,10.19c-.28,2.68-.55,5.38-1.07,8-.83,4.24-3.84,6.63-8.42,6.58a37.61,37.61,0,0,0-8.73,1.09c-2.57.59-3.58-.32-3.36-2.93,0-.69.62-1.32.24-2.22-2.28.21-4.15,1.44-6,2.55a43.46,43.46,0,0,0-7.47,5.93,104.4,104.4,0,0,1-9.7,8.11c-2,1.46-3.76,3.2-5.61,4.83-1.24,1.08-1.77,1-2.4-.56a6.55,6.55,0,0,1-.24-2.6c0-9.51.14-19-.06-28.53a79,79,0,0,0-1.79-15.59,5.45,5.45,0,0,0-2.45-3.65,7.16,7.16,0,0,0-3.86-6.86,27.72,27.72,0,0,0-5-2.35,25263.14,25263.14,0,0,1-22.73-3.21c-3.36-.45-6.75-.74-10.13-1.11-.11,0-.19-.21-.37-.41.71-1,1.89-1.08,2.89-1.32,3.08-.74,6.18-1.39,9.28-2a25.35,25.35,0,0,0,7.78-2.89,119.31,119.31,0,0,1,26.61-1.92c1,0,2.08,0,3.12,0,.48,0,1,0,1.44.08,4.26.44,8.51,1,12.78,1.32a27.21,27.21,0,0,1,9.49,2.09c3.26,1.51,5.87,3.75,6,7.64.24,5.73-.1,11.47.44,17.21a70.05,70.05,0,0,1-.36,11.93c-.2,2.7-.44,5.38-.87,8.05-.14.8-.61,1.94.4,2.34s1.82-.41,2.41-1.18a3.42,3.42,0,0,0,.64-1.52,31.76,31.76,0,0,0,.72-4.95c0-9.43,0-18.86,0-28.29a24.9,24.9,0,0,0-1.39-8.19,9.24,9.24,0,0,0-4.55-5.29c-3.19-1.71-6.65-2.19-10.09-2.63a129,129,0,0,0-15.41-1.39c-4.84-.05-9.65-.51-14.52-.25A143.91,143.91,0,0,0,1556.92,2886.46Z" transform="translate(-1150.64 -2872.18)"/><path class="cls-5" d="M1532.07,3157.64a49.73,49.73,0,0,1-9,9.89c-6.17,5.41-12.8,10.3-18.48,16.27-.54.57-1,1.26-1.95,1.27a4.72,4.72,0,0,1-.9-4.06c.6-4.82,1.27-9.64,1.82-14.46.8-7.05,1.84-14.06,2.54-21.12a198.55,198.55,0,0,0,1.31-22.2c0-1.44.07-2.89-.06-4.32-.18-1.92.67-3.06,2.2-4.14,7.18-5.06,14.26-10.27,21.42-15.34a53.93,53.93,0,0,1,6.53-4.45,6.77,6.77,0,0,1,.27,2.73,95.67,95.67,0,0,1-.91,13.84c-.51,3.95-.93,7.91-1.48,11.86-.59,4.18-1,8.38-1.58,12.56-.45,3.16-.83,6.32-1.07,9.5A101.08,101.08,0,0,0,1532.07,3157.64Z" transform="translate(-1150.64 -2872.18)"/><path class="cls-12" d="M1532.07,3157.64a101.08,101.08,0,0,1,.67-12.17c.24-3.18.62-6.34,1.07-9.5.59-4.18,1-8.38,1.58-12.56.55-3.95,1-7.91,1.48-11.86a95.67,95.67,0,0,0,.91-13.84,6.77,6.77,0,0,0-.27-2.73,53.93,53.93,0,0,0-6.53,4.45c-7.16,5.07-14.24,10.28-21.42,15.34-1.53,1.08-2.38,2.22-2.2,4.14.13,1.43,0,2.88.06,4.32a198.55,198.55,0,0,1-1.31,22.2c-.7,7.06-1.74,14.07-2.54,21.12-.55,4.82-1.22,9.64-1.82,14.46a4.72,4.72,0,0,0,.9,4.06c-.18,1.38-1.29,1.63-2.36,1.8a15.07,15.07,0,0,1-2.33,0c.37-3.48.72-7,1.11-10.44s.8-7,1.21-10.44.83-7,1.23-10.44.77-7,1.15-10.45c.45-4.12,1-8.23,1.3-12.36.22-2.94.73-5.85.66-8.82-.11-4.19-1.56-6.4-5.59-7.57-2.9-.84-5.9-1.35-8.88-1.91-5.71-1.08-11.43-2.1-17.15-3.14-8.47-1.54-16.93-3.06-25.39-4.62-8-1.47-16-3-24-4.46-8.54-1.58-17.08-3.11-25.62-4.68-6.11-1.12-12.21-2.29-18.33-3.42-8.61-1.59-17.23-3.14-25.85-4.74-7.2-1.33-14.4-2.72-21.61-4-8.46-1.55-16.93-3-25.4-4.59-8.85-1.61-17.71-3.22-26.55-4.91-4.3-.81-8.66-1.35-12.84-2.74a10.46,10.46,0,0,1-3.33-1.28l0-1.56c3.75.26,7.42,1.07,11.12,1.62,5.44.82,10.86,1.79,16.3,2.62a24.91,24.91,0,0,1,5.09,1.25,37.54,37.54,0,0,0,9.81,2.06,172,172,0,0,1,23.31,4c7.77,1.84,15.66,3,23.56,4.11a17.37,17.37,0,0,0,4.31,1.09c1.47.09,2.89.61,4.38.48a24.89,24.89,0,0,0,5.27,1.14,8.25,8.25,0,0,0,3.37.49,16.63,16.63,0,0,0,4.26.75,32.47,32.47,0,0,0,5.62,1c.54.14,1.07.33,1.62.43q27.21,5.05,54.42,10.1,30,5.61,60,11.3c6,1.15,11.39.21,16.26-3.64,4.45-3.52,9-6.89,13.57-10.3,6.78-5.09,13.63-10.07,20.65-14.82a17.14,17.14,0,0,0,8-13.53c.3-4,.56-8,.89-12,.48-5.81.66-11.65,1.41-17.44l2.3.06a45.56,45.56,0,0,1-.79,11.88,3.74,3.74,0,0,0-.08.95c.17,4.55-.57,9.07-.48,13.62a29.76,29.76,0,0,1-.93,7.33,17.22,17.22,0,0,1-9,11.8,12.33,12.33,0,0,0-7,10.41c-.54,5.86-1.22,11.7-1.9,17.55-.71,6.08-1.54,12.15-2.25,18.23-.57,4.9-1,9.81-1.58,14.72a44.41,44.41,0,0,1-.57,4.49,3.9,3.9,0,0,0,1.11,3.68c-.15,1.4-1.26,1.65-2.33,1.86A9.6,9.6,0,0,1,1532.07,3157.64Z" transform="translate(-1150.64 -2872.18)"/><path class="cls-11" d="M1581.85,2985.83c1.69-2,2.4-2,3.82,0q9.18,12.78,18.33,25.58c2.73,3.81,5.46,7.62,8.27,11.38a12.3,12.3,0,0,1,2.66,9.6,5.06,5.06,0,0,0-2.19.91,123,123,0,0,0-15.42,11.24c-2.9,2.48-5.88,4.87-8.61,7.56a15.28,15.28,0,0,1-3.23,2.43,2.62,2.62,0,0,1-4-2.59c.48-3.39.56-6.82,1-10.18.56-4.12-.19-8.3.79-12.37q0-19,0-38.09A10.15,10.15,0,0,0,1581.85,2985.83Z" transform="translate(-1150.64 -2872.18)"/><path class="cls-5" d="M1329.43,2885.6l-2.86-.54c.76-2-.14-3.73-.73-5.51a4.06,4.06,0,0,1,2.4-.29c5,0,10.08-.15,15.09.15,5.88.35,11.76.66,17.64,1.19,4.36.4,8.72.77,13.08,1.14,3.65.32,7.27.84,10.91,1.25,3.4.38,6.81.72,10.2,1.11,4.9.57,9.8,1.18,14.7,1.75,3.39.4,6.8.75,10.2,1.12,4.19.45,8.38,1,12.58,1.3,3.5.24,7,.82,10.5.69.52.51,1.19.36,1.81.43,4.66.51,9.32,1,14,1.55,5,.59,9.93,1.23,14.9,1.85l0,0c.53,2.46-.8,4.13-2.37,5.71l-7.7-.13c-.48-2.07-1-2.57-2.94-2.78-3-.33-6-.64-9-1-5.53-.72-11-1.57-16.58-2.22-6.4-.76-12.86-1-19.26-1.92-5.6-.79-11.23-1.34-16.84-2.1a122.12,122.12,0,0,0-20.75-1.31h-1.82a5.25,5.25,0,0,0-4.39-1.95c-4.27-.19-8.5,0-12.81-.76-4-.72-8.16-1.15-12.23-1.86a12.12,12.12,0,0,0-9.12,1.71C1335,2884.09,1332,2883.58,1329.43,2885.6Z" transform="translate(-1150.64 -2872.18)"/><path class="cls-12" d="M1581.85,2985.83a10.15,10.15,0,0,1,1.42,5.45q0,19,0,38.09c-1,4.07-.23,8.25-.79,12.37-.46,3.36-.54,6.79-1,10.18a2.62,2.62,0,0,0,4,2.59,15.28,15.28,0,0,0,3.23-2.43c2.73-2.69,5.71-5.08,8.61-7.56a123,123,0,0,1,15.42-11.24,5.06,5.06,0,0,1,2.19-.91,2.3,2.3,0,0,1,2.43,1.47,3.65,3.65,0,0,0-2.8,1.11L1587,3057.2a6.74,6.74,0,0,1-3,1.49,4.65,4.65,0,0,1-5.44-4.88c0-3,.3-6,.61-9.06.1-1,.21-2.06.26-3.1.83-16.85.47-33.72.59-50.58,0-1.75.25-3.49.38-5.24Z" transform="translate(-1150.64 -2872.18)"/><path class="cls-12" d="M1556.92,2886.46a143.91,143.91,0,0,1,15.4-1.54c4.87-.26,9.68.2,14.52.25a129,129,0,0,1,15.41,1.39c3.44.44,6.9.92,10.09,2.63a9.24,9.24,0,0,1,4.55,5.29,24.9,24.9,0,0,1,1.39,8.19c.08,9.43,0,18.86,0,28.29a31.76,31.76,0,0,1-.72,4.95,3.42,3.42,0,0,1-.64,1.52c-.59.77-1.46,1.55-2.41,1.18s-.54-1.54-.4-2.34c.43-2.67.67-5.35.87-8.05a70.05,70.05,0,0,0,.36-11.93c-.54-5.74-.2-11.48-.44-17.21-.17-3.89-2.78-6.13-6-7.64a27.21,27.21,0,0,0-9.49-2.09c-4.27-.34-8.52-.88-12.78-1.32-.48-.05-1-.07-1.44-.08-1,0-2.08,0-3.12,0a119.31,119.31,0,0,0-26.61,1.92C1555.1,2888.36,1556.23,2887.5,1556.92,2886.46Z" transform="translate(-1150.64 -2872.18)"/><path class="cls-11" d="M1443.15,2887c-2.37-.8-4.88-.56-7.32-.88-4.32-.57-8.67-1-13-1.4-2-.21-4.11-.41-6.16-.6-4.11-.37-8.22-.74-12.31-1.3-2-.26-3.95-.43-5.92-.55-2.62-.16-5.21-.76-7.85-.62-.11,0-.24-.17-.59-.44a10,10,0,0,1,4.41-1.41,23.26,23.26,0,0,1,6.4.6,115.75,115.75,0,0,0,12.29,1.36c4,.36,7.88.9,11.83,1.3,1.89.2,3.8.39,5.69.52,5.31.34,10.57,1.14,15.87,1.61,5.77.5,11.51,1.28,17.27,1.88,2.84.3,5.67.7,8.52.9,1.25.08,1.68.72,1.58,1.88a19.33,19.33,0,0,0-2.09-.42c-4.18-.36-8.37-.58-12.54-1.05-1.73-.2-3.47-.27-5.19-.49A79.29,79.29,0,0,0,1443.15,2887Z" transform="translate(-1150.64 -2872.18)"/><path class="cls-12" d="M1552.57,2898.49a52.37,52.37,0,0,1,16.16,2.28,27.72,27.72,0,0,1,5,2.35,7.16,7.16,0,0,1,3.86,6.86,3.67,3.67,0,0,1-.52,1.53c-1.66-1.92-3.18-4-5.34-5.39-3.47-2.29-7.41-3.1-11.42-3.82-2.56-.46-5.21-.47-7.69-1.4Z" transform="translate(-1150.64 -2872.18)"/><path class="cls-12" d="M1443.15,2887a79.29,79.29,0,0,1,10.88.89c1.72.22,3.46.29,5.19.49,4.17.47,8.36.69,12.54,1.05a19.33,19.33,0,0,1,2.09.42c0,1,0,2,0,3-5-.62-9.93-1.26-14.9-1.85-4.66-.55-9.32-1-14-1.55-.62-.07-1.29.08-1.81-.43C1443.14,2888.3,1443.15,2887.63,1443.15,2887Z" transform="translate(-1150.64 -2872.18)"/><path class="cls-12" d="M1471.44,2898.48c1.57-1.58,2.9-3.25,2.37-5.71l2.86,0c.85,3.7,2.26,4.52,5.84,3.4.72.76,1.68.3,2.51.5a3.33,3.33,0,0,0-.37,3,8.36,8.36,0,0,1-6.81,1.36A20.75,20.75,0,0,1,1471.44,2898.48Z" transform="translate(-1150.64 -2872.18)"/><path class="cls-5" d="M1482.51,2896.13c-3.58,1.12-5,.3-5.84-3.4,1.86-2.11,4.35-2,6.81-1.87.71,0,.86.55.94,1.14C1484.69,2893.81,1483.61,2895,1482.51,2896.13Z" transform="translate(-1150.64 -2872.18)"/><path class="cls-5" d="M1321.34,2883.82c-4.32,1.93-8.75,1.09-13.49,1.23a6,6,0,0,1,4.9-2.8C1315.72,2882,1318.54,2882.94,1321.34,2883.82Z" transform="translate(-1150.64 -2872.18)"/><path class="cls-11" d="M1276.42,3132.59a48.49,48.49,0,0,1-14.31-1.27c-4.75-1-9.42-2.31-14.23-3a2.64,2.64,0,0,1-2.43-2.77c-.06-4.71-.1-9.42,0-14.14,0-2.53,1.79-3.77,4.65-3.47.71.08,1.42.16,2.13.27a3.51,3.51,0,0,1,3.24,3.56c0,2.65.71,5.22.53,7.86a10.73,10.73,0,0,0,.77,4,6.62,6.62,0,0,0,4.54,4.24,72.25,72.25,0,0,0,8.59,2C1272.11,3130.33,1274.44,3130.61,1276.42,3132.59Z" transform="translate(-1150.64 -2872.18)"/><path class="cls-11" d="M1458,3169.89a10.12,10.12,0,0,1,7.54-2.09,22.59,22.59,0,0,1,3.7.87,39.12,39.12,0,0,0,12.27,1.44,3.66,3.66,0,0,0,3.33-2.61,15.83,15.83,0,0,0,.57-4.24c.07-2.86-.37-5.74.43-8.57a5.32,5.32,0,0,1,1.61-2.82,13.9,13.9,0,0,1,.75,2.89c.09,4.06.37,8.13-.54,12.15a37.62,37.62,0,0,0-.88,5.39c-.14,2.07-.8,2.58-2.88,2.64-2.58.08-5-.71-7.51-1.2C1470.4,3172.55,1464.44,3171.24,1458,3169.89Z" transform="translate(-1150.64 -2872.18)"/><path class="cls-11" d="M1360,2940.66a.53.53,0,0,1,.12-.42,4.91,4.91,0,0,0,3.81-3.54,8.13,8.13,0,0,0,.42-3.75l-.05.05c2.6-.43,4.36-2.21,6.17-3.88a31.56,31.56,0,0,1,6.92-5,6.34,6.34,0,0,1,7.91,1.9,14.67,14.67,0,0,0,1.68,2c2.29,2.25,4,2.53,6.85,1.13a3.2,3.2,0,0,0,.63-.34c1.17-.88,1.85-.07,2.64.67a1.85,1.85,0,0,1,.34,2.74c-.58.85-1.26,1.63-1.77,2.54a25.59,25.59,0,0,0-2.74,9.33c-.56,4.17-1.4,8.32-1.16,12.56a15.94,15.94,0,0,0,2.61,8.33c.68,1,1.09,2.39,2.58,2.64a77.85,77.85,0,0,0,7.27,9.21,2.8,2.8,0,0,0,2.17,2.75,13.88,13.88,0,0,1,3.2,1.48c.59.38,1.28.74,1.87-.07a.85.85,0,0,1,.44.11,8,8,0,0,0,5.53,3.35c2.88.59,5.66-.1,8.48-.33,1.69-.14,3.38-.46,5.18.2-1.55,2.4-2.61,4.74-2.42,7.52.13,2,.06,4,0,6a9.15,9.15,0,0,1-2.59,6.24c-1.62,1.76-3.78,2.54-5.86,3.56-5.45,2.68-11.3,2.95-17.19,3.14a5.29,5.29,0,0,1-1.17-.19,86.82,86.82,0,0,1-10.13-2.68c-2.1-.64-4.16-1.67-6.47-1.37a5.46,5.46,0,0,1-5-3.07,2.5,2.5,0,0,0-1.48-2.72,3.42,3.42,0,0,1-1.56-1.42,3.7,3.7,0,0,0-4-1.92l-.1.09c-.41-.83-1.23-1.46-1.08-2.56a1.55,1.55,0,0,0-.93-1.55c-1.28-.62-1.74-1.81-2.27-2.94a80.87,80.87,0,0,0-8.73-14.65.44.44,0,0,1-.05-.43,9.73,9.73,0,0,0,0-1.43c-.64-4.4-.64-8.84-.93-13.26a52.14,52.14,0,0,0-1-6.79,1.67,1.67,0,0,0-.84-1.11l.41-6.28Q1362,2945,1360,2940.66Zm7.77,30.29c.07,1-.22,2.14.29,3.23.73-.34.61-.88.75-1.29a1,1,0,0,1,1.22-.8c1.93.22,1.92.18,1.3-1.73-.31-1-.49-2-.84-3-.2-.53-.28-1.27-1.31-1.34,0,1.21,0,2.39,0,3.55s-.44,1.45-1.43,1.36c.14-1.86-.54-3.8.77-5.53.45-.61,0-1.26-.64-1.52s-1.58-.38-2.08.51a4.18,4.18,0,0,0-.23,3.47C1366,2969.11,1366,2970.69,1367.81,2971Zm7.2,14.92c-.21,2,1,3.24,2.33,4.45.8.76,1.54,1.2,2.26-.09a.7.7,0,0,1,1.18-.24c.64.59.2.94-.32,1.28a1.07,1.07,0,0,0-.43,1.62c.63,1,1.43,1.77,2.73,1.54a7.58,7.58,0,0,0,3.5-1.39c1.7-1.36,1.75-1.7.67-3.69-.73-1.34-.61-1.78.9-2.06,1.24-.24,1.16-.79.75-1.66a3.62,3.62,0,0,0-1.37-1.6c-1.4-.89-1.66-.87-2.67.52-.57.77-1.11.9-1.68.08s-1-1.66-2.12-1.71a.7.7,0,0,1,0-.32c0-1,.06-2.18,1.39-1.9,1.15.24,1.49-.16,2-1,.69-1.22,1.22-1.21,2.09-.08.52.68.87,1.51,1.71,1.9,1.12.06,1.76,1,2.73,1.37s1.28,1.34,1.14,2.35c-.08.62-.35,1.22-.43,1.84s-.18,1.22.45,1.48c1,.39,1.8,1,2.72,1.44,1.21.57,2.12,0,2.48-1.34.14-.53.13-1.1.29-1.62a.91.91,0,0,1,.92-.62c.48,0,.7.32.75.75a13.37,13.37,0,0,0,.12,1.42c.29,1.15,1.24,1.65,2.58,1.57s1.16-1,1.19-1.89,0-1.43,0-2.15a2.89,2.89,0,0,0-2.38-3.08c-.66-.19-1.48.15-2-.6a11.65,11.65,0,0,0-.37-3.31c-.34-1-.87-1.87-1.84-2a8.72,8.72,0,0,1-4.54-2.32,4.22,4.22,0,0,0-1.72-.82c-3.2-.65-4.6-2.9-5.33-5.79-.11-.46-.17-.94-.3-1.4a48.48,48.48,0,0,1-2.24-17,8.53,8.53,0,0,0,0-1.43,2.26,2.26,0,0,0-2.27-2.33,7,7,0,0,1-3-.76,1.44,1.44,0,0,0-1.75.29,2.72,2.72,0,0,0-.94,3.19,25,25,0,0,1,.82,6.85,47.24,47.24,0,0,1-1.22,9,13,13,0,0,0,.35,7.07c.86,2.31,1.81,4.59,2.66,6.91.63,1.72.6,1.75-1.14,2.5a1,1,0,0,0-.66.62.88.88,0,0,1-1.3.64c-1.17-.41-1.22.4-1.12,1.15a1.89,1.89,0,0,0,2.32,1.81Zm-12.4-36.15h-.53c0,2.76,0,5.51,0,8.27a50,50,0,0,0,.31,8.3C1363.14,2964.52,1363.17,2951.64,1362.61,2949.72Z" transform="translate(-1150.64 -2872.18)"/><path class="cls-12" d="M1385.34,3006.51c2.31-.3,4.37.73,6.47,1.37a86.82,86.82,0,0,0,10.13,2.68,5.29,5.29,0,0,0,1.17.19c5.89-.19,11.74-.46,17.19-3.14,2.08-1,4.24-1.8,5.86-3.56a9.15,9.15,0,0,0,2.59-6.24c0-2,.1-4,0-6-.19-2.78.87-5.12,2.42-7.52-1.8-.66-3.49-.34-5.18-.2-2.82.23-5.6.92-8.48.33a8,8,0,0,1-5.53-3.35c1.19,0,2.39,0,3.59.08a36.74,36.74,0,0,0,9.3-.63c7.55-1.74,12.74-6.12,14.22-13.85,2.38-12.39-1-22.93-11.07-31a23.57,23.57,0,0,0-13.56-5.5c-8.58-.46-16.16,4.74-19.25,13.06a26.2,26.2,0,0,0-.35,16.49,78.21,78.21,0,0,1,2.17,7.83c-1.49-.25-1.9-1.67-2.58-2.64a15.94,15.94,0,0,1-2.61-8.33c-.24-4.24.6-8.39,1.16-12.56a25.59,25.59,0,0,1,2.74-9.33c.51-.91,1.19-1.69,1.77-2.54a1.85,1.85,0,0,0-.34-2.74c-.79-.74-1.47-1.55-2.64-.67a3.2,3.2,0,0,1-.63.34c-2.83,1.4-4.56,1.12-6.85-1.13a14.67,14.67,0,0,1-1.68-2,6.34,6.34,0,0,0-7.91-1.9,31.56,31.56,0,0,0-6.92,5c-1.81,1.67-3.57,3.45-6.17,3.88,0-.4.11-.8.11-1.2a5.64,5.64,0,0,1,2.41-4.64,59.23,59.23,0,0,1,14.57-9.14,37.08,37.08,0,0,1,29.39-.61c8.35,3.28,15.92,7.85,22,14.61a66.35,66.35,0,0,1,11.81,19.91c1.18,3,2.09,6,3.19,9a17.21,17.21,0,0,0-.54-6.71,41.89,41.89,0,0,0-8.41-18.1c-5.73-7.15-12-13.72-20.23-18.11a49,49,0,0,0-25.7-5.51c-1.11.05-2.21.33-3.32.46a4.09,4.09,0,0,1-3.56-1,2.52,2.52,0,0,1,1.6-.95,30.34,30.34,0,0,1,7-1.4,41.16,41.16,0,0,1,24,5.28,70.51,70.51,0,0,1,21.78,18.09,52,52,0,0,1,9.06,17.56,67,67,0,0,1,2.23,12.2,21.05,21.05,0,0,1-2.79,13.57c-1.2-.26-1.81.35-2.05,1.44-.27,1.25-.48,2.51-.74,3.75-1.77,8.48-5.67,16.05-12.11,21.62-9.14,7.92-19.85,12.2-32.32,9.65-2.2-.46-4.45-.48-6.63-.95A17,17,0,0,1,1385.34,3006.51Z" transform="translate(-1150.64 -2872.18)"/><path class="cls-12" d="M1384.29,2913a20.88,20.88,0,0,1-4.55,2.63c-1.91,1-3.87,1.91-5.77,2.93a20.21,20.21,0,0,0-6.25,5.16,24.25,24.25,0,0,1-1.91,2.15c-5.82,5.64-9.14,12.62-11,20.4-.13.54-.32,1.08-.4,1.63a2.87,2.87,0,0,1-3.19,2.71,8.87,8.87,0,0,1,.49-2.78c5.74-22.18,19.69-36.8,41.07-44.57a92.19,92.19,0,0,1,14.8-3.92c.8,0,1.59.14,2.39.12a81.06,81.06,0,0,1,18.33,1.34c.73.31,1.45.65,2.2.92,28.43,10.38,45.6,40.19,41,68.42-2.12,12.82-7.78,23.74-17.76,32.26a65.5,65.5,0,0,1-18.59,10.74c-2.59,1-5.22,2-7.84,2.93a16.92,16.92,0,0,0-4.62.92,11.21,11.21,0,0,0-4,.91,15.54,15.54,0,0,0-4.41.35l-5.21.4a24.93,24.93,0,0,0-4.73-.17,20.88,20.88,0,0,0-4.4-.12,97.45,97.45,0,0,1-14-4.9c-15.67-7.27-25.94-19.32-31.51-35.53a95.37,95.37,0,0,1-3.32-13,5,5,0,0,1,0-.95c2.14.34,2.87,1,3.19,3.39a44.53,44.53,0,0,0,1.58,6.76,59.53,59.53,0,0,0,20.33,30.37c9.31,7.45,20,11.65,32.09,11.42a38.4,38.4,0,0,0,25.55-10c1.2-1.06,2.44-2.08,3.59-3.18,6.58-6.26,10-14.1,11.47-22.93.06-.4.13-.79.2-1.18,1.28.25,1.55,1.33,1.68,2.32a10,10,0,0,1-.08,3.32,32.94,32.94,0,0,1-2.93,8.52c-1.33,2.44-2.76,4.83-4.08,7.27a7.84,7.84,0,0,1-2.26,2.7,5.78,5.78,0,0,0-2.58,4.6c-.23,0-.45,0-.67,0s-.57.17-.62.52a.23.23,0,0,0,.12.18.65.65,0,0,0,.78-.22,3.57,3.57,0,0,0,.36-.56,3.52,3.52,0,0,0,2.64-1.46c1.67-2,3.62-3.8,5.19-5.81,10.3-13.25,13.75-28.26,10.59-44.74a52.78,52.78,0,0,0-10.47-23.31,6.33,6.33,0,0,1-1.71-4.82,4,4,0,0,1,3.49,2.15,89.23,89.23,0,0,1,8.39,15.31,55.81,55.81,0,0,1-3.09,50,3.48,3.48,0,0,0-.48,3.3c.75-.09,1.05-.62,1.42-1a52.09,52.09,0,0,0,11.42-18.1,53.29,53.29,0,0,0,3.19-17.81,49,49,0,0,0-1.21-11.15c-3.1-14.33-9.64-26.68-21-36.15-8.3-6.92-18-10.33-28.79-11.05a69.25,69.25,0,0,0-9.77,0,57.41,57.41,0,0,0-6.29.82c4.24.68,7.93,1.18,11.58,2.07a63.69,63.69,0,0,1,21.5,10.22,4.07,4.07,0,0,1,2,4.25c-2.83-1.63-5.67-3.24-8.48-4.89a57.55,57.55,0,0,0-13.87-6.32,86.35,86.35,0,0,0-11.17-2.39c-6.49-.9-12.69-.36-18.52,2.85C1383.25,2910.51,1383.13,2910.79,1384.29,2913Z" transform="translate(-1150.64 -2872.18)"/><path class="cls-12" d="M1328.15,3009c-12.86,0-24.11-11-24.53-23.82-.48-15.07,13.73-25.71,28.3-21.2a25.17,25.17,0,0,1,17.11,27.75A20.83,20.83,0,0,1,1328.15,3009Zm15.11-26c1.71,2.52,2.17,5.11.46,7.83-.22.34-.59.74-.37,1.07.74,1.13,0,2.16-.09,3.24,0,.44-.14,1,.39,1.18.44,0,.55-.32.69-.59a22,22,0,0,0,2.25-8,14.07,14.07,0,0,0-4.41-11.92c-.55-.5-1-1.3-2-1l-.19-.68c.37-1.57-.09-2.66-1.76-3a2.14,2.14,0,0,1-.94-.6,31.84,31.84,0,0,0-3.51-2.74,3.08,3.08,0,0,0-3.36-.25c.49,1.46,1.67,1.94,2.87,2.34.83.28,1.73.39,2.07,1.38a1.87,1.87,0,0,1-.25.41c-1.14,1.08-1.8,2.23-.66,3.73.29.39,0,.75-.31,1l-5.17-2.5a15.31,15.31,0,0,0-10.5-1.19c-6.4,1.62-9.69,7.4-9.11,13.46.89,9.16,6.21,15,15.08,16.84,6.71,1.38,12.52-2.43,14.15-9a17.6,17.6,0,0,0,.27-6.66,36.89,36.89,0,0,1-.3-5.25,2.09,2.09,0,0,1,1.92,1.81c.34,1.45.61,2.92.94,4.38.22.93.23,2,1.43,2.74,0-1.91,0-3.57,0-5.23C1342.9,2984.79,1342.55,2983.79,1343.26,2983Z" transform="translate(-1150.64 -2872.18)"/><path class="cls-5" d="M1445.06,2927.27a6.33,6.33,0,0,0,1.71,4.82,52.78,52.78,0,0,1,10.47,23.31c3.16,16.48-.29,31.49-10.59,44.74-1.57,2-3.52,3.81-5.19,5.81a3.52,3.52,0,0,1-2.64,1.46l0,0a5.78,5.78,0,0,1,2.58-4.6,7.84,7.84,0,0,0,2.26-2.7c1.32-2.44,2.75-4.83,4.08-7.27a32.94,32.94,0,0,0,2.93-8.52,10,10,0,0,0,.08-3.32c-.13-1-.4-2.07-1.68-2.32l-.21-2.43a21.05,21.05,0,0,0,2.79-13.57,67,67,0,0,0-2.23-12.2,52,52,0,0,0-9.06-17.56,70.51,70.51,0,0,0-21.78-18.09,41.16,41.16,0,0,0-24-5.28,30.34,30.34,0,0,0-7,1.4,2.52,2.52,0,0,0-1.6.95c-.53.45-.87,1.19-1.74,1.11-1.15-2.25-1-2.53,1.08-3.69,5.83-3.21,12-3.75,18.52-2.85a86.35,86.35,0,0,1,11.17,2.39,57.55,57.55,0,0,1,13.87,6.32c2.81,1.65,5.65,3.26,8.48,4.89l0,0c1.13,3.45,4.43,4.85,6.79,7.15.17.17.61.05.93.07Z" transform="translate(-1150.64 -2872.18)"/><path class="cls-9" d="M1399.93,3018.4a20.88,20.88,0,0,1,4.4.12c.51,4.74-1.32,8.62-4.56,11.87-7.43,7.47-14.65,15.14-21.91,22.77-4.18,4.4-8.89,8.27-13,12.71-5.54,6-8.58,12.81-7.2,21.14a17.37,17.37,0,0,1-4.31-1.09,25.55,25.55,0,0,0-.31-6.35c-.43-1.8.52-3.57.34-5.38a2.57,2.57,0,0,0,.45-2.91c1.66-2.28,4.07-3.79,6-5.75l26.74-26.75c3.16-3.16,6.3-6.35,9.47-9.49a10.34,10.34,0,0,0,3.49-7.35C1399.58,3020.77,1400.07,3019.61,1399.93,3018.4Z" transform="translate(-1150.64 -2872.18)"/><path class="cls-12" d="M1378.35,2887a122.12,122.12,0,0,1,20.75,1.31c5.61.76,11.24,1.31,16.84,2.1,6.4.9,12.86,1.16,19.26,1.92,5.54.65,11,1.5,16.58,2.22,3,.39,6,.7,9,1,1.91.21,2.46.71,2.94,2.78l-3.09-.28-22.57-2.31c-5.31-.53-10.62-1-15.93-1.53-2.38-.46-3.92,1.06-4.44,4-.76-.19-1.54-.32-2.28-.56a12,12,0,0,0-5.82-.52c-.66-.25-1.42-.07-2-.54l2.46-2c.86.07,1.73.17,2.6.2,1.14,0,2.19-.13,2.61-1.5a38.34,38.34,0,0,0-6.45-.86c-3.86-.39-7.69-1.11-11.58-1.14-2.43-.61-4.7-1.93-7.34-1.51-1.88,0-3.77,0-5.65-.08C1381.91,2889.66,1379.7,2889.2,1378.35,2887Z" transform="translate(-1150.64 -2872.18)"/><path class="cls-12" d="M1338,2884.14a12.12,12.12,0,0,1,9.12-1.71c4.07.71,8.2,1.14,12.23,1.86,4.31.77,8.54.57,12.81.76a5.25,5.25,0,0,1,4.39,1.95c-1.33,1.07-2.94,1.09-4.53,1.15-1.34,0-2.69,0-4,.07a5.92,5.92,0,0,0-5-1.18,38.55,38.55,0,0,0-5.44-.54,26.21,26.21,0,0,1-7.07-.76,12.67,12.67,0,0,0-4.51-.24,3,3,0,0,0-2.47,1.21,20.64,20.64,0,0,0,6.66,1.23,42.7,42.7,0,0,1,8.94,1l.05,1.91c-5.2,0-10.34-.8-15.53-1-1.12,0-2.09-.55-2.2-1.79-.1-1-.64-1.12-1.44-1.06a3.74,3.74,0,0,1-2.87-.93Z" transform="translate(-1150.64 -2872.18)"/><path class="cls-11" d="M1315,3066.94c-4.45.35-8.71-.91-13-1.62-6.06-1-12.09-2.14-18.13-3.22a16.17,16.17,0,0,1-3.22-.89,2.78,2.78,0,0,1-1.49-1.15c-.56-.95-.14-1.79.95-1.71,2.78.2,5.62.1,8.31.84a105.2,105.2,0,0,0,13.39,2.5,48.56,48.56,0,0,1,10.24,2.33,8.67,8.67,0,0,1,3,1.46Z" transform="translate(-1150.64 -2872.18)"/><path class="cls-12" d="M1315,3066.94v-1.46c6.35-.09,12.57,1,18.76,2.18,6.67,1.28,13.29,2.74,20,3.62a2.57,2.57,0,0,1-.45,2.91c-4.59-.54-9.13-1.42-13.67-2.23-7.62-1.36-15.23-2.72-22.85-4A2.91,2.91,0,0,1,1315,3066.94Z" transform="translate(-1150.64 -2872.18)"/><path class="cls-11" d="M1410.05,2894.67l-2.46,2c-5.46-.37-10.92-.77-16.38-1.11-1.14-.07-1.45-.57-1.4-1.66.07-1.33.52-2.67.08-4,2.64-.42,4.91.9,7.34,1.51a4.36,4.36,0,0,0,2.09,1.52,12,12,0,0,0,5.15.84A11.53,11.53,0,0,1,1410.05,2894.67Z" transform="translate(-1150.64 -2872.18)"/><path class="cls-12" d="M1357.34,2952.75a1.67,1.67,0,0,1,.84,1.11,52.14,52.14,0,0,1,1,6.79c.29,4.42.29,8.86.93,13.26a9.73,9.73,0,0,1,0,1.43c-3.83-4.92-4.8-10.57-4.13-16.59A22.22,22.22,0,0,1,1357.34,2952.75Z" transform="translate(-1150.64 -2872.18)"/><path class="cls-11" d="M1272.37,3058.85c-1,.61-1.78,1.07-2.71.23a2.21,2.21,0,0,0-1.6-.34A48.16,48.16,0,0,1,1257,3057c-1.44-.33-2.67-1-2.89-2.71C1258.69,3053,1269.52,3055.62,1272.37,3058.85Z" transform="translate(-1150.64 -2872.18)"/><path class="cls-12" d="M1360.16,2975.77a80.87,80.87,0,0,1,8.73,14.65c.53,1.13,1,2.32,2.27,2.94a1.55,1.55,0,0,1,.93,1.55c-.15,1.1.67,1.73,1.08,2.56a6.46,6.46,0,0,1-3.24-2.74,7.57,7.57,0,0,0-1.56-1.81,9.65,9.65,0,0,1-2.66-3.3c-1.07-2.13-2.49-4.08-3.73-6.12C1360.53,2981.13,1359.61,2978.62,1360.16,2975.77Z" transform="translate(-1150.64 -2872.18)"/><path class="cls-4" d="M1409.61,2897.18a12,12,0,0,1,5.82.52c.74.24,1.52.37,2.28.56,2.81.48,3.92-.06,5.5-2.66,1.56-.16,2.72.78,4,1.45.13,1,.9,1.68,1.26,2.57l-.11,1.22a81.06,81.06,0,0,0-18.33-1.34c-.8,0-1.59-.08-2.39-.12C1408.05,2898.44,1409.3,2898.24,1409.61,2897.18Z" transform="translate(-1150.64 -2872.18)"/><path class="cls-12" d="M1369.94,2891.3a41,41,0,0,1,8.1-.93,8.42,8.42,0,0,1,7,3.73C1379.73,2893.27,1374.47,2894.46,1369.94,2891.3Z" transform="translate(-1150.64 -2872.18)"/><path class="cls-5" d="M1359.15,2890.87c0-.64,0-1.27-.05-1.91a5.16,5.16,0,0,1,2.75-.58c.88-.05,1.34-.4,1.14-1.34a5.92,5.92,0,0,1,5,1.18,4.34,4.34,0,0,0-.17.69c-.1,1,.43,2.11-.72,2.81a5.28,5.28,0,0,1-3.84.88A7.81,7.81,0,0,1,1359.15,2890.87Z" transform="translate(-1150.64 -2872.18)"/><path class="cls-4" d="M1338,2884.14l-.87,1.91c-1.52.22-2.5,1.28-3.49,2.29-1.38,1.41-3,1.25-4.63.79-1.16-.33-1.28-.93-.53-2,.37-.5.92-.88,1-1.58C1332,2883.58,1335,2884.09,1338,2884.14Z" transform="translate(-1150.64 -2872.18)"/><path class="cls-12" d="M1364.39,2933a8.13,8.13,0,0,1-.42,3.75,4.91,4.91,0,0,1-3.81,3.54C1360.3,2937.08,1361.07,2934.27,1364.39,2933Z" transform="translate(-1150.64 -2872.18)"/><path class="cls-2" d="M1373.27,2997.38a3.7,3.7,0,0,1,4,1.92,3.42,3.42,0,0,0,1.56,1.42,2.5,2.5,0,0,1,1.48,2.72c-1.42-.14-3,0-3-2.14a.43.43,0,0,0-.48-.42C1374.33,3001,1374,2999,1373.27,2997.38Z" transform="translate(-1150.64 -2872.18)"/><path class="cls-12" d="M1360,2940.66q2,4.35-2.29,5.81A5.27,5.27,0,0,1,1360,2940.66Z" transform="translate(-1150.64 -2872.18)"/><path class="cls-13" d="M1383.33,3184.09c2.66-1.15,4.86-3.05,7.35-4.48,2-1.15,4-2.38,5.94-3.61a10.26,10.26,0,0,1,2.87-1.17,3.7,3.7,0,0,1,4.09,1.14c.91,1.23.9,2.27-.25,4-3.09,4.57-6.24,9.09-9.34,13.65-8.43,12.43-17,24.79-23.49,38.41a259.83,259.83,0,0,0-13.81,36.23c-4,13.22-6.87,26.74-10.49,40.06-3.9,14.35-8.31,28.52-14.88,41.93a51.91,51.91,0,0,1-10.9,15.36,43.28,43.28,0,0,1-4.09,3.32,43.81,43.81,0,0,1-7.84.82c-5.8-.24-10.21-4-10.72-9.35a27.19,27.19,0,0,1,.82-9.74,67.76,67.76,0,0,1,4.59-11.82c10.48-21.49,19.52-43.59,28.19-65.85,4-10.2,7.81-20.45,12-30.56a166.91,166.91,0,0,1,23.31-39.8A154.13,154.13,0,0,1,1383,3184.7,2.31,2.31,0,0,0,1383.33,3184.09Z" transform="translate(-1150.64 -2872.18)"/><path class="cls-4" d="M1293.41,3101.08c0-1.12,0-2.24.06-3.35.11-1.38.85-1.87,2.11-1.34a10.89,10.89,0,0,1,2.44,1.48,2.86,2.86,0,0,0,3.14.46c4-1.9,7.72-.69,11.46,1a71.18,71.18,0,0,1,13.11,7.84,2.68,2.68,0,0,0,1.26.65,1.6,1.6,0,0,1,0,.38c-.15.28-.27.58-.44.84-1.08,1.74-1.25,1.82-3,.73a17.27,17.27,0,0,0-7.65-2.42,50,50,0,0,0-7.83-.58,22.93,22.93,0,0,1-4.94-.66,5.82,5.82,0,0,1-3.91-2.49c-1.79-2.57-1.89-2.56-4.5-.93a5.13,5.13,0,0,1-.87.36C1293.29,3102.49,1293.49,3101.75,1293.41,3101.08Z" transform="translate(-1150.64 -2872.18)"/><path class="cls-14" d="M1399.2,3120.14c.55-.86.25-1.58.31-2.25.08-1,.57-1.56,1.54-1.32a38.92,38.92,0,0,1,6.66,1.87,5.22,5.22,0,0,1,2.91,3c.67,1.83.22,2.55-1.67,2.63a8.06,8.06,0,0,1-3-.58q-1.9-.68-3.81-1.41c-1.21-.47-2.36-1-3.25.62a1.37,1.37,0,0,1-1.92.46c-3.1-2-6.62-2.1-10.11-2.38a3.43,3.43,0,0,1-.75-.31c1.86-2.11,3.66-3.91,6.6-4.18S1397.33,3118.25,1399.2,3120.14Z" transform="translate(-1150.64 -2872.18)"/><path class="cls-14" d="M1327,3108.17a1.6,1.6,0,0,0,0-.38c.32-.9.68-1.79,1-2.7a3.52,3.52,0,0,1,3.75-2.71c.48,0,1,0,1.44,0,2.61.09,3.58,1,4,3.52.14.94.35,1.89.4,2.84a18.18,18.18,0,0,0,.94,3A15.5,15.5,0,0,1,1327,3108.17Z" transform="translate(-1150.64 -2872.18)"/><path class="cls-14" d="M1372.59,3110.12a13.07,13.07,0,0,1-.38,4.74c-.58,1.66-1.37,2.16-3.09,1.81a19.31,19.31,0,0,1-2.77-.77c-3.43-1.19-4.56-3-4.16-6.81.78-.34,1.32.2,1.91.54.35.2.67.43,1,.66,3.74,2.54,4.05,2.53,7.51-.15Z" transform="translate(-1150.64 -2872.18)"/><path class="cls-14" d="M1293.41,3101.08c.08.67-.12,1.41.5,1.94-.71,1-1.64.83-2.59.5-1.72-.62-3.42-1.28-5.15-1.89-.71-.26-.72-.68-.53-1.31a11.87,11.87,0,0,1,2.52-4.29,1.33,1.33,0,0,1,2.07-.14,5.46,5.46,0,0,1,1.58,2.63C1292.19,3099.48,1292.4,3100.53,1293.41,3101.08Z" transform="translate(-1150.64 -2872.18)"/><path class="cls-14" d="M1430.15,3120.8c.38,0,.57.26.75.51a19.6,19.6,0,0,1,3,7c.13.56-.11,1-.73.87a26.14,26.14,0,0,1-4.87-1.15c-1.29-.56-1.59-1.35-1.07-2.69a21.69,21.69,0,0,1,2.22-4C1429.61,3121.1,1429.79,3120.83,1430.15,3120.8Z" transform="translate(-1150.64 -2872.18)"/><path class="cls-14" d="M1419.91,3126.87c-1.77,0-2.59-.81-2.67-2.61,0-1.19-.06-2.38,0-3.57.07-1.47.51-1.89,1.84-1.94s2.25.49,2.39,1.76c.19,1.65.11,3.31.46,5C1422.13,3126.42,1421.3,3126.9,1419.91,3126.87Z" transform="translate(-1150.64 -2872.18)"/><path class="cls-14" d="M1349,3111.46c.2,1.53-.24,2.16-1.15,2.28a2.44,2.44,0,0,1-2.67-1.09,3.05,3.05,0,0,1-.35-1.36c0-1.26-.07-2.53,0-3.79s.73-2,1.81-2.06a1.88,1.88,0,0,1,2,1.88A26.07,26.07,0,0,0,1349,3111.46Z" transform="translate(-1150.64 -2872.18)"/><path class="cls-14" d="M1372.61,3110.14l.09-.17-.11.15Z" transform="translate(-1150.64 -2872.18)"/><path class="cls-13" d="M1205.64,3322.56a23.48,23.48,0,0,1-5.49-.14,9.3,9.3,0,0,1-7.15-6.07,27.88,27.88,0,0,1-1.73-7.93,78.73,78.73,0,0,1,5.74-38.94c8-19.32,17.31-37.95,29.21-55.22a212.9,212.9,0,0,1,26.46-31.56,61.85,61.85,0,0,1,16-11.22c2.49-1.23,4.89-1.5,7.11.57a25.31,25.31,0,0,1-4.21,8c-2.42,3.38-5.27,6.41-7.92,9.6a183,183,0,0,0-11.39,16,246.42,246.42,0,0,0-15.08,26.12,194.34,194.34,0,0,0-15.06,40.52,201.36,201.36,0,0,0-4.17,23.52,60.21,60.21,0,0,1-3.25,14.43A26.68,26.68,0,0,1,1205.64,3322.56Z" transform="translate(-1150.64 -2872.18)"/><path class="cls-14" d="M1428.33,2900.84c0-.41.07-.81.11-1.22,5.16.56,10.32,1.15,15.48,1.68,3.25.34,6.51.62,9.77.92,4,.91,8,1.46,12,2a11.94,11.94,0,0,0,2.86-.08,2.6,2.6,0,0,0,2.08-1.44c.35-.64.25-1.1-.53-1.19-1.26-.15-2.53-.27-3.8-.38-4.21-.35-8.38-1-12.61-1.15-2.75-.43-5.49-.9-8.24-1.28-6.06-.86-12.11-1.91-18.27-1.69-1.25-.67-2.41-1.61-4-1.45-.36-.45-.71-.91-1.06-1.37,5.31.51,10.62,1,15.93,1.53l22.57,2.31,3.09.28,7.7.13a20.75,20.75,0,0,0,6.4,2.54,8.36,8.36,0,0,0,6.81-1.36,5.07,5.07,0,0,1,3.63.65l3.75,1.94a12.59,12.59,0,0,1-7.42,1.28,52.84,52.84,0,0,1-6.37-1c-2.51-.61-3.64.3-4,3.05l7.36.62c6.06.51,12.07,1.21,17.82,3.33a10,10,0,0,0,4,.61c6.58-.34,13,1,19.53,1.62,5.08.51,10.15,1.07,15.22,1.61.69.22,1.38.42,2.06.65,5.35,1.86,9.7,4.79,11.68,10.46.68,2,1.69,3.86,1.64,6-.12,4.24.49,8.46.37,12.7-.3,11.1-.57,22.21-1,33.31-.32,8.39-.83,16.77-1.24,25.15-.15,3-.29,5.91-.41,8.87,0,1.39.69,1.86,1.91,1.24a2.37,2.37,0,0,0,1.16-2.45c0-2-.14-4-.21-6-.18-4.55-.63-9.13,0-13.66,1-7.7,1.71-15.41,2-23.16q.72-17.39.23-34.78c-.21-7.54-3.9-13.39-9.84-17.85a9.36,9.36,0,0,0-8.35-1.85,81.05,81.05,0,0,0-17.94-3.77c-7.82-.84-15.57-2.34-23.43-2.85-1.72-.11-2.47-1.06-2.67-3a8.27,8.27,0,0,1,6.22-.22,11.58,11.58,0,0,0,4.21.67,5,5,0,0,0,3.19,1.44q16.39,2,32.79,4a44.89,44.89,0,0,1,7.79,1.28,15.67,15.67,0,0,1,11.28,11.62,30.2,30.2,0,0,1,.66,4c.78,6.52.58,13.08.8,19.62.44,12.46-.58,24.89-1,37.34-.28,8.3-.57,16.6.19,24.89.07,2.21-.4,4.37-.54,6.56a2.54,2.54,0,0,0-.36.58c-1.83,5.68-1.41,11.39-.18,17.11a4.69,4.69,0,0,0-2.23,4.17,23.48,23.48,0,0,0,.43,5.61c-.75,5.79-.93,11.63-1.41,17.44-.33,4-.59,8-.89,12a17.14,17.14,0,0,1-8,13.53c-7,4.75-13.87,9.73-20.65,14.82-4.55,3.41-9.12,6.78-13.57,10.3-4.87,3.85-10.26,4.79-16.26,3.64q-30-5.73-60-11.3-27.21-5.09-54.42-10.1c-.55-.1-1.08-.29-1.62-.43a11.63,11.63,0,0,0-.06-3.06c-.34-3.07-.58-6.16,1.32-8.91,11.83,3.1,23.86,5.22,35.9,7.25,8,1.33,15.93,2.52,23.83,4.16,7.66,1.59,15.27,3.44,23.07,4.23a69.59,69.59,0,0,0,7.65.27c-.32-2.47-.31-2.58-2.32-2.78a26.55,26.55,0,0,1-7-1.49,21.16,21.16,0,0,0-10.28-1.42c-2.22.28-4.16-1-6.27-1.35-5.5-1-11-2.16-16.48-3-10.26-1.6-20.4-3.86-30.64-5.53-4.25-.68-8.41-1.86-12.76-1.94a4.57,4.57,0,0,1-3.33-1.15c1.57-4.09,4.52-7.11,7.75-9.87a66.79,66.79,0,0,0,5.1-4.7c3.48-3.63,6.89-7.33,10.41-10.91,4.65-4.72,9.38-9.36,14.07-14a23.07,23.07,0,0,0,6.58-12,28.11,28.11,0,0,0,.21-8.54c2.62-1,5.25-1.9,7.84-2.93a65.5,65.5,0,0,0,18.59-10.74c10-8.52,15.64-19.44,17.76-32.26,4.65-28.23-12.52-58-41-68.42C1429.78,2901.49,1429.06,2901.15,1428.33,2900.84Zm87.28,15.56-.52,0-.67-.09c-2-2-4.53-2.14-7.09-2.25-2.85-.12-5.75.19-8.41-1.26a1.61,1.61,0,0,0-.92-.16c-3.71.43-7.48.08-11.18.77-4,0-6.13,1.7-6.84,5.52a15.8,15.8,0,0,0-.24,1.66c-.61,10-1.47,19.93-1.62,29.93-.11,6.47-.11,12.95.13,19.42.25,6.82,3.37,10.63,10,12.26,1.09.27,2.18.52,3.27.76a217.32,217.32,0,0,0,33.19,4.65,88.73,88.73,0,0,0,12,.2c4.07-.28,6.49-2.37,7.49-6.22a8.82,8.82,0,0,0,.76-2.5,62,62,0,0,0,1.14-11c.21-6.07,1.18-12.09,1.22-18.17,0-5.51,0-11,0-16.54a28.11,28.11,0,0,0-.44-6.21c-.9-4-3.12-6.77-7.16-7.89-2.46-.68-4.91-1.45-7.4-2C1526.74,2916.1,1521.23,2915.18,1515.61,2916.4ZM1492,3099.21c6.83,2.85,13.09,2,18.71-2.9a33.62,33.62,0,0,0,4.48-5c1.41-1.85,2.8-3.69,4.24-5.51,7.48-9.49,15.57-18.45,23.82-27.25a34.4,34.4,0,0,0,9.19-18.11c1.32-7.79.46-15.5-1.1-23.16a144,144,0,0,0-1.2,17,31.24,31.24,0,0,1-5,17,49.86,49.86,0,0,1-5.61,7.16c-9.73,10.61-19.13,21.49-28.06,32.78a21.83,21.83,0,0,1-4.84,4.61,12.22,12.22,0,0,1-9.81,2c-.93-.21-1.87-.37-2.81-.55-5.29-2.36-11-2.16-16.61-3.14a9.12,9.12,0,0,0,6.3,4C1486.48,3098.6,1489.25,3098.85,1492,3099.21Zm17.07-75.87c5.57-4.81,8.21-10.74,6.61-18.1-1.31-6-5.07-10.38-10.06-13.77-6.56-4.53-13.32-5-20.18-.81-3.67,2.26-7.18,4.77-10.73,7.22a19.57,19.57,0,0,0-3.69,3.41,15.35,15.35,0,0,0-4,10.51,20.29,20.29,0,0,0,8.93,16.9,16.27,16.27,0,0,0,10.82,3.14,44.09,44.09,0,0,0,11.3-1.94C1502.24,3028.51,1506.12,3026.69,1509.08,3023.34Z" transform="translate(-1150.64 -2872.18)"/><path class="cls-12" d="M1560.25,3007c-.76-8.29-.47-16.59-.19-24.89.43-12.45,1.45-24.88,1-37.34-.22-6.54,0-13.1-.8-19.62a30.2,30.2,0,0,0-.66-4,15.67,15.67,0,0,0-11.28-11.62,44.89,44.89,0,0,0-7.79-1.28q-16.38-2-32.79-4a5,5,0,0,1-3.19-1.44c1.43-1.2,3.2-1.27,4.94-1.42,3-.26,5.87.43,8.76,1a60.51,60.51,0,0,0,8.29,1c3.56.24,7.11.82,10.64,1.41,3.77.63,7.59.83,11.32,1.8,8.38,2.17,13.39,7.72,14.66,16.33a110,110,0,0,1,.94,16.22c0,8.23.1,16.46-.11,24.69-.22,8.45-.63,16.9-1,25.34-.23,4.87-.22,9.73-.38,14.59C1562.5,3006,1562.18,3006.49,1560.25,3007Z" transform="translate(-1150.64 -2872.18)"/><path class="cls-11" d="M1538.17,2913.33c-5.07-.54-10.14-1.1-15.22-1.61-6.5-.66-13-2-19.53-1.62a10,10,0,0,1-4-.61c-5.75-2.12-11.76-2.82-17.82-3.33l-7.36-.62c.36-2.75,1.49-3.66,4-3.05a52.84,52.84,0,0,0,6.37,1,12.59,12.59,0,0,0,7.42-1.28l2.1.11c.2,1.9.95,2.85,2.67,3,7.86.51,15.61,2,23.43,2.85a81.05,81.05,0,0,1,17.94,3.77A1.24,1.24,0,0,0,1538.17,2913.33Z" transform="translate(-1150.64 -2872.18)"/><path class="cls-12" d="M1559.17,3031.24c-1.23-5.72-1.65-11.43.18-17.11a2.54,2.54,0,0,1,.36-.58c1.72,2.22,1.74,4.91,1.89,7.49.2,3.67-.64,7.26-1.38,10.84A1.08,1.08,0,0,1,1559.17,3031.24Z" transform="translate(-1150.64 -2872.18)"/><path class="cls-11" d="M1559.17,3031.24a1.08,1.08,0,0,0,1,.64c-.18,3.07-.36,6.13-.55,9.2l-2.3-.06a23.48,23.48,0,0,1-.43-5.61A4.69,4.69,0,0,1,1559.17,3031.24Z" transform="translate(-1150.64 -2872.18)"/><path class="cls-7" d="M1427.29,3016.11a28.11,28.11,0,0,1-.21,8.54,23.07,23.07,0,0,1-6.58,12c-4.69,4.67-9.42,9.31-14.07,14-3.52,3.58-6.93,7.28-10.41,10.91a66.79,66.79,0,0,1-5.1,4.7c-3.23,2.76-6.18,5.78-7.75,9.87-1.69.53-1.69.53-1.37,2.77-1.9,2.75-1.66,5.84-1.32,8.91a11.63,11.63,0,0,1,.06,3.06,32.47,32.47,0,0,1-5.62-1,38.28,38.28,0,0,1,.3-7.64,27.09,27.09,0,0,1,7.54-13.64c2.4-2.45,5-4.68,7.43-7.13q10.35-10.49,20.59-21.08c2.61-2.69,5.48-5.13,7.79-8.12,3.49-4.51,5.09-9.52,4.1-15.23A16.92,16.92,0,0,1,1427.29,3016.11Z" transform="translate(-1150.64 -2872.18)"/><path class="cls-4" d="M1422.67,3017c1,5.71-.61,10.72-4.1,15.23-2.31,3-5.18,5.43-7.79,8.12q-10.26,10.57-20.59,21.08c-2.41,2.45-5,4.68-7.43,7.13a27.09,27.09,0,0,0-7.54,13.64,38.28,38.28,0,0,0-.3,7.64,16.63,16.63,0,0,1-4.26-.75c0-2.63.14-5.28,0-7.9-.24-4.07,1.41-7.23,4.2-10q18.39-18.37,36.74-36.79a31.92,31.92,0,0,0,5.51-7.18,16.91,16.91,0,0,0,1.59-9.3A11.21,11.21,0,0,1,1422.67,3017Z" transform="translate(-1150.64 -2872.18)"/><path class="cls-8" d="M1409.06,3018.69l5.21-.4a14.7,14.7,0,0,1-4.16,12.27c-4.14,4.43-8.44,8.71-12.64,13.08-7.8,8.11-16,15.88-23.79,24a21.48,21.48,0,0,0-6.38,15.76c0,1.76,0,3.52,0,5.28a24.89,24.89,0,0,1-5.27-1.14,18.66,18.66,0,0,1,.44-9.89c1.51-5.68,5.08-10,9.41-13.82.77-.69,1.58-1.33,2.31-2.07q14.58-14.55,29.13-29.12C1407.13,3028.76,1409.38,3024.24,1409.06,3018.69Z" transform="translate(-1150.64 -2872.18)"/><path class="cls-10" d="M1409.06,3018.69c.32,5.55-1.93,10.07-5.75,13.9q-14.54,14.58-29.13,29.12c-.73.74-1.54,1.38-2.31,2.07-4.33,3.79-7.9,8.14-9.41,13.82a18.66,18.66,0,0,0-.44,9.89c-1.49.13-2.91-.39-4.38-.48-1.38-8.33,1.66-15.18,7.2-21.14,4.13-4.44,8.84-8.31,13-12.71,7.26-7.63,14.48-15.3,21.91-22.77,3.24-3.25,5.07-7.13,4.56-11.87A24.93,24.93,0,0,1,1409.06,3018.69Z" transform="translate(-1150.64 -2872.18)"/><path class="cls-6" d="M1367.29,3088.63c0-1.76,0-3.52,0-5.28a21.48,21.48,0,0,1,6.38-15.76c7.84-8.07,16-15.84,23.79-24,4.2-4.37,8.5-8.65,12.64-13.08a14.7,14.7,0,0,0,4.16-12.27,15.54,15.54,0,0,1,4.41-.35,16.91,16.91,0,0,1-1.59,9.3,31.92,31.92,0,0,1-5.51,7.18q-18.36,18.4-36.74,36.79c-2.79,2.78-4.44,5.94-4.2,10,.16,2.62,0,5.27,0,7.9A8.25,8.25,0,0,1,1367.29,3088.63Z" transform="translate(-1150.64 -2872.18)"/><path class="cls-7" d="M1397,2967.61a78.21,78.21,0,0,0-2.17-7.83,26.2,26.2,0,0,1,.35-16.49c3.09-8.32,10.67-13.52,19.25-13.06a23.57,23.57,0,0,1,13.56,5.5c10.09,8,13.45,18.57,11.07,31-1.48,7.73-6.67,12.11-14.22,13.85a36.74,36.74,0,0,1-9.3.63c-1.2,0-2.4-.06-3.59-.08a.85.85,0,0,0-.44-.11c-1.22-1.68-3.72-1.63-4.8-3.59-.28-.51-1.24-.63-2-.62a3.75,3.75,0,0,0-.47.05A77.85,77.85,0,0,1,1397,2967.61Zm39.88-11.55a4.35,4.35,0,0,0-.06-.74c-1.4-4.81-3.45-9.27-7.06-12.87a4.62,4.62,0,0,0-1.39-.9,2,2,0,0,0-3,1.11,5.29,5.29,0,0,0-.18,4,32.42,32.42,0,0,0,5.08,9.71,10.37,10.37,0,0,0,2.25,2.13,2.46,2.46,0,0,0,2.87.38A2.91,2.91,0,0,0,1436.88,2956.06Z" transform="translate(-1150.64 -2872.18)"/><path class="cls-5" d="M1387.91,2981.51c-.84-.39-1.19-1.22-1.71-1.9-.87-1.13-1.4-1.14-2.09.08-.47.85-.81,1.25-2,1-1.33-.28-1.4.91-1.39,1.9-.94-.11-1.63-1-2.62-.91-.56.61,0,1.6-.61,2.09-.94.08-1.47-.85-2.34-.57-.39.66-.15,1.39-.25,2.08a1.89,1.89,0,0,1-2.32-1.81c-.1-.75,0-1.56,1.12-1.15a.88.88,0,0,0,1.3-.64,1,1,0,0,1,.66-.62c1.74-.75,1.77-.78,1.14-2.5-.85-2.32-1.8-4.6-2.66-6.91a13,13,0,0,1-.35-7.07,47.24,47.24,0,0,0,1.22-9,25,25,0,0,0-.82-6.85,2.72,2.72,0,0,1,.94-3.19,1.44,1.44,0,0,1,1.75-.29,7,7,0,0,0,3,.76,2.26,2.26,0,0,1,2.27,2.33,8.53,8.53,0,0,1,0,1.43,48.48,48.48,0,0,0,2.24,17c.13.46.19.94.3,1.4.73,2.89,2.13,5.14,5.33,5.79a4.22,4.22,0,0,1,1.72.82,8.72,8.72,0,0,0,4.54,2.32c1,.14,1.5,1,1.84,2a11.65,11.65,0,0,1,.37,3.31,5,5,0,0,1-4.68-4c-.34-1.23-.75-1.33-1.78-.89A7,7,0,0,0,1387.91,2981.51Z" transform="translate(-1150.64 -2872.18)"/><path class="cls-12" d="M1387.91,2981.51a7,7,0,0,1,4.14-4c1-.44,1.44-.34,1.78.89a5,5,0,0,0,4.68,4c.48.75,1.3.41,2,.6a2.89,2.89,0,0,1,2.38,3.08c0,.72,0,1.44,0,2.15s.15,1.81-1.19,1.89-2.29-.42-2.58-1.57a13.37,13.37,0,0,1-.12-1.42c0-.43-.27-.75-.75-.75a.91.91,0,0,0-.92.62c-.16.52-.15,1.09-.29,1.62-.36,1.37-1.27,1.91-2.48,1.34-.92-.44-1.76-1-2.72-1.44-.63-.26-.52-1-.45-1.48s.35-1.22.43-1.84c.14-1,0-1.95-1.14-2.35S1389,2981.57,1387.91,2981.51Z" transform="translate(-1150.64 -2872.18)"/><path class="cls-5" d="M1380.74,2982.92c1.13,0,1.57.93,2.12,1.71s1.11.69,1.68-.08c1-1.39,1.27-1.41,2.67-.52a3.62,3.62,0,0,1,1.37,1.6c.41.87.49,1.42-.75,1.66-1.51.28-1.63.72-.9,2.06,1.08,2,1,2.33-.67,3.69a7.58,7.58,0,0,1-3.5,1.39c-1.3.23-2.1-.57-2.73-1.54a1.07,1.07,0,0,1,.43-1.62c.52-.34,1-.69.32-1.28a.7.7,0,0,0-1.18.24c-.72,1.29-1.46.85-2.26.09-1.29-1.21-2.54-2.44-2.33-4.45,1.13.51,2.28,1.05,2.84-.71.15-.48.41-.48.87-.46C1380.56,2984.78,1380.56,2984.74,1380.74,2982.92Z" transform="translate(-1150.64 -2872.18)"/><path class="cls-5" d="M1362.61,2949.72c.56,1.92.53,14.8-.21,16.56a50,50,0,0,1-.31-8.3c0-2.76,0-5.51,0-8.27Z" transform="translate(-1150.64 -2872.18)"/><path class="cls-5" d="M1367.81,2971c-1.78-.26-1.78-1.84-2.19-3a4.18,4.18,0,0,1,.23-3.47c.5-.89,1.31-.82,2.08-.51s1.09.91.64,1.52c-1.31,1.73-.63,3.67-.77,5.53Z" transform="translate(-1150.64 -2872.18)"/><path class="cls-12" d="M1380.74,2982.92c-.18,1.82-.18,1.86-2,1.78-.46,0-.72,0-.87.46-.56,1.76-1.71,1.22-2.84.71,0-.19,0-.38-.07-.58.1-.69-.14-1.42.25-2.08.87-.28,1.4.65,2.34.57.66-.49,0-1.48.61-2.09,1-.07,1.68.8,2.62.91A.7.7,0,0,0,1380.74,2982.92Z" transform="translate(-1150.64 -2872.18)"/><path class="cls-5" d="M1367.8,2971c1,.09,1.47-.32,1.43-1.36s0-2.34,0-3.55c1,.07,1.11.81,1.31,1.34.35,1,.53,2,.84,3,.62,1.91.63,1.95-1.3,1.73a1,1,0,0,0-1.22.8c-.14.41,0,1-.75,1.29-.51-1.09-.22-2.19-.29-3.23Z" transform="translate(-1150.64 -2872.18)"/><path class="cls-1" d="M1404.27,2976.82a3.75,3.75,0,0,1,.47-.05c.73,0,1.69.11,2,.62,1.08,2,3.58,1.91,4.8,3.59-.59.81-1.28.45-1.87.07a13.88,13.88,0,0,0-3.2-1.48A2.8,2.8,0,0,1,1404.27,2976.82Z" transform="translate(-1150.64 -2872.18)"/><path class="cls-5" d="M1437.4,2920.1a4.07,4.07,0,0,0-2-4.25,63.69,63.69,0,0,0-21.5-10.22c-3.65-.89-7.34-1.39-11.58-2.07a57.41,57.41,0,0,1,6.29-.82,69.25,69.25,0,0,1,9.77,0c10.76.72,20.49,4.13,28.79,11.05,11.38,9.47,17.92,21.82,21,36.15a49,49,0,0,1,1.21,11.15,53.29,53.29,0,0,1-3.19,17.81,52.09,52.09,0,0,1-11.42,18.1c-.37.38-.67.91-1.42,1a3.48,3.48,0,0,1,.48-3.3,55.81,55.81,0,0,0,3.09-50,89.23,89.23,0,0,0-8.39-15.31,4,4,0,0,0-3.49-2.15l0,0a18.31,18.31,0,0,1-2.16-4.5,3.77,3.77,0,0,0-2.55-2.27,9.35,9.35,0,0,0-3-.45Z" transform="translate(-1150.64 -2872.18)"/><path class="cls-5" d="M1438.82,3007.41a3.57,3.57,0,0,1-.36.56.65.65,0,0,1-.78.22.23.23,0,0,1-.12-.18c0-.35.3-.48.62-.52s.44,0,.67,0Z" transform="translate(-1150.64 -2872.18)"/><path class="cls-10" d="M1338.56,2982a36.89,36.89,0,0,0,.3,5.25,17.6,17.6,0,0,1-.27,6.66c-1.63,6.6-7.44,10.41-14.15,9-8.87-1.81-14.19-7.68-15.08-16.84-.58-6.06,2.71-11.84,9.11-13.46a15.31,15.31,0,0,1,10.5,1.19l5.17,2.5,1.39.88c0,1.82.53,3.3,2.42,4Z" transform="translate(-1150.64 -2872.18)"/><path class="cls-11" d="M1335.53,2977.21l-1.39-.88c.36-.26.6-.62.31-1-1.14-1.5-.48-2.65.66-3.73a1.87,1.87,0,0,0,.25-.41c.88.17,1.78.17,2.21,1.29s1.44,1.34,2.42,1.63c.06.22.13.45.19.68l3.08,8.18c-.71.83-.36,1.83-.39,2.74-.06,1.66,0,3.32,0,5.23-1.2-.76-1.21-1.81-1.43-2.74-.33-1.46-.6-2.93-.94-4.38a2.09,2.09,0,0,0-1.92-1.81l-.61-.83a1,1,0,0,0,.47-1.22C1337.85,2978.64,1337.21,2977.37,1335.53,2977.21Z" transform="translate(-1150.64 -2872.18)"/><path class="cls-14" d="M1343.26,2983l-3.08-8.18c1-.34,1.45.46,2,1a14.07,14.07,0,0,1,4.41,11.92,22,22,0,0,1-2.25,8c-.14.27-.25.59-.69.59-.53-.23-.43-.74-.39-1.18.11-1.08.83-2.11.09-3.24-.22-.33.15-.73.37-1.07C1345.43,2988.07,1345,2985.48,1343.26,2983Z" transform="translate(-1150.64 -2872.18)"/><path class="cls-14" d="M1340,2974.1c-1-.29-2-.63-2.42-1.63s-1.33-1.12-2.21-1.29c-.34-1-1.24-1.1-2.07-1.38-1.2-.4-2.38-.88-2.87-2.34a3.08,3.08,0,0,1,3.36.25,31.84,31.84,0,0,1,3.51,2.74,2.14,2.14,0,0,0,.94.6C1339.9,2971.44,1340.36,2972.53,1340,2974.1Z" transform="translate(-1150.64 -2872.18)"/><path class="cls-12" d="M1437.37,2920.08a9.35,9.35,0,0,1,3,.45,3.77,3.77,0,0,1,2.55,2.27,18.31,18.31,0,0,0,2.16,4.5c-.32,0-.76.1-.93-.07C1441.8,2924.93,1438.5,2923.53,1437.37,2920.08Z" transform="translate(-1150.64 -2872.18)"/><path class="cls-14" d="M1410.05,2894.67a11.53,11.53,0,0,0-5.58-.94,12,12,0,0,1-5.15-.84,4.36,4.36,0,0,1-2.09-1.52c3.89,0,7.72.75,11.58,1.14a38.34,38.34,0,0,1,6.45.86c-.42,1.37-1.47,1.54-2.61,1.5C1411.78,2894.84,1410.91,2894.74,1410.05,2894.67Z" transform="translate(-1150.64 -2872.18)"/><path class="cls-11" d="M1422.15,2894.23c.35.46.7.92,1.06,1.37-1.58,2.6-2.69,3.14-5.5,2.66C1418.23,2895.29,1419.77,2893.77,1422.15,2894.23Z" transform="translate(-1150.64 -2872.18)"/><path class="cls-14" d="M1363,2887c.2.94-.26,1.29-1.14,1.34a5.16,5.16,0,0,0-2.75.58,42.7,42.7,0,0,0-8.94-1,20.64,20.64,0,0,1-6.66-1.23,3,3,0,0,1,2.47-1.21,12.67,12.67,0,0,1,4.51.24,26.21,26.21,0,0,0,7.07.76A38.55,38.55,0,0,1,1363,2887Z" transform="translate(-1150.64 -2872.18)"/><path class="cls-12" d="M1427.18,2897.05c6.16-.22,12.21.83,18.27,1.69,2.75.38,5.49.85,8.24,1.28v2.2c-3.26-.3-6.52-.58-9.77-.92-5.16-.53-10.32-1.12-15.48-1.68C1428.08,2898.73,1427.31,2898,1427.18,2897.05Z" transform="translate(-1150.64 -2872.18)"/><path class="cls-7" d="M1514.42,2916.29l.67.09.52.39c.55.91,1.54,1.09,2.41,1.42a28,28,0,0,0,8.47,1.42,38.11,38.11,0,0,1,12.41,2.33,8,8,0,0,1,5.12,6.16,22.92,22.92,0,0,1,.43,4.52c0,10.31-.75,20.6-1.1,30.9-.19,5.5-.62,11-.93,16.5a81.39,81.39,0,0,1-13.14,1,120,120,0,0,1-19.28-2.11c-6.36-1.17-12.77-2.1-19-3.66-4.14-1-5.45-2.68-5.6-6.91-.2-5.51-.31-11-.45-16.54-.2-8,.85-15.95,1.66-23.9.31-3.09.33-6.23,1.28-9.24a6.57,6.57,0,0,1,6.56-3c1.2.1,2.38.18,3.57.38a59.71,59.71,0,0,0,10,1.31C1510.13,2917.34,1512.4,2917.55,1514.42,2916.29Zm27.19,18.77a7,7,0,0,0-.58-2.8,21.69,21.69,0,0,0-3.07-5.1,8.3,8.3,0,0,0-6-3.46,3.08,3.08,0,0,0-3.6,3.36,8.92,8.92,0,0,0,.7,2.52,19.56,19.56,0,0,0,4.42,6.47,9.51,9.51,0,0,0,4.35,2.83,2.81,2.81,0,0,0,3.54-1.94A12.89,12.89,0,0,0,1541.61,2935.06Z" transform="translate(-1150.64 -2872.18)"/><path class="cls-2" d="M1487.84,2918.67c-.95,3-1,6.15-1.28,9.24-.81,8-1.86,15.88-1.66,23.9.14,5.51.25,11,.45,16.54.15,4.23,1.46,5.87,5.6,6.91,6.28,1.56,12.69,2.49,19,3.66a120,120,0,0,0,19.28,2.11,81.39,81.39,0,0,0,13.14-1c.68.4.82,1.39,1.71,1.55-1,3.85-3.42,5.94-7.49,6.22a88.73,88.73,0,0,1-12-.2,217.32,217.32,0,0,1-33.19-4.65c-1.09-.24-2.18-.49-3.27-.76-6.58-1.63-9.7-5.44-10-12.26-.24-6.47-.24-13-.13-19.42.15-10,1-20,1.62-29.93a15.8,15.8,0,0,1,.24-1.66c.71-3.82,2.88-5.57,6.84-5.52A12.46,12.46,0,0,0,1487.84,2918.67Z" transform="translate(-1150.64 -2872.18)"/><path class="cls-12" d="M1509.08,3023.34c-3,3.35-6.84,5.17-11,6.56a44.09,44.09,0,0,1-11.3,1.94,16.27,16.27,0,0,1-10.82-3.14,20.29,20.29,0,0,1-8.93-16.9,15.35,15.35,0,0,1,4-10.51,19.57,19.57,0,0,1,3.69-3.41c3.55-2.45,7.06-5,10.73-7.22,6.86-4.23,13.62-3.72,20.18.81l-1.13,1.8a39.16,39.16,0,0,1-4.42-1.77,5.08,5.08,0,0,0-5.23.88,8,8,0,0,0,.73.51,25,25,0,0,1,9.37,9.29c.84,1.35,1.66,2.7,2.5,4.06a3.62,3.62,0,0,0,.67,1.93,28.19,28.19,0,0,0-.19,6.49c.61,1.31.21,2.54-.2,3.82C1507,3020.92,1507.33,3022.06,1509.08,3023.34Zm-26.39-24.58c-7.31-.23-13.32,6.19-13,14.19.26,5.83,3.38,10.43,8.31,13.56,8.85,5.63,17.67.87,20.06-7a14.94,14.94,0,0,0-.74-10.49C1494.79,3003,1488.39,2998.6,1482.69,2998.76Z" transform="translate(-1150.64 -2872.18)"/><path class="cls-11" d="M1381.8,3078.91c-.32-2.24-.32-2.24,1.37-2.77a4.57,4.57,0,0,0,3.33,1.15c4.35.08,8.51,1.26,12.76,1.94,10.24,1.67,20.38,3.93,30.64,5.53,5.51.86,11,2.07,16.48,3,2.11.36,4,1.63,6.27,1.35a21.16,21.16,0,0,1,10.28,1.42,26.55,26.55,0,0,0,7,1.49c2,.2,2,.31,2.32,2.78a69.59,69.59,0,0,1-7.65-.27c-7.8-.79-15.41-2.64-23.07-4.23-7.9-1.64-15.87-2.83-23.83-4.16C1405.66,3084.13,1393.63,3082,1381.8,3078.91Z" transform="translate(-1150.64 -2872.18)"/><path class="cls-12" d="M1494.05,3097.28c.94.18,1.88.34,2.81.55a12.22,12.22,0,0,0,9.81-2,21.83,21.83,0,0,0,4.84-4.61c8.93-11.29,18.33-22.17,28.06-32.78a49.86,49.86,0,0,0,5.61-7.16,31.24,31.24,0,0,0,5-17,144,144,0,0,1,1.2-17c1.56,7.66,2.42,15.37,1.1,23.16a34.4,34.4,0,0,1-9.19,18.11c-8.25,8.8-16.34,17.76-23.82,27.25-1.44,1.82-2.83,3.66-4.24,5.51a33.62,33.62,0,0,1-4.48,5c-5.62,4.94-11.88,5.75-18.71,2.9C1492.42,3098.28,1493.88,3098.46,1494.05,3097.28Z" transform="translate(-1150.64 -2872.18)"/><path class="cls-12" d="M1538.17,2913.33a1.24,1.24,0,0,1,0-1.39,9.36,9.36,0,0,1,8.35,1.85c5.94,4.46,9.63,10.31,9.84,17.85q.47,17.39-.23,34.78c-.31,7.75-1,15.46-2,23.16-.59,4.53-.14,9.11,0,13.66.07,2,.17,4,.21,6a2.37,2.37,0,0,1-1.16,2.45c-1.22.62-2,.15-1.91-1.24.12-3,.26-5.91.41-8.87.41-8.38.92-16.76,1.24-25.15.41-11.1.68-22.21,1-33.31.12-4.24-.49-8.46-.37-12.7,0-2.11-1-4-1.64-6-2-5.67-6.33-8.6-11.68-10.46C1539.55,2913.75,1538.86,2913.55,1538.17,2913.33Z" transform="translate(-1150.64 -2872.18)"/><path class="cls-1" d="M1544.13,2981.57c-.89-.16-1-1.15-1.71-1.55.31-5.5.74-11,.93-16.5.35-10.3,1.12-20.59,1.1-30.9a22.92,22.92,0,0,0-.43-4.52,8,8,0,0,0-5.12-6.16,38.11,38.11,0,0,0-12.41-2.33,28,28,0,0,1-8.47-1.42c-.87-.33-1.86-.51-2.41-1.42v-.37c5.62-1.22,11.13-.3,16.61.91,2.49.55,4.94,1.32,7.4,2,4,1.12,6.26,3.91,7.16,7.89a28.11,28.11,0,0,1,.44,6.21c0,5.51.08,11,0,16.54,0,6.08-1,12.1-1.22,18.17a62,62,0,0,1-1.14,11A8.82,8.82,0,0,1,1544.13,2981.57Z" transform="translate(-1150.64 -2872.18)"/><path class="cls-11" d="M1509.08,3023.34c-1.75-1.28-2.12-2.42-1.35-4.86.41-1.28.81-2.51.2-3.82,3.81-.06,5.94-2.78,5.06-6.48-.43-1.79-1.61-2.2-3-1a4.74,4.74,0,0,1-1.88,1,3.63,3.63,0,0,1-.67-1.94c.38-.11.75-.24,1.14-.34,2.21-.54,2.57-1,2.67-3.3a6,6,0,0,0-.6-3c-.4-.81-1-1.64-1.91-1.65-3,0-3.92-1.9-4.21-4.43,0-.08,0-.16,0-.23l1.13-1.8c5,3.39,8.75,7.75,10.06,13.77C1517.29,3012.6,1514.65,3018.53,1509.08,3023.34Z" transform="translate(-1150.64 -2872.18)"/><path class="cls-12" d="M1487.84,2918.67a12.46,12.46,0,0,1-1-5.28c3.7-.69,7.47-.34,11.18-.77a1.61,1.61,0,0,1,.92.16c2.66,1.45,5.56,1.14,8.41,1.26,2.56.11,5.11.28,7.09,2.25-2,1.26-4.29,1.05-6.49,1.05a59.71,59.71,0,0,1-10-1.31c-1.19-.2-2.37-.28-3.57-.38A6.57,6.57,0,0,0,1487.84,2918.67Z" transform="translate(-1150.64 -2872.18)"/><path class="cls-11" d="M1453.69,2902.22V2900c4.23.11,8.4.8,12.61,1.15,1.27.11,2.54.23,3.8.38.78.09.88.55.53,1.19a2.6,2.6,0,0,1-2.08,1.44,11.94,11.94,0,0,1-2.86.08C1461.68,2903.68,1457.65,2903.13,1453.69,2902.22Z" transform="translate(-1150.64 -2872.18)"/><path class="cls-11" d="M1494.05,3097.28c-.17,1.18-1.63,1-2,1.93-2.76-.36-5.53-.61-8.27-1.11a9.12,9.12,0,0,1-6.3-4C1483,3095.12,1488.76,3094.92,1494.05,3097.28Z" transform="translate(-1150.64 -2872.18)"/><path class="cls-12" d="M1515.61,2916.4v.37l-.52-.39Z" transform="translate(-1150.64 -2872.18)"/><path class="cls-13" d="M1436.88,2956.06a2.91,2.91,0,0,1-1.45,2.79,2.46,2.46,0,0,1-2.87-.38,10.37,10.37,0,0,1-2.25-2.13,32.42,32.42,0,0,1-5.08-9.71,5.29,5.29,0,0,1,.18-4,2,2,0,0,1,3-1.11,4.62,4.62,0,0,1,1.39.9c3.61,3.6,5.66,8.06,7.06,12.87A4.35,4.35,0,0,1,1436.88,2956.06Z" transform="translate(-1150.64 -2872.18)"/><path class="cls-12" d="M1335.53,2977.21c1.68.16,2.32,1.43,2.89,2.74a1,1,0,0,1-.47,1.22C1336.06,2980.51,1335.51,2979,1335.53,2977.21Z" transform="translate(-1150.64 -2872.18)"/><path class="cls-13" d="M1541.61,2935.06a12.89,12.89,0,0,1-.26,1.88,2.81,2.81,0,0,1-3.54,1.94,9.51,9.51,0,0,1-4.35-2.83,19.56,19.56,0,0,1-4.42-6.47,8.92,8.92,0,0,1-.7-2.52,3.08,3.08,0,0,1,3.6-3.36,8.3,8.3,0,0,1,6,3.46,21.69,21.69,0,0,1,3.07,5.1A7,7,0,0,1,1541.61,2935.06Z" transform="translate(-1150.64 -2872.18)"/><path class="cls-5" d="M1482.69,2998.76c5.7-.16,12.1,4.21,14.67,10.25a14.94,14.94,0,0,1,.74,10.49c-2.39,7.88-11.21,12.64-20.06,7-4.93-3.13-8-7.73-8.31-13.56C1469.37,3005,1475.38,2998.53,1482.69,2998.76Z" transform="translate(-1150.64 -2872.18)"/><path class="cls-14" d="M1504.5,2993.27c0,.07,0,.15,0,.23.29,2.53,1.2,4.39,4.21,4.43.89,0,1.51.84,1.91,1.65a6,6,0,0,1,.6,3c-.1,2.3-.46,2.76-2.67,3.3-.39.1-.76.23-1.14.34-.84-1.35-1.66-2.7-2.5-4.05a25,25,0,0,0-9.37-9.29,8,8,0,0,1-.73-.51,5.08,5.08,0,0,1,5.23-.88A39.16,39.16,0,0,0,1504.5,2993.27Z" transform="translate(-1150.64 -2872.18)"/><path class="cls-14" d="M1508.12,3008.17a4.74,4.74,0,0,0,1.88-1c1.38-1.2,2.56-.79,3,1,.88,3.7-1.25,6.42-5.06,6.48A28.19,28.19,0,0,1,1508.12,3008.17Z" transform="translate(-1150.64 -2872.18)"/></svg>