<?xml version="1.0" encoding="utf-8"?>
<!-- Generator: Adobe Illustrator 25.1.0, SVG Export Plug-In . SVG Version: 6.00 Build 0)  -->
<svg version="1.1" xmlns="http://www.w3.org/2000/svg" xmlns:xlink="http://www.w3.org/1999/xlink" x="0px" y="0px"
	 viewBox="0 0 314.95 265.36" style="enable-background:new 0 0 314.95 265.36;" xml:space="preserve">
<style type="text/css">
	.st0{display:none;}
	.st1{display:inline;}
	.st2{fill-rule:evenodd;clip-rule:evenodd;fill:#353535;}
	.st3{fill:#353535;}
</style>
<g id="Layer_2" class="st0">
	<g id="wR1loj.tif" class="st1">
		
			<image style="overflow:visible;" width="130" height="144" id="Layer_1_2_" xlink:href="C4FE6A7647ABE70A.png"  transform="matrix(0.7385 0 0 0.6528 136.6541 118.3638)">
		</image>
	</g>
</g>
<g id="Layer_3">
</g>
<g id="Layer_4">
	<path class="st2" d="M176.5,149.31c0.7,5.37,0.84,9.08,0.73,15.15c2.28,0.74,6.13,0.73,9.47,0.69c0.39-1.04,0.49-1.17,0.73-2.75
		c-1.9-1.99-1.58-6.43-1.46-10.33c0.49,0,0.97,0,1.46,0c0,0.23,0,0.46,0,0.69c5.52,6.37-0.52,7.34,13.83,6.89
		c1.43-1.08,3.75-1.63,5.82-2.07c1.83-2.67,2.9-3.4,2.91-8.26c-1.7-1.44-4.21-3.37-5.1-5.51c1.26-0.41,2.3-0.61,4.37-0.69
		c1.21,1.15,2.43,2.3,3.64,3.44c0.82,1.2,0.63,3.09,1.46,4.13c0.96-5.42,4.93-17.38,2.18-25.48c-1.25-3.68-5.13-5.72-6.55-8.95
		c1.1-0.37,1.23-0.46,2.91-0.69c2.56,2.29,4.81,2.97,6.55,6.2c3.63-0.88,3.59-0.24,7.28-0.69c0,1.61,0,3.21,0,4.82
		c-0.64,0.89-0.65,1.7-0.73,3.44c0.24,0,0.49,0,0.73,0c1.14-1.26,0.64-0.96,2.91-1.38c-0.27,3.51-2.51,5.24-2.91,7.58
		c-0.4,2.29,1.76,0.45,1.46,2.75c-0.33,2.53-3.64,5.36-4.37,7.58c0.24,0.92,0.49,1.84,0.73,2.75c-2.43,2.3-4.85,4.59-7.28,6.89
		c-1.21,1.64-1.12,3.83-2.91,4.82c-6.58,3.62-19.89,1.06-21.11,9.64c0.49,0,0.97,0,1.46,0c2.24-3.06,6.97-4.12,12.38-4.13
		c0.24,0.23,0.49,0.46,0.73,0.69c-0.46,1.21-0.14,0.67-0.73,1.38c-1.29,3.53-5.29,7.63-8.74,8.95c-2.18,0.84-4.69-0.21-5.82,1.38
		c0,2.75,0,5.51,0,8.26c-2.05,3-0.82,12.11-0.73,16.53c-0.24,0.23-0.49,0.46-0.73,0.69c-8.54,1.15-13.58,3.48-23.3,1.38
		c-1.31-1.78-2.22-1.56-2.91-4.13c4.81-6.15,8.52-12.89,7.28-22.73c-2.43,0-4.85,0-7.28,0c-2.67-2.52-5.34-5.05-8.01-7.58
		c0.24-0.23,0.49-0.46,0.73-0.69c1.77-1.9,6.35-1.52,10.19-1.38c1.02,1.38,0.98,1.42,2.91,2.07c0-0.69,0-1.38,0-2.07
		c-3.31-1.92-6.88-4.12-10.92-5.51c-2.94-1.01-6.3-0.56-8.74-2.07c-5.2-3.22-16.39-27.58-15.29-34.43c0.97,0,1.94,0,2.91,0
		c0.86,1.42,0.5,1.3,2.18,2.07c0.3-7.05,5.64-18.15,12.38-19.28c0.24,0.23,0.49,0.46,0.73,0.69c-0.46,1.21-0.14,0.67-0.73,1.38
		c-1.09,2.93-3.24,3.28-4.37,6.2c0.49,0,0.97,0,1.46,0c3.02-2.28,8.5-2.78,13.83-2.75c0,0.46,0,0.92,0,1.38
		c-6.75,3.49-13.61,9.88-16.02,17.22c-1.51,4.59,0.5,12.39,2.91,13.77c0.52-4.11,2.96-6.37,7.28-6.89c0,0.46,0,0.92,0,1.38
		c-3.02,1.87-4.26,5.02-4.37,9.64c2.24,2.35,2.2,4.99,5.82,6.2c3.06,2.36,9.39,2.29,13.83,1.38c-0.08-3.33-0.12-7.34,0.73-9.64
		C175.05,149.31,175.78,149.31,176.5,149.31z"/>
</g>
<g id="Layer_1">
	<path class="st3" d="M182.21,212.52c-36.38,0-65.98-29.6-65.98-65.98s29.6-65.98,65.98-65.98s65.98,29.6,65.98,65.98
		S218.59,212.52,182.21,212.52z M182.21,90.41c-30.95,0-56.13,25.18-56.13,56.13s25.18,56.13,56.13,56.13
		c30.95,0,56.13-25.18,56.13-56.13S213.16,90.41,182.21,90.41z"/>
	<path class="st3" d="M182.21,231.48c-46.83,0-84.93-38.1-84.93-84.93s38.1-84.93,84.93-84.93s84.93,38.1,84.93,84.93
		S229.04,231.48,182.21,231.48z M182.21,71.46c-41.4,0-75.08,33.68-75.08,75.08s33.68,75.08,75.08,75.08
		c41.4,0,75.08-33.68,75.08-75.08S223.61,71.46,182.21,71.46z"/>
	<path class="st3" d="M58.4,265.36H42.32c-10.4,0-20.56-4.25-27.87-11.65l-8.21-8.32C2.22,241.32,0,235.92,0,230.2V69.03
		c0-7.09,3.48-13.73,9.3-17.77c0,0,0,0,0,0l8.86-6.15c5.44-3.78,11.82-5.77,18.44-5.77h58.97c3.01,0,5.94-1,8.33-2.83l20.81-26.03
		c5.04-6.3,12.38-10.11,20.13-10.45c0.41-0.02,0.82-0.03,1.23-0.03h72c0.42,0,0.84,0.01,1.26,0.03c7.58,0.34,14.8,4,19.83,10.06
		l22.64,27.29c2.36,1.78,5.27,2.76,8.24,2.76h16.93c7.36,0,14.31,2.83,19.58,7.98c5.35,5.23,8.43,12.53,8.43,20.02v158.7
		c0,7.36-2.84,14.32-7.98,19.58l-0.3,0.31c-5.23,5.35-12.53,8.42-20.02,8.42H94.39c-5.45,0-10.77,1.51-15.41,4.37
		C72.79,263.34,65.68,265.36,58.4,265.36z M14.91,59.34c-3.17,2.2-5.07,5.82-5.07,9.69V230.2c0,3.12,1.21,6.06,3.4,8.28l8.21,8.32
		c5.47,5.54,13.07,8.72,20.86,8.72H58.4c5.45,0,10.77-1.51,15.41-4.37c6.19-3.82,13.31-5.84,20.58-5.84h192.26
		c4.85,0,9.58-1.99,12.98-5.46l0.3-0.31c3.34-3.41,5.18-7.92,5.18-12.69V68.14c0-4.86-1.99-9.59-5.46-12.98
		c-3.41-3.34-7.92-5.17-12.69-5.17h-16.93c-5.36,0-10.61-1.86-14.78-5.23c-0.25-0.21-0.49-0.43-0.7-0.69l-22.98-27.7
		c-3.25-3.92-7.88-6.3-12.69-6.51c-0.27-0.01-0.55-0.02-0.82-0.02h-72c-0.27,0-0.54,0.01-0.8,0.02c-4.91,0.21-9.6,2.68-12.87,6.76
		l-21.15,26.46c-0.21,0.27-0.45,0.51-0.72,0.73c-4.2,3.46-9.51,5.36-14.96,5.36H36.6c-4.61,0-9.04,1.39-12.83,4.02L14.91,59.34z"/>
	<path class="st3" d="M92.12,48.14C92.11,48.14,92.11,48.14,92.12,48.14c-2.73,0-4.93-2.21-4.92-4.93l0.02-11.8
		c0-0.71-0.32-1.11-0.46-1.25c-0.16-0.16-0.33-0.25-0.5-0.25h-38.6c-0.4,0-0.96,0.57-0.96,1.49l-0.02,11.83
		c0,2.72-2.21,4.92-4.92,4.92c0,0-0.01,0-0.01,0c-2.72,0-4.92-2.21-4.92-4.93l0.02-11.83c0.01-6.24,4.86-11.32,10.81-11.32h38.6
		c2.8,0,5.45,1.11,7.46,3.13c2.13,2.13,3.35,5.13,3.34,8.22l-0.02,11.8C97.03,45.94,94.83,48.14,92.12,48.14z"/>
	<path class="st3" d="M73.72,76.94H25.75c-2.72,0-4.92-2.2-4.92-4.92c0-2.72,2.2-4.92,4.92-4.92h47.1l14.2-5.19
		c2.55-0.93,5.38,0.38,6.31,2.94c0.93,2.55-0.38,5.38-2.94,6.31l-15.02,5.48C74.87,76.84,74.3,76.94,73.72,76.94z"/>
	<path class="st3" d="M74.11,234.45c-2.72,0-4.92-2.2-4.92-4.92V72.02c0-2.72,2.2-4.92,4.92-4.92c2.72,0,4.92,2.2,4.92,4.92v157.51
		C79.03,232.25,76.83,234.45,74.11,234.45z"/>
</g>
</svg>
