<svg xmlns="http://www.w3.org/2000/svg" viewBox="0 0 1610.84 1311.83"><defs><style>.cls-1{isolation:isolate;}.cls-2{fill:#1a2324;}.cls-3{fill:#111a1b;}.cls-4{fill:#2b3539;}.cls-5{fill:#1f2829;}.cls-6{fill:#3a4546;}.cls-7{fill:#172020;}.cls-8{fill:#3d494d;}.cls-9{fill:#091317;}.cls-10{fill:#fff;mix-blend-mode:soft-light;}.cls-11{fill:#dedbda;mix-blend-mode:multiply;}</style></defs><g class="cls-1"><g id="Capa_1" data-name="Capa 1"><path class="cls-2" d="M1580.21,475.14,1509.84,315c-22-38.07-46.22-58.86-120-58.86H1118.76c-72.34,0-98,20.79-120,58.86L931.46,469.81H539.81c-207.62,0-255,237.57-255,237.57H1854.09S1854.09,521.14,1580.21,475.14Z" transform="translate(-243.25 -256.14)"/><path class="cls-3" d="M626.45,661.61v-187A74.55,74.55,0,0,0,551.89,400H460a74.55,74.55,0,0,0-74.54,74.56v187Z" transform="translate(-243.25 -256.14)"/><path class="cls-4" d="M1738.89,599.32H1584.1l-74.26-166.84c-22-38.08-60.6-97.26-120-97.26H1118.76c-69,0-98,59.18-120,97.26L924.5,599.32H821.71a63.61,63.61,0,1,0-122.57,0h-240a115.2,115.2,0,0,0-115.2,115.21v704.36a115.21,115.21,0,0,0,115.2,115.22H1738.89a115.21,115.21,0,0,0,115.2-115.22V714.53A115.21,115.21,0,0,0,1738.89,599.32Z" transform="translate(-243.25 -256.14)"/><path class="cls-5" d="M675,1418.89a115.22,115.22,0,0,1-115.21,115.22H358.46a115.22,115.22,0,0,1-115.21-115.22V714.53A115.21,115.21,0,0,1,358.46,599.32H559.79A115.21,115.21,0,0,1,675,714.53Z" transform="translate(-243.25 -256.14)"/><path class="cls-3" d="M250.71,1459.38a115.16,115.16,0,0,0,107.75,74.73H559.79a115.17,115.17,0,0,0,107.75-74.73Z" transform="translate(-243.25 -256.14)"/><path class="cls-5" d="M894.14,431.7a15.7,15.7,0,0,1,15.68,15.69v9.69a15.69,15.69,0,0,1-15.68,15.69H644.67A15.69,15.69,0,0,1,629,457.08v-9.69a15.7,15.7,0,0,1,15.68-15.69Z" transform="translate(-243.25 -256.14)"/><path class="cls-5" d="M894.14,390.64a15.69,15.69,0,0,1,15.68,15.69V416a15.69,15.69,0,0,1-15.68,15.69H644.67A15.69,15.69,0,0,1,629,416v-9.68a15.69,15.69,0,0,1,15.68-15.69Z" transform="translate(-243.25 -256.14)"/><path class="cls-6" d="M1788,1038.82c0-.32,0-.59,0-.83a11,11,0,0,0-3-7.46,11.1,11.1,0,0,0-.55-15,11,11,0,0,0,2.55-7.59,10.82,10.82,0,0,0-3.4-7.31,11.09,11.09,0,0,0-1.27-15,10.94,10.94,0,0,0-1.81-14.92,11,11,0,0,0,1.88-7.78,10.84,10.84,0,0,0-4-7,10.76,10.76,0,0,0,1.57-7.85,11,11,0,0,0-4.14-6.95,11.05,11.05,0,0,0-3-14.69,11,11,0,0,0,1.14-8,11.15,11.15,0,0,0-4.56-6.62,10.91,10.91,0,0,0-3.91-14.42,11.06,11.06,0,0,0-4.21-14.47,10.84,10.84,0,0,0,.46-8,11.22,11.22,0,0,0-5.19-6.21,10.93,10.93,0,0,0-5.07-14.12,11,11,0,0,0-5.46-13.95,10.9,10.9,0,0,0-5.82-13.75,11,11,0,0,0-6.27-13.56,10.76,10.76,0,0,0-.72-7.94,11,11,0,0,0-5.92-5.48,11.1,11.1,0,0,0-7-13.21,10.78,10.78,0,0,0-1.23-7.87,11,11,0,0,0-6.25-5.14,11.22,11.22,0,0,0-1.36-7.92,11,11,0,0,0-6.39-4.88,11.32,11.32,0,0,0-1.63-7.9,11,11,0,0,0-6.49-4.67,11.06,11.06,0,0,0-8.5-12.32,11,11,0,0,0-8.83-12.12,11.2,11.2,0,0,0-2.31-7.73,11.05,11.05,0,0,0-6.92-4.1A11.13,11.13,0,0,0,1661,700.4a11.11,11.11,0,0,0-9.83-11.32,11,11,0,0,0-3-7.5,11.25,11.25,0,0,0-7.19-3.52,11.06,11.06,0,0,0-3.14-7.4l-1.16-1.11h-.16a10.65,10.65,0,0,0-6.11-2,10.65,10.65,0,0,0-10.73-10.45,11.11,11.11,0,0,0-11-10.32h0a11.26,11.26,0,0,0-3.73-7.11,11,11,0,0,0-7.65-2.48,10.77,10.77,0,0,0-11.61-9.51,10.82,10.82,0,0,0-4.16-7,11,11,0,0,0-7.72-2.15,11.2,11.2,0,0,0-4.39-6.92,10.94,10.94,0,0,0-7.78-1.87,11.24,11.24,0,0,0-4.56-6.82,10.82,10.82,0,0,0-7.84-1.66,10.77,10.77,0,0,0-4.72-6.61,10.94,10.94,0,0,0-7.88-1.47,11.39,11.39,0,0,0-5-6.59,11.19,11.19,0,0,0-8-1.19,10.71,10.71,0,0,0-13.1-7.35,10.71,10.71,0,0,0-13.29-7,10.69,10.69,0,0,0-13.46-6.58,11.05,11.05,0,0,0-5.62-6,11.18,11.18,0,0,0-8.1-.29,10.85,10.85,0,0,0-13.83-5.86,10.82,10.82,0,0,0-14.09-5.45,32.55,32.55,0,0,1-20.4-10.17,11.28,11.28,0,0,0-8,.45,11.12,11.12,0,0,0-14.44-4.21,10.79,10.79,0,0,0-6.48-4.66,11.21,11.21,0,0,0-8,.95,10.88,10.88,0,0,0-14.61-3.36,11.21,11.21,0,0,0-6.8-4.35,11,11,0,0,0-7.91,1.38,11.05,11.05,0,0,0-6.93-4.14,11.2,11.2,0,0,0-7.86,1.63,11.35,11.35,0,0,0-7.1-4,11.17,11.17,0,0,0-7.74,1.89,11.12,11.12,0,0,0-14.92-1.66,11.32,11.32,0,0,0-7.32-3.57l-.81,0a11,11,0,0,0-6.92,2.42,11.86,11.86,0,0,0-7.84-3.36,11,11,0,0,0-7.07,2.55,11.55,11.55,0,0,0-7.8-3.13,10.86,10.86,0,0,0-7.16,2.69,11.64,11.64,0,0,0-15,.07,11.63,11.63,0,0,0-7.59-2.75h0a11.12,11.12,0,0,0-7.46,3.19,13,13,0,0,0-7.67-2.52,11.13,11.13,0,0,0-7.23,3.38,10.85,10.85,0,0,0-6.76-2.32l-1,0a11,11,0,0,0-7.21,3.58,11.5,11.5,0,0,0-7.78-2,10.71,10.71,0,0,0-7.1,3.78,11.15,11.15,0,0,0-7.88-1.85,11,11,0,0,0-6.94,4,11.36,11.36,0,0,0-7.9-1.59,11,11,0,0,0-7,4.12,10.81,10.81,0,0,0-7.87-1.37,11.1,11.1,0,0,0-6.81,4.42,11.23,11.23,0,0,0-7.88-1.15,10.92,10.92,0,0,0-6.72,4.55,11.26,11.26,0,0,0-8-.91,10.91,10.91,0,0,0-6.55,4.76,11.34,11.34,0,0,0-8-.67,10.87,10.87,0,0,0-6.37,4.9,11.24,11.24,0,0,0-8-.43,10.86,10.86,0,0,0-6.25,5.12,11.1,11.1,0,0,0-8-.21,10.93,10.93,0,0,0-6.07,5.26,11.28,11.28,0,0,0-8.09,0,11,11,0,0,0-5.88,5.41,11.35,11.35,0,0,0-8,.25,11.1,11.1,0,0,0-5.74,5.6,11.27,11.27,0,0,0-8,.48,11.05,11.05,0,0,0-5.55,5.8,11,11,0,0,0-13.4,6.6,11.43,11.43,0,0,0-8,.92l-2,1.1V574a10.88,10.88,0,0,0-3.27,4.7,11.17,11.17,0,0,0-13,7.41,11.15,11.15,0,0,0-7.8,1.41,11,11,0,0,0-5,6.36,11.11,11.11,0,0,0-12.6,8.14,11,11,0,0,0-12.34,8.45,11,11,0,0,0-12.08,8.87,11.35,11.35,0,0,0-7.75,2.26,10.89,10.89,0,0,0-4.13,6.9,11.09,11.09,0,0,0-11.59,9.53,11.06,11.06,0,0,0-11.3,9.79h0a11.07,11.07,0,0,0-11,10.21,11,11,0,0,0-10.73,10.45,11.05,11.05,0,0,0-10.45,11,10.74,10.74,0,0,0-10.14,10.83,11.12,11.12,0,0,0-9.83,11.35,11.08,11.08,0,0,0-7,4,10.92,10.92,0,0,0-2.46,7.8,11,11,0,0,0-6.9,4,10.81,10.81,0,0,0-2.28,7.89,10.77,10.77,0,0,0-6.75,4.18,11.07,11.07,0,0,0-2,8,11.23,11.23,0,0,0-6.78,4.4,11,11,0,0,0-1.73,8,10.65,10.65,0,0,0-8.06,12.62,10.79,10.79,0,0,0-7.78,12.89,10.89,10.89,0,0,0-6.29,5,11,11,0,0,0-1,8.11,10.76,10.76,0,0,0-6.15,5.16,11,11,0,0,0-.92,8.15,11.11,11.11,0,0,0-6,5.35,10.84,10.84,0,0,0-.56,8.1,10.75,10.75,0,0,0-6.26,13.71,10.92,10.92,0,0,0-5.84,13.86,11.14,11.14,0,0,0-5.56,5.84,10.85,10.85,0,0,0,.13,8.19,10.79,10.79,0,0,0-5.32,6A10.94,10.94,0,0,0,762,871a11,11,0,0,0-4.71,14.27,11,11,0,0,0-4.87,6.33,10.85,10.85,0,0,0,.7,8,11.31,11.31,0,0,0-4.73,6.52,11.18,11.18,0,0,0,1,8A11.14,11.14,0,0,0,746,928.75a11.22,11.22,0,0,0-4.33,6.76,11.06,11.06,0,0,0,1.38,7.93,11.15,11.15,0,0,0-2.49,14.85,11,11,0,0,0-2,14.87A11.07,11.07,0,0,0,736.74,988a11.15,11.15,0,0,0-1.23,15,11.11,11.11,0,0,0-.84,15,11.16,11.16,0,0,0-.37,15,11.12,11.12,0,0,0-2.93,7.5,11,11,0,0,0,2.93,7.5,11.05,11.05,0,0,0,.49,15,11,11,0,0,0-2.52,7.59,10.59,10.59,0,0,0,3.42,7.31,11.06,11.06,0,0,0-2.32,7.76,10.63,10.63,0,0,0,3.58,7.2,11,11,0,0,0-2.08,7.77,10.88,10.88,0,0,0,3.81,7.14,10.83,10.83,0,0,0-1.87,7.84,11.08,11.08,0,0,0,4,7,11.14,11.14,0,0,0,2.52,14.81,11,11,0,0,0-1.36,7.94,11.19,11.19,0,0,0,4.33,6.73,11.12,11.12,0,0,0,3.42,14.65,10.83,10.83,0,0,0,3.94,14.4,10.79,10.79,0,0,0-.78,8.06,11.07,11.07,0,0,0,4.91,6.42,11.17,11.17,0,0,0,4.68,14.28A11.1,11.1,0,0,0,767.5,1224a11.12,11.12,0,0,0,5.41,14,11.13,11.13,0,0,0,5.88,13.79,11,11,0,0,0,6.24,13.56,11.09,11.09,0,0,0,6.63,13.44,11,11,0,0,0,.94,8,11.19,11.19,0,0,0,6,5.21,11.07,11.07,0,0,0,1.18,8,11.41,11.41,0,0,1,7.59,12.92,10.93,10.93,0,0,0,6.37,4.94,11.48,11.48,0,0,0,1.63,7.91,10.9,10.9,0,0,0,6.5,4.68,11.12,11.12,0,0,0,8.49,12.36,10.83,10.83,0,0,0,2,7.72,11.07,11.07,0,0,0,6.77,4.33,11.12,11.12,0,0,0,2.28,7.7,11,11,0,0,0,6.91,4.18,11.07,11.07,0,0,0,9.51,11.62,10.91,10.91,0,0,0,9.81,11.31,11.08,11.08,0,0,0,10.1,11,11.24,11.24,0,0,0,10.48,10.77,11.41,11.41,0,0,0,3.37,7.37,11.1,11.1,0,0,0,7.41,3.07,11.07,11.07,0,0,0,11,10.15h0a11,11,0,0,0,3.77,7.15,11.1,11.1,0,0,0,7.55,2.67,11.06,11.06,0,0,0,4,7.09,11.19,11.19,0,0,0,7,2.43,4.84,4.84,0,0,0,.65-.09,11.18,11.18,0,0,0,4.09,7,11.06,11.06,0,0,0,6.76,2.33c.37,0,.69-.09,1-.12a11.2,11.2,0,0,0,10.79,9,8.85,8.85,0,0,0,1.37-.18,10.92,10.92,0,0,0,4.48,6.65,10.7,10.7,0,0,0,6.27,2,10.06,10.06,0,0,0,1.65-.21,10.87,10.87,0,0,0,4.74,6.66,11.25,11.25,0,0,0,5.95,1.74,10.85,10.85,0,0,0,2-.25,10.78,10.78,0,0,0,4.79,6.41,10.93,10.93,0,0,0,5.8,1.67,10.6,10.6,0,0,0,2.26-.3,11.3,11.3,0,0,0,5.17,6.41,12,12,0,0,0,5.28,1.35,11,11,0,0,0,2.62-.35,10.95,10.95,0,0,0,13.34,7,11.18,11.18,0,0,0,10.26,7.13,11.21,11.21,0,0,0,3.17-.48,10.44,10.44,0,0,0,5.42,5.65,9.86,9.86,0,0,0,4.77,1.18,10.63,10.63,0,0,0,3.46-.61,10.64,10.64,0,0,0,5.6,5.54,10.18,10.18,0,0,0,4.46,1,10.77,10.77,0,0,0,3.8-.76,11.28,11.28,0,0,0,6.11,5.65,12.18,12.18,0,0,0,3.83.65,10.68,10.68,0,0,0,4.07-.9,11.17,11.17,0,0,0,6.11,5.47,10.49,10.49,0,0,0,3.69.6,10.89,10.89,0,0,0,4.35-1,11.06,11.06,0,0,0,6.28,5.27,11.18,11.18,0,0,0,8.06-.49,11,11,0,0,0,14.37,4.24,11.18,11.18,0,0,0,6.6,4.72,10.17,10.17,0,0,0,7.88-1.1,10.87,10.87,0,0,0,6.7,4.67,11,11,0,0,0,8-1.14,10.94,10.94,0,0,0,6.74,4.33,11.06,11.06,0,0,0,7.94-1.4,11.16,11.16,0,0,0,14.85,2.54,11.12,11.12,0,0,0,14.82,2.12,10.87,10.87,0,0,0,7.13,3.75,11.06,11.06,0,0,0,7.77-2.11,11.13,11.13,0,0,0,7.27,3.59l.83,0a11.22,11.22,0,0,0,6.91-2.38,11.85,11.85,0,0,0,7.86,3.39,11,11,0,0,0,7-2.53,11.13,11.13,0,0,0,7.82,3.11,10.9,10.9,0,0,0,7.19-2.7,11.08,11.08,0,0,0,7.53,2.93,10.85,10.85,0,0,0,7.47-3,11.65,11.65,0,0,0,7.58,2.75h0a11.09,11.09,0,0,0,7.45-3.21,12.22,12.22,0,0,0,7.58,2.54h0a11.05,11.05,0,0,0,7.31-3.34,11.13,11.13,0,0,0,6.86,2.34l.87,0a11.06,11.06,0,0,0,7.21-3.54,10.5,10.5,0,0,0,7.86,2.06,11.17,11.17,0,0,0,7.15-3.9,11,11,0,0,0,6.19,2.07c.26,0,.55,0,1.57-.11a11.1,11.1,0,0,0,7-4,11.08,11.08,0,0,0,14.74-2.49,11.15,11.15,0,0,0,14.72-3,11.07,11.07,0,0,0,14.62-3.45,11,11,0,0,0,14.5-3.78,34.05,34.05,0,0,1,22.45-3.77,11.08,11.08,0,0,0,6.26-5.13,11.24,11.24,0,0,0,8,.24,11,11,0,0,0,6.07-5.3,11.2,11.2,0,0,0,8.08,0,10.9,10.9,0,0,0,5.84-5.4,34.27,34.27,0,0,1,21.79-6.34,11,11,0,0,0,5.64-5.74,11.6,11.6,0,0,0,2.69.42v1.56l5.33-2.66a11,11,0,0,0,5.4-5.94,11.38,11.38,0,0,0,8-.9,11,11,0,0,0,5.23-6.07,11.25,11.25,0,0,0,7.9-1.18,11,11,0,0,0,5.13-6.22,11.28,11.28,0,0,0,7.92-1.4,11.56,11.56,0,0,1,12.79-8,11,11,0,0,0,4.72-6.51,11.2,11.2,0,0,0,6.7-1.17l1.14-.64a11.51,11.51,0,0,1,12.28-8.7,11.49,11.49,0,0,1,12-9,11,11,0,0,0,4.17-6.93,11.37,11.37,0,0,0,7.68-2.46,11.55,11.55,0,0,1,11.52-9.74,11.11,11.11,0,0,0,3.71-7.1h0a11,11,0,0,0,7.49-2.91,10.84,10.84,0,0,0,3.56-7.23,10.7,10.7,0,0,0,7.36-3.09,11.72,11.72,0,0,1,10.76-10.7,11.47,11.47,0,0,1,10.31-11,11,11,0,0,0,2.89-7.58,10.76,10.76,0,0,0,7.19-3.69,11.25,11.25,0,0,1,9.71-11.51,11.09,11.09,0,0,0,2.46-7.72,11,11,0,0,0,9.17-11.86,10.69,10.69,0,0,0,6.79-4.27,11,11,0,0,0,2-7.88,10.88,10.88,0,0,0,6.7-4.5,11.13,11.13,0,0,0,1.77-7.81,10.95,10.95,0,0,0,8.14-12.64,10.8,10.8,0,0,0,6.44-4.89,11.15,11.15,0,0,0,1.36-8,10.79,10.79,0,0,0,6.29-5.09,11,11,0,0,0,1.08-8,10.86,10.86,0,0,0,6.13-5.18,11,11,0,0,0,.9-8.09,11.25,11.25,0,0,0,6-5.38,11,11,0,0,0,.59-8.11,11.2,11.2,0,0,0,5.88-5.51,10.92,10.92,0,0,0,.37-8.18,10.84,10.84,0,0,0,5.74-5.64l.29-.83a10.76,10.76,0,0,0-.15-7.36,11.15,11.15,0,0,0,5.58-5.88,11,11,0,0,0-.12-8.15,10.84,10.84,0,0,0,5.05-14.19,10.91,10.91,0,0,0,5.19-6.15,11.1,11.1,0,0,0-.47-8,10.22,10.22,0,0,0,1.67-1.47v8.09l7.27-27.48a11.16,11.16,0,0,0,.13-5.1v-3.75a10.9,10.9,0,0,0,3.51-5.84,11.11,11.11,0,0,0-1.19-8,11.06,11.06,0,0,0,3-14.73,10.94,10.94,0,0,0,2.42-14.78,11.39,11.39,0,0,0,4-6.7h.06l-.06,0c0-.06,0-.1,0-.16h.07l.09-.56-.12-.51a11.14,11.14,0,0,0-1.5-6.1l-.23-1a11,11,0,0,0,1.59-14.71,10.75,10.75,0,0,0,3.52-7.2,11,11,0,0,0-2.26-7.79,11.31,11.31,0,0,0,3.38-7.34,11,11,0,0,0-2.53-7.63,11,11,0,0,0,3.12-7.36,10.8,10.8,0,0,0-2.71-7.61,11,11,0,0,0,2.94-7.52C1788.06,1039.41,1788.06,1039.14,1788,1038.82Zm-462.63,505.66a11,11,0,0,0-14.52,1.56,10.88,10.88,0,0,0-6.47-2.1l-1,0a11,11,0,0,0-7.11,3.34,11,11,0,0,0-3.48-1.75v-.94l-4,.31a11.18,11.18,0,0,0-7,3.17,11.65,11.65,0,0,0-7.35-2.52h0a10.89,10.89,0,0,0-7.21,2.93,11.68,11.68,0,0,0-14.56,0,11.49,11.49,0,0,0-7.41-3,11.06,11.06,0,0,0-7.11,2.59,12,12,0,0,0-7.69-3.2,11,11,0,0,0-6.79,2.33,11.23,11.23,0,0,0-7-3.33l-.83,0a11.18,11.18,0,0,0-6.62,2.16,11.06,11.06,0,0,0-14.44-1.61,11.21,11.21,0,0,0-6.86-3.75,11.33,11.33,0,0,0-7.51,1.67,11.18,11.18,0,0,0-14.33-2.42,10.86,10.86,0,0,0-6.6-4.07,11.11,11.11,0,0,0-7.6,1.18,11.07,11.07,0,0,0-6.53-4.28,11.19,11.19,0,0,0-7.74,1.17,11,11,0,0,0-6.33-4.61,11.29,11.29,0,0,0-7.68.82,10.87,10.87,0,0,0-6.19-4.6,11.18,11.18,0,0,0-7.78.51,10.86,10.86,0,0,0-13.82-4.32,11.14,11.14,0,0,0-6-5.17,11,11,0,0,0-7.76.32,10.6,10.6,0,0,0-13.55-5.31,10.83,10.83,0,0,0-5.64-5.48l-.84-.3a11,11,0,0,0-7,.12,10.78,10.78,0,0,0-5.46-5.62,11.06,11.06,0,0,0-7.74-.4,10.78,10.78,0,0,0-13.09-6.46,11,11,0,0,0-5.17-6,10.83,10.83,0,0,0-7.72-.84,11.18,11.18,0,0,0-4.93-6.1l-5.55-3.17v1.73a10.52,10.52,0,0,0-2.26.31,10.66,10.66,0,0,0-12.38-7.42,11.28,11.28,0,0,0-4.69-6.47,11.1,11.1,0,0,0-7.55-1.41,11.25,11.25,0,0,0-4.36-6.51l-1-.68h-.16a10.8,10.8,0,0,0-6.43-1,10.74,10.74,0,0,0-11.79-8.58,11.09,11.09,0,0,0-4.12-6.81,10.88,10.88,0,0,0-7.39-2,11,11,0,0,0-3.85-6.88,11.46,11.46,0,0,0-7.41-2.54,11.09,11.09,0,0,0-11-9.51h0a11.07,11.07,0,0,0-10.67-9.81A11.06,11.06,0,0,0,900,1399.66a11.16,11.16,0,0,0-10.08-10.43,11.14,11.14,0,0,0-9.81-10.65,10.94,10.94,0,0,0-2.75-7.28,11.09,11.09,0,0,0-6.82-3.7,11,11,0,0,0-9.23-11.25,11,11,0,0,0-8.83-11.48,11.17,11.17,0,0,0-2.1-7.47,11.43,11.43,0,0,0-6.49-4.25,29.2,29.2,0,0,1-9.84-19.51,10.86,10.86,0,0,0-6.21-4.66,29.41,29.41,0,0,1-8.73-20,10.78,10.78,0,0,0-5.93-5,11,11,0,0,0-6.78-12.81,11.28,11.28,0,0,0-.79-7.69,11.06,11.06,0,0,0-5.62-5.32,11,11,0,0,0-6-13.15,11.13,11.13,0,0,0-5.68-13.34,11,11,0,0,0-.12-7.72,11.24,11.24,0,0,0-5.17-5.8,11.35,11.35,0,0,0,.12-7.74,11.06,11.06,0,0,0-5-5.92,11.16,11.16,0,0,0-4.54-13.81,11.3,11.3,0,0,0,.57-7.73,11.18,11.18,0,0,0-4.74-6.13,10.93,10.93,0,0,0-3.65-14.1,10.74,10.74,0,0,0,1-7.67,11.19,11.19,0,0,0-4.26-6.44,11.26,11.26,0,0,0,1.19-7.74,11.12,11.12,0,0,0-2.59-4.92v-8.46l0-.27-.06-.45h0v0c0-.14-.13-.24-.16-.39l.06,0-.06,0a11.16,11.16,0,0,0-3.77-6.37,10.87,10.87,0,0,0-2.16-14.31,11.11,11.11,0,0,0,2-7.6,10.63,10.63,0,0,0-3.54-6.84,11.11,11.11,0,0,0,2.08-7.56,10.86,10.86,0,0,0-3.38-6.9,11.05,11.05,0,0,0,2.36-7.44,10.75,10.75,0,0,0-3.24-7.11,10.78,10.78,0,0,0,2.57-7.3,10.9,10.9,0,0,0-2.94-7.22,11.21,11.21,0,0,0,.05-14.56,11.06,11.06,0,0,0,.34-14.53,10.93,10.93,0,0,0,3.14-7.07,11.15,11.15,0,0,0-2.32-7.44,10.92,10.92,0,0,0,3.28-7,11.07,11.07,0,0,0-2.1-7.49,11,11,0,0,0,1.57-14.41,11.12,11.12,0,0,0,2.08-14.41,11.17,11.17,0,0,0,2.42-14.35,11.08,11.08,0,0,0,2.89-14.23,11,11,0,0,0,3.21-14.15A11.26,11.26,0,0,0,769.06,904a11,11,0,0,0,4.05-13.93,11.13,11.13,0,0,0,4.83-6.09,11,11,0,0,0-.45-7.87,10.69,10.69,0,0,0,5.07-5.81,11,11,0,0,0-.22-7.92,11,11,0,0,0,5.29-5.68l.24-.77a10.73,10.73,0,0,0-.3-7.07,10.83,10.83,0,0,0,5.48-5.68,11,11,0,0,0,.24-7.8,10.66,10.66,0,0,0,5.54-5.42,10.92,10.92,0,0,0,.49-7.81,11.36,11.36,0,0,0,5.76-5.28,11.15,11.15,0,0,0,.67-7.82,10.73,10.73,0,0,0,6.76-12.84,11.37,11.37,0,0,0,6.07-4.93,11.16,11.16,0,0,0,1.1-7.74,10.7,10.7,0,0,0,6.12-4.74,10.82,10.82,0,0,0,1.41-7.73,11.29,11.29,0,0,0,6.31-4.65,11,11,0,0,0,1.55-7.55,11.48,11.48,0,0,0,6.46-4.47,11.05,11.05,0,0,0,1.75-7.52,10.85,10.85,0,0,0,6.52-4.24,11,11,0,0,0,2.05-7.54,11,11,0,0,0,8.86-11.54,11.18,11.18,0,0,0,6.76-3.89,11,11,0,0,0,2.46-7.35,11,11,0,0,0,9.51-11,11.11,11.11,0,0,0,7-3.53,10.94,10.94,0,0,0,2.73-7.21,10.47,10.47,0,0,0,7.14-3.31,11.15,11.15,0,0,0,3.14-7.09,11,11,0,0,0,7.07-3.12,11.1,11.1,0,0,0,3.32-7,10.77,10.77,0,0,0,7.12-2.91,11,11,0,0,0,3.57-6.93,11.07,11.07,0,0,0,11-9.51,11.08,11.08,0,0,0,11.24-9.23,10.74,10.74,0,0,0,7.39-2.29,10.91,10.91,0,0,0,4.13-6.6A11,11,0,0,0,965.87,624a11,11,0,0,0,12-8.24,11.14,11.14,0,0,0,7.52-1.63,11,11,0,0,0,4.64-6.21,11.25,11.25,0,0,0,12.44-7.5,11.26,11.26,0,0,0,7.62-1.24,11,11,0,0,0,5-5.94,11.07,11.07,0,0,0,7.63-1,10.94,10.94,0,0,0,5.17-5.76,11,11,0,0,0,7.72-.8,11.26,11.26,0,0,0,5.29-5.64,11.06,11.06,0,0,0,7.74-.58A11,11,0,0,0,1054,574a11.21,11.21,0,0,0,13.34-5.65,11.21,11.21,0,0,0,7.66-.15,10.84,10.84,0,0,0,5.78-5.19,11.12,11.12,0,0,0,7.86.11,11.23,11.23,0,0,0,5.88-5,11.08,11.08,0,0,0,13.79-4.51,11.25,11.25,0,0,0,7.69.51,10.91,10.91,0,0,0,6.19-4.66,11.27,11.27,0,0,0,7.78.76,11,11,0,0,0,6.25-4.47,11.51,11.51,0,0,0,7.7,1,11,11,0,0,0,6.52-4.26,11.24,11.24,0,0,0,7.63,1.19,11,11,0,0,0,6.6-4.1,10.76,10.76,0,0,0,7.64,1.44,11.24,11.24,0,0,0,6.65-3.92,11,11,0,0,0,14.37-2.13,11.06,11.06,0,0,0,14.44-1.66,11,11,0,0,0,6.49,2.12l1,0a11,11,0,0,0,7.06-3.38,12.2,12.2,0,0,0,7.31,2.34h0a10.91,10.91,0,0,0,7.1-3.17,11.55,11.55,0,0,0,7.3,2.52h0a11,11,0,0,0,7.25-2.9,11.64,11.64,0,0,0,14.53-.09,11.47,11.47,0,0,0,7.52,2.91,11,11,0,0,0,7-2.52,12.12,12.12,0,0,0,7.68,3.13,11.14,11.14,0,0,0,6.82-2.36,11.29,11.29,0,0,0,7,3.36l.84,0a11,11,0,0,0,6.55-2.16,11.11,11.11,0,0,0,14.5,1.61,11.15,11.15,0,0,0,14.38,2,11.12,11.12,0,0,0,14.29,2.41,11.1,11.1,0,0,0,6.58,4.08,10.93,10.93,0,0,0,7.67-1.25,11.08,11.08,0,0,0,6.5,4.26,11.28,11.28,0,0,0,7.72-1,11,11,0,0,0,14,3.67,10.91,10.91,0,0,0,6.2,4.62,11.31,11.31,0,0,0,7.71-.57,11.41,11.41,0,0,0,6.19,4.85,11.68,11.68,0,0,0,3.34.52,6.85,6.85,0,0,1,10.26,4.06,11.08,11.08,0,0,0,3.76.67,6.46,6.46,0,0,1,9.72,4.32,10.5,10.5,0,0,0,4.18.84,6.39,6.39,0,0,1,9.44,4.67,11.22,11.22,0,0,0,4.24.88,10.93,10.93,0,0,0,3.56-.63,10.91,10.91,0,0,0,10,6.53,11.27,11.27,0,0,0,3.3-.51,11,11,0,0,0,5.25,5.71,14.43,14.43,0,0,0,1.63.57l11.2,6a10.75,10.75,0,0,0,5.21,1.24,11.91,11.91,0,0,0,2.67-.34,10.86,10.86,0,0,0,10.32,7.44,11.09,11.09,0,0,0,2.24-.3,11,11,0,0,0,10.55,7.76,10.63,10.63,0,0,0,2-.26,11.47,11.47,0,0,0,4.72,6.39,11.7,11.7,0,0,0,5.87,1.69,10.52,10.52,0,0,0,1.71-.21,11,11,0,0,0,4.48,6.48,11.45,11.45,0,0,0,6.15,1.86,10.31,10.31,0,0,0,1.36-.17,10.93,10.93,0,0,0,10.75,8.67c.33,0,.66-.1,1-.12a11,11,0,0,0,10.83,9c.25,0,.49-.07.74-.08a10.94,10.94,0,0,0,10.85,9.25c.14,0,.27-.05.4-.05a10.87,10.87,0,0,0,3.67,6.81,11.07,11.07,0,0,0,7.27,2.73h0a10.78,10.78,0,0,0,3.44,6.85,11,11,0,0,0,7.31,2.95A11.09,11.09,0,0,0,1619,679a11.23,11.23,0,0,0,3,7.17,11.11,11.11,0,0,0,7,3.25,11.35,11.35,0,0,0,2.92,7.2,11,11,0,0,0,6.94,3.47,10.95,10.95,0,0,0,9.53,10.94,11.12,11.12,0,0,0,9.18,11.25,11.11,11.11,0,0,0,2.34,7.38,10.85,10.85,0,0,0,6.6,4.08,11,11,0,0,0,8.53,11.69,11.15,11.15,0,0,0,8.25,12,11.07,11.07,0,0,0,7.88,12.2,10.82,10.82,0,0,0,1.44,7.59,11.14,11.14,0,0,0,6.09,4.81,11.14,11.14,0,0,0,1.18,7.57l1.12,1.89h.31a10.83,10.83,0,0,0,4.56,3.1,11.42,11.42,0,0,0,1,7.76,11.3,11.3,0,0,0,5.8,5.09,10.91,10.91,0,0,0,.41,6.78l.38.93a11.1,11.1,0,0,0,5.65,5.26,10.93,10.93,0,0,0,.58,7.73,11.15,11.15,0,0,0,5.48,5.4,11,11,0,0,0,.39,7.81l4.78,10.86a10.8,10.8,0,0,0,.63,2.37,11.11,11.11,0,0,0,5.2,5.81,10.75,10.75,0,0,0-.06,7.74,11,11,0,0,0,5,5.95,11.25,11.25,0,0,0-.38,7.71,11,11,0,0,0,4.89,6.05,10.81,10.81,0,0,0,4.21,13.87,11.09,11.09,0,0,0-.88,7.82,11.2,11.2,0,0,0,4.5,6.29A11.11,11.11,0,0,0,1756.8,930a11,11,0,0,0-1.16,7.62,10.85,10.85,0,0,0,4.07,6.6,11,11,0,0,0,2.55,14.33,11.27,11.27,0,0,0-1.69,7.63,11.11,11.11,0,0,0,3.76,6.75,11.08,11.08,0,0,0,1.66,14.43,11,11,0,0,0,1.32,14.44,10.8,10.8,0,0,0-2.28,7.42,11.05,11.05,0,0,0,3.18,7.11,10.87,10.87,0,0,0,.44,14.58,12.31,12.31,0,0,0-2.75,8v.8a11.1,11.1,0,0,0,2.73,7.27,11,11,0,0,0-.42,14.56,11,11,0,0,0-.8,14.46,10.8,10.8,0,0,0-3.34,7,11.09,11.09,0,0,0,2.08,7.52,11.46,11.46,0,0,0-3.55,6.89,11,11,0,0,0,1.92,7.53,10.86,10.86,0,0,0-2,14.41,10.92,10.92,0,0,0-4,6.68,11.57,11.57,0,0,0-.06,3.32l-2.07,9.14a10.65,10.65,0,0,0-.49,1.72,7.72,7.72,0,0,0-.2,1.35l-2.9,12.76a11.31,11.31,0,0,0-.08,4.63v3.91a11,11,0,0,0-3.36,5.52,10.86,10.86,0,0,0,.94,7.76,11.25,11.25,0,0,0-4.83,6.18,11,11,0,0,0,.59,7.7,10.95,10.95,0,0,0-4.38,14,10.56,10.56,0,0,0-4.88,13.71,10.92,10.92,0,0,0-5.34,5.69,11.08,11.08,0,0,0,0,7.9,10.84,10.84,0,0,0-5.7,13.42,10.73,10.73,0,0,0-6.07,13.28,10.86,10.86,0,0,0-6.43,13,10.66,10.66,0,0,0-5.86,5l-.43.87v.06a10.89,10.89,0,0,0-.47,6.93,27.75,27.75,0,0,1-13.4,17.35,11,11,0,0,0-1.34,7.77,10.54,10.54,0,0,0-6.27,4.52,10.35,10.35,0,0,1-8.06,12,11,11,0,0,0-1.82,7.69,10.74,10.74,0,0,0-6.47,4.1,11.08,11.08,0,0,0-2.06,7.65,10.9,10.9,0,0,0-6.65,3.91,10.73,10.73,0,0,0-2.28,7.57,10.67,10.67,0,0,0-9.19,11.35,10.81,10.81,0,0,0-6.9,3.5,11.09,11.09,0,0,0-2.65,7.48,10.68,10.68,0,0,0-6.92,3.27,10.72,10.72,0,0,1-10,10.52,11.12,11.12,0,0,0-3,7.07,10.92,10.92,0,0,0-7.13,3.1,10.73,10.73,0,0,1-10.47,9.94,11.09,11.09,0,0,0-3.58,6.92,28.89,28.89,0,0,1-18.3,12,10.64,10.64,0,0,1-11.3,9,11.2,11.2,0,0,0-4.08,6.58,11.08,11.08,0,0,0-7.47,2.11,10.82,10.82,0,0,0-4.25,6.41,11.26,11.26,0,0,0-7.6,1.9,11.1,11.1,0,0,0-4.37,6.31,10.75,10.75,0,0,0-7.5,1.64,10.93,10.93,0,0,0-4.7,6.22,11.21,11.21,0,0,0-7.58,1.43,11,11,0,0,0-4.82,6.08,11.48,11.48,0,0,0-7.66,1.18,10.72,10.72,0,0,1-12.66,7,11,11,0,0,0-5.14,5.76,11.26,11.26,0,0,0-7.71.76,11,11,0,0,0-5.27,5.65,11.14,11.14,0,0,0-7.64.57,10.83,10.83,0,0,0-5.54,5.45,11.14,11.14,0,0,0-7.7.37,10.76,10.76,0,0,0-5.65,5.26,11.33,11.33,0,0,0-7.68.15,11,11,0,0,0-5.83,5.17,11.38,11.38,0,0,0-7.77-.1,11.09,11.09,0,0,0-5.89,5,11.39,11.39,0,0,0-7.7-.31,11,11,0,0,0-6.15,4.78,11.2,11.2,0,0,0-7.67-.51,11,11,0,0,0-6.23,4.66,11.31,11.31,0,0,0-7.65-.79,10.87,10.87,0,0,0-6.44,4.46,11.3,11.3,0,0,0-7.59-1,11,11,0,0,0-6.54,4.32,11.32,11.32,0,0,0-7.61-1.24,11,11,0,0,0-6.58,4.09,11.08,11.08,0,0,0-14.36,2.47,10.87,10.87,0,0,0-14.29,2.16Zm-581.64-467.2a0,0,0,0,1,0,0v0ZM1770.06,957.19s0,0,.06,0l-.06,0Zm5.35,44h0Z" transform="translate(-243.25 -256.14)"/><path class="cls-5" d="M1777,1039.62c0,285.68-231.59,517.26-517.25,517.26S742.47,1325.3,742.47,1039.62,974,522.36,1259.73,522.36,1777,754,1777,1039.62Z" transform="translate(-243.25 -256.14)"/><path class="cls-7" d="M1730.17,1039.62c0,259.82-210.62,470.46-470.44,470.46s-470.47-210.64-470.47-470.46,210.63-470.45,470.47-470.45S1730.17,779.8,1730.17,1039.62Z" transform="translate(-243.25 -256.14)"/><path class="cls-4" d="M1685.86,1039.62c0,235.36-190.78,426.15-426.13,426.15S833.56,1275,833.56,1039.62s190.81-426.15,426.17-426.15S1685.86,804.27,1685.86,1039.62Z" transform="translate(-243.25 -256.14)"/><circle class="cls-8" cx="1016.47" cy="783.49" r="356.71"/><path class="cls-5" d="M1604.62,1039.62c0,190.49-154.42,344.91-344.89,344.91s-344.92-154.42-344.92-344.91,154.41-344.9,344.92-344.9S1604.62,849.14,1604.62,1039.62Z" transform="translate(-243.25 -256.14)"/><ellipse class="cls-7" cx="1016.47" cy="783.49" rx="254.43" ry="254.44"/><ellipse class="cls-8" cx="1016.47" cy="783.49" rx="213.81" ry="213.82"/><path class="cls-7" d="M1408.91,1039.62a149.2,149.2,0,1,1-149.18-149.19A149.2,149.2,0,0,1,1408.91,1039.62Z" transform="translate(-243.25 -256.14)"/><ellipse class="cls-8" cx="1016.47" cy="783.49" rx="123.96" ry="123.97"/><ellipse class="cls-9" cx="1016.47" cy="783.49" rx="71.04" ry="71.03"/><path class="cls-10" d="M1265.87,990.44a55.35,55.35,0,1,1-55.34-55.36A55.34,55.34,0,0,1,1265.87,990.44Z" transform="translate(-243.25 -256.14)"/><path class="cls-10" d="M1225.31,912.29a92.94,92.94,0,1,1-92.93-92.94A92.94,92.94,0,0,1,1225.31,912.29Z" transform="translate(-243.25 -256.14)"/><path class="cls-11" d="M1788,1038.82c0-.32,0-.59,0-.83a11,11,0,0,0-3-7.46,11.1,11.1,0,0,0-.55-15,11,11,0,0,0,2.55-7.59,10.82,10.82,0,0,0-3.4-7.31,11.09,11.09,0,0,0-1.27-15,10.94,10.94,0,0,0-1.81-14.92,11,11,0,0,0,1.88-7.78,10.84,10.84,0,0,0-4-7,10.76,10.76,0,0,0,1.57-7.85,11,11,0,0,0-4.14-6.95,11.05,11.05,0,0,0-3-14.69,11,11,0,0,0,1.14-8,11.15,11.15,0,0,0-4.56-6.62,10.91,10.91,0,0,0-3.91-14.42,11.06,11.06,0,0,0-4.21-14.47,10.84,10.84,0,0,0,.46-8,11.22,11.22,0,0,0-5.19-6.21,10.93,10.93,0,0,0-5.07-14.12,11,11,0,0,0-5.46-13.95,10.9,10.9,0,0,0-5.82-13.75,11,11,0,0,0-6.27-13.56,10.76,10.76,0,0,0-.72-7.94,11,11,0,0,0-5.92-5.48,11.1,11.1,0,0,0-7-13.21,10.78,10.78,0,0,0-1.23-7.87,11,11,0,0,0-6.25-5.14,11.22,11.22,0,0,0-1.36-7.92,11,11,0,0,0-6.39-4.88,11.32,11.32,0,0,0-1.63-7.9,11,11,0,0,0-6.49-4.67,11.06,11.06,0,0,0-8.5-12.32,11,11,0,0,0-8.83-12.12,11.2,11.2,0,0,0-2.31-7.73,11.05,11.05,0,0,0-6.92-4.1A11.13,11.13,0,0,0,1661,700.4a11.11,11.11,0,0,0-9.83-11.32,11,11,0,0,0-3-7.5,11.25,11.25,0,0,0-7.19-3.52,11.06,11.06,0,0,0-3.14-7.4l-1.16-1.11h-.16a10.65,10.65,0,0,0-6.11-2,10.65,10.65,0,0,0-10.73-10.45,11.11,11.11,0,0,0-11-10.32h0a11.26,11.26,0,0,0-3.73-7.11,11,11,0,0,0-7.65-2.48,10.77,10.77,0,0,0-11.61-9.51,10.82,10.82,0,0,0-4.16-7,11,11,0,0,0-7.72-2.15,11.2,11.2,0,0,0-4.39-6.92,10.94,10.94,0,0,0-7.78-1.87,11.24,11.24,0,0,0-4.56-6.82,10.82,10.82,0,0,0-7.84-1.66,10.77,10.77,0,0,0-4.72-6.61,10.94,10.94,0,0,0-7.88-1.47,11.39,11.39,0,0,0-5-6.59,11.19,11.19,0,0,0-8-1.19,10.71,10.71,0,0,0-13.1-7.35,10.71,10.71,0,0,0-13.29-7,10.69,10.69,0,0,0-13.46-6.58,11.05,11.05,0,0,0-5.62-6,11.18,11.18,0,0,0-8.1-.29,10.85,10.85,0,0,0-13.83-5.86,10.82,10.82,0,0,0-14.09-5.45,32.55,32.55,0,0,1-20.4-10.17,11.28,11.28,0,0,0-8,.45,11.12,11.12,0,0,0-14.44-4.21,10.79,10.79,0,0,0-6.48-4.66,11.21,11.21,0,0,0-8,.95,10.88,10.88,0,0,0-14.61-3.36,11.21,11.21,0,0,0-6.8-4.35,11,11,0,0,0-7.91,1.38,11.05,11.05,0,0,0-6.93-4.14,11.2,11.2,0,0,0-7.86,1.63,11.35,11.35,0,0,0-7.1-4,11.17,11.17,0,0,0-7.74,1.89,11.12,11.12,0,0,0-14.92-1.66,11.32,11.32,0,0,0-7.32-3.57l-.81,0a11,11,0,0,0-6.92,2.42,11.86,11.86,0,0,0-7.84-3.36,11,11,0,0,0-7.07,2.55,11.55,11.55,0,0,0-7.8-3.13,10.71,10.71,0,0,0-5.52,1.7V1565a11.62,11.62,0,0,0,7.54,2.71h0a11.09,11.09,0,0,0,7.45-3.21,12.22,12.22,0,0,0,7.58,2.54h0a11,11,0,0,0,7.29-3.34,11.13,11.13,0,0,0,6.86,2.34l.87,0a11.06,11.06,0,0,0,7.21-3.54,10.5,10.5,0,0,0,7.86,2.06,11.17,11.17,0,0,0,7.15-3.9,11,11,0,0,0,6.19,2.07c.26,0,.55,0,1.57-.11a11.1,11.1,0,0,0,7-4,11.08,11.08,0,0,0,14.74-2.49,11.15,11.15,0,0,0,14.72-3,11.07,11.07,0,0,0,14.62-3.45,11,11,0,0,0,14.5-3.78,34.05,34.05,0,0,1,22.45-3.77,11.08,11.08,0,0,0,6.26-5.13,11.24,11.24,0,0,0,8,.24,11,11,0,0,0,6.07-5.3,11.2,11.2,0,0,0,8.08,0,10.9,10.9,0,0,0,5.84-5.4,34.27,34.27,0,0,1,21.79-6.34,11,11,0,0,0,5.64-5.74,11.6,11.6,0,0,0,2.69.42v1.56l5.33-2.66a11,11,0,0,0,5.4-5.94,11.38,11.38,0,0,0,8-.9,11,11,0,0,0,5.23-6.07,11.25,11.25,0,0,0,7.9-1.18,11,11,0,0,0,5.13-6.22,11.28,11.28,0,0,0,7.92-1.4,11.56,11.56,0,0,1,12.79-8,11,11,0,0,0,4.72-6.51,11.2,11.2,0,0,0,6.7-1.17l1.14-.64a11.51,11.51,0,0,1,12.28-8.7,11.49,11.49,0,0,1,12-9,11,11,0,0,0,4.17-6.93,11.37,11.37,0,0,0,7.68-2.46,11.55,11.55,0,0,1,11.52-9.74,11.11,11.11,0,0,0,3.71-7.1h0a11,11,0,0,0,7.49-2.91,10.84,10.84,0,0,0,3.56-7.23,10.7,10.7,0,0,0,7.36-3.09,11.72,11.72,0,0,1,10.76-10.7,11.47,11.47,0,0,1,10.31-11,11,11,0,0,0,2.89-7.58,10.76,10.76,0,0,0,7.19-3.69,11.25,11.25,0,0,1,9.71-11.51,11.09,11.09,0,0,0,2.46-7.72,11,11,0,0,0,9.17-11.86,10.69,10.69,0,0,0,6.79-4.27,11,11,0,0,0,2-7.88,10.88,10.88,0,0,0,6.7-4.5,11.13,11.13,0,0,0,1.77-7.81,10.95,10.95,0,0,0,8.14-12.64,10.8,10.8,0,0,0,6.44-4.89,11.15,11.15,0,0,0,1.36-8,10.79,10.79,0,0,0,6.29-5.09,11,11,0,0,0,1.08-8,10.86,10.86,0,0,0,6.13-5.18,11,11,0,0,0,.9-8.09,11.25,11.25,0,0,0,6-5.38,11,11,0,0,0,.59-8.11,11.2,11.2,0,0,0,5.88-5.51,10.92,10.92,0,0,0,.37-8.18,10.84,10.84,0,0,0,5.74-5.64l.29-.83a10.76,10.76,0,0,0-.15-7.36,11.15,11.15,0,0,0,5.58-5.88,11,11,0,0,0-.12-8.15,10.84,10.84,0,0,0,5.05-14.19,10.91,10.91,0,0,0,5.19-6.15,11.1,11.1,0,0,0-.47-8,10.22,10.22,0,0,0,1.67-1.47v8.09l7.27-27.48a11.16,11.16,0,0,0,.13-5.1v-3.75a10.9,10.9,0,0,0,3.51-5.84,11.11,11.11,0,0,0-1.19-8,11.06,11.06,0,0,0,3-14.73,10.94,10.94,0,0,0,2.42-14.78,11.39,11.39,0,0,0,4-6.7h.06l-.06,0c0-.06,0-.1,0-.16h.07l.09-.56-.12-.51a11.14,11.14,0,0,0-1.5-6.1l-.23-1a11,11,0,0,0,1.59-14.71,10.75,10.75,0,0,0,3.52-7.2,11,11,0,0,0-2.26-7.79,11.31,11.31,0,0,0,3.38-7.34,11,11,0,0,0-2.53-7.63,11,11,0,0,0,3.12-7.36,10.8,10.8,0,0,0-2.71-7.61,11,11,0,0,0,2.94-7.52C1788.06,1039.41,1788.06,1039.14,1788,1038.82Z" transform="translate(-243.25 -256.14)"/><polygon class="cls-11" points="1532.16 745.01 1532.18 745.02 1532.16 745.02 1532.16 745.01"/><path class="cls-8" d="M803.64,582.57a43.22,43.22,0,1,1-43.21-43.23A43.22,43.22,0,0,1,803.64,582.57Z" transform="translate(-243.25 -256.14)"/><rect class="cls-8" x="823.51" y="134.51" width="385.9" height="78.57" rx="38.38"/></g></g></svg>